<svg version="1.1"
	 id="svg3100" inkscape:version="0.91 r13725" sodipodi:docname="NBC_1986_Hop.svg" xmlns:cc="http://creativecommons.org/ns#" xmlns:dc="http://purl.org/dc/elements/1.1/" xmlns:inkscape="http://www.inkscape.org/namespaces/inkscape" xmlns:rdf="http://www.w3.org/1999/02/22-rdf-syntax-ns#" xmlns:sodipodi="http://sodipodi.sourceforge.net/DTD/sodipodi-0.dtd" xmlns:svg="http://www.w3.org/2000/svg"
	 xmlns="http://www.w3.org/2000/svg" xmlns:xlink="http://www.w3.org/1999/xlink" width="46.258"  x="0px" y="0px" viewBox="0 0 545.6 548.6"
	 style="enable-background:new 0 0 545.6 548.6;" xml:space="preserve">
<style type="text/css">
	.st0{fill:#FFFFFF;}
</style>
<g>
	<path id="path3115" inkscape:connector-curvature="0" class="st0" d="M64,88.8c-22.7,20.5-30.9,67,9.9,94.2l163,111.8l-79-181.1
		C141.4,71,96.1,61.7,64,88.8"/>
	<path id="path3117" inkscape:connector-curvature="0" class="st0" d="M204.3,0.8C177.8,1.3,138,32.8,155.7,81l81.7,192.8L266.2,71
		C272.9,20.7,234.7-2.6,204.3,0.8"/>
	<path id="path3119" inkscape:connector-curvature="0" class="st0" d="M279,63.3h15.5c0,0,8.3,0,9.4,3.9c-6.1,5-22.6,5.6-20.4,32.1
		l26,174.5l81.2-193.3c16.6-43.2-18.3-79.2-49.2-80.3C339.9,0.1,338.5,0,337,0C309.2,0,277.4,20.2,279,63.3"/>
	<path id="path3121" inkscape:connector-curvature="0" class="st0" d="M387.3,115.4l-76.8,178.9l162.9-112.4
		c37.6-26.6,31.5-69.2,10.5-90.3c-8.8-9.9-25-17.6-42.1-17.6C421.5,74,399.8,84.7,387.3,115.4"/>
	<path id="path3123" inkscape:connector-curvature="0" class="st0" d="M455.2,207.3l-153,106.9h188.4c38.7,0,63.5-39.9,52.5-76.4
		c-7.4-23-29.3-41-54.7-41.1C477.6,196.7,466.3,199.9,455.2,207.3"/>
	<path id="path3125" inkscape:connector-curvature="0" class="st0" d="M59.6,314.2h185.6L92.2,207.3c-35.4-22.7-75.1-9.4-89.5,28.3
		C-9.4,278.7,20.9,314.2,59.6,314.2"/>
	<path id="path3127" inkscape:connector-curvature="0" class="st0" d="M265.2,460.4h34.4c7.9,0.5,21.9,7.4,21.9,23.8
		c0,17.1-14.6,24-22.5,24.8h-33.9V460.4 M264.7,384.2H293c9.7,0.5,21.1,7.7,21.1,21c0,13-8.7,21.7-19.9,23.3h-29.6L264.7,384.2
		 M225.9,352.5v188.2h91.3c21.7,0,47.4-21.7,47.4-50.1c0-29.7-19.4-44.2-31.6-50.1c0,0,22.4-13,21.5-41.2c-1-37.9-36-46.8-48-46.8
		L225.9,352.5"/>
	<polygon id="polygon3129" class="st0" points="85.9,540.7 85.9,432.3 204.2,547.9 204.2,352.5 164.4,352.5 164.4,458.1 46.1,344.8 
		46.1,540.7 	"/>
	<path id="path3131" inkscape:connector-curvature="0" class="st0" d="M371.1,444.6c1,59.5,43.8,104,98.7,104
		c13,0,26.8-2.5,40.8-7.9v-38.3c-11.1,6.8-23.5,10.1-35.6,10.1c-33.3,0-64.7-24.6-63.4-69.4c2.2-36.3,32-61.4,64-61.4
		c11.7,0,23.8,3.4,35,10.8v-37.3c-13-5.3-25.9-7.6-38.4-7.6C417.4,347.4,372.1,393.7,371.1,444.6"/>
</g>
</svg>
