 
<svg version="1.1" id="layer" xmlns="http://www.w3.org/2000/svg" xmlns:xlink="http://www.w3.org/1999/xlink" x="0px" y="0px"
	 viewBox="0 0 600 145" style="enable-background:new 0 0 600 145;" width="115" xml:space="preserve">
<style type="text/css">
	.st0{fill:#FFFFFF;}
</style>
<path class="st0" d="M0,103.3h16.3V2.8H0v-2h33.1l27.2,79.1h0.3L87.8,0.8h32.5v2.1H104v100.5h16.3v2.1H73v-2.1h16.3V3.7H89
	L53.8,105.5L18.9,4.8h-0.3v98.6h16.3v2.1H0V103.3z"/>
<path class="st0" d="M116.3,52.9c0-7.5,1.6-14.5,4.6-20.9s7-12,11.9-16.8c4.8-4.7,10.3-8.5,16.4-11.2c6-2.7,12.2-4,18.2-4
	c6.4,0,12.7,1.3,18.9,4c6.1,2.7,11.6,6.4,16.4,11.2s8.6,10.3,11.6,16.8c2.9,6.4,4.3,13.4,4.3,20.9c0,6.5-1.3,13-4,19.5
	c-2.7,6.3-6.2,12-10.9,16.9c-4.6,4.9-10,8.9-16.2,11.9c-6.2,3.1-12.9,4.5-20.1,4.5c-7.3,0-14.1-1.4-20.5-4.3
	c-6.2-3-11.7-6.8-16.2-11.7c-4.5-4.8-8.1-10.5-10.7-16.9C117.6,66.3,116.3,59.7,116.3,52.9z M133.3,52.9c0,8.5,0.6,15.9,1.8,22.1
	s3.2,11.7,5.8,15.9c2.8,4.2,6.2,7.4,10.6,9.5c4.3,2.1,9.7,3.2,16,3.2c6.2,0,11.6-1.1,15.9-3.2c4.3-2.1,7.9-5.2,10.7-9.5
	c2.8-4.2,4.7-9.5,5.8-15.9c1.2-6.3,1.8-13.7,1.8-22.1c0-6.5-0.4-12.8-1.3-19c-0.9-6.1-2.6-11.6-5-16.3s-5.9-8.6-10.5-11.5
	c-4.4-2.9-10.3-4.2-17.4-4.2s-12.9,1.4-17.4,4.2s-7.9,6.6-10.5,11.5c-2.5,4.7-4.2,10.2-5,16.3C133.7,40.2,133.3,46.4,133.3,52.9z"/>
<path class="st0" d="M215.3,103.3h16.3V2.8h-16.3v-2h27.4c1.4,0,2.8,0,4.2-0.1c1.4-0.1,2.8-0.2,4.2-0.3c1.4,0,2.8,0,4.2-0.1
	c1.4,0,2.8-0.1,4.2-0.1c3,0,5.5,0.1,7.9,0.1c2.3,0.1,4.4,0.3,6.4,0.5s4,0.6,5.7,1c1.8,0.4,3.8,1,5.8,1.7c5.9,2,11.2,4.5,15.5,7.9
	c4.3,3.3,7.9,7.1,10.8,11.4c2.8,4.3,4.8,9,6.1,14.1c1.3,5.1,2,10.5,2,16c0,6.4-0.8,12.3-2.4,17.4s-3.8,9.7-6.4,13.6
	c-2.8,4-5.9,7.4-9.6,10.3s-7.6,5.2-11.9,7c-2.4,1.1-4.5,1.9-6.7,2.5c-2.1,0.6-4.2,1-6.4,1.3c-2.2,0.3-4.6,0.5-7.3,0.6
	c-2.7,0.1-5.6,0.1-9.1,0.1c-1.5,0-3.1,0-4.7-0.1c-1.7-0.1-3.4-0.1-5-0.2c-1.7-0.1-3.3-0.2-4.9-0.2c-1.6-0.1-3.2-0.1-4.6-0.1h-25.4
	V103.3z M246.3,103.3c1.7,0.2,3.6,0.3,5.8,0.4c2.2,0.1,4.6,0.1,7.3,0.1c3.4,0,6.6-0.2,9.9-0.5s6.4-1.1,9.4-2.2s5.7-2.8,8.4-4.8
	c2.6-2.1,4.9-4.8,7-8.3c3.2-5.3,5.3-10.7,6.5-16.2s1.9-11.6,1.9-18.2c0-7.7-0.7-14.7-2.2-21.1c-1.5-6.3-3.9-11.8-7.3-16.2
	c-3.4-4.4-7.8-7.9-13.4-10.4c-5.5-2.5-12.5-3.7-20.7-3.7c-2.5,0-4.6,0-6.7,0.1c-2,0.1-4,0.2-5.8,0.3L246.3,103.3L246.3,103.3z"/>
<path class="st0" d="M319.9,103.3h16.3V2.8h-16.3v-2H404v25.4h-1.6c-1.3-3.9-2.7-7.2-4.2-10.1s-3.3-5.3-5.3-7.3
	c-2.1-2-4.5-3.5-7.3-4.4c-2.9-1-6.2-1.5-10.3-1.5h-24.4v45.4h9.6c3.3,0,5.9-0.3,8.2-0.9c2.3-0.6,4.2-1.7,5.8-3.3
	c1.6-1.6,3-3.9,4.2-6.6c1.1-2.8,2.3-6.4,3.3-10.8h1.6v45.7H382c-0.7-2.9-1.4-5.5-2.2-8.2c-0.7-2.7-1.8-4.9-3.1-7
	c-1.3-2.1-3.1-3.7-5.3-4.9c-2.2-1.2-5-1.9-8.6-1.9h-11.9v53h27.8c5.4,0,9.9-1.2,13.4-3.5c3.6-2.3,6.5-5,8.8-8.2s4-6.5,5-9.9
	c1.1-3.5,1.8-6.2,2.1-8.5h1.6v32.2H320L319.9,103.3L319.9,103.3z"/>
<path class="st0" d="M510.2,105.4c-3.5,0-6.8,0.5-9.7,0.5c-4,0-7.2-0.5-9.8-1.5c-2.6-1-4.6-2.5-6.2-4.3c-1.6-1.9-2.4-3.8-3.1-6.5
	c-0.7-2.8-1.3-6-1.6-9.8l-1-13.3c-0.4-4.9-1.4-8.7-3-11.5s-3.4-4.7-5.5-6s-4.2-2.1-6.5-2.3c-2.3-0.2-4.2-0.4-5.8-0.4h-14.7v53h16.3
	v2.1h-47.3v-2.2h16.3V2.8h-16.3v-2h28c1.2,0,2.4,0,3.6-0.1s2.4-0.2,3.6-0.3c1.2,0,2.4,0,3.6-0.1c1.2,0,2.4-0.1,3.6-0.1
	c5.8,0,10.9,0.3,15.3,1c4.4,0.6,8.5,2.5,12.4,5.5c3.5,2.7,5.8,5.6,7.3,9c1.4,3.4,2.2,6.4,2.2,9.4c0,1.5-0.3,3.4-0.8,5.6
	s-1.7,4.6-3.6,7c-1.8,2.4-4.4,4.6-7.9,6.6s-8,3.4-13.6,4.1v0.3c1.6,0.2,3.7,0.6,6.4,1.1c2.7,0.5,5.4,1.5,8.2,2.8s5.3,3,7.7,5
	c2.4,2.1,4.1,4.8,5,8.2c0.6,2,1,4.2,1.3,6.7c0.2,2.5,0.4,5,0.6,7.7c0.1,2.7,0.3,5.2,0.4,7.6c0.1,2.5,0.4,4.5,0.8,6.1
	c0.6,2.6,1.2,4.3,2.5,6.4s4.2,2.9,6.9,2.9c1.3,0,2.6,0,4.1,0h1.8v2.1L510.2,105.4L510.2,105.4z M443.3,48.3h13.5
	c2.8,0,5.2-0.3,7.5-1s4.2-1.9,5.8-3.6c1.6-1.7,2.9-4.1,3.8-7c0.9-3,1.3-6.6,1.3-11.2c0-5.1-0.7-9.2-2-12.3s-3.1-5.4-5.1-7
	c-2.1-1.6-4.4-2.6-7-3.1s-5.1-0.7-7.7-0.7c-1.8,0-3.6,0-5.3,0.1c-1.8,0-3.4,0.2-4.6,0.4L443.3,48.3L443.3,48.3z"/>
<path class="st0" d="M510.3,103.3h6V2.8H500v-2h31.4l49.7,80.1l0.3,0.1V2.9h-16.3V0.8H600v2.1h-16.3v104.7h-3L518.8,9h-0.3v94.5
	h16.3v2.1h-23.9L510.3,103.3z"/>
<path class="st0" d="M412.8,134.6h0.5c0.4,1.8,0.8,3.3,1.4,4.4s1.2,2.2,1.9,3s1.4,1.4,2.2,1.8c0.8,0.4,1.5,0.7,2.3,0.9
	c0.8,0.2,1.5,0.3,2.2,0.3s1.4,0,2,0c1.7,0,3.2-0.3,4.2-0.8c1.1-0.5,2-1.2,2.7-2s1.1-1.7,1.4-2.6s0.4-1.8,0.4-2.6
	c0-1.1-0.2-2.1-0.6-3c-0.4-0.8-1-1.5-1.6-2.1c-0.7-0.6-1.4-1-2.1-1.4c-0.8-0.4-1.5-0.6-2.2-0.8l-5.6-1.7c-2.7-0.8-4.6-1.9-5.9-3.2
	c-1.4-1.3-2-3.1-2-5.3c0-1.5,0.3-2.8,0.8-4.1c0.5-1.3,1.3-2.4,2.2-3.3c1-0.9,2.1-1.6,3.4-2.2c1.3-0.5,2.8-0.8,4.3-0.8
	c1.1,0,2.1,0.1,2.9,0.3c0.8,0.2,1.4,0.4,2,0.7c0.6,0.2,1.1,0.5,1.5,0.7s0.9,0.3,1.4,0.3c0.4,0,0.7-0.1,0.9-0.2
	c0.1-0.1,0.4-0.4,0.6-0.9h0.7v8.8h-0.6c-0.2-1.2-0.5-2.3-1-3.4s-1.1-2.1-1.8-2.9c-0.8-0.8-1.7-1.5-2.7-2c-1.1-0.5-2.3-0.8-3.7-0.8
	c-0.8,0-1.7,0.1-2.6,0.3c-1,0.2-1.8,0.6-2.7,1.1c-0.8,0.5-1.5,1.2-2,2.1s-0.8,1.9-0.8,3.2c0,1.1,0.2,1.9,0.6,2.7
	c0.4,0.7,1,1.4,1.6,1.9c0.7,0.5,1.4,0.9,2.3,1.3c0.8,0.3,1.7,0.6,2.5,0.9l5.9,1.9c0.6,0.2,1.4,0.5,2.4,0.8s1.9,0.8,2.8,1.5
	s1.7,1.5,2.3,2.6c0.6,1.1,1,2.5,1,4.1c0,1.5-0.3,3-0.9,4.3c-0.6,1.4-1.4,2.6-2.5,3.7s-2.4,1.9-3.9,2.6c-1.5,0.6-3.3,1-5.1,1
	c-0.7,0-1.3,0-1.8,0s-1-0.1-1.5-0.1c-0.5-0.1-0.9-0.1-1.4-0.2s-1-0.2-1.5-0.4c-0.7-0.2-1.4-0.4-2.1-0.7c-0.8-0.3-1.4-0.4-2-0.4
	c-0.5,0-0.8,0.1-1,0.3c-0.2,0.2-0.3,0.5-0.5,0.8h-0.7v-10.5h-0.5V134.6z"/>
<path class="st0" d="M435.4,144.3h4.2l13.1-34.8h1.2l13.2,34.8h1.6v0.7h-12.2v-0.7h5.4l-5.1-13.5h-11.4l-5.1,13.5h5.4v0.7h-10.5
	L435.4,144.3L435.4,144.3z M451.2,116l-5.3,14.1h10.7L451.2,116z"/>
<path class="st0" d="M469.3,144.3h5.4v-33.2h-5.4v-0.7h15.6v0.7h-5.4v33.2h8.6c2.9,0,5-0.9,6.7-2.7c1.6-1.8,2.8-4.2,3.6-7.3h0.5V145
	h-29.6L469.3,144.3L469.3,144.3z"/>
<path class="st0" d="M500.7,127.6c0-2.6,0.5-4.9,1.5-7.2c1-2.2,2.4-4.2,4-5.7c1.6-1.6,3.4-2.9,5.4-3.9c2-0.9,4.1-1.4,6-1.4
	c2.2,0,4.2,0.5,6.2,1.4s3.9,2.2,5.4,3.9c1.6,1.6,2.9,3.6,3.9,5.7c1,2.2,1.4,4.6,1.4,7.2c0,2.3-0.4,4.4-1.3,6.6
	c-0.9,2.2-2.1,4.1-3.6,5.8c-1.5,1.7-3.3,3.1-5.3,4.1c-2.1,1-4.2,1.6-6.6,1.6c-2.5,0-4.6-0.5-6.7-1.5c-2.1-1-3.9-2.4-5.3-4.1
	c-1.5-1.7-2.7-3.6-3.6-5.7C501.2,132.3,500.7,130,500.7,127.6z M506.4,127.6c0,3,0.2,5.4,0.6,7.6c0.4,2.2,1,4,2,5.4
	c0.9,1.5,2.1,2.6,3.5,3.3c1.4,0.7,3.2,1.1,5.3,1.1s3.9-0.4,5.2-1.1c1.5-0.7,2.6-1.8,3.6-3.3c0.9-1.5,1.6-3.3,2-5.4
	c0.4-2.2,0.6-4.7,0.6-7.6c0-2.3-0.1-4.3-0.4-6.5c-0.3-2.1-0.9-4-1.7-5.6s-2-3-3.5-4s-3.4-1.5-5.7-1.5c-2.4,0-4.2,0.5-5.7,1.5
	s-2.7,2.3-3.5,4s-1.4,3.5-1.7,5.6C506.5,123.3,506.4,125.5,506.4,127.6z"/>
<path class="st0" d="M534,144.3h5.4v-33.2H534v-0.7h10.4l16.4,26.5h0.1v-25.8h-5.4v-0.7H567v0.7h-5.4v34.6h-1l-20.5-32.6H540v31.2
	h5.4v0.7h-11.5L534,144.3L534,144.3z"/>
</svg>
