<svg xmlns="http://www.w3.org/2000/svg" width="36.14" height="34.371" viewBox="0 0 36.14 34.371">
  <g id="halfstar" transform="translate(1174.07 7891)">
    <g id="Star" transform="translate(-1175 -7891)" fill="none" stroke-miterlimit="10">
      <path d="M19,28.5,7.832,34.371,9.965,21.936.93,13.129l12.486-1.814L19,0l5.584,11.314L37.07,13.129l-9.035,8.807,2.133,12.436Z" stroke="none"/>
      <path d="M 28.83978843688965 32.54330825805664 L 27.04943084716797 22.10470199584961 L 26.9605598449707 21.5865421295166 L 27.3370304107666 21.21957206726074 L 34.92110443115234 13.82692337036133 L 24.44016075134277 12.30395126342773 L 23.91988945007324 12.22835159301758 L 23.68721961975098 11.756911277771 L 19 2.259565114974976 L 14.31278038024902 11.756911277771 L 14.08010959625244 12.22835159301758 L 13.55984020233154 12.30395126342773 L 3.078895092010498 13.82692337036133 L 10.6629695892334 21.21957206726074 L 11.0394401550293 21.5865421295166 L 10.95057010650635 22.10470199584961 L 9.160210609436035 32.54330825805664 L 18.53466033935547 27.61487197875977 L 19 27.3702220916748 L 19.46533966064453 27.61487197875977 L 28.83978843688965 32.54330825805664 M 30.16791915893555 34.37132263183594 L 19 28.50000190734863 L 7.832079887390137 34.37132263183594 L 9.964960098266602 21.93566131591797 L 0.9299299716949463 13.12868118286133 L 13.41604042053223 11.31434154510498 L 19 1.315917984356929e-06 L 24.58395957946777 11.31434154510498 L 37.070068359375 13.12868118286133 L 28.0350399017334 21.93566131591797 L 30.16791915893555 34.37132263183594 Z" stroke="none" fill="#f62009"/>
    </g>
    <g id="Star-2" data-name="Star" transform="translate(-1174.07 -7891)" fill="#f62009" stroke-miterlimit="10">
      <path d="M 7.56621789932251 33.45731353759766 L 9.527836799621582 22.02018165588379 L 9.572277069091797 21.76110076904297 L 9.384047508239746 21.57762145996094 L 1.074475884437561 13.47779846191406 L 12.55801677703857 11.80914115905762 L 12.81814670562744 11.77134132385254 L 12.93448734283447 11.53562164306641 L 17.57007789611816 2.142889022827148 L 17.57007789611816 28.19797515869141 L 7.56621789932251 33.45731353759766 Z" stroke="none"/>
      <path d="M 8.230287551879883 32.54330825805664 L 17.07007789611816 27.89595794677734 L 17.07007789611816 4.285786628723145 L 13.38285732269287 11.756911277771 L 13.15018749237061 12.22835159301758 L 12.62991714477539 12.30395126342773 L 2.148963928222656 13.82692337036133 L 9.733047485351563 21.21957206726074 L 10.10951709747314 21.5865421295166 L 10.0206470489502 22.10470199584961 L 8.230287551879883 32.54330825805664 M 6.902156829833984 34.37132263183594 L 9.035037040710449 21.93566131591797 L -2.959289531645481e-06 13.12868118286133 L 12.48611736297607 11.31434154510498 L 18.07007789611816 1.315917984356929e-06 L 18.07007789611816 28.50000190734863 L 6.902156829833984 34.37132263183594 Z" stroke="none" fill="#f62009"/>
    </g>
  </g>
</svg>
