<svg id="instagram" xmlns="http://www.w3.org/2000/svg" width="20" height="20" viewBox="0 0 20 20">
  <path id="Shape" d="M17.556,20H2.443A2.446,2.446,0,0,1,0,17.556V2.443A2.446,2.446,0,0,1,2.443,0H17.556A2.446,2.446,0,0,1,20,2.443V17.556A2.446,2.446,0,0,1,17.556,20ZM10,3.164c-1.866,0-2.086.007-2.818.04a5.071,5.071,0,0,0-1.66.318,3.492,3.492,0,0,0-2,2A5.071,5.071,0,0,0,3.2,7.182c-.033.732-.04.952-.04,2.818s.007,2.087.04,2.819a5.069,5.069,0,0,0,.318,1.659,3.492,3.492,0,0,0,2,2,5.047,5.047,0,0,0,1.66.318c.733.033.977.041,2.818.041s2.085-.008,2.819-.041a5.045,5.045,0,0,0,1.659-.318,3.492,3.492,0,0,0,2-2,5.045,5.045,0,0,0,.318-1.659c.033-.733.041-.977.041-2.819s-.008-2.085-.041-2.818a5.047,5.047,0,0,0-.318-1.66,3.492,3.492,0,0,0-2-2A5.069,5.069,0,0,0,12.819,3.2C12.087,3.171,11.867,3.164,10,3.164ZM10,15.6c-1.818,0-2.035-.007-2.762-.04a3.776,3.776,0,0,1-1.269-.236,2.261,2.261,0,0,1-1.3-1.3,3.793,3.793,0,0,1-.236-1.27C4.4,12.035,4.4,11.818,4.4,10s.007-2.035.04-2.762a3.776,3.776,0,0,1,.236-1.269,2.26,2.26,0,0,1,1.3-1.3,3.776,3.776,0,0,1,1.269-.236C7.965,4.4,8.182,4.4,10,4.4s2.035.007,2.762.04a3.793,3.793,0,0,1,1.27.236,2.261,2.261,0,0,1,1.3,1.3,3.776,3.776,0,0,1,.236,1.269c.033.727.04.944.04,2.762s-.007,2.035-.04,2.762a3.793,3.793,0,0,1-.236,1.27,2.263,2.263,0,0,1-1.3,1.3,3.793,3.793,0,0,1-1.27.236C12.036,15.6,11.819,15.6,10,15.6ZM10,6.49A3.51,3.51,0,1,0,13.511,10,3.514,3.514,0,0,0,10,6.49Zm3.649-.959a.82.82,0,1,0,.82.821A.822.822,0,0,0,13.649,5.53ZM10,12.279A2.279,2.279,0,1,1,12.279,10,2.281,2.281,0,0,1,10,12.279Z" fill="#fff"/>
</svg>
