<svg id="messenger" xmlns="http://www.w3.org/2000/svg" width="20" height="20" viewBox="0 0 20 20">
  <path id="Shape" d="M4.266,20a.8.8,0,0,1-.8-.776L3.41,17.445a.8.8,0,0,0-.269-.569A9.48,9.48,0,0,1,0,9.7,9.637,9.637,0,0,1,10,0,9.637,9.637,0,0,1,20,9.7a9.637,9.637,0,0,1-10,9.7,10.869,10.869,0,0,1-2.9-.384.809.809,0,0,0-.21-.028.791.791,0,0,0-.323.068l-1.984.876A.8.8,0,0,1,4.266,20ZM8.205,7.177a1.5,1.5,0,0,0-1.272.7L4,12.537a.457.457,0,0,0-.02.476.492.492,0,0,0,.422.256.472.472,0,0,0,.287-.1l3.156-2.4a.6.6,0,0,1,.723,0L10.9,12.524a1.5,1.5,0,0,0,2.169-.4L16,7.465a.456.456,0,0,0,.02-.476.492.492,0,0,0-.423-.257.471.471,0,0,0-.286.1L12.161,9.228a.6.6,0,0,1-.722,0L9.1,7.477A1.484,1.484,0,0,0,8.205,7.177Z" fill="#fff"/>
</svg>
