<svg id="Pinterest-black" xmlns="http://www.w3.org/2000/svg" width="20" height="20" viewBox="0 0 20 20">
  <path id="Path" d="M17.556,0A2.445,2.445,0,0,1,20,2.444V17.556A2.445,2.445,0,0,1,17.556,20H7.392a11.17,11.17,0,0,0,1.176-2.549c.13-.5.667-2.545.667-2.545a2.865,2.865,0,0,0,2.453,1.229c3.229,0,5.555-2.969,5.555-6.658a6.282,6.282,0,0,0-6.6-6.182c-4.619,0-7.073,3.1-7.073,6.478,0,1.57.836,3.525,2.173,4.147.2.094.311.053.358-.143.036-.149.216-.876.3-1.214a.32.32,0,0,0-.074-.307,4.163,4.163,0,0,1-.8-2.443,4.633,4.633,0,0,1,4.834-4.645,4.226,4.226,0,0,1,4.471,4.355c0,2.9-1.462,4.9-3.365,4.9a1.554,1.554,0,0,1-1.585-1.934,21.555,21.555,0,0,0,.887-3.564A1.345,1.345,0,0,0,9.414,7.417c-1.074,0-1.937,1.111-1.937,2.6a3.864,3.864,0,0,0,.32,1.589s-1.061,4.485-1.255,5.321A10.279,10.279,0,0,0,6.505,20H2.444A2.445,2.445,0,0,1,0,17.556V2.444A2.445,2.445,0,0,1,2.444,0Z" fill="#1a1a1a"/>
</svg>
