<svg id="twitter" xmlns="http://www.w3.org/2000/svg" width="20" height="20" viewBox="0 0 20 20">
  <path id="Shape" d="M17.556,20H2.443A2.446,2.446,0,0,1,0,17.556V2.443A2.446,2.446,0,0,1,2.443,0H17.556A2.446,2.446,0,0,1,20,2.443V17.556A2.446,2.446,0,0,1,17.556,20ZM3.226,15.279h0a8.039,8.039,0,0,0,4.411,1.3A8.134,8.134,0,0,0,15.851,8.37c0-.123,0-.251-.005-.371a5.91,5.91,0,0,0,1.443-1.5,5.831,5.831,0,0,1-1.659.454,2.884,2.884,0,0,0,1.269-1.6,5.843,5.843,0,0,1-1.831.7,2.852,2.852,0,0,0-2.107-.91,2.889,2.889,0,0,0-2.886,2.885,2.634,2.634,0,0,0,.078.658A8.22,8.22,0,0,1,4.2,5.676a2.9,2.9,0,0,0-.389,1.449A2.869,2.869,0,0,0,5.1,9.526a2.816,2.816,0,0,1-1.305-.359V9.2a2.9,2.9,0,0,0,2.317,2.831,2.874,2.874,0,0,1-.761.1,2.731,2.731,0,0,1-.544-.054A2.881,2.881,0,0,0,7.5,14.088a5.766,5.766,0,0,1-3.586,1.233A5.141,5.141,0,0,1,3.226,15.279Z" transform="translate(0)" fill="#fff"/>
</svg>
