<svg id="youtube" xmlns="http://www.w3.org/2000/svg" width="20" height="20" viewBox="0 0 20 20">
  <path id="Shape" d="M17.556,20H2.443A2.446,2.446,0,0,1,0,17.556V2.443A2.446,2.446,0,0,1,2.443,0H17.556A2.446,2.446,0,0,1,20,2.443V17.556A2.446,2.446,0,0,1,17.556,20ZM10,5.323a42.257,42.257,0,0,0-5.495.293A1.763,1.763,0,0,0,3.262,6.861a18.427,18.427,0,0,0-.293,3.385,18.432,18.432,0,0,0,.293,3.385,1.762,1.762,0,0,0,1.243,1.243A42.257,42.257,0,0,0,10,15.167a42.257,42.257,0,0,0,5.495-.293,1.76,1.76,0,0,0,1.243-1.243,18.377,18.377,0,0,0,.294-3.385,18.372,18.372,0,0,0-.294-3.385,1.76,1.76,0,0,0-1.243-1.244A42.257,42.257,0,0,0,10,5.323ZM8.594,12.355V8.136l3.653,2.11L8.6,12.354Z" fill="#fff"/>
</svg>
