<?xml version="1.0" standalone="no"?>
<!DOCTYPE svg PUBLIC "-//W3C//DTD SVG 1.1//EN" "http://www.w3.org/Graphics/SVG/1.1/DTD/svg11.dtd" >
<svg xmlns="http://www.w3.org/2000/svg" xmlns:xlink="http://www.w3.org/1999/xlink" version="1.1">
<metadata>
Created by FontForge 20170731 at Tue Mar 20 16:44:00 2018
 By Aleksey,,,
Hamlin is a trademark of Fontastica.
</metadata>
<defs>
<font id="Hamlin-Bold" horiz-adv-x="605" >
  <font-face 
    font-family="Hamlin"
    font-weight="700"
    font-stretch="normal"
    units-per-em="1000"
    panose-1="0 0 0 0 0 0 0 0 0 0"
    ascent="758"
    descent="-242"
    x-height="509"
    cap-height="700"
    bbox="-50 -388 1222 1208"
    underline-thickness="50"
    underline-position="-200"
    unicode-range="U+000D-FB03"
  />
<missing-glyph horiz-adv-x="253" 
 />
    <glyph glyph-name=".notdef" horiz-adv-x="253" 
 />
    <glyph glyph-name=".null" horiz-adv-x="0" 
 />
    <glyph glyph-name="nonmarkingreturn" horiz-adv-x="333" 
 />
    <glyph glyph-name="CR" unicode="&#xd;" horiz-adv-x="253" 
 />
    <glyph glyph-name="space" unicode=" " horiz-adv-x="253" 
 />
    <glyph glyph-name="exclam" unicode="!" horiz-adv-x="340" 
d="M209 228h-78l-8 472h94zM170 -11q-24 0 -40.5 19t-16.5 46t16.5 46.5t40.5 19.5t41 -19.5t17 -46.5t-17 -46t-41 -19z" />
    <glyph glyph-name="quotedbl" unicode="&#x22;" horiz-adv-x="372" 
d="M127 443h-63v257h87zM292 443h-63v257h86z" />
    <glyph glyph-name="numbersign" unicode="#" horiz-adv-x="831" 
d="M610 442l-47 -180h178v-77h-197l-48 -185h-80l47 185h-179l-46 -184h-79l46 184h-165v77h185l47 180h-173v77h193l45 181h81l-47 -181h178l46 181h80l-46 -181h172v-77h-191zM353 442l-48 -180h179l45 180h-176z" />
    <glyph glyph-name="dollar" unicode="$" horiz-adv-x="615" 
d="M337 -12v-79h-65v80q-124 8 -241 88l49 76q47 -33 104 -55q49 -18 88 -21v237q-96 14 -156 52q-67 42 -67 133q0 80 61.5 142.5t161.5 69.5v73h65v-73q94 -5 229 -86l-47 -75q-104 67 -182 73v-228q101 -16 163 -53q69 -43 69 -143q0 -86 -62.5 -146t-169.5 -65zM272 622
q-64 -6 -96 -41q-33 -36 -33 -81q0 -44 38 -64q40 -23 91 -31v217zM337 304v-227q55 6 96 31q42 27 42 88q0 43 -31 67.5t-107 40.5z" />
    <glyph glyph-name="percent" unicode="%" horiz-adv-x="863" 
d="M211 345q-80 0 -126.5 49t-46.5 135t46.5 135t126.5 49t126.5 -49t46.5 -135t-46.5 -135t-126.5 -49zM230 0h-92l496 700h90zM211 646q-46 0 -72 -31t-26 -86t26 -86t72 -31q45 0 71 31t26 86t-26 86t-71 31zM651 -2q-80 0 -126 49t-46 135t46 135t126 49q81 0 127.5 -49
t46.5 -135t-46.5 -135t-127.5 -49zM651 299q-45 0 -70.5 -31t-25.5 -86t25.5 -86t70.5 -31q47 0 73 30.5t26 86.5t-26 86.5t-73 30.5z" />
    <glyph glyph-name="ampersand" unicode="&#x26;" horiz-adv-x="756" 
d="M586 0l-101 126l-62 -70q-66 -69 -157 -69q-99 0 -159 56.5t-60 146.5q0 80 59 124q52 38 130 63q-53 55 -75 91.5t-22 79.5q0 65 53.5 115t140.5 50q89 0 147.5 -50t58.5 -115q0 -76 -54 -127q-47 -45 -101 -71l104 -100l79 80l64 -54l-82 -87l160 -189h-123zM333 630
q-46 0 -73.5 -25t-27.5 -67q0 -50 89 -129q46 15 85 51q40 37 40 78q0 39 -32 65.5t-81 26.5zM303 314q-70 -22 -113 -49q-45 -29 -45 -73q0 -56 34.5 -87.5t95.5 -31.5q34 0 60 17q30 19 43 35q22 24 51 62z" />
    <glyph glyph-name="quotesingle" unicode="'" horiz-adv-x="191" 
d="M112 443h-52v257h71z" />
    <glyph glyph-name="parenleft" unicode="(" horiz-adv-x="388" 
d="M303 -142q-267 143 -267 430q0 286 268 430l44 -80q-222 -110 -222 -350q0 -116 56 -206t166 -145z" />
    <glyph glyph-name="parenright" unicode=")" horiz-adv-x="388" 
d="M108 -140l-44 79q223 108 223 349t-223 349l44 81q269 -144 269 -430q0 -289 -269 -428z" />
    <glyph glyph-name="asterisk" unicode="*" horiz-adv-x="437" 
d="M375 396l-124 66l5 -141h-72l3 141l-124 -67l-29 63l115 56l-116 53l34 64l120 -64l-5 135h75l-6 -133l118 66l35 -65l-113 -55l119 -56z" />
    <glyph glyph-name="plus" unicode="+" horiz-adv-x="492" 
d="M286 267v-158h-79v158h-157v79h157v156h79v-156h156v-79h-156z" />
    <glyph glyph-name="comma" unicode="," horiz-adv-x="268" 
d="M74 -169l-27 48q68 47 79 104q-23 2 -38.5 20.5t-15.5 43.5q0 26 17.5 45t42.5 19q28 0 45 -21.5t17 -57.5q0 -130 -120 -201z" />
    <glyph glyph-name="hyphen" unicode="-" horiz-adv-x="429" 
d="M61 254v61h307v-61h-307z" />
    <glyph glyph-name="period" unicode="." horiz-adv-x="266" 
d="M133 -11q-25 0 -41.5 16.5t-16.5 41.5t16.5 42t41.5 17q24 0 41 -17t17 -42t-17 -41.5t-41 -16.5z" />
    <glyph glyph-name="slash" unicode="/" horiz-adv-x="375" 
d="M118 0h-90l233 700h91z" />
    <glyph glyph-name="zero" unicode="0" horiz-adv-x="652" 
d="M326 -13q-133 0 -205 100.5t-72 262.5t72 262.5t205 100.5t205 -100.5t72 -262.5t-72 -262.5t-205 -100.5zM462 548q-41 77 -136 77t-136 -77q-44 -82 -44 -198t44 -198q41 -77 136 -77q94 0 136 76q44 82 44 199q0 116 -44 198z" />
    <glyph glyph-name="one" unicode="1" horiz-adv-x="369" 
d="M168 0v590l-95 -71v97l104 84h81v-700h-90z" />
    <glyph glyph-name="two" unicode="2" horiz-adv-x="560" 
d="M13 0l372 444q31 39 31 80q0 45 -35 73t-98 28q-100 0 -189 -95l-62 64q64 64 121.5 91.5t129.5 27.5q100 0 163.5 -52.5t63.5 -130.5q0 -71 -55 -136l-261 -307h325v-87h-506z" />
    <glyph glyph-name="three" unicode="3" horiz-adv-x="584" 
d="M275 -13q-129 0 -246 120l61 63q93 -95 185 -95q87 0 128 32.5t41 98.5q0 45 -40.5 76.5t-106.5 31.5h-127v84h128q61 0 93 30t32 67q0 61 -39 95.5t-109 34.5q-85 0 -172 -96l-63 68q59 60 114.5 88t120.5 28q100 0 171.5 -56t71.5 -156q0 -55 -35 -98q-26 -31 -54 -47
q36 -15 67 -46q42 -42 42 -110q0 -104 -70 -158.5t-193 -54.5z" />
    <glyph glyph-name="four" unicode="4" horiz-adv-x="647" 
d="M484 157v-157h-91v157h-348v73l341 470h98v-462h123v-81h-123zM393 571l-241 -333h241v333z" />
    <glyph glyph-name="five" unicode="5" horiz-adv-x="579" 
d="M271 -13q-67 0 -124.5 27t-122.5 88l59 66q63 -58 96 -75q38 -18 92 -18q87 0 126.5 33.5t39.5 107.5q0 123 -161 122l-202 -1v362l415 1v-87l-321 -1v-187l112 1q111 0 179 -48q72 -48 72 -160q0 -111 -69.5 -171t-190.5 -60z" />
    <glyph glyph-name="six" unicode="6" horiz-adv-x="610" 
d="M320 -13q-154 0 -212 91q-56 91 -56 231q0 404 273 404q69 0 119 -21t112 -79l-62 -68q-53 51 -84 66q-31 14 -90 14q-89 0 -130 -77q-37 -68 -43 -177q64 93 190 93q97 0 161.5 -60.5t64.5 -162.5q0 -108 -67 -181t-176 -73zM316 381q-58 1 -110.5 -48t-51.5 -102
q1 -61 41 -109.5t123 -48.5q69 0 110 46.5t41 117.5q0 63 -44 103t-109 41z" />
    <glyph glyph-name="seven" unicode="7" horiz-adv-x="562" 
d="M158 0h-119l366 609h-374v91h525z" />
    <glyph glyph-name="eight" unicode="8" horiz-adv-x="600" 
d="M300 -13q-118 0 -185 54.5t-67 147.5q0 62 37 105.5t86 64.5q-34 18 -63 44q-44 40 -44 112q0 88 65 143t172 55q106 0 170.5 -55t64.5 -143q0 -71 -44 -112q-31 -28 -63 -44q47 -20 85 -64.5t38 -105.5q0 -94 -66.5 -148t-185.5 -54zM301 627q-65 0 -104 -32.5
t-39 -82.5t39 -79q41 -31 104 -35q64 5 102.5 36t38.5 78q0 51 -38 83t-103 32zM413 279q-47 34 -112 40q-68 -6 -115 -40q-45 -33 -45 -86q0 -54 41 -87t118 -33q78 0 118.5 32.5t40.5 87.5q0 52 -46 86z" />
    <glyph glyph-name="nine" unicode="9" horiz-adv-x="609" 
d="M286 -13q-69 0 -122.5 23.5t-115.5 81.5l62 67q61 -55 90 -69q33 -15 91 -15q87 0 130 77q37 71 43 176q-65 -92 -189 -92q-97 0 -162 60.5t-65 162.5q0 108 67 181t176 73q152 0 211 -92q57 -90 57 -230q0 -404 -273 -404zM294 627q-74 0 -111 -47q-41 -49 -41 -117
q0 -64 44 -103.5t110 -40.5q58 -1 110.5 48t51.5 102q-1 60 -41.5 109t-122.5 49z" />
    <glyph glyph-name="colon" unicode=":" horiz-adv-x="266" 
d="M132 316q-25 0 -41 18.5t-16 45.5q0 29 16 48t41 19t42 -20t17 -47t-17 -45.5t-42 -18.5zM133 -11q-25 0 -41.5 18.5t-16.5 46.5q0 27 17 46.5t41 19.5t41 -19.5t17 -46.5q0 -28 -17 -46.5t-41 -18.5z" />
    <glyph glyph-name="semicolon" unicode=";" horiz-adv-x="268" 
d="M132 314q-25 0 -42.5 19t-17.5 47t17 47.5t43 19.5q25 0 42 -19.5t17 -47.5t-17 -47t-42 -19zM72 -174l-25 50q68 48 79 108q-23 2 -38.5 21t-15.5 45q0 27 17.5 47t42.5 20q28 0 45 -24t17 -59q0 -70 -29 -119t-93 -89z" />
    <glyph glyph-name="less" unicode="&#x3c;" horiz-adv-x="545" 
d="M16 345v14l479 279v-90l-348 -196l348 -197v-91z" />
    <glyph glyph-name="equal" unicode="=" horiz-adv-x="476" 
d="M61 359v75h354v-73zM61 175v75h354v-75h-354z" />
    <glyph glyph-name="greater" unicode="&#x3e;" horiz-adv-x="545" 
d="M50 64v90l349 198l-348 196l-1 88l479 -277v-14z" />
    <glyph glyph-name="question" unicode="?" horiz-adv-x="517" 
d="M280 291v-89h-87v146q117 23 169 58t52 85q0 54 -48 93t-126 39q-43 0 -84 -17t-107 -62l-47 75q75 51 129.5 71.5t112.5 20.5q122 0 192.5 -63.5t70.5 -152.5q0 -82 -56.5 -130t-170.5 -74zM235 -12q-27 0 -46.5 19t-19.5 47t19.5 47.5t46.5 19.5q28 0 47 -19.5
t19 -47.5t-19 -47t-47 -19z" />
    <glyph glyph-name="at" unicode="@" horiz-adv-x="1054" 
d="M968 52q-38 -93 -132 -93q-56 0 -94 31t-52 87l-3 11q-29 -38 -64 -66q-46 -37 -123 -37q-103 0 -169 78.5t-66 191.5t66 191t169 78q78 0 124 -39q30 -27 49 -53v81h89v-385q0 -88 69 -88q46 0 66 52.5t22 171.5q1 166 -115.5 270t-283.5 105q-155 0 -269.5 -115.5
t-115.5 -268.5q0 -99 51 -189t137.5 -144t182.5 -52q41 2 77 11q38 9 76 26l26 -79q-81 -38 -178 -40q-122 -2 -228 63t-167.5 173.5t-61.5 230.5q0 123 63.5 230.5t172.5 171.5t236 64q132 -1 241.5 -55.5t175.5 -159.5t65 -240q-2 -132 -36 -214zM513 438q-67 0 -112 -54
t-45 -129q0 -80 44 -132.5t113 -52.5q68 0 113 54.5t45 129.5t-45 129.5t-113 54.5z" />
    <glyph glyph-name="A" unicode="A" horiz-adv-x="712" 
d="M603 0l-82 181h-327l-82 -181h-102l340 717h15l341 -717h-103zM358 551l-129 -284h257z" />
    <glyph glyph-name="B" unicode="B" horiz-adv-x="669" 
d="M554 47q-71 -47 -176 -47h-282v700h258q97 0 171 -47q75 -47 75 -151q0 -60 -36 -98q-27 -28 -58 -43q37 -16 71 -47q48 -44 48 -117q0 -103 -71 -150zM349 614h-157v-214h180q60 0 95.5 27t35.5 68q0 119 -154 119zM381 316h-189v-230h181q155 0 155 119
q0 46 -42.5 78.5t-104.5 32.5z" />
    <glyph glyph-name="C" unicode="C" horiz-adv-x="718" 
d="M620 524q-94 100 -218 101q-98 2 -176.5 -84.5t-78.5 -190.5t78.5 -190.5t176.5 -84.5q119 1 222 100l63 -68q-118 -118 -285 -120q-137 -2 -244.5 109.5t-107.5 253.5q0 141 107.5 253t244.5 110q167 -3 285 -121z" />
    <glyph glyph-name="D" unicode="D" horiz-adv-x="758" 
d="M361 0h-262v700h262q141 0 244 -104t103 -246t-103 -246t-244 -104zM360 614h-165v-528h165q105 0 178 79.5t73 184.5q0 107 -73 185.5t-178 78.5z" />
    <glyph glyph-name="E" unicode="E" horiz-adv-x="634" 
d="M96 0v700h476v-87h-381v-216h381v-87h-381v-223h381v-87h-476z" />
    <glyph glyph-name="F" unicode="F" horiz-adv-x="624" 
d="M194 613v-216h372v-87h-372v-310h-95v700h476v-87h-381z" />
    <glyph glyph-name="G" unicode="G" horiz-adv-x="755" 
d="M400 -13q-138 -2 -244 109.5t-106 253.5t106 253.5t244 109.5q159 -2 283 -117l-66 -71q-98 98 -217 100q-97 2 -175 -84.5t-78 -190.5t78 -190.5t175 -84.5q117 1 195 69v144h-276v86h367v-272q-127 -113 -286 -115z" />
    <glyph glyph-name="H" unicode="H" horiz-adv-x="758" 
d="M559 0v307h-360v-307h-96v700h96v-305h360v305h96v-700h-96z" />
    <glyph glyph-name="I" unicode="I" horiz-adv-x="285" 
d="M95 0v700h95v-700h-95z" />
    <glyph glyph-name="J" unicode="J" horiz-adv-x="580" 
d="M346 620v-346q0 -150 -72 -212.5t-236 -64.5v90q122 0 167.5 39t45.5 148v345h-213v81h505v-80h-197z" />
    <glyph glyph-name="K" unicode="K" horiz-adv-x="652" 
d="M516 0l-317 313v-313h-96v700h96v-286l300 285l125 1l-356 -335l373 -365h-125z" />
    <glyph glyph-name="L" unicode="L" horiz-adv-x="570" 
d="M99 0v700h95v-613h343v-87h-438z" />
    <glyph glyph-name="M" unicode="M" horiz-adv-x="996" 
d="M833 0l-47 497l-261 -497h-55l-262 497l-47 -497h-97l87 700h41l306 -573l305 573h43l84 -700h-97z" />
    <glyph glyph-name="N" unicode="N" horiz-adv-x="776" 
d="M673 0l-476 485l1 -485h-96v700l476 -476v476h96z" />
    <glyph glyph-name="O" unicode="O" horiz-adv-x="816" 
d="M408 -13q-140 0 -249 110.5t-109 252.5q0 141 109 252t249 111t249 -111t109 -252q0 -142 -109 -252.5t-249 -110.5zM408 625q-100 0 -180.5 -86.5t-80.5 -188.5t80.5 -188.5t180.5 -86.5q101 0 181 86t80 189t-80 189t-181 86z" />
    <glyph glyph-name="P" unicode="P" horiz-adv-x="620" 
d="M524 319q-69 -53 -174 -53h-156v-266h-95v700h251q104 0 175 -49q71 -50 71 -164t-72 -168zM345 614h-151v-262h151q158 0 158 135q0 127 -158 127z" />
    <glyph glyph-name="Q" unicode="Q" horiz-adv-x="816" 
d="M617 59l68 -93l-78 -55l-69 103q-65 -28 -135 -29q-138 -2 -245.5 110t-107.5 254q1 142 109.5 253t248.5 111q140 -1 249.5 -110.5t108.5 -250.5q-3 -178 -149 -293zM408 625q-100 0 -180.5 -86.5t-80.5 -189.5q0 -104 79 -191t177 -85q51 2 86 15l-127 192l75 50
l131 -196q99 84 101 218q1 103 -79 188t-182 85z" />
    <glyph glyph-name="R" unicode="R" horiz-adv-x="668" 
d="M521 0l-169 266h-157v-266h-96v700h254q98 0 171 -50q73 -52 73 -164q0 -159 -145 -207l186 -279h-117zM349 614h-154v-262h154q155 0 155 134q0 128 -155 128z" />
    <glyph glyph-name="S" unicode="S" horiz-adv-x="639" 
d="M538 543l-23 18q-83 62 -188 62q-87 0 -127.5 -36t-40.5 -87q0 -45 41 -67.5t146 -36.5q121 -16 180 -61.5t59 -134.5q0 -91 -69 -151t-187 -60q-161 0 -291 92l51 72q113 -76 231 -76q77 0 124 28q47 29 47 92q0 51 -41.5 75.5t-148.5 39.5q-104 15 -168 53
q-68 38 -68 135q0 37 16 73.5t45.5 67.5t78.5 50.5t109 19.5q77 0 130 -19q57 -20 144 -74z" />
    <glyph glyph-name="T" unicode="T" horiz-adv-x="609" 
d="M352 610v-610h-95v610h-247v90h589v-90h-247z" />
    <glyph glyph-name="U" unicode="U" horiz-adv-x="716" 
d="M358 -13q-128 0 -205.5 80.5t-77.5 222.5v410h96v-406q0 -109 48.5 -164t138.5 -55t138.5 55t48.5 164v406h96v-410q0 -142 -77.5 -222.5t-205.5 -80.5z" />
    <glyph glyph-name="V" unicode="V" horiz-adv-x="712" 
d="M377 0h-40l-328 700h103l246 -537l247 537h102z" />
    <glyph glyph-name="W" unicode="W" horiz-adv-x="961" 
d="M680 0h-57l-143 497l-132 -497h-64l-254 700h95l183 -512l158 512h32l158 -512l183 512h96z" />
    <glyph glyph-name="X" unicode="X" horiz-adv-x="667" 
d="M545 0l-210 271l-209 -271h-113l277 348l-277 352h113l209 -274l210 274h112l-276 -352l277 -348h-113z" />
    <glyph glyph-name="Y" unicode="Y" horiz-adv-x="623" 
d="M360 273v-273h-94v273l-255 427h100l203 -333l201 333h96z" />
    <glyph glyph-name="Z" unicode="Z" horiz-adv-x="621" 
d="M195 88l376 -1v-87h-543l404 612l-362 1v87h527z" />
    <glyph glyph-name="bracketleft" unicode="[" horiz-adv-x="383" 
d="M97 -185v897h219v-83h-135v-731h135v-83h-219z" />
    <glyph glyph-name="backslash" unicode="\" horiz-adv-x="430" 
d="M291 0l-237 700h89l236 -700h-88z" />
    <glyph glyph-name="bracketright" unicode="]" horiz-adv-x="380" 
d="M65 -185v83h135v731h-135v83h219v-897h-219z" />
    <glyph glyph-name="asciicircum" unicode="^" horiz-adv-x="358" 
d="M256 573l-74 103l-80 -103h-82l144 180h36l141 -180h-85z" />
    <glyph glyph-name="underscore" unicode="_" horiz-adv-x="514" 
d="M44 -76v64h429v-64h-429z" />
    <glyph glyph-name="grave" unicode="`" horiz-adv-x="237" 
d="M134 581l-105 99l26 40l17 22l128 -134l27 -27h-93z" />
    <glyph glyph-name="a" unicode="a" horiz-adv-x="567" 
d="M406 0v63q-66 -74 -172 -74q-77 0 -128.5 46.5t-51.5 123.5q0 80 54.5 122.5t151.5 42.5q67 0 145 -29q-1 77 -28 105.5t-100 36.5q-2 1 -8 1h-14q-28 0 -48 -4q-73 -11 -97 -17l-20 79q104 28 172 25l20 -1q124 -6 169 -58t45 -183v-279h-90zM405 220q-78 31 -131 31
q-129 0 -129 -92q0 -43 29 -68.5t82 -25.5q44 0 85 26q43 27 64 58v71z" />
    <glyph glyph-name="b" unicode="b" horiz-adv-x="633" 
d="M353 -11q-78 0 -118 30q-25 20 -50 49v-68h-91v738h94l-2 -300q17 24 44 47q47 41 123 41q101 0 166.5 -78t65.5 -190t-65.5 -190.5t-166.5 -78.5zM340 440q-66 0 -110.5 -54t-44.5 -129q0 -73 45 -128t110 -55q67 0 111 52t44 132q0 74 -45 128t-110 54z" />
    <glyph glyph-name="c" unicode="c" horiz-adv-x="541" 
d="M306 -11q-103 -1 -180.5 79.5t-77.5 185.5q0 106 77.5 187t180.5 79q59 -1 107.5 -21.5t96.5 -68.5l-60 -64q-35 38 -67 53.5t-73 15.5q-70 0 -121 -53t-51 -128t51 -127.5t121 -52.5q73 0 141 68l59 -63q-42 -42 -97 -65.5t-107 -24.5z" />
    <glyph glyph-name="d" unicode="d" horiz-adv-x="633" 
d="M449 0v66q-30 -39 -67.5 -57.5t-104.5 -19.5q-99 -1 -164 78.5t-65 190.5q0 112 65.5 190t166.5 78q73 0 121 -39q27 -23 47 -49v300h91v-738h-90zM294 440q-66 0 -110.5 -53.5t-44.5 -128.5q0 -80 44 -132t111 -52q65 0 110 55t45 128t-45 128t-110 55z" />
    <glyph glyph-name="e" unicode="e" horiz-adv-x="600" 
d="M142 219q9 -60 60.5 -103.5t114.5 -43.5q82 0 167 61l51 -63q-43 -41 -102 -60q-57 -19 -122 -21q-105 -1 -184 79.5t-79 185.5t78.5 186t181.5 80q114 -2 181.5 -82t67.5 -219h-415zM309 440q-63 0 -110.5 -45t-54.5 -106h319q-6 62 -49.5 106.5t-104.5 44.5z" />
    <glyph glyph-name="f" unicode="f" horiz-adv-x="413" 
d="M383 657q-42 18 -79 18q-53 0 -76 -32.5t-23 -113.5v-15h181v-80h-181v-434h-90v434h-85v80h85v20q0 227 181 227q51 0 103 -28z" />
    <glyph glyph-name="g" unicode="g" horiz-adv-x="633" 
d="M271 -243q-47 0 -83 10q-38 10 -50 16q-4 2 -18 9.5t-26 14.5v92l37 -14q72 -25 90 -30q31 -7 66 -7q161 0 161 183v40q-20 -26 -47 -49q-48 -39 -121 -39q-102 0 -167 77.5t-65 190.5q0 112 65.5 190.5t166.5 78.5q79 0 117 -26q26 -17 48 -41v56h94v-470
q0 -282 -268 -282zM294 435q-67 0 -111 -52t-44 -132q0 -75 44 -128.5t111 -53.5q65 0 110 55t45 128t-45 128t-110 55z" />
    <glyph glyph-name="h" unicode="h" horiz-adv-x="602" 
d="M439 0v277q0 78 -34 120.5t-91 42.5q-54 0 -90.5 -49t-36.5 -120v-271h-91v738h91v-268q51 56 144 56q92 0 145.5 -60t53.5 -169v-297h-91z" />
    <glyph glyph-name="i" unicode="i" horiz-adv-x="311" 
d="M155 607q-22 0 -37 17.5t-15 43.5q0 25 15 42.5t37 17.5t37.5 -17.5t15.5 -42.5t-15.5 -43t-37.5 -18zM112 0v515h89v-515h-89z" />
    <glyph glyph-name="j" unicode="j" horiz-adv-x="380" 
d="M226 606q-24 0 -41.5 18t-17.5 43t17.5 43t41.5 18q23 0 40.5 -18t17.5 -43t-17.5 -43t-40.5 -18zM93 -236q-25 0 -43 5q-18 6 -48 25v88q55 -32 84 -32q52 0 75 33t23 114v516h88v-521q0 -228 -179 -228z" />
    <glyph glyph-name="k" unicode="k" horiz-adv-x="554" 
d="M415 0l-227 230v-230h-91v738h91v-429l229 206h115l-267 -243l273 -272h-123z" />
    <glyph glyph-name="l" unicode="l" horiz-adv-x="281" 
d="M96 0v738h87v-738h-87z" />
    <glyph glyph-name="m" unicode="m" horiz-adv-x="918" 
d="M753 0v274q0 77 -32.5 119t-84.5 42q-51 0 -84.5 -44t-33.5 -118v-273h-93v274q0 75 -32.5 118t-85.5 43q-50 0 -83.5 -51.5t-33.5 -128.5v-255h-93v509h93l-1 -60q46 71 136 71q106 0 153 -99q26 40 73.5 69.5t101.5 29.5q83 0 138 -57q55 -56 55 -169v-294h-93z" />
    <glyph glyph-name="n" unicode="n" 
d="M442 0v274q0 78 -34 119.5t-91 41.5q-54 0 -90.5 -48.5t-36.5 -118.5v-268h-91v509h91v-61q51 72 144 72q92 0 145.5 -59t53.5 -167v-294h-91z" />
    <glyph glyph-name="o" unicode="o" horiz-adv-x="622" 
d="M311 -11q-104 0 -183.5 80.5t-79.5 184.5q0 105 79.5 185.5t183.5 80.5t183.5 -80.5t79.5 -185.5q0 -104 -79.5 -184.5t-183.5 -80.5zM311 435q-69 0 -120 -53t-51 -128t51 -128t120 -53q70 0 121 53t51 128t-51 128t-121 53z" />
    <glyph glyph-name="p" unicode="p" horiz-adv-x="633" 
d="M353 -16q-76 0 -123 40q-27 24 -45 48v-276h-91v713h90v-69q25 29 50 49q41 31 119 31q101 0 166.5 -78.5t65.5 -190.5t-65.5 -189.5t-166.5 -77.5zM340 435q-65 0 -110 -55t-45 -128q0 -74 44.5 -128t110.5 -54q65 0 110 53.5t45 127.5q0 80 -43.5 132t-111.5 52z" />
    <glyph glyph-name="q" unicode="q" horiz-adv-x="633" 
d="M448 -204v275q-25 -30 -47 -48q-48 -39 -121 -39q-101 0 -166.5 77.5t-65.5 189.5t65.5 190.5t166.5 78.5q75 0 117 -30q28 -18 52 -47v66h90v-713h-91zM294 435q-68 0 -111.5 -52t-43.5 -132q0 -75 44.5 -128t110.5 -53q65 0 110 54.5t45 127.5t-45 128t-110 55z" />
    <glyph glyph-name="r" unicode="r" horiz-adv-x="414" 
d="M188 262v-262h-89v509h89v-85q23 34 50 56q46 40 146 40v-91q-87 0 -141.5 -49.5t-54.5 -117.5z" />
    <glyph glyph-name="s" unicode="s" horiz-adv-x="508" 
d="M259 -11q-118 0 -221 72l39 72q99 -66 178 -66q60 0 90.5 21.5t30.5 58.5q0 49 -126 68q-49 7 -81 15t-59 24t-40 42t-14 64q-1 73 52.5 116.5t140.5 43.5q106 0 214 -65l-45 -68q-68 38 -92 45q-37 10 -73 10q-53 0 -81 -20t-29 -55q4 -37 22 -46.5t105 -22.5
q94 -13 144 -48t50 -99q0 -74 -56.5 -118t-148.5 -44z" />
    <glyph glyph-name="t" unicode="t" horiz-adv-x="438" 
d="M288 -11q-180 0 -180 225v219h-62v80h62v115h89v-115h185v-80h-185v-213q0 -80 23 -113t76 -33q38 0 85 26l23 -79q-54 -32 -116 -32z" />
    <glyph glyph-name="u" unicode="u" 
d="M415 0v75q-54 -86 -144 -86q-92 0 -145.5 59t-53.5 167v294h91v-274q0 -78 34 -119.5t91 -41.5q54 0 90.5 48.5t36.5 118.5v268h91v-509h-91z" />
    <glyph glyph-name="v" unicode="v" horiz-adv-x="513" 
d="M264 3h-15l-249 506h94l163 -353l162 353h93z" />
    <glyph glyph-name="w" unicode="w" horiz-adv-x="733" 
d="M555 0h-48l-140 347l-142 -347h-48l-162 509h103l95 -332l140 332h27l141 -332l95 332h102z" />
    <glyph glyph-name="x" unicode="x" horiz-adv-x="484" 
d="M384 0l-140 193l-143 -193h-98l180 254l-180 255h98l143 -194l139 194h97l-175 -255l175 -254h-96z" />
    <glyph glyph-name="y" unicode="y" horiz-adv-x="516" 
d="M205 -204h-98l102 234l-206 479h90l165 -374l163 374h92z" />
    <glyph glyph-name="z" unicode="z" horiz-adv-x="488" 
d="M171 84h284v-84h-432l291 425h-264v84h411z" />
    <glyph glyph-name="braceleft" unicode="{" horiz-adv-x="450" 
d="M216 -163q-83 55 -83 204v77q0 27 -28 51q-30 25 -69 36v85q36 9 68 37q29 26 29 53v77q0 256 267 256v-88q-72 0 -123.5 -40.5t-51.5 -127.5v-77q0 -44 -20.5 -79.5t-52.5 -51.5q32 -16 52.5 -51.5t20.5 -79.5v-77q0 -87 51.5 -127.5t123.5 -40.5v-88q-105 0 -184 52z
" />
    <glyph glyph-name="bar" unicode="|" horiz-adv-x="257" 
d="M96 -99v898h65v-898h-65z" />
    <glyph glyph-name="braceright" unicode="}" horiz-adv-x="450" 
d="M345 169q-28 -24 -28 -51v-77q0 -256 -267 -256v88q175 0 175 168v77q0 44 21 79t54 52q-33 17 -54 52t-21 79v77q0 85 -42.5 126.5t-132.5 41.5v88q267 0 267 -256v-77q0 -66 97 -87v-88q-39 -11 -69 -36z" />
    <glyph glyph-name="asciitilde" unicode="~" horiz-adv-x="542" 
d="M347 327q-45 0 -87 30q-35 27 -57 27q-23 0 -32 -8.5t-22 -44.5l-70 16l10 27q27 74 108 74q42 0 89 -32q26 -17 34.5 -21t21.5 -4q20 0 32.5 10.5t31.5 47.5l61 -26q-27 -54 -52 -75t-68 -21z" />
    <glyph glyph-name="exclamdown" unicode="&#xa1;" horiz-adv-x="340" 
d="M170 255q-24 0 -40.5 19.5t-16.5 46.5t16.5 46t40.5 19t41 -19t17 -46t-17 -46.5t-41 -19.5zM123 -325l8 470h78l8 -470h-94z" />
    <glyph glyph-name="cent" unicode="&#xa2;" horiz-adv-x="537" 
d="M310 -15l-18 -139l-63 6l19 140q-87 21 -143 96.5t-57 167.5q-1 69 36.5 132.5t98.5 100.5t126 34l9 -1l15 109l63 -8l-15 -110q64 -16 126 -84l-53 -63q-50 50 -85 61l-47 -355q66 3 132 65l54 -59q-48 -50 -93.5 -71t-104.5 -22zM138 254q0 -61 36.5 -110.5t84.5 -63.5
l48 356q-70 -2 -119.5 -55.5t-49.5 -126.5z" />
    <glyph glyph-name="sterling" unicode="&#xa3;" horiz-adv-x="530" 
d="M439 553q-50 38 -97 55q-44 17 -77 17q-57 0 -84 -34q-28 -35 -28 -80q0 -37 51 -125l13 -23h213v-60h-199q0 -3 0.5 -10.5t0.5 -11.5q0 -33 -8 -68q-10 -41 -28 -101l-8 -25h293l-1 -87h-407q0 34 5 47l17 47q47 127 47 184q0 9 -2 25h-86l1 60h64l-7 12q-31 51 -40 76
q-11 26 -11 68q0 81 53 137.5t147 56.5q101 0 227 -83z" />
    <glyph glyph-name="currency" unicode="&#xa4;" horiz-adv-x="524" 
d="M407 437q29 -41 29 -95q0 -50 -29 -96l76 -75l-49 -53l-77 78q-43 -27 -95 -27t-95 28l-78 -78l-49 52l77 76q-28 40 -28 95q0 54 27 95l-76 78l50 49l77 -76q45 28 95 28q52 0 96 -29l79 77l49 -49zM262 445q-44 0 -72 -29t-28 -74q0 -44 28 -73t72 -29q43 0 71.5 29.5
t28.5 72.5q0 44 -28.5 73.5t-71.5 29.5z" />
    <glyph glyph-name="yen" unicode="&#xa5;" horiz-adv-x="641" 
d="M433 381h140v-71h-179l-28 -37v-55h207v-71h-207v-147h-95v147h-203v71h203v55l-23 37h-180v71h136l-202 319h101l216 -334l214 334h103z" />
    <glyph glyph-name="brokenbar" unicode="&#xa6;" horiz-adv-x="259" 
d="M102 407v365h55v-365h-55zM102 -88v410h55v-410h-55z" />
    <glyph glyph-name="section" unicode="&#xa7;" horiz-adv-x="634" 
d="M325 -279q-81 0 -145.5 20.5t-136.5 69.5l45 76q53 -37 114 -58q63 -20 113 -20q75 0 124 29q47 29 47 93q0 49 -41.5 75t-147.5 40q-107 16 -169 53q-68 39 -68 135q0 78 58 139q-56 45 -58 125q0 81 67 147.5t184 65.5q74 -2 128 -19q63 -21 138 -69l-47 -78
q-62 43 -109 60.5t-99 17.5q-84 0 -126.5 -38t-41.5 -84q1 -51 39.5 -71.5t148.5 -36.5q107 -14 173 -58q65 -43 65 -139q0 -35 -14 -72.5t-38 -62.5q52 -49 52 -128q0 -94 -68 -153t-187 -59zM297 309q-45 8 -93 21q-23 -15 -37 -41t-13 -51q2 -50 41 -70.5t147 -36.5
q62 -10 81 -18l20 -8q17 10 30 34.5t13 53.5q0 51 -40.5 75t-148.5 41z" />
    <glyph glyph-name="dieresis" unicode="&#xa8;" horiz-adv-x="396" 
d="M107 631q-21 0 -36 13t-15 32t15 32.5t36 13.5q22 0 37.5 -13.5t15.5 -32.5t-15.5 -32t-37.5 -13zM289 631q-22 0 -37.5 13t-15.5 32t15.5 32.5t37.5 13.5q21 0 36 -13.5t15 -32.5t-15 -32t-36 -13z" />
    <glyph glyph-name="copyright" unicode="&#xa9;" horiz-adv-x="822" 
d="M411 -13q-144 0 -253.5 109.5t-109.5 253.5q0 92 50 176.5t134.5 135.5t178.5 51q157 -1 255 -109t98 -254t-98 -254.5t-255 -108.5zM412 663q-123 1 -218 -94.5t-95 -218.5q0 -124 95 -218.5t218 -94.5q134 -1 219 93t85 220t-85 219.5t-219 93.5zM512 419
q-45 48 -94 48q-46 0 -79 -34.5t-33 -82.5q0 -52 32 -84q33 -33 80 -33q48 0 94 46l45 -46q-63 -63 -143 -63q-72 0 -123.5 54t-51.5 126t52.5 126t123.5 54q73 0 142 -63z" />
    <glyph glyph-name="ordfeminine" unicode="&#xaa;" horiz-adv-x="395" 
d="M279 371v35q-42 -43 -107 -43q-51 0 -84.5 31t-33.5 82q0 53 35.5 81t98.5 28q42 0 90 -17q-1 45 -17 61t-61 22h-14q-24 0 -31 -1l-25 -4l-40 -7l-15 57q84 17 114 16l14 -1q81 -5 110 -39.5t29 -119.5v-181h-63zM278 513q-46 18 -81 18q-79 0 -79 -55q0 -27 18 -42.5
t50 -15.5q29 0 52 16q27 19 40 36v43z" />
    <glyph glyph-name="guillemotleft" unicode="&#xab;" horiz-adv-x="538" 
d="M229 21l-204 230l205 235l66 -42l-161 -190l165 -190zM432 20l-205 230l205 235l66 -42l-161 -190l165 -190z" />
    <glyph glyph-name="logicalnot" unicode="&#xac;" horiz-adv-x="517" 
d="M384 61v205h-334v76h411v-281h-77z" />
    <glyph glyph-name="uni00AD" unicode="&#xad;" horiz-adv-x="407" 
d="M48 254v61h307v-61h-307z" />
    <glyph glyph-name="registered" unicode="&#xae;" horiz-adv-x="822" 
d="M411 -13q-144 0 -253.5 109.5t-109.5 253.5q0 142 110 252.5t253 110.5q141 0 252 -111t111 -252q0 -143 -110.5 -253t-252.5 -110zM411 663q-123 0 -218 -95t-95 -218t95 -218t218 -95t218 95t95 218t-95 218t-218 95zM496 176l-82 128h-68v-128h-57v346h129
q50 0 85 -25q37 -26 37 -83q0 -77 -67 -102l92 -136h-69zM415 471h-69v-116h69q70 0 70 59q0 57 -70 57z" />
    <glyph glyph-name="overscore" unicode="&#xaf;" horiz-adv-x="373" 
d="M50 656v57h273v-57h-273z" />
    <glyph glyph-name="degree" unicode="&#xb0;" horiz-adv-x="400" 
d="M199 408q-63 0 -107 44t-44 108q0 63 44 107t107 44t108 -44t45 -107t-45 -107.5t-108 -44.5zM199 640q-33 0 -57 -24t-24 -56q0 -35 23.5 -58.5t57.5 -23.5t58 24t24 58q0 32 -24 56t-58 24z" />
    <glyph glyph-name="plusminus" unicode="&#xb1;" horiz-adv-x="559" 
d="M321 427v-160h-79v160h-157v80h157v159h79v-159h157v-80h-157zM81 81v75h407v-75h-407z" />
    <glyph glyph-name="uni00B3" unicode="&#xb3;" horiz-adv-x="270" 
d="M131 483q-55 0 -113 57l33 36q44 -44 80 -44q67 0 67 52q0 18 -15 30t-42 12h-60v47h60q24 0 36.5 11t12.5 26q0 24 -15.5 38t-43.5 14q-34 0 -74 -45l-34 38q55 55 108 55q46 0 78 -26t32 -72q0 -25 -16 -46q-14 -14 -17 -16q10 -5 22 -17q19 -19 19 -52q0 -48 -32 -73
t-86 -25z" />
    <glyph glyph-name="acute" unicode="&#xb4;" horiz-adv-x="260" 
d="M126 581h-93l27 27l128 134l17 -22l26 -40z" />
    <glyph glyph-name="uni00B5" unicode="&#xb5;" horiz-adv-x="621" 
d="M429 -6v75q-10 -12 -22 -28q-39 -56 -117 -57q-60 -2 -100 40v-228h-91v713h91v-276q0 -164 115 -164q52 0 89 53.5t37 129.5v257h91v-515h-93z" />
    <glyph glyph-name="paragraph" unicode="&#xb6;" horiz-adv-x="768" 
d="M598 612v-850h-85v850h-129v-849h-85v462q-110 3 -182 70t-72 173q0 102 68.5 167t164.5 65h447v-88h-127z" />
    <glyph glyph-name="middot" unicode="&#xb7;" horiz-adv-x="235" 
d="M117 278q-27 0 -45.5 19t-18.5 46q0 26 18.5 45t45.5 19t46 -19t19 -45q0 -27 -19 -46t-46 -19z" />
    <glyph glyph-name="cedilla" unicode="&#xb8;" horiz-adv-x="283" 
d="M143 -249q-27 0 -49.5 11t-55.5 38l30 43q41 -32 78 -32q35 0 35 30q0 19 -11 28t-39 9h-59l23 113l52 -5l-7 -51q101 -5 101 -94q0 -40 -27 -65t-71 -25z" />
    <glyph glyph-name="ordmasculine" unicode="&#xba;" horiz-adv-x="335" 
d="M168 377q-63 0 -97 45.5t-34 122.5t34 122.5t97 45.5q62 0 96 -45.5t34 -122.5t-34 -122.5t-96 -45.5zM168 648q-64 0 -64 -103t64 -103q63 0 63 103t-63 103z" />
    <glyph glyph-name="guillemotright" unicode="&#xbb;" horiz-adv-x="538" 
d="M304 25l-71 43l165 190l-161 190l66 42l205 -235zM101 24l-70 43l165 190l-161 190l66 42l205 -235z" />
    <glyph glyph-name="onequarter" unicode="&#xbc;" horiz-adv-x="646" 
d="M197 -1h-79l346 700h77zM122 358v260l-45 -32v58l54 39h45v-325h-54zM535 71v-71h-52v71h-156v39l156 216h52v-208h55v-47h-55zM483 246l-92 -128h92v128z" />
    <glyph glyph-name="onehalf" unicode="&#xbd;" horiz-adv-x="680" 
d="M197 -1h-79l347 700h78zM122 358v260l-45 -32v58l54 39h46v-325h-55zM396 2l176 208q13 17 13 33q0 17 -14.5 28.5t-40.5 11.5q-44 0 -85 -45l-36 36q59 59 121 59q46 0 77 -24.5t31 -62.5q0 -34 -26 -65l-110 -129h140v-50h-246z" />
    <glyph glyph-name="threequarters" unicode="&#xbe;" horiz-adv-x="694" 
d="M167 372q-58 0 -119 60l35 36q45 -45 84 -45q71 0 71 54q0 18 -16.5 30.5t-44.5 12.5h-63v48h63q26 0 39 12t13 27q0 24 -16.5 38.5t-45.5 14.5q-37 0 -78 -46l-36 39q57 57 114 57q48 0 81.5 -27t33.5 -74q0 -29 -17 -47q-8 -11 -17 -17q13 -8 23 -18q20 -22 20 -53
q0 -49 -33.5 -75.5t-90.5 -26.5zM196 -1h-78l347 700h78zM585 71v-71h-52v71h-157v39l156 216h53v-208h55v-47h-55zM533 246l-93 -128h93v128z" />
    <glyph glyph-name="questiondown" unicode="&#xbf;" horiz-adv-x="517" 
d="M282 254q-28 0 -47 19.5t-19 47.5t19 47t47 19q27 0 46.5 -19t19.5 -47t-19.5 -47.5t-46.5 -19.5zM273 -336q-122 0 -192.5 63.5t-70.5 152.5q0 82 56.5 130t170.5 74v89h87v-146q-221 -42 -221 -143q0 -54 48 -93t126 -39q42 0 84 17t108 61l45 -74
q-72 -51 -126.5 -71.5t-114.5 -20.5z" />
    <glyph glyph-name="Agrave" unicode="&#xc0;" horiz-adv-x="712" 
d="M349 759l-128 118l57 56l163 -174h-92zM603 0l-82 182h-327l-82 -182h-102l340 721h15l341 -721h-103zM358 555l-129 -287h257z" />
    <glyph glyph-name="Aacute" unicode="&#xc1;" horiz-adv-x="712" 
d="M369 743l-79 19l163 172l46 -71zM603 0l-82 182h-327l-82 -182h-102l340 721h15l341 -721h-103zM358 555l-129 -287h257z" />
    <glyph glyph-name="Acircumflex" unicode="&#xc2;" horiz-adv-x="712" 
d="M437 753l-76 112l-83 -112h-85l149 196h37l146 -196h-88zM603 0l-82 182h-327l-82 -182h-102l340 722h15l341 -722h-103zM358 555l-129 -287h257z" />
    <glyph glyph-name="Atilde" unicode="&#xc3;" horiz-adv-x="712" 
d="M435 758q-47 0 -89 34q-39 32 -59 32q-23 0 -32.5 -10.5t-22.5 -50.5l-71 17l10 31q27 85 110 85q44 0 92 -36q26 -21 34.5 -25.5t22.5 -4.5q20 0 33 12.5t32 54.5l62 -30q-27 -61 -53 -85t-69 -24zM603 0l-82 182h-327l-82 -182h-102l340 721h15l341 -721h-103zM358 554
l-129 -286h257z" />
    <glyph glyph-name="Adieresis" unicode="&#xc4;" horiz-adv-x="712" 
d="M264 804q-22 0 -38 16t-16 38q0 23 16 39t38 16t38 -16.5t16 -38.5t-16 -38t-38 -16zM452 804q-22 0 -38 16t-16 38t16 38.5t38 16.5t38 -16t16 -39q0 -22 -16 -38t-38 -16zM603 0l-82 182h-327l-82 -182h-102l340 721h15l341 -721h-103zM358 554l-129 -286h257z" />
    <glyph glyph-name="Aring" unicode="&#xc5;" horiz-adv-x="712" 
d="M357 755q-49 0 -81 33t-32 83t32 83.5t81 33.5t81 -33.5t32 -83.5t-32 -83t-81 -33zM358 928q-22 0 -37 -16.5t-15 -40.5t14.5 -40.5t36.5 -16.5t36.5 16t14.5 41q0 24 -14 40.5t-36 16.5zM603 0l-82 182h-327l-82 -182h-102l340 722h15l341 -722h-103zM358 555
l-129 -286h257z" />
    <glyph glyph-name="AE" unicode="&#xc6;" horiz-adv-x="973" 
d="M420 0v181h-205l-108 -181h-108l407 700h505v-87h-388v-216h366v-87h-366v-223h388v-87h-491zM420 547l-159 -281h159v281z" />
    <glyph glyph-name="Ccedilla" unicode="&#xc7;" horiz-adv-x="718" 
d="M622 524q-95 98 -220 101q-98 1 -176.5 -86t-78.5 -191t78.5 -191.5t176.5 -86.5q64 2 115.5 25.5t104.5 78.5l63 -69q-116 -119 -279 -123l-5 -35q108 -5 108 -100q0 -43 -29 -69.5t-76 -26.5q-29 0 -53 11.5t-58 40.5l35 47q25 -21 41 -28t40 -7q36 0 36 32
q0 21 -11.5 30t-41.5 9h-63l20 100q-119 17 -209 127.5t-90 234.5q-1 141 107 254t245 111q163 -3 283 -119z" />
    <glyph glyph-name="Egrave" unicode="&#xc8;" horiz-adv-x="634" 
d="M343 759l-127 118l56 56l161 -174h-90zM96 0v705h476v-87h-381v-219h381v-87h-381v-225h381v-87h-476z" />
    <glyph glyph-name="Eacute" unicode="&#xc9;" horiz-adv-x="634" 
d="M325 743l-78 19l161 172l46 -71zM96 0v705h476v-87h-381v-219h381v-87h-381v-225h381v-87h-476z" />
    <glyph glyph-name="Ecircumflex" unicode="&#xca;" horiz-adv-x="618" 
d="M428 753l-76 112l-81 -112h-84l147 196h37l143 -196h-86zM96 0v705h476v-87h-381v-218h381v-88h-381v-225h381v-87h-476z" />
    <glyph glyph-name="Edieresis" unicode="&#xcb;" horiz-adv-x="634" 
d="M239 804q-22 0 -37.5 16t-15.5 38q0 23 15.5 39t37.5 16t38 -16.5t16 -38.5t-16 -38t-38 -16zM425 804q-22 0 -38 16t-16 38t16 38.5t38 16.5t37.5 -16t15.5 -39t-15.5 -38.5t-37.5 -15.5zM96 0v705h476v-88h-381v-218h381v-87h-381v-225h381v-87h-476z" />
    <glyph glyph-name="Igrave" unicode="&#xcc;" horiz-adv-x="306" 
d="M123 759l-119 118l52 56l152 -174h-85zM95 0v700h95v-700h-95z" />
    <glyph glyph-name="Iacute" unicode="&#xcd;" horiz-adv-x="299" 
d="M125 743l-73 19l151 172l43 -71zM99 0v705h89v-705h-89z" />
    <glyph glyph-name="Icircumflex" unicode="&#xce;" horiz-adv-x="300" 
d="M224 749l-74 112l-80 -112h-82l144 196h36l141 -196h-85zM96 0v705h93v-705h-93z" />
    <glyph glyph-name="Idieresis" unicode="&#xcf;" horiz-adv-x="299" 
d="M48 804q-21 0 -36 16t-15 38q0 23 15 39t36 16q22 0 37.5 -16t15.5 -39q0 -22 -15.5 -38t-37.5 -16zM230 804q-22 0 -37.5 16t-15.5 38q0 23 15.5 39t37.5 16q21 0 36 -16t15 -39q0 -22 -15 -38t-36 -16zM96 0v705h93v-705h-93z" />
    <glyph glyph-name="Eth" unicode="&#xd0;" horiz-adv-x="800" 
d="M402 0h-264v313h-117v84h117v303h264q141 0 244.5 -104t103.5 -246t-103.5 -246t-244.5 -104zM401 614h-167v-217l179 2v-86h-179v-227h167q105 0 178.5 79.5t73.5 184.5q0 107 -73.5 185.5t-178.5 78.5z" />
    <glyph glyph-name="Ntilde" unicode="&#xd1;" horiz-adv-x="776" 
d="M457 758q-47 0 -89 34q-38 32 -58 32q-23 0 -32.5 -10.5t-22.5 -50.5l-71 17l10 31q29 85 110 85q43 0 91 -36q26 -21 34.5 -25.5t22.5 -4.5q20 0 33 12.5t32 54.5l61 -30q-27 -62 -52.5 -85.5t-68.5 -23.5zM673 0l-476 485l1 -485h-96v700l476 -476v476h96z" />
    <glyph glyph-name="Ograve" unicode="&#xd2;" horiz-adv-x="816" 
d="M420 759l-128 118l56 56l163 -174h-91zM408 -13q-140 0 -249 111t-109 254t109 254.5t249 111.5t249 -111.5t109 -254.5t-109 -254t-249 -111zM408 629q-100 0 -180.5 -86.5t-80.5 -190.5q0 -103 80.5 -190t180.5 -87q101 0 181 86.5t80 190.5t-80 190.5t-181 86.5z" />
    <glyph glyph-name="Oacute" unicode="&#xd3;" horiz-adv-x="816" 
d="M382 743l-79 19l163 172l46 -71zM408 -13q-140 0 -249 111t-109 254t109 254.5t249 111.5t249 -111.5t109 -254.5t-109 -254t-249 -111zM408 629q-100 0 -180.5 -86.5t-80.5 -190.5q0 -103 80.5 -190t180.5 -87q101 0 181 86.5t80 190.5t-80 190.5t-181 86.5z" />
    <glyph glyph-name="Ocircumflex" unicode="&#xd4;" horiz-adv-x="816" 
d="M488 753l-76 112l-83 -112h-85l149 196h37l146 -196h-88zM408 -13q-140 0 -249 111t-109 254t109 254.5t249 111.5t249 -111.5t109 -254.5t-109 -254t-249 -111zM408 630q-100 0 -180.5 -87t-80.5 -191q0 -103 80.5 -190t180.5 -87q101 0 181 86.5t80 190.5t-80 191
t-181 87z" />
    <glyph glyph-name="Otilde" unicode="&#xd5;" horiz-adv-x="816" 
d="M476 758q-47 0 -89 34q-38 32 -59 32q-23 0 -32.5 -10.5t-21.5 -50.5l-72 17l10 31q27 85 110 85q44 0 92 -36q26 -21 35 -25.5t22 -4.5q20 0 33 12.5t33 54.5l62 -30q-28 -61 -54 -85t-69 -24zM408 -13q-140 0 -249 111t-109 254q0 142 109 253.5t249 111.5t249 -111.5
t109 -253.5q0 -143 -109 -254t-249 -111zM408 629q-100 0 -180.5 -87t-80.5 -190t80.5 -190t180.5 -87q101 0 181 86.5t80 190.5t-80 190.5t-181 86.5z" />
    <glyph glyph-name="Odieresis" unicode="&#xd6;" horiz-adv-x="816" 
d="M306 804q-22 0 -38 16t-16 38q0 23 16 39t38 16t38 -16t16 -39q0 -22 -16 -38t-38 -16zM495 804q-23 0 -39 16t-16 38t16 38.5t39 16.5q22 0 37.5 -16t15.5 -39q0 -22 -15.5 -38t-37.5 -16zM408 -13q-140 0 -249 111t-109 254q0 142 109 253.5t249 111.5t249 -111.5
t109 -253.5q0 -143 -109 -254t-249 -111zM408 629q-100 0 -180.5 -87t-80.5 -190t80.5 -190t180.5 -87q101 0 181 86.5t80 190.5t-80 190.5t-181 86.5z" />
    <glyph glyph-name="multiply" unicode="&#xd7;" horiz-adv-x="413" 
d="M264 303l109 -109l-55 -56l-109 109l-111 -110l-55 56l110 110l-110 110l56 55l110 -109l109 108l55 -55z" />
    <glyph glyph-name="Oslash" unicode="&#xd8;" horiz-adv-x="816" 
d="M413 -14q-85 2 -144 29l-36 -69l-66 32l39 72q-73 53 -114 132t-42 172q-2 140 106.5 251t246.5 109q69 -2 134 -25l30 59l19 -5l55 -12l-40 -76q63 -45 113 -116q50 -74 52 -194q2 -91 -48 -175.5t-133 -134.5t-172 -49zM405 626q-99 2 -179.5 -83.5t-78.5 -185.5
q2 -86 35 -138q32 -51 69 -84l245 473q-45 16 -91 18zM631 486q-35 52 -74 85l-246 -476q44 -19 102 -21q100 -2 179 84t77 188q-2 89 -38 140z" />
    <glyph glyph-name="Ugrave" unicode="&#xd9;" horiz-adv-x="716" 
d="M349 759l-127 118l56 56l162 -174h-91zM358 -13q-128 0 -205.5 81t-77.5 224v413h96v-409q0 -110 48.5 -165.5t138.5 -55.5t138.5 55.5t48.5 165.5v409h96v-413q0 -143 -77.5 -224t-205.5 -81z" />
    <glyph glyph-name="Uacute" unicode="&#xda;" horiz-adv-x="716" 
d="M338 740l-79 19l162 172l46 -71zM358 -13q-128 0 -205.5 81t-77.5 224v413h96v-409q0 -110 48.5 -165.5t138.5 -55.5t138.5 55.5t48.5 165.5v409h96v-413q0 -143 -77.5 -224t-205.5 -81z" />
    <glyph glyph-name="Ucircumflex" unicode="&#xdb;" horiz-adv-x="716" 
d="M437 753l-76 112l-82 -112h-85l149 196h36l145 -196h-87zM358 -13q-128 0 -205.5 81t-77.5 224v413h96v-408q0 -111 48.5 -166.5t138.5 -55.5t138.5 55.5t48.5 166.5v408h96v-413q0 -143 -77.5 -224t-205.5 -81z" />
    <glyph glyph-name="Udieresis" unicode="&#xdc;" horiz-adv-x="716" 
d="M265 804q-22 0 -37.5 16t-15.5 38q0 23 15.5 39t37.5 16t38 -16t16 -39q0 -22 -15.5 -38t-38.5 -16zM453 804q-23 0 -39 16t-16 38t16 38.5t39 16.5q22 0 37.5 -16t15.5 -39q0 -22 -15.5 -38t-37.5 -16zM358 -13q-128 0 -205.5 80.5t-77.5 223.5v414h96v-409
q0 -110 48.5 -165.5t138.5 -55.5t138.5 55.5t48.5 165.5v409h96v-414q0 -143 -77.5 -223.5t-205.5 -80.5z" />
    <glyph glyph-name="Yacute" unicode="&#xdd;" horiz-adv-x="625" 
d="M294 743l-78 19l162 172l46 -71zM360 275v-275h-94v275l-254 430h99l203 -336l201 336h96z" />
    <glyph glyph-name="Thorn" unicode="&#xde;" horiz-adv-x="644" 
d="M361 -4h-177v-200h-92v917h92v-200h177q98 0 168 -76.5t69 -182.5q-2 -110 -69.5 -184t-167.5 -74zM346 428h-162v-346h162q66 0 113 48.5t47 123.5q0 76 -47 125t-113 49z" />
    <glyph glyph-name="germandbls" unicode="&#xdf;" horiz-adv-x="644" 
d="M540 45q-71 -45 -175 -45h-96v86h91q155 0 155 119q0 46 -41.5 78.5t-105.5 32.5h-69v84h60q60 0 96 27t36 68q0 119 -158 119q-150 0 -150 -118v-496h-95v502q0 103 72 151q71 47 169 47h6q102 0 176 -47q76 -48 76 -151q0 -60 -36 -98q-27 -28 -58 -43q36 -16 72 -47
q47 -44 47 -117q0 -105 -72 -152z" />
    <glyph glyph-name="agrave" unicode="&#xe0;" horiz-adv-x="561" 
d="M295 562l-126 117l56 56l160 -173h-90zM406 0v64q-66 -75 -172 -75q-77 0 -128.5 46.5t-51.5 124.5q0 81 54.5 124.5t151.5 43.5q68 0 145 -30q-1 78 -28 107t-100 37q-1 0 -3.5 0.5t-4.5 0.5h-14q-18 0 -48 -4q-63 -9 -97 -18l-20 80q102 29 172 26l20 -1
q124 -7 169 -59.5t45 -184.5v-282h-90zM405 222q-77 32 -131 32q-129 0 -129 -94q0 -43 29 -68.5t82 -25.5q44 0 85 26q44 29 64 59v71z" />
    <glyph glyph-name="aacute" unicode="&#xe1;" horiz-adv-x="561" 
d="M252 561l-78 19l161 171l45 -71zM406 0v64q-66 -75 -172 -75q-77 0 -128.5 46.5t-51.5 124.5q0 81 54.5 124.5t151.5 43.5q67 0 145 -29q-1 77 -28 106t-100 37q-2 1 -8 1h-14q-28 0 -48 -4q-72 -11 -97 -18l-20 81q104 28 172 25l20 -1q124 -6 169 -59t45 -185v-282h-90
zM405 222q-77 32 -131 32q-129 0 -129 -94q0 -43 29 -68.5t82 -25.5q44 0 85 26q44 29 64 59v71z" />
    <glyph glyph-name="acircumflex" unicode="&#xe2;" horiz-adv-x="561" 
d="M355 558l-75 112l-81 -112h-84l147 195h36l144 -195h-87zM406 0v64q-66 -75 -172 -75q-77 0 -128.5 47t-51.5 125q0 81 54.5 124t151.5 43q67 0 145 -29q-1 78 -28 106.5t-100 36.5q-2 1 -8 1h-14q-28 0 -48 -4q-72 -11 -97 -18l-20 81q104 28 172 25l20 -1
q124 -6 169 -59t45 -185v-282h-90zM405 222q-77 32 -131 32q-129 0 -129 -93q0 -44 29 -69.5t82 -25.5q44 0 85 26q44 29 64 59v71z" />
    <glyph glyph-name="atilde" unicode="&#xe3;" horiz-adv-x="561" 
d="M354 603q-47 0 -87 34q-36 31 -58 31q-23 0 -32 -10t-22 -50l-70 17l10 30q27 85 108 85q45 0 90 -36q25 -20 34 -24.5t23 -4.5q19 0 32 12.5t32 53.5l61 -29q-27 -62 -52.5 -85.5t-68.5 -23.5zM406 0v64q-66 -75 -172 -75q-77 0 -128.5 46.5t-51.5 124.5
q0 81 54.5 124.5t151.5 43.5q68 0 145 -30q-1 78 -28 107t-100 37q-2 1 -8 1h-14q-18 0 -48 -4q-72 -11 -97 -18l-20 80q102 29 172 26l20 -1q124 -6 169 -59t45 -185v-282h-90zM405 222q-77 32 -131 32q-129 0 -129 -94q0 -43 29 -68.5t82 -25.5q44 0 85 26q44 29 64 59v71
z" />
    <glyph glyph-name="adieresis" unicode="&#xe4;" horiz-adv-x="561" 
d="M179 614q-22 0 -37 15.5t-15 37.5q0 23 15 39t37 16t38 -16t16 -39q0 -22 -16 -37.5t-38 -15.5zM365 614q-22 0 -38 15.5t-16 37.5t16 38.5t38 16.5t37.5 -16t15.5 -39q0 -22 -15.5 -37.5t-37.5 -15.5zM406 0v64q-66 -75 -172 -75q-77 0 -128.5 46.5t-51.5 124.5
q0 81 54.5 124.5t151.5 43.5q68 0 145 -30q-1 78 -28 107t-100 37q-4 0 -8 1h-14q-18 0 -48 -4q-63 -9 -97 -18l-20 80q109 29 172 25l20 -1q124 -6 169 -58.5t45 -184.5v-282h-90zM405 222q-77 32 -131 32q-129 0 -129 -94q0 -43 29 -68.5t82 -25.5q44 0 85 26q44 29 64 59
v71z" />
    <glyph glyph-name="aring" unicode="&#xe5;" horiz-adv-x="561" 
d="M281 565q-48 0 -79.5 33t-31.5 83t31.5 83t79.5 33t79.5 -33t31.5 -83t-31.5 -83t-79.5 -33zM282 737q-22 0 -37 -16.5t-15 -39.5q0 -24 14.5 -41t36.5 -17t36 16.5t14 41.5q0 24 -14 40t-35 16zM406 0v64q-66 -75 -172 -75q-77 0 -128.5 47t-51.5 125q0 81 54.5 124.5
t151.5 43.5q64 0 145 -30q-1 78 -28 107t-100 37q-1 0 -3.5 0.5t-4.5 0.5h-14q-18 0 -48 -4q-63 -9 -97 -18l-20 80q102 29 172 26l20 -1q124 -6 169 -59t45 -185v-283h-90zM405 223q-75 31 -131 31q-129 0 -129 -93q0 -44 29 -69.5t82 -25.5q44 0 85 26q44 29 64 59v72z
" />
    <glyph glyph-name="ae" unicode="&#xe6;" horiz-adv-x="937" 
d="M505 219v-51q17 -39 57 -67q41 -29 87 -29q84 0 170 60l49 -59q-87 -84 -223 -84q-68 0 -121 34q-45 31 -68 67q-32 -35 -88 -66q-62 -35 -136 -35q-80 0 -131 44q-53 45 -53 124q0 81 54.5 124t151.5 43q77 0 156 -29v65q-10 42 -39.5 59.5t-90.5 17.5q-49 0 -173 -21
l-18 80q44 11 98 17q61 7 96 7q129 0 176 -71q76 69 188 71q112 1 179.5 -81.5t67.5 -192.5v-27h-389zM757 393q-41 47 -113 47q-85 0 -137 -80v-71h292q-6 62 -42 104zM410 220q-76 31 -140 31q-135 0 -135 -95q0 -41 29.5 -66t81.5 -25q48 0 95 26q49 27 69 58v71z" />
    <glyph glyph-name="ccedilla" unicode="&#xe7;" horiz-adv-x="541" 
d="M317 -17l-5 -35q50 -3 78 -28t28 -71q0 -43 -28.5 -69.5t-75.5 -26.5q-44 0 -112 50l36 48q27 -21 43 -28t38 -7q35 0 35 33q0 20 -11.5 29t-39.5 9h-59l17 100q-94 20 -153 93t-60 174q-1 105 77.5 186.5t180.5 79.5q61 -1 107.5 -21.5t95.5 -70.5l-58 -63
q-65 69 -141 69q-70 0 -121 -54t-51 -129q0 -76 51 -129t121 -53q41 0 73 15.5t67 52.5l59 -60q-48 -50 -91 -71t-101 -23z" />
    <glyph glyph-name="egrave" unicode="&#xe8;" horiz-adv-x="600" 
d="M296 562l-126 117l55 56l162 -173h-91zM142 222q9 -61 60.5 -105t114.5 -44q83 0 167 62l51 -64q-40 -40 -102 -61q-57 -19 -122 -21q-106 -1 -184.5 80t-78.5 188q0 106 78.5 188t181.5 81q114 -2 181.5 -83t67.5 -221h-415zM309 445q-63 0 -110.5 -45.5t-54.5 -107.5
h319q-6 63 -49.5 108t-104.5 45z" />
    <glyph glyph-name="eacute" unicode="&#xe9;" horiz-adv-x="600" 
d="M287 570l-78 19l162 171l46 -71zM142 222q9 -61 60.5 -105t114.5 -44q81 0 167 62l51 -64q-40 -40 -102 -61q-57 -19 -122 -21q-106 -1 -184.5 80t-78.5 188q0 106 78.5 188t181.5 81q114 -2 181.5 -83t67.5 -221h-415zM309 445q-63 0 -110.5 -45.5t-54.5 -107.5h319
q-6 63 -49.5 108t-104.5 45z" />
    <glyph glyph-name="ecircumflex" unicode="&#xea;" horiz-adv-x="600" 
d="M382 558l-76 112l-82 -112h-84l148 195h36l145 -195h-87zM142 222q9 -61 60.5 -105t114.5 -44q81 0 167 62l51 -64q-40 -40 -102 -61q-57 -19 -122 -21q-106 -1 -184.5 80t-78.5 188q0 106 78.5 188t181.5 81q114 -2 181.5 -83t67.5 -221h-415zM309 445
q-63 0 -110.5 -45.5t-54.5 -107.5h319q-6 63 -49.5 108t-104.5 45z" />
    <glyph glyph-name="edieresis" unicode="&#xeb;" horiz-adv-x="600" 
d="M214 614q-22 0 -37 15.5t-15 37.5q0 23 15 39t37 16t38 -16t16 -39q0 -22 -15.5 -37.5t-38.5 -15.5zM401 614q-22 0 -38 15.5t-16 37.5t16 38.5t38 16.5t37.5 -16t15.5 -39q0 -22 -15.5 -37.5t-37.5 -15.5zM142 222q9 -61 60.5 -105t114.5 -44q83 0 167 62l51 -64
q-40 -40 -102 -61q-57 -19 -122 -21q-106 -1 -184.5 80t-78.5 188q0 106 78.5 187.5t181.5 80.5q114 -2 181.5 -82.5t67.5 -220.5h-415zM309 445q-63 0 -110.5 -45.5t-54.5 -107.5h319q-6 63 -49.5 108t-104.5 45z" />
    <glyph glyph-name="igrave" unicode="&#xec;" horiz-adv-x="294" 
d="M125 562l-119 117l52 56l152 -173h-85zM108 0v515h87v-515h-87z" />
    <glyph glyph-name="iacute" unicode="&#xed;" horiz-adv-x="290" 
d="M143 570l-74 19l152 171l43 -71zM106 0v515h89v-515h-89z" />
    <glyph glyph-name="icircumflex" unicode="&#xee;" horiz-adv-x="330" 
d="M241 558l-74 112l-80 -112h-82l144 195h36l141 -195h-85zM111 0v515h90v-515h-90z" />
    <glyph glyph-name="idieresis" unicode="&#xef;" horiz-adv-x="292" 
d="M56 614q-21 0 -36 15.5t-15 37.5q0 23 15 39t36 16q22 0 37.5 -16t15.5 -39q0 -22 -15.5 -37.5t-37.5 -15.5zM238 614q-22 0 -37.5 15.5t-15.5 37.5q0 23 15.5 39t37.5 16q21 0 36 -16t15 -39q0 -22 -15 -37.5t-36 -15.5zM102 0v515h89v-515h-89z" />
    <glyph glyph-name="eth" unicode="&#xf0;" horiz-adv-x="601" 
d="M490 71q-60 -84 -207 -84q-109 0 -176 73t-67 181q0 102 64.5 163t161.5 61q126 0 190 -93q-9 169 -87 227l-54 -92l-56 21l54 93q-21 5 -52 3l-51 -1v89l59 1q39 1 92 -11l36 62l53 -24l-36 -61q72 -46 104.5 -135.5t32.5 -233.5q0 -156 -61 -239zM287 382
q-65 -2 -109 -41.5t-44 -102.5q0 -72 41 -118.5t110 -46.5q88 0 126 47q36 47 38 112q2 53 -51 102t-111 48z" />
    <glyph glyph-name="ntilde" unicode="&#xf1;" 
d="M382 603q-46 0 -87 34q-37 31 -58 31q-23 0 -32 -10t-22 -50l-71 17l10 30q29 85 109 85q44 0 90 -36q26 -20 34.5 -24.5t21.5 -4.5q20 0 32.5 12t31.5 54l62 -29q-27 -61 -52.5 -85t-68.5 -24zM442 0v278q0 78 -34 120t-91 42q-54 0 -90.5 -49t-36.5 -120v-271h-91v515
h91v-62q51 73 144 73q92 0 145.5 -60t53.5 -169v-297h-91z" />
    <glyph glyph-name="ograve" unicode="&#xf2;" horiz-adv-x="622" 
d="M297 562l-127 117l55 56l162 -173h-90zM311 -11q-104 0 -183.5 81t-79.5 187q0 105 79.5 187t183.5 82t183.5 -82t79.5 -187q0 -106 -79.5 -187t-183.5 -81zM311 440q-69 0 -120 -54t-51 -129t51 -129t120 -54q70 0 121 54t51 129t-51 129t-121 54z" />
    <glyph glyph-name="oacute" unicode="&#xf3;" horiz-adv-x="622" 
d="M288 566l-78 19l161 171l46 -71zM311 -11q-104 0 -183.5 81t-79.5 187t79.5 187.5t183.5 81.5t183.5 -81.5t79.5 -187.5t-79.5 -187t-183.5 -81zM311 440q-69 0 -120 -54t-51 -129t51 -129t120 -54q70 0 121 54t51 129t-51 129t-121 54z" />
    <glyph glyph-name="ocircumflex" unicode="&#xf4;" horiz-adv-x="622" 
d="M382 558l-76 112l-82 -112h-84l148 195h37l144 -195h-87zM311 -11q-104 0 -183.5 81t-79.5 187t79.5 187.5t183.5 81.5t183.5 -81.5t79.5 -187.5t-79.5 -187t-183.5 -81zM311 440q-69 0 -120 -54t-51 -129t51 -129t120 -54q70 0 121 54t51 129t-51 129t-121 54z" />
    <glyph glyph-name="otilde" unicode="&#xf5;" horiz-adv-x="622" 
d="M374 603q-47 0 -88 34q-38 31 -59 31q-23 0 -32 -10t-22 -50l-71 17l10 30q27 85 109 85q45 0 91 -36q26 -20 34.5 -24.5t22.5 -4.5q20 0 32.5 12t31.5 54l62 -29q-27 -61 -52.5 -85t-68.5 -24zM311 -11q-104 0 -183.5 81t-79.5 187t79.5 187.5t183.5 81.5t183.5 -81.5
t79.5 -187.5t-79.5 -187t-183.5 -81zM311 440q-69 0 -120 -54t-51 -129t51 -129t120 -54q70 0 121 54t51 129t-51 129t-121 54z" />
    <glyph glyph-name="odieresis" unicode="&#xf6;" horiz-adv-x="622" 
d="M217 614q-22 0 -37.5 15.5t-15.5 37.5q0 23 15.5 39t37.5 16t38 -16.5t16 -38.5t-16 -37.5t-38 -15.5zM403 614q-22 0 -38 15.5t-16 37.5t16 38.5t38 16.5t38 -16t16 -39q0 -22 -16 -37.5t-38 -15.5zM311 -11q-104 0 -183.5 81t-79.5 187q0 105 79.5 186.5t183.5 81.5
t183.5 -81.5t79.5 -186.5q0 -106 -79.5 -187t-183.5 -81zM311 440q-69 0 -120 -54t-51 -129t51 -129t120 -54q70 0 121 54t51 129t-51 129t-121 54z" />
    <glyph glyph-name="divide" unicode="&#xf7;" horiz-adv-x="537" 
d="M269 431q-23 0 -38.5 15.5t-15.5 38.5q0 24 15.5 40.5t38.5 16.5q24 0 40 -16.5t16 -40.5q0 -23 -16.5 -38.5t-39.5 -15.5zM52 265v74h447v-74h-447zM269 65q-23 0 -38.5 16t-15.5 39q0 24 15.5 40t38.5 16q24 0 40 -16t16 -40t-16 -39.5t-40 -15.5z" />
    <glyph glyph-name="oslash" unicode="&#xf8;" horiz-adv-x="620" 
d="M312 -12q-52 2 -96 18l-23 -51h-82l42 84q-50 36 -78 94t-29 123q-2 104 78 185.5t182 79.5q49 0 88 -15l17 30l18 28l63 -31l-33 -60q111 -80 113 -221q2 -104 -78 -185t-182 -79zM309 436q-70 0 -121 -53.5t-51 -128.5q0 -42 14 -71.5t45 -60.5l158 307q-21 7 -45 7z
M416 392l-161 -310q27 -10 54 -10q69 0 120 53.5t51 128.5q0 78 -64 138z" />
    <glyph glyph-name="ugrave" unicode="&#xf9;" 
d="M296 562l-126 117l55 56l161 -173h-90zM415 0v76q-54 -87 -144 -87q-92 0 -145.5 60t-53.5 169v297h91v-278q0 -78 34 -120t91 -42q54 0 90.5 48.5t36.5 120.5v271h91v-515h-91z" />
    <glyph glyph-name="uacute" unicode="&#xfa;" 
d="M278 570l-77 19l160 171l46 -71zM415 0v76q-54 -87 -144 -87q-92 0 -145.5 60t-53.5 169v297h91v-277q0 -78 34 -120.5t91 -42.5q54 0 90.5 49t36.5 120v271h91v-515h-91z" />
    <glyph glyph-name="ucircumflex" unicode="&#xfb;" 
d="M364 558l-75 112l-81 -112h-84l147 195h36l144 -195h-87zM415 0v76q-54 -87 -144 -87q-92 0 -145.5 60t-53.5 169v297h91v-277q0 -78 34 -120.5t91 -42.5q54 0 90.5 49t36.5 120v271h91v-515h-91z" />
    <glyph glyph-name="udieresis" unicode="&#xfc;" 
d="M197 614q-22 0 -37 15.5t-15 37.5q0 23 15 39t37 16t38 -16t16 -39q0 -22 -16 -37.5t-38 -15.5zM383 614q-22 0 -38 15.5t-16 37.5q0 23 16 39t38 16t37 -16t15 -39q0 -22 -15 -37.5t-37 -15.5zM415 0v76q-54 -87 -144 -87q-92 0 -145.5 60t-53.5 169v297h91v-278
q0 -78 34 -120t91 -42q54 0 90.5 48.5t36.5 120.5v271h91v-515h-91z" />
    <glyph glyph-name="yacute" unicode="&#xfd;" horiz-adv-x="516" 
d="M242 569l-79 19l162 172l46 -71zM205 -204h-98l102 235l-206 483h90l165 -376l163 376h92z" />
    <glyph glyph-name="thorn" unicode="&#xfe;" horiz-adv-x="651" 
d="M362 -4h-177v-200h-92v917h92v-200h177q98 0 168 -76.5t69 -182.5q-2 -110 -69.5 -184t-167.5 -74zM347 428h-162v-346h162q66 0 113 48.5t47 123.5q0 76 -47 125t-113 49z" />
    <glyph glyph-name="ydieresis" unicode="&#xff;" horiz-adv-x="516" 
d="M162 613q-22 0 -37.5 15.5t-15.5 38.5t15.5 39t37.5 16t38 -16.5t16 -38.5t-16 -38t-38 -16zM348 613q-22 0 -38 16t-16 38t16 38.5t38 16.5t37.5 -16t15.5 -39t-15.5 -38.5t-37.5 -15.5zM205 -204h-98l102 235l-206 483h90l165 -377l163 377h92z" />
    <glyph glyph-name="Amacron" unicode="&#x100;" horiz-adv-x="712" 
d="M216 829v75h285v-75h-285zM603 0l-82 182h-327l-82 -182h-102l340 721h15l341 -721h-103zM358 554l-129 -286h257z" />
    <glyph glyph-name="amacron" unicode="&#x101;" horiz-adv-x="561" 
d="M138 638v75h281v-75h-281zM406 0v64q-66 -75 -172 -75q-77 0 -128.5 46.5t-51.5 124.5q0 81 54.5 124.5t151.5 43.5q64 0 145 -30q-1 78 -28 107t-100 37h-8h-14q-25 0 -48 -3q-83 -15 -97 -18l-20 80q104 28 172 25l20 -1q124 -6 169 -58.5t45 -184.5v-282h-90zM405 222
q-77 32 -131 32q-129 0 -129 -94q0 -43 29 -68.5t82 -25.5q44 0 85 26q42 26 64 59v71z" />
    <glyph glyph-name="Abreve" unicode="&#x102;" horiz-adv-x="712" 
d="M358 780q-59 0 -93.5 27t-65.5 93l64 30q22 -49 41 -64t54 -15q33 0 49.5 12t34.5 47l10 20l63 -29q-28 -67 -63 -94t-94 -27zM603 0l-82 182h-327l-82 -182h-102l340 721h15l341 -721h-103zM358 555l-129 -287h257z" />
    <glyph glyph-name="abreve" unicode="&#x103;" horiz-adv-x="561" 
d="M284 599q-58 0 -92.5 27t-64.5 93l63 29q22 -49 40.5 -64t53.5 -15q32 0 48.5 12.5t33.5 46.5l10 20l63 -29q-28 -67 -62.5 -93.5t-92.5 -26.5zM406 0v64q-66 -75 -172 -75q-77 0 -128.5 46.5t-51.5 124.5q0 81 54.5 124.5t151.5 43.5q67 0 145 -29q-1 77 -28 106
t-100 37q-2 1 -8 1h-14q-28 0 -48 -4q-72 -11 -97 -18l-20 81q104 28 172 25l20 -1q124 -6 169 -59t45 -185v-282h-90zM405 222q-77 32 -131 32q-129 0 -129 -94q0 -43 29 -68.5t82 -25.5q44 0 85 26q44 29 64 59v71z" />
    <glyph glyph-name="Aogonek" unicode="&#x104;" horiz-adv-x="712" 
d="M648 -4q-25 -3 -51.5 -26t-26.5 -50q0 -65 46 -63l68 2v-61l-42 -1q-7 -1 -33 -1q-48 0 -76 29.5t-28 84.5q0 73 75 114l-60 154h-326l-83 -182h-108l353 734l338 -734h-46zM353 560q-9 -31 -57 -143.5t-67 -152.5h256z" />
    <glyph glyph-name="aogonek" unicode="&#x105;" horiz-adv-x="559" 
d="M458 -204q-51 0 -82 29.5t-31 84.5q0 69 68 112l-3 17l-1 12q-77 -67 -183 -67q-74 0 -126 47.5t-52 123.5q0 80 54 123.5t147 43.5q69 0 145 -29q-1 81 -29 112t-97 31q-62 0 -140 -15l-6 -2q-6 -2 -18 -2l-21 78q39 10 92 18q54 7 96 7q121 0 168 -56t47 -187v-279
q-79 -41 -79 -77q0 -19 6.5 -32.5t13.5 -20t23.5 -9.5t24.5 -3t30 1.5t27 1.5v-63h-74zM395 217q-75 31 -132 31q-124 0 -124 -93q0 -42 30 -68t79 -26q38 0 81 22q39 21 66 48v86z" />
    <glyph glyph-name="Cacute" unicode="&#x106;" horiz-adv-x="725" 
d="M379 742l-78 19l162 172l47 -71zM620 527q-94 101 -218 102q-98 2 -176.5 -85.5t-78.5 -191.5t78.5 -191t176.5 -86q63 2 115 25t107 76l63 -68q-118 -119 -285 -121q-137 -2 -244.5 110t-107.5 255q0 92 49 177.5t131 137.5t172 50q166 -2 285 -121z" />
    <glyph glyph-name="cacute" unicode="&#x107;" horiz-adv-x="532" 
d="M266 570l-77 19l160 171l46 -71zM306 -11q-103 -1 -180.5 80.5t-77.5 187.5t77.5 188.5t180.5 80.5q115 -2 204 -91l-60 -65q-34 39 -66 54.5t-74 15.5q-70 0 -121 -54t-51 -129q0 -76 51 -129t121 -53q73 0 141 68l59 -62q-42 -44 -96.5 -67.5t-107.5 -24.5z" />
    <glyph glyph-name="Ccircumflex" unicode="&#x108;" horiz-adv-x="725" 
d="M485 753l-77 112l-82 -112h-84l148 196h37l146 -196h-88zM620 527q-50 54 -101.5 77.5t-116.5 25.5q-98 1 -176.5 -86.5t-78.5 -191.5t78.5 -191t176.5 -86q63 2 115 25t107 76l63 -68q-118 -119 -285 -121q-137 -2 -244.5 110t-107.5 255q0 142 107.5 255t244.5 111
q168 -3 285 -122z" />
    <glyph glyph-name="ccircumflex" unicode="&#x109;" horiz-adv-x="532" 
d="M374 559l-75 112l-81 -112h-84l147 195h36l144 -195h-87zM306 -11q-103 -1 -180.5 80.5t-77.5 187.5t77.5 188.5t180.5 80.5q115 -2 204 -91l-60 -65q-34 39 -66 54.5t-74 15.5q-70 0 -121 -54t-51 -129q0 -76 51 -129t121 -53q73 0 141 68l59 -62q-42 -44 -96.5 -67.5
t-107.5 -24.5z" />
    <glyph glyph-name="Cdotaccent" unicode="&#x10a;" horiz-adv-x="725" 
d="M397 798q-25 0 -42.5 17.5t-17.5 42.5t17.5 43t42.5 18t43 -18t18 -43t-18 -42.5t-43 -17.5zM620 527q-94 101 -218 102q-98 1 -176.5 -86t-78.5 -191t78.5 -191t176.5 -86q63 2 115 25t107 76l63 -68q-118 -119 -285 -121q-137 -2 -244.5 110t-107.5 255q0 92 49 177.5
t131 137.5t172 50q166 -2 285 -121z" />
    <glyph glyph-name="cdotaccent" unicode="&#x10b;" horiz-adv-x="532" 
d="M302 607q-25 0 -42.5 18t-17.5 43t17.5 42.5t42.5 17.5t42.5 -17.5t17.5 -42.5t-17.5 -43t-42.5 -18zM306 -11q-103 -1 -180.5 80t-77.5 188q0 106 77.5 188t180.5 81q115 -3 204 -92l-60 -64q-34 39 -66 54.5t-74 15.5q-70 0 -121 -54t-51 -129q0 -76 51 -129t121 -53
q73 0 141 68l59 -63q-88 -89 -204 -91z" />
    <glyph glyph-name="Ccaron" unicode="&#x10c;" horiz-adv-x="725" 
d="M428 750h-53l-138 196h85l80 -122l80 122h83zM620 527q-50 54 -101.5 77.5t-116.5 25.5q-98 1 -176.5 -86.5t-78.5 -191.5t78.5 -191t176.5 -86q63 2 115 25t107 76l63 -68q-118 -119 -285 -121q-137 -2 -244.5 110t-107.5 255q0 142 107.5 255t244.5 111
q168 -3 285 -122z" />
    <glyph glyph-name="ccaron" unicode="&#x10d;" horiz-adv-x="532" 
d="M325 558h-53l-136 195h84l79 -122l79 122h82zM306 -11q-103 -1 -180.5 80.5t-77.5 187.5t77.5 188.5t180.5 80.5q115 -2 204 -91l-60 -65q-34 39 -66 54.5t-74 15.5q-70 0 -121 -54t-51 -129q0 -76 51 -129t121 -53q73 0 141 68l59 -63q-88 -89 -204 -91z" />
    <glyph glyph-name="Dcaron" unicode="&#x10e;" horiz-adv-x="753" 
d="M380 750h-54l-137 196h85l80 -122l80 122h83zM361 0h-262v705h262q141 0 244 -104.5t103 -247.5q0 -144 -103 -248.5t-244 -104.5zM360 619h-165v-533h165q105 0 178 80t73 187t-73 186.5t-178 79.5z" />
    <glyph glyph-name="dcaron" unicode="&#x10f;" horiz-adv-x="737" 
d="M454 0v66q-30 -39 -68 -57.5t-106 -19.5q-101 -1 -166.5 78.5t-65.5 190.5q0 112 66 190t169 78q73 0 123 -39q31 -26 47 -49v300h93v-738h-92zM663 444l-30 47q74 51 89 110q-26 1 -43.5 20.5t-17.5 45.5q0 27 19.5 47t46.5 20q31 0 50 -22.5t19 -60.5q0 -139 -133 -207
zM297 440q-67 0 -111.5 -53.5t-44.5 -128.5q0 -80 44 -132t112 -52q66 0 111.5 54.5t45.5 128.5t-45.5 128.5t-111.5 54.5z" />
    <glyph glyph-name="Dcroat" unicode="&#x110;" horiz-adv-x="791" 
d="M393 0h-264v313h-117v84h117v303h264q141 0 244.5 -104t103.5 -246t-103.5 -246t-244.5 -104zM392 614h-167v-217h180v-84h-180v-227h167q105 0 178.5 79.5t73.5 184.5q0 107 -73.5 185.5t-178.5 78.5z" />
    <glyph glyph-name="dslash" unicode="&#x111;" horiz-adv-x="631" 
d="M450 69q-2 -2 -5 -5.5t-5 -5.5t-4 -3q-57 -66 -155 -66q-101 0 -167 78.5t-66 190.5t66 189.5t167 77.5q76 0 123 -40q26 -22 45 -47v118h-121v72h121v95h92v-95h63v-72h-63v-556h-92zM294 440q-65 0 -109.5 -53.5t-44.5 -128.5q0 -81 43 -132.5t111 -51.5q65 0 110 54.5
t45 128.5q0 75 -44 129t-111 54z" />
    <glyph glyph-name="Emacron" unicode="&#x112;" horiz-adv-x="634" 
d="M188 833v75h281v-75h-281zM96 0v705h476v-88h-381v-218h381v-87h-381v-225h381v-87h-476z" />
    <glyph glyph-name="emacron" unicode="&#x113;" horiz-adv-x="600" 
d="M169 637v75h282v-75h-282zM142 222q9 -61 60.5 -105t114.5 -44q83 0 167 62l51 -64q-40 -40 -102 -61q-57 -19 -122 -21q-106 -1 -184.5 80t-78.5 188q0 106 78.5 187.5t181.5 80.5q114 -2 181.5 -82.5t67.5 -220.5h-415zM309 444q-63 0 -110.5 -45.5t-54.5 -106.5h319
q-6 63 -49.5 107.5t-104.5 44.5z" />
    <glyph glyph-name="Ebreve" unicode="&#x114;" horiz-adv-x="634" 
d="M329 789q-58 0 -92.5 27.5t-63.5 92.5l62 30q22 -49 40.5 -64t53.5 -15q32 0 49 12.5t34 46.5l10 20l63 -29q-28 -67 -62.5 -94t-93.5 -27zM96 0v705h476v-87h-381v-218h381v-88h-381v-225h381v-87h-476z" />
    <glyph glyph-name="ebreve" unicode="&#x115;" horiz-adv-x="600" 
d="M305 599q-58 0 -92.5 27t-64.5 93l63 29q22 -49 40.5 -64t53.5 -15q32 0 49 12.5t34 46.5l10 20l63 -29q-28 -67 -62.5 -93.5t-93.5 -26.5zM142 222q9 -61 60.5 -105t114.5 -44q83 0 167 62l51 -64q-40 -40 -102 -61q-57 -19 -122 -21q-106 -1 -184.5 80t-78.5 188
q0 106 78.5 188t181.5 81q114 -2 181.5 -83t67.5 -221h-415zM309 445q-63 0 -110.5 -45.5t-54.5 -107.5h319q-6 63 -49.5 108t-104.5 45z" />
    <glyph glyph-name="Edotaccent" unicode="&#x116;" horiz-adv-x="634" 
d="M335 798q-25 0 -42.5 17.5t-17.5 42.5t17.5 43t42.5 18t42.5 -18t17.5 -43t-17.5 -42.5t-42.5 -17.5zM96 0v705h476v-88h-381v-218h381v-87h-381v-225h381v-87h-476z" />
    <glyph glyph-name="edotaccent" unicode="&#x117;" horiz-adv-x="600" 
d="M306 607q-25 0 -42.5 18t-17.5 43t17.5 42.5t42.5 17.5t43 -17.5t18 -42.5t-18 -43t-43 -18zM142 222q9 -61 60.5 -105t114.5 -44q83 0 167 62l51 -64q-40 -40 -102 -61q-57 -19 -122 -21q-106 -1 -184.5 80t-78.5 188q0 106 78.5 188t181.5 81q114 -2 181.5 -83
t67.5 -221h-415zM309 445q-63 0 -110.5 -45.5t-54.5 -107.5h319q-6 63 -49.5 108t-104.5 45z" />
    <glyph glyph-name="Eogonek" unicode="&#x118;" horiz-adv-x="630" 
d="M525 -204q-48 0 -76 29.5t-28 84.5q0 50 38 86l-362 1v703h477v-87h-382v-218h361v-87h-361v-225h382v-85q-34 -7 -62 -29q-27 -20 -27 -49q0 -65 45 -63l69 2v-63h-74z" />
    <glyph glyph-name="eogonek" unicode="&#x119;" horiz-adv-x="600" 
d="M142 216q9 -60 60.5 -104t114.5 -44q81 0 168 60l47 -57q-80 -80 -198 -86q-40 -28 -40 -64q0 -32 16.5 -49t40.5 -16l68 4l4 -58q-46 -6 -76 -6q-51 0 -83 30.5t-32 83.5q0 44 29 79q-89 18 -151 93t-62 172q0 105 78.5 186t181.5 80q110 -1 179.5 -79t69.5 -189v-36
h-415zM309 439q-63 0 -110.5 -45.5t-54.5 -107.5h319q-6 64 -49.5 108.5t-104.5 44.5z" />
    <glyph glyph-name="Ecaron" unicode="&#x11a;" horiz-adv-x="638" 
d="M366 750h-53l-137 196h85l79 -122l79 122h82zM96 0v705h476v-87h-381v-218h381v-88h-381v-225h381v-87h-476z" />
    <glyph glyph-name="ecaron" unicode="&#x11b;" horiz-adv-x="600" 
d="M334 558h-53l-137 195h84l80 -122l79 122h83zM142 222q9 -61 60.5 -105t114.5 -44q81 0 167 62l51 -64q-40 -40 -102 -61q-57 -19 -122 -21q-106 -1 -184.5 80t-78.5 188q0 106 78.5 188t181.5 81q114 -2 181.5 -83t67.5 -221h-415zM309 445q-63 0 -110.5 -45.5
t-54.5 -107.5h319q-6 63 -49.5 108t-104.5 45z" />
    <glyph glyph-name="Gcircumflex" unicode="&#x11c;" horiz-adv-x="755" 
d="M481 753l-76 112l-82 -112h-85l148 196h37l146 -196h-88zM400 -13q-138 -2 -244 110t-106 255t106 255t244 111q161 -3 283 -118l-66 -72q-97 99 -217 102q-98 1 -175.5 -86.5t-77.5 -191.5t78 -191t175 -86q117 3 195 70v145h-276v87h367v-274q-127 -114 -286 -116z" />
    <glyph glyph-name="gcircumflex" unicode="&#x11d;" horiz-adv-x="633" 
d="M380 557l-76 112l-81 -112h-84l147 196h37l144 -196h-87zM271 -243q-47 0 -83 10q-38 10 -50 16q-4 2 -18 9.5t-26 14.5v92l37 -13q60 -22 90 -30q35 -8 66 -8q161 0 161 184v41q-23 -30 -47 -49q-49 -40 -121 -40q-102 0 -167 78t-65 192q0 113 65.5 192t166.5 79
q78 0 117 -27q29 -19 48 -41v57h94v-474q0 -283 -268 -283zM294 439q-67 0 -111 -52.5t-44 -132.5q0 -76 44.5 -129.5t110.5 -53.5q65 0 110 55.5t45 128.5t-45 128.5t-110 55.5z" />
    <glyph glyph-name="Gbreve" unicode="&#x11e;" horiz-adv-x="755" 
d="M391 783q-58 0 -93 27t-65 93l63 30q22 -49 41 -64t54 -15q33 0 50 12.5t34 46.5l10 20l63 -29q-28 -67 -62.5 -94t-94.5 -27zM400 -13q-138 -2 -244 110t-106 255t106 255t244 111q159 -3 283 -118l-66 -72q-98 99 -217 101q-97 2 -175 -85t-78 -192q0 -104 78 -191
t175 -86q117 3 195 70v145h-276v87h367v-274q-127 -114 -286 -116z" />
    <glyph glyph-name="gbreve" unicode="&#x11f;" horiz-adv-x="633" 
d="M294 598q-58 0 -92.5 27t-64.5 93l63 30q22 -49 40.5 -64t53.5 -15q32 0 49 12.5t34 46.5l10 20l63 -29q-28 -67 -62.5 -94t-93.5 -27zM271 -243q-47 0 -83 10q-38 10 -50 16q-4 2 -18 9.5t-26 14.5v92l37 -13q60 -22 90 -30q35 -8 66 -8q161 0 161 184v41
q-23 -30 -47 -49q-49 -40 -121 -40q-102 0 -167 78t-65 192q0 113 65.5 191.5t166.5 78.5q79 0 117 -26q29 -19 48 -41v57h94v-474q0 -283 -268 -283zM294 439q-67 0 -111 -52.5t-44 -132.5q0 -76 44.5 -129.5t110.5 -53.5q65 0 110 55.5t45 128.5t-45 128.5t-110 55.5z" />
    <glyph glyph-name="Gdotaccent" unicode="&#x120;" horiz-adv-x="755" 
d="M389 798q-25 0 -42.5 17.5t-17.5 42.5t17.5 43t42.5 18t43 -17.5t18 -43.5q0 -25 -17.5 -42.5t-43.5 -17.5zM400 -13q-138 -2 -244 110t-106 255t106 255t244 110q159 -2 283 -118l-66 -71q-98 99 -217 101q-97 2 -175 -85t-78 -192q0 -104 77.5 -191t175.5 -86
q117 3 195 70v144h-276v88h367v-274q-127 -114 -286 -116z" />
    <glyph glyph-name="gdotaccent" unicode="&#x121;" horiz-adv-x="633" 
d="M302 606q-25 0 -42.5 17.5t-17.5 43.5t17.5 43.5t42.5 17.5t42.5 -18t17.5 -43t-17.5 -43t-42.5 -18zM271 -243q-47 0 -83 10q-38 10 -50 16q-4 2 -18 9.5t-26 14.5v92l37 -13q60 -22 90 -30q35 -8 66 -8q161 0 161 184v41q-23 -30 -47 -49q-49 -40 -121 -40
q-102 0 -167 78t-65 192q0 113 65.5 191.5t166.5 78.5q79 0 117 -26q26 -17 48 -41v56h94v-473q0 -283 -268 -283zM294 439q-67 0 -111 -52.5t-44 -132.5q0 -76 44.5 -129.5t110.5 -53.5q65 0 110 55t45 129q0 73 -45 128.5t-110 55.5z" />
    <glyph glyph-name="uni0122" unicode="&#x122;" horiz-adv-x="755" 
d="M400 -20q-138 -1 -244 111t-106 256q0 143 106 255.5t244 110.5q159 -2 283 -118l-66 -72q-97 99 -217 102q-98 1 -175.5 -86.5t-77.5 -191.5q0 -105 77.5 -192.5t175.5 -85.5q117 2 195 70v145h-276v87h367v-274q-126 -114 -286 -117zM342 -388l-29 50q75 45 90 108
q-26 1 -43.5 20.5t-17.5 46.5q0 28 19 48t47 20q31 0 50 -23t19 -61q0 -74 -32 -123t-103 -86z" />
    <glyph glyph-name="uni0123" unicode="&#x123;" horiz-adv-x="633" 
d="M316 715q26 -1 43.5 -20.5t17.5 -46.5q0 -28 -19 -48t-47 -20q-31 0 -49.5 23t-18.5 61q0 140 131 209l30 -48q-73 -52 -88 -110zM271 -243q-47 0 -83 10q-38 10 -50 16q-4 2 -18 9.5t-26 14.5v93l37 -14q60 -22 90 -30q35 -8 66 -8q161 0 161 185v40q-20 -26 -47 -49
q-48 -39 -121 -39q-102 0 -167 78t-65 192q0 113 65.5 192t166.5 79q79 0 117 -26q26 -17 48 -41v56h94v-474q0 -284 -268 -284zM294 441q-67 0 -111 -53t-44 -133q0 -76 44.5 -130t110.5 -54q65 0 110 55.5t45 129.5t-45 129.5t-110 55.5z" />
    <glyph glyph-name="Hcircumflex" unicode="&#x124;" horiz-adv-x="758" 
d="M467 753l-76 112l-81 -112h-85l148 196h37l145 -196h-88zM559 0v309h-360v-309h-96v705h96v-307h360v307h96v-705h-96z" />
    <glyph glyph-name="hcircumflex" unicode="&#x125;" horiz-adv-x="602" 
d="M217 751l-76 112l-82 -112h-84l148 196h37l144 -196h-87zM438 0v279q0 79 -34 121.5t-92 42.5q-55 0 -91.5 -49.5t-36.5 -121.5v-272h-92v742h92v-270q50 57 145 57q93 0 147 -60.5t54 -169.5v-299h-92z" />
    <glyph glyph-name="Hbar" unicode="&#x126;" horiz-adv-x="742" 
d="M649 495v-495h-96v307h-364v-307h-97v495h-92v71h92v134h97v-134h364l-1 135l97 -1v-134h93v-71h-93zM553 495h-364v-100h364v100z" />
    <glyph glyph-name="hbar" unicode="&#x127;" horiz-adv-x="603" 
d="M443 0v272q0 84 -30.5 126t-86.5 42q-52 0 -89 -53.5t-37 -129.5v-257h-92v556h-69v71h69v96h92v-96h134v-71h-134v-112q17 23 41 44q41 37 100 37q94 0 143.5 -59.5t49.5 -173.5v-292h-91z" />
    <glyph glyph-name="Itilde" unicode="&#x128;" horiz-adv-x="290" 
d="M220 770q-45 0 -87 34q-38 32 -57 32q-23 0 -32 -10t-22 -51l-70 17l10 31q27 85 108 85q43 0 89 -36q26 -21 34.5 -25.5t21.5 -4.5q20 0 32.5 12.5t31.5 54.5l61 -30q-27 -62 -52 -85.5t-68 -23.5zM96 0v705h94v-705h-94z" />
    <glyph glyph-name="itilde" unicode="&#x129;" horiz-adv-x="292" 
d="M218 603q-45 0 -87 34q-37 31 -57 31q-23 0 -32 -10t-22 -50l-70 17l10 30q27 85 108 85q43 0 89 -36q26 -20 34.5 -24.5t21.5 -4.5q20 0 32.5 12t31.5 54l61 -29q-27 -62 -52 -85.5t-68 -23.5zM101 0v515h91v-515h-91z" />
    <glyph glyph-name="Imacron" unicode="&#x12a;" horiz-adv-x="299" 
d="M13 828v75h273v-75h-273zM97 0v704h92v-704h-92z" />
    <glyph glyph-name="imacron" unicode="&#x12b;" horiz-adv-x="292" 
d="M10 637v75h273v-75h-273zM101 0v515h89v-515h-89z" />
    <glyph glyph-name="Ibreve" unicode="&#x12c;" horiz-adv-x="285" 
d="M142 773q-57 0 -90.5 27t-62.5 93l61 30q21 -49 39.5 -64t52.5 -15q32 0 48 12.5t32 46.5l10 20l62 -29q-27 -67 -60.5 -94t-91.5 -27zM96 0v705h93v-705h-93z" />
    <glyph glyph-name="ibreve" unicode="&#x12d;" horiz-adv-x="279" 
d="M142 599q-57 0 -90.5 27t-62.5 93l61 29q21 -49 39.5 -64t52.5 -15q31 0 47.5 12.5t32.5 46.5l10 20l62 -29q-27 -67 -60.5 -93.5t-91.5 -26.5zM92 0v515h89v-515h-89z" />
    <glyph glyph-name="Iogonek" unicode="&#x12e;" horiz-adv-x="299" 
d="M138 -204q-44 0 -69.5 29.5t-25.5 84.5q0 31 15 62.5t39 48.5v679h97v-704h-23q-29 -8 -49 -30t-20 -46q0 -65 42 -63l63 2v-63h-69z" />
    <glyph glyph-name="iogonek" unicode="&#x12f;" horiz-adv-x="288" 
d="M144 607q-23 0 -39 17.5t-16 42.5q0 26 16 43.5t39 17.5t39.5 -18t16.5 -43t-16.5 -42.5t-39.5 -17.5zM135 -204q-44 0 -70 29.5t-26 84.5q0 68 63 104v500h85v-516q-36 -11 -62 -30q-26 -20 -26 -48q0 -65 41 -63l64 2v-59q-52 -4 -69 -4z" />
    <glyph glyph-name="Idot" unicode="&#x130;" horiz-adv-x="311" 
d="M155 799q-22 0 -37 17.5t-15 42.5q0 26 15 43.5t37 17.5t37.5 -18t15.5 -43t-15.5 -42.5t-37.5 -17.5zM97 0v700h95v-700h-95z" />
    <glyph glyph-name="dotlessi" unicode="&#x131;" horiz-adv-x="279" 
d="M102 0v509h75v-509h-75z" />
    <glyph glyph-name="IJ" unicode="&#x132;" horiz-adv-x="825" 
d="M579 624v-346q0 -150 -72.5 -212.5t-239.5 -64.5v90q124 0 169.5 39t45.5 148v345h-215v81h511v-80h-199zM73 0v700h96v-700h-96z" />
    <glyph glyph-name="ij" unicode="&#x133;" horiz-adv-x="700" 
d="M163 606q-25 0 -42.5 17.5t-17.5 43.5t17.5 43.5t42.5 17.5t42.5 -18t17.5 -43t-17.5 -43t-42.5 -18zM545 606q-25 0 -42.5 18t-17.5 43t17.5 43t42.5 18t42.5 -18t17.5 -43t-17.5 -43t-42.5 -18zM118 -5v518h92v-518h-92zM407 -236q-24 0 -44 5q-18 6 -49 25v87
q56 -31 86 -31q54 0 77.5 33t23.5 114v516h91v-521q0 -228 -185 -228z" />
    <glyph glyph-name="Jcircumflex" unicode="&#x134;" horiz-adv-x="577" 
d="M373 753l-76 112l-81 -112h-84l147 196h37l144 -196h-87zM346 625v-349q0 -151 -72 -214t-236 -65v90q122 0 167.5 39.5t45.5 149.5v348h-213v81h505v-80h-197z" />
    <glyph glyph-name="jcircumflex" unicode="&#x135;" horiz-adv-x="408" 
d="M298 557l-75 112l-80 -112h-83l145 196h36l143 -196h-86zM94 -236q-25 0 -43 5q-18 6 -49 25v88q56 -32 85 -32q53 0 76.5 33t23.5 114v517h89v-522q0 -228 -182 -228z" />
    <glyph glyph-name="uni0136" unicode="&#x136;" horiz-adv-x="652" 
d="M516 -7l-317 316v-316h-96v707h96v-288l300 287l125 1l-356 -338l373 -369h-125zM280 -388l-28 50q76 46 89 108q-26 1 -43.5 20.5t-17.5 46.5q0 28 19 48t47 20q31 0 49.5 -23t18.5 -61q0 -74 -32 -123t-102 -86z" />
    <glyph glyph-name="uni0137" unicode="&#x137;" horiz-adv-x="551" 
d="M415 -7l-227 232v-232h-91v745h91v-433l229 208h115l-267 -245l273 -275h-123zM221 -388l-30 48q74 52 87 110q-26 2 -43 21.5t-17 45.5q0 28 19 48t46 20q31 0 49.5 -23t18.5 -61q0 -139 -130 -209z" />
    <glyph glyph-name="kgreenlandic" unicode="&#x138;" horiz-adv-x="554" 
d="M415 0l-227 227v-227h-91v510h91v-205l229 204h115l-267 -240l273 -269h-123z" />
    <glyph glyph-name="Lacute" unicode="&#x139;" horiz-adv-x="570" 
d="M162 743l-78 19l161 172l45 -71zM99 0v705h95v-618h343v-87h-438z" />
    <glyph glyph-name="lacute" unicode="&#x13a;" horiz-adv-x="282" 
d="M145 755l-73 19l151 172l43 -71zM99 0v738h87v-738h-87z" />
    <glyph glyph-name="uni013B" unicode="&#x13b;" horiz-adv-x="570" 
d="M99 -7v707h95v-620h343v-87h-438zM262 -387l-29 50q74 45 89 108q-26 1 -43 20.5t-17 46.5q0 28 19 48t46 20q31 0 49.5 -23t18.5 -61q0 -74 -31.5 -123t-101.5 -86z" />
    <glyph glyph-name="uni013C" unicode="&#x13c;" horiz-adv-x="269" 
d="M96 -7v745h84v-745h-84zM75 -388l-27 48q67 51 80 110q-24 2 -39.5 21.5t-15.5 45.5q0 28 17.5 48t42.5 20q28 0 45 -23t17 -61q0 -140 -120 -209z" />
    <glyph glyph-name="Lcaron" unicode="&#x13d;" horiz-adv-x="583" 
d="M419 413l-31 48q73 49 88 109q-25 1 -42.5 20.5t-17.5 45.5q0 27 19 47t46 20q31 0 49.5 -22.5t18.5 -60.5q0 -137 -130 -207zM99 0v700h95v-613h344v-87h-439z" />
    <glyph glyph-name="lcaron" unicode="&#x13e;" horiz-adv-x="361" 
d="M103 0v738h89v-738h-89zM285 448l-30 47q73 51 86 110q-25 2 -42 21t-17 45q0 27 19 47t45 20q31 0 49 -22.5t18 -60.5q0 -139 -128 -207z" />
    <glyph glyph-name="Ldot" unicode="&#x13f;" horiz-adv-x="573" 
d="M99 0v700h95v-613h343v-87h-438zM479 286q-25 0 -42.5 17.5t-17.5 42.5t17.5 42.5t42.5 17.5t42.5 -17.5t17.5 -42.5t-17.5 -42.5t-42.5 -17.5z" />
    <glyph glyph-name="ldot" unicode="&#x140;" horiz-adv-x="442" 
d="M103 0v738h89v-738h-89zM356 297q-25 0 -42 17.5t-17 42.5q0 26 17 43.5t42 17.5q24 0 41.5 -18t17.5 -43t-17.5 -42.5t-41.5 -17.5z" />
    <glyph glyph-name="Lslash" unicode="&#x141;" horiz-adv-x="589" 
d="M110 0v247l-73 -32l-19 67l92 40v378h95v-343l192 69l27 -63l-219 -80v-196h351v-87h-446z" />
    <glyph glyph-name="lslash" unicode="&#x142;" horiz-adv-x="351" 
d="M219 305v-305h-89v273l-100 -37l-24 65l124 46v376h89v-343l100 37l25 -66z" />
    <glyph glyph-name="Nacute" unicode="&#x143;" horiz-adv-x="776" 
d="M377 743l-78 19l162 172l46 -71zM673 0l-476 485l1 -485h-96v700l476 -476v476h96z" />
    <glyph glyph-name="nacute" unicode="&#x144;" 
d="M288 570l-77 19l160 171l45 -71zM442 0v278q0 78 -34 120t-91 42q-54 0 -90.5 -48.5t-36.5 -120.5v-271h-91v515h91v-62q51 73 144 73q92 0 145.5 -60t53.5 -169v-297h-91z" />
    <glyph glyph-name="uni0145" unicode="&#x145;" horiz-adv-x="776" 
d="M673 0l-476 485l1 -485h-96v700l476 -476v476h96zM329 -388l-29 50q77 46 90 108q-26 1 -43.5 20.5t-17.5 46.5q0 28 19 48t47 20q31 0 49.5 -23t18.5 -61q0 -74 -32 -123t-102 -86z" />
    <glyph glyph-name="uni0146" unicode="&#x146;" 
d="M442 -8v278q0 79 -34 121.5t-91 42.5q-54 0 -90.5 -49t-36.5 -121v-272h-91v517h91v-62q51 73 144 73q92 0 145.5 -60t53.5 -170v-298h-91zM244 -388l-30 48q74 51 87 110q-25 1 -42.5 20.5t-17.5 45.5q0 28 19 48t46 20q31 0 49.5 -23t18.5 -61q0 -138 -130 -208z" />
    <glyph glyph-name="Ncaron" unicode="&#x147;" horiz-adv-x="776" 
d="M424 750h-54l-137 196h85l80 -122l79 122h83zM673 0l-476 485l1 -485h-96v700l476 -476v476h96z" />
    <glyph glyph-name="ncaron" unicode="&#x148;" 
d="M340 558h-53l-136 195h84l79 -122l79 122h82zM442 0v278q0 78 -34 120t-91 42q-54 0 -90.5 -48.5t-36.5 -120.5v-271h-91v515h91v-62q51 73 144 73q92 0 145.5 -60t53.5 -169v-297h-91z" />
    <glyph glyph-name="napostrophe" unicode="&#x149;" horiz-adv-x="601" 
d="M28 554l-30 48q74 50 89 109q-26 1 -43.5 20.5t-17.5 46.5t19.5 47t46.5 20q31 0 49.5 -23t18.5 -60q0 -139 -132 -208zM441 0v278q0 79 -34 121.5t-92 42.5q-54 0 -91 -49t-37 -121v-272h-92v517h92v-62q52 73 146 73q92 0 146 -60.5t54 -169.5v-298h-92z" />
    <glyph glyph-name="Eng" unicode="&#x14a;" horiz-adv-x="776" 
d="M341 -247v91q126 0 178 44t58 155l-378 415l-1 -463h-96v705l476 -522v522h96v-694q0 -125 -87 -189t-246 -64z" />
    <glyph glyph-name="eng" unicode="&#x14b;" 
d="M349 -236q-32 0 -50 6q-19 9 -51 30v82q55 -32 95 -32q53 0 76 32.5t23 113.5v276q0 78 -34 120t-91 42q-54 0 -90.5 -48.5t-36.5 -120.5v-271h-91v515h91v-66q11 17 37 40q41 37 107 37q92 0 145.5 -60t53.5 -169v-300q0 -227 -184 -227z" />
    <glyph glyph-name="Omacron" unicode="&#x14c;" horiz-adv-x="816" 
d="M269 829v75h285v-75h-285zM408 -13q-140 0 -249 111t-109 254q0 142 109 253.5t249 111.5t249 -111.5t109 -253.5q0 -143 -109 -254t-249 -111zM408 629q-100 0 -180.5 -87t-80.5 -190t80.5 -190t180.5 -87q101 0 181 86.5t80 190.5t-80 190.5t-181 86.5z" />
    <glyph glyph-name="omacron" unicode="&#x14d;" horiz-adv-x="622" 
d="M170 637v75h283v-75h-283zM311 -11q-104 0 -183.5 81t-79.5 187q0 105 79.5 186.5t183.5 81.5t183.5 -81.5t79.5 -186.5q0 -106 -79.5 -187t-183.5 -81zM311 439q-70 0 -120.5 -53.5t-50.5 -128.5t51 -129t120 -54q70 0 121 54t51 129t-51 128.5t-121 53.5z" />
    <glyph glyph-name="Obreve" unicode="&#x14e;" horiz-adv-x="816" 
d="M400 783q-59 0 -93.5 27t-65.5 93l64 30q22 -49 41 -64t54 -15q33 0 50 12.5t34 46.5l10 20l64 -29q-28 -67 -63 -94t-95 -27zM408 -13q-140 0 -249 111t-109 254t109 254.5t249 111.5t249 -111.5t109 -254.5t-109 -254t-249 -111zM408 629q-100 0 -180.5 -86.5
t-80.5 -190.5q0 -103 80.5 -190t180.5 -87q101 0 181 86.5t80 190.5t-80 190.5t-181 86.5z" />
    <glyph glyph-name="obreve" unicode="&#x14f;" horiz-adv-x="622" 
d="M308 599q-58 0 -92.5 27t-64.5 93l63 29q22 -49 40.5 -64t53.5 -15q32 0 49 12.5t34 46.5l10 20l63 -29q-27 -67 -62 -93.5t-94 -26.5zM311 -11q-104 0 -183.5 81t-79.5 187t79.5 187.5t183.5 81.5t183.5 -81.5t79.5 -187.5t-79.5 -187t-183.5 -81zM311 440
q-69 0 -120 -54t-51 -129t51 -129t120 -54q70 0 121 54t51 129t-51 129t-121 54z" />
    <glyph glyph-name="Ohungarumlaut" unicode="&#x150;" horiz-adv-x="816" 
d="M351 744l-79 19l164 172l46 -71zM479 742l-79 19l163 172l46 -71zM408 -13q-140 0 -249 111t-109 254t109 254.5t249 111.5t249 -111.5t109 -254.5t-109 -254t-249 -111zM408 629q-100 0 -180.5 -86.5t-80.5 -190.5q0 -103 80.5 -190t180.5 -87q101 0 181 86.5t80 190.5
t-80 190.5t-181 86.5z" />
    <glyph glyph-name="ohungarumlaut" unicode="&#x151;" horiz-adv-x="622" 
d="M233 564l-78 19l161 171l46 -71zM359 562l-78 19l161 171l46 -71zM311 -11q-104 0 -183.5 81t-79.5 187t79.5 187.5t183.5 81.5t183.5 -81.5t79.5 -187.5t-79.5 -187t-183.5 -81zM311 440q-69 0 -120 -54t-51 -129t51 -129t120 -54q70 0 121 54t51 129t-51 129t-121 54z
" />
    <glyph glyph-name="OE" unicode="&#x152;" horiz-adv-x="1114" 
d="M579 0q-29 0 -86 -7q-30 -4 -93 -6q-137 -3 -243.5 108.5t-106.5 253.5q0 93 48.5 178t130 136.5t172.5 49.5q61 -2 91 -6q57 -7 87 -7h473v-85l-409 -1q49 -38 80 -95.5t37 -121.5h269v-87h-269q-12 -141 -118 -224h410v-86h-473zM409 625q-101 0 -180.5 -85.5
t-79.5 -190.5q0 -104 78.5 -189.5t179.5 -84.5q102 0 179.5 85t77.5 190t-76.5 190t-178.5 85z" />
    <glyph glyph-name="oe" unicode="&#x153;" horiz-adv-x="970" 
d="M543 219v-77q18 -32 56 -50q40 -20 85 -20q83 0 168 61l50 -59q-92 -85 -221 -85q-108 0 -185 69q-73 -67 -184 -69q-104 -1 -184 79.5t-80 185.5t80 186.5t184 79.5q109 -2 184 -69q77 69 182 69q113 0 181.5 -83t67.5 -218h-384zM675 440q-39 0 -74 -20t-56 -53v-78
h286q-6 64 -49.5 107.5t-106.5 43.5zM452 348q-19 41 -55 64t-82 23q-71 0 -122.5 -53t-51.5 -128t50.5 -128t123.5 -53q46 0 82 23t55 64v188z" />
    <glyph glyph-name="Racute" unicode="&#x154;" horiz-adv-x="668" 
d="M315 740l-79 19l162 172l46 -71zM521 0l-169 268h-157v-268h-96v705h254q97 0 171 -51q73 -52 73 -165q0 -160 -145 -208l186 -281h-117zM349 619h-154v-265h154q155 0 155 135q0 130 -155 130z" />
    <glyph glyph-name="racute" unicode="&#x155;" horiz-adv-x="414" 
d="M226 565l-76 19l157 171l44 -71zM176 265v-265h-89v515h89v-86q17 27 50 57q46 40 146 40v-92q-87 0 -141.5 -50t-54.5 -119z" />
    <glyph glyph-name="uni0156" unicode="&#x156;" horiz-adv-x="668" 
d="M521 -7l-169 269h-157v-269h-96v707h254q99 0 171 -51q73 -52 73 -165q0 -161 -145 -209l186 -282h-117zM349 614h-154v-266h154q155 0 155 136q0 130 -155 130zM284 -388l-29 50q75 45 90 108q-26 1 -43.5 20.5t-17.5 46.5q0 28 19 48t47 20q31 0 49.5 -23t18.5 -61
q0 -74 -32 -123t-102 -86z" />
    <glyph glyph-name="uni0157" unicode="&#x157;" horiz-adv-x="397" 
d="M166 258v-266h-89v517h89v-86q21 31 51 57q46 40 147 40v-92q-88 0 -143 -50.5t-55 -119.5zM67 -388l-29 48q71 50 86 110q-25 1 -42.5 20.5t-17.5 45.5q0 28 19 48t46 20q30 0 48.5 -23t18.5 -61q0 -138 -129 -208z" />
    <glyph glyph-name="Rcaron" unicode="&#x158;" horiz-adv-x="668" 
d="M349 750h-54l-137 196h85l80 -122l79 122h83zM521 0l-169 268h-157v-268h-96v705h254q99 0 171 -51q73 -51 73 -164q0 -161 -145 -209l186 -281h-117zM349 619h-154v-264h154q155 0 155 135q0 129 -155 129z" />
    <glyph glyph-name="rcaron" unicode="&#x159;" horiz-adv-x="371" 
d="M214 558h-52l-134 195h83l77 -121l77 121h81zM143 265v-265h-89v515h89v-86q20 30 50 57q47 40 147 40v-92q-87 0 -142 -50t-55 -119z" />
    <glyph glyph-name="Sacute" unicode="&#x15a;" horiz-adv-x="639" 
d="M300 741l-78 19l162 172l46 -71zM538 547l-23 18q-83 62 -188 62q-87 0 -127.5 -36.5t-40.5 -87.5q0 -45 41 -68t146 -37q121 -16 180 -62t59 -135q0 -91 -69 -151.5t-187 -60.5q-161 0 -291 93l51 72q115 -77 231 -77q75 0 124 29q47 29 47 93q0 51 -41.5 75.5
t-148.5 39.5q-104 15 -168 53q-68 40 -68 136q0 81 66 147t183 66q74 0 130 -20q59 -20 144 -75z" />
    <glyph glyph-name="sacute" unicode="&#x15b;" horiz-adv-x="508" 
d="M256 570l-78 19l160 171l46 -71zM259 -11q-119 0 -221 73l39 73q100 -67 178 -67q60 0 90.5 22t30.5 59q0 50 -126 68q-100 14 -146.5 44t-47.5 103q-1 74 52.5 118t140.5 44q107 0 214 -66l-45 -69q-61 35 -92 46q-37 10 -73 10q-53 0 -81 -20t-29 -55q2 -17 5 -25.5
t8 -15.5t21.5 -11.5t35 -8t57.5 -9.5q95 -14 144.5 -49t49.5 -100q0 -75 -56.5 -119.5t-148.5 -44.5z" />
    <glyph glyph-name="Scircumflex" unicode="&#x15c;" horiz-adv-x="639" 
d="M399 754l-77 112l-81 -112h-85l148 196h37l145 -196h-87zM538 547l-23 18q-84 63 -188 63q-87 0 -127.5 -37t-40.5 -88q0 -45 41 -68t146 -37q121 -16 180 -61.5t59 -134.5q0 -92 -69 -152.5t-187 -60.5q-161 0 -291 93l51 72q115 -77 231 -77q75 0 124 29q47 29 47 93
q0 51 -41.5 75.5t-148.5 39.5q-104 15 -168 53q-68 40 -68 136q0 81 66 147t183 66q77 0 130 -19q64 -24 144 -75z" />
    <glyph glyph-name="scircumflex" unicode="&#x15d;" horiz-adv-x="508" 
d="M327 558l-75 112l-81 -112h-84l147 195h36l143 -195h-86zM259 -11q-119 0 -221 73l39 73q100 -67 178 -67q60 0 90.5 22t30.5 59q0 50 -126 68q-100 14 -146.5 44t-47.5 103q-1 74 52.5 118t140.5 44q107 0 214 -66l-45 -69q-61 35 -92 46q-37 10 -73 10q-53 0 -81 -20.5
t-29 -55.5q4 -37 22 -46.5t105 -22.5q95 -14 144.5 -49t49.5 -100q0 -75 -56.5 -119.5t-148.5 -44.5z" />
    <glyph glyph-name="Scedilla" unicode="&#x15e;" horiz-adv-x="634" 
d="M328 -16l-5 -35q50 -3 78.5 -28.5t28.5 -71.5q0 -43 -29 -69.5t-76 -26.5q-45 0 -114 50l38 48q27 -21 42.5 -27.5t37.5 -6.5q37 0 37 32q0 22 -11 31t-42 8l-63 -1l21 100q-118 14 -230 87l47 75q116 -77 227 -77q75 0 124 29q47 29 47 93q0 49 -41.5 74.5t-147.5 40.5
q-100 15 -168 54q-67 38 -69 135q0 81 67 147.5t184 65.5q77 -2 126 -19q59 -21 140 -70l-46 -76q-111 77 -208 77q-86 0 -127.5 -37t-41.5 -88q0 -44 41.5 -67.5t146.5 -36.5q120 -16 179 -62t59 -135q0 -91 -66.5 -151t-185.5 -62z" />
    <glyph glyph-name="scedilla" unicode="&#x15f;" horiz-adv-x="508" 
d="M270 -17l-5 -34q50 -3 77.5 -28t27.5 -71q0 -43 -28 -69.5t-75 -26.5q-48 0 -110 49l32 47q54 -33 82 -33q36 0 36 33q0 20 -11 29t-41 9h-62l21 98q-49 7 -85 21q-38 14 -91 52l40 71q92 -68 177 -68q60 0 90.5 22t30.5 59q0 50 -126 68q-100 14 -146.5 44t-47.5 103
q-1 74 52.5 118t140.5 44q46 0 104 -18.5t108 -51.5l-38 -75l-21 17q-80 49 -149 49q-53 0 -81 -20t-29 -55q2 -17 5 -25.5t8 -15.5t22 -11.5t34.5 -8t57.5 -9.5q100 -16 147 -49.5t47 -99.5q0 -72 -52.5 -116.5t-141.5 -47.5z" />
    <glyph glyph-name="Scaron" unicode="&#x160;" horiz-adv-x="645" 
d="M345 750h-53l-138 196h85l80 -122l79 122h83zM538 547l-23 18q-84 63 -188 63q-87 0 -127.5 -37t-40.5 -88q0 -45 41 -68t146 -37q121 -16 180 -61.5t59 -134.5q0 -92 -69 -152.5t-187 -60.5q-161 0 -291 93l51 72q115 -77 231 -77q75 0 124 29q47 29 47 93
q0 51 -41.5 75.5t-148.5 39.5q-104 15 -168 53q-68 40 -68 136q0 81 66 147t183 66q73 0 130 -19q64 -24 144 -75z" />
    <glyph glyph-name="scaron" unicode="&#x161;" horiz-adv-x="508" 
d="M278 558h-53l-136 195h84l79 -122l79 122h82zM259 -11q-119 0 -221 73l39 73q100 -67 178 -67q60 0 90.5 22t30.5 59q0 50 -126 68q-100 14 -146.5 44t-47.5 103q-1 74 52.5 118t140.5 44q107 0 214 -66l-45 -69q-61 35 -92 46q-37 10 -73 10q-53 0 -81 -20.5t-29 -55.5
q4 -37 22 -46.5t105 -22.5q95 -14 144.5 -49t49.5 -100q0 -75 -56.5 -119.5t-148.5 -44.5z" />
    <glyph glyph-name="uni0162" unicode="&#x162;" horiz-adv-x="609" 
d="M352 610v-617h-95v617h-247v90h589v-90h-247zM236 -388l-28 50q76 46 89 108q-25 1 -43 21t-18 46q0 28 19.5 48t46.5 20q31 0 50 -23t19 -61q0 -74 -32 -123t-103 -86z" />
    <glyph glyph-name="uni0163" unicode="&#x163;" horiz-adv-x="438" 
d="M288 -18q-180 0 -180 227v222h-62v80h62v117h89v-117h185v-80h-185v-216q0 -81 23 -114t76 -33q41 0 85 26l23 -80q-54 -32 -116 -32zM123 -388l-29 48q73 51 86 110q-25 1 -42 20.5t-17 46.5t18.5 47t45.5 20q31 0 49 -22.5t18 -60.5q0 -140 -129 -209z" />
    <glyph glyph-name="Tcaron" unicode="&#x164;" horiz-adv-x="609" 
d="M333 750h-53l-138 196h85l80 -122l80 122h83zM352 615v-615h-95v615h-247v90h589v-90h-247z" />
    <glyph glyph-name="tcaron" unicode="&#x165;" horiz-adv-x="476" 
d="M425 575l-30 48q73 52 88 110q-26 1 -43.5 20.5t-17.5 46.5t19.5 47t46.5 20q31 0 49.5 -23t18.5 -60q0 -140 -131 -209zM391 14q-44 -25 -98 -25q-183 0 -183 227v221h-38q-25 0 -25 25v30q0 25 25 25h38v91q0 25 24 25h42q24 0 24 -25v-91h165q24 0 24 -25v-30
q0 -25 -24 -25h-165v-215q0 -81 23.5 -114t77.5 -33q35 0 62 14q10 5 15 5q16 0 18 -20l6 -31l2 -9q0 -14 -13 -20z" />
    <glyph glyph-name="Tbar" unicode="&#x166;" horiz-adv-x="619" 
d="M357 610v-188h236v-84h-236v-338h-95v338h-236v84h236v188h-252v90h599v-90h-252z" />
    <glyph glyph-name="tbar" unicode="&#x167;" horiz-adv-x="471" 
d="M315 -11q-84 0 -127 48t-51 145q-3 44 -3 69h-86v79h85v103h-85l-1 79h86v106h90v-106h186l1 -79h-187v-103h186v-79h-185l3 -51q4 -71 25.5 -98.5t70.5 -27.5q33 0 91 26l19 -73q-52 -38 -118 -38z" />
    <glyph glyph-name="Utilde" unicode="&#x168;" horiz-adv-x="716" 
d="M433 770q-46 0 -88 34q-38 32 -58 32q-24 0 -33 -10t-22 -51l-71 17l10 31q27 85 110 85q43 0 91 -36q26 -21 34.5 -25.5t21.5 -4.5q20 0 33 12.5t32 54.5l62 -30q-27 -61 -53 -85t-69 -24zM358 -13q-128 0 -205.5 80.5t-77.5 223.5v413h96v-408q0 -110 48.5 -165.5
t138.5 -55.5t138.5 55.5t48.5 165.5v408h96v-413q0 -143 -77.5 -223.5t-205.5 -80.5z" />
    <glyph glyph-name="utilde" unicode="&#x169;" 
d="M358 603q-46 0 -87 34q-38 31 -58 31q-24 0 -33 -10t-21 -50l-71 17l10 30q27 85 109 85q42 0 90 -36q26 -20 34.5 -24.5t21.5 -4.5q20 0 32.5 12t31.5 54l61 -29q-26 -61 -51.5 -85t-68.5 -24zM415 0v76q-54 -87 -144 -87q-92 0 -145.5 60t-53.5 169v297h91v-278
q0 -78 34 -120t91 -42q54 0 90.5 48.5t36.5 120.5v271h91v-515h-91z" />
    <glyph glyph-name="Umacron" unicode="&#x16a;" horiz-adv-x="716" 
d="M217 829v75h283v-75h-283zM358 -13q-128 0 -205.5 80.5t-77.5 223.5v413h96v-408q0 -110 48.5 -165.5t138.5 -55.5t138.5 55.5t48.5 165.5v408h96v-413q0 -143 -77.5 -223.5t-205.5 -80.5z" />
    <glyph glyph-name="umacron" unicode="&#x16b;" 
d="M149 637v75h281v-75h-281zM415 0v76q-54 -87 -144 -87q-92 0 -145.5 60t-53.5 169v296h91v-277q0 -78 34 -120t91 -42q54 0 90.5 48.5t36.5 120.5v270h91v-514h-91z" />
    <glyph glyph-name="Ubreve" unicode="&#x16c;" horiz-adv-x="716" 
d="M364 783q-58 0 -93 27t-65 93l63 30q22 -49 41 -64t54 -15q32 0 49 12.5t34 46.5l10 20l63 -29q-27 -67 -62 -94t-94 -27zM358 -13q-128 0 -205.5 81t-77.5 224v413h96v-409q0 -110 48.5 -165.5t138.5 -55.5t138.5 55.5t48.5 165.5v409h96v-413q0 -143 -77.5 -224
t-205.5 -81z" />
    <glyph glyph-name="ubreve" unicode="&#x16d;" 
d="M296 599q-58 0 -92.5 27t-63.5 93l62 29q22 -49 40.5 -64t53.5 -15q32 0 48.5 12.5t33.5 46.5l10 20l63 -29q-28 -67 -62.5 -93.5t-92.5 -26.5zM415 0v76q-54 -87 -144 -87q-92 0 -145.5 60t-53.5 169v297h91v-278q0 -78 34 -120t91 -42q54 0 90.5 48.5t36.5 120.5v271
h91v-515h-91z" />
    <glyph glyph-name="Uring" unicode="&#x16e;" horiz-adv-x="716" 
d="M358 755q-49 0 -80.5 33t-31.5 83t31.5 83.5t80.5 33.5t80.5 -33.5t31.5 -83.5t-31.5 -83t-80.5 -33zM359 928q-22 0 -37 -16.5t-15 -40.5t14.5 -41t36.5 -17t36.5 16.5t14.5 41.5q0 24 -14 40.5t-36 16.5zM358 -13q-128 0 -205.5 81t-77.5 224v414h96v-409
q0 -111 48.5 -166.5t138.5 -55.5t138.5 55.5t48.5 166.5v409h96v-414q0 -143 -77.5 -224t-205.5 -81z" />
    <glyph glyph-name="uring" unicode="&#x16f;" 
d="M292 565q-48 0 -79.5 33t-31.5 83t31.5 83t79.5 33t79.5 -33t31.5 -83t-31.5 -83t-79.5 -33zM293 737q-22 0 -37 -16.5t-15 -39.5q0 -24 14.5 -41t36.5 -17t36 16.5t14 41.5q0 24 -13.5 40t-35.5 16zM415 0v76q-54 -87 -144 -87q-92 0 -145.5 60t-53.5 169v298h91v-278
q0 -78 34 -120.5t91 -42.5q54 0 90.5 49t36.5 121v271h91v-516h-91z" />
    <glyph glyph-name="Uhungarumlaut" unicode="&#x170;" horiz-adv-x="716" 
d="M292 747l-78 19l162 172l46 -71zM419 745l-79 19l162 172l46 -71zM358 -13q-128 0 -205.5 81t-77.5 224v413h96v-409q0 -110 48.5 -165.5t138.5 -55.5t138.5 55.5t48.5 165.5v409h96v-413q0 -143 -77.5 -224t-205.5 -81z" />
    <glyph glyph-name="uhungarumlaut" unicode="&#x171;" 
d="M206 558l-78 19l161 171l45 -71zM331 556l-78 19l161 171l45 -71zM415 0v76q-54 -87 -144 -87q-92 0 -145.5 60t-53.5 169v297h91v-278q0 -78 34 -120t91 -42q54 0 90.5 48.5t36.5 120.5v271h91v-515h-91z" />
    <glyph glyph-name="Uogonek" unicode="&#x172;" horiz-adv-x="716" 
d="M573 73q-67 -77 -178 -88q-59 -32 -59 -73q0 -65 46 -63l68 2v-61q-4 0 -28 -1t-47 -1q-48 0 -75.5 29.5t-27.5 84.5q0 47 37 84q-106 14 -166 86q-68 80 -68 215v413h96v-408q0 -109 49 -165t138 -56t138 56t49 165v408h96v-413q0 -134 -68 -214z" />
    <glyph glyph-name="uogonek" unicode="&#x173;" horiz-adv-x="624" 
d="M451 -204q-47 0 -74.5 29t-27.5 84q0 14 3 26t6 20t11.5 18.5t12.5 15t17 17t17 16.5v45q-16 -28 -37 -46q-43 -37 -108 -37q-92 0 -145.5 59.5t-53.5 168.5v297h91v-277q0 -78 34 -120.5t91 -42.5q54 0 91 49t37 121v270h91v-512q-56 -16 -72 -28q-23 -16 -23 -49
q0 -64 46 -64q4 0 42 2l25 2v-62q-4 0 -28 -1t-46 -1z" />
    <glyph glyph-name="Wcircumflex" unicode="&#x174;" horiz-adv-x="961" 
d="M559 752l-77 112l-83 -112h-86l150 196h38l146 -196h-88zM680 0h-57l-143 501l-132 -501h-64l-254 705h95l183 -516l158 516h32l158 -516l183 516h96z" />
    <glyph glyph-name="wcircumflex" unicode="&#x175;" horiz-adv-x="733" 
d="M445 558l-76 112l-83 -112h-85l149 195h37l146 -195h-88zM555 0h-48l-140 352l-142 -352h-48l-162 515h103l95 -335l140 335h27l141 -335l95 335h102z" />
    <glyph glyph-name="Ycircumflex" unicode="&#x176;" horiz-adv-x="623" 
d="M395 753l-77 112l-81 -112h-85l148 196h37l145 -196h-87zM360 275v-275h-94v275l-254 430h99l203 -335l201 335h96z" />
    <glyph glyph-name="ycircumflex" unicode="&#x177;" horiz-adv-x="516" 
d="M344 557l-76 112l-81 -112h-84l147 196h37l144 -196h-87zM205 -204h-98l102 235l-206 483h90l165 -376l163 376h92z" />
    <glyph glyph-name="Ydieresis" unicode="&#x178;" horiz-adv-x="623" 
d="M209 804q-22 0 -37.5 16t-15.5 38q0 23 15.5 39t37.5 16q23 0 39 -16.5t16 -38.5t-16 -38t-39 -16zM397 804q-22 0 -38 16t-16 38t16 38.5t38 16.5t37.5 -16t15.5 -39t-15.5 -38.5t-37.5 -15.5zM360 275v-275h-94v275l-254 430h99l203 -336l201 336h96z" />
    <glyph glyph-name="Zacute" unicode="&#x179;" horiz-adv-x="621" 
d="M304 743l-78 19l162 172l46 -71zM195 88l376 -1v-87h-543l404 617l-362 1v87h527z" />
    <glyph glyph-name="zacute" unicode="&#x17a;" horiz-adv-x="488" 
d="M224 570l-78 19l160 171l46 -71zM171 85h284v-85h-432l291 431h-264v84h411z" />
    <glyph glyph-name="Zdotaccent" unicode="&#x17b;" horiz-adv-x="621" 
d="M322 798q-26 0 -43 17t-17 43t17.5 43.5t42.5 17.5t43 -18t18 -43t-18 -42.5t-43 -17.5zM195 88l376 -1v-87h-543l404 617l-362 1v87h527z" />
    <glyph glyph-name="zdotaccent" unicode="&#x17c;" horiz-adv-x="488" 
d="M257 607q-25 0 -42 17.5t-17 43.5q0 25 17 42.5t42 17.5t43 -17.5t18 -42.5t-18 -43t-43 -18zM171 85h284v-85h-432l291 430h-264v85h411z" />
    <glyph glyph-name="Zcaron" unicode="&#x17d;" horiz-adv-x="621" 
d="M345 750h-53l-138 196h85l80 -122l79 122h83zM195 88l376 -1v-87h-543l404 617l-362 1v87h527z" />
    <glyph glyph-name="zcaron" unicode="&#x17e;" horiz-adv-x="488" 
d="M278 558h-53l-136 195h84l79 -122l78 122h82zM171 85h284v-85h-432l291 431h-264v84h411z" />
    <glyph glyph-name="longs" unicode="&#x17f;" horiz-adv-x="413" 
d="M383 657q-42 18 -79 18q-53 0 -76 -32.5t-23 -113.5v-529h-90v434h-85v80h85v20q0 227 181 227q51 0 103 -28z" />
    <glyph glyph-name="florin" unicode="&#x192;" horiz-adv-x="480" 
d="M462 705l-11 -60q-38 19 -55 24.5t-39 5.5q-53 0 -76 -33t-23 -114v-16h188v-80h-188v-440q0 -115 -37.5 -171.5t-117.5 -56.5q-59 0 -118 37l23 80q49 -31 88 -31q70 0 70 147v435h-100v80h100v21q0 228 185 228q56 0 114 -34z" />
    <glyph glyph-name="Aringacute" unicode="&#x1fa;" horiz-adv-x="712" 
d="M342 1016l-79 19l163 173l47 -72zM355 757q-49 0 -81 33.5t-32 83.5q0 51 32 84.5t81 33.5t81 -33.5t32 -84.5q0 -50 -32 -83.5t-81 -33.5zM356 931q-22 0 -37 -16.5t-15 -40.5t14.5 -41t36.5 -17t37 16.5t15 41.5t-14.5 41t-36.5 16zM603 0l-82 183h-327l-82 -183h-102
l340 725h15l341 -725h-103zM358 557l-129 -287h257z" />
    <glyph glyph-name="aringacute" unicode="&#x1fb;" horiz-adv-x="561" 
d="M272 821l-78 19l161 172l45 -71zM280 568q-48 0 -79.5 33t-31.5 83t31.5 83.5t79.5 33.5t79.5 -33.5t31.5 -83.5t-31.5 -83t-79.5 -33zM281 741q-22 0 -37 -16.5t-15 -40.5t14.5 -40.5t36.5 -16.5t36 16t14 41q0 24 -14 40.5t-35 16.5zM406 0v64q-66 -75 -172 -75
q-77 0 -128.5 47t-51.5 126q0 81 54.5 124.5t151.5 43.5q67 0 145 -29q-1 78 -28 107t-100 37q-2 1 -8 1h-14q-28 0 -48 -4q-72 -11 -97 -18l-20 81q109 29 172 25l20 -1q124 -6 169 -59t45 -186v-284h-90zM405 224q-77 32 -131 32q-129 0 -129 -94q0 -44 29 -69.5t82 -25.5
q45 0 85 25q42 28 64 60v72z" />
    <glyph glyph-name="AEacute" unicode="&#x1fc;" horiz-adv-x="973" 
d="M459 741l-80 19l165 172l46 -71zM420 0v182h-205l-108 -182h-108l407 705h505v-87h-388v-219h366v-87h-366v-225h388v-87h-491zM420 551l-159 -283h159v283z" />
    <glyph glyph-name="aeacute" unicode="&#x1fd;" horiz-adv-x="937" 
d="M423 570l-79 19l164 171l46 -71zM505 222v-52q18 -40 57 -68q41 -29 87 -29q85 0 171 61l49 -61q-90 -84 -224 -84q-69 0 -121 35q-43 28 -68 67q-34 -37 -88 -67q-62 -35 -136 -35q-80 0 -131 44q-53 47 -53 126q0 82 54.5 125.5t151.5 43.5q77 0 156 -29v65
q-10 42 -39.5 60t-90.5 18q-68 0 -149 -15l-23 -8l-23 81l26 8q14 4 72 11q48 7 100 7q129 0 176 -71q76 69 188 71q112 1 179.5 -82.5t67.5 -194.5v-27h-389zM757 398q-41 47 -113 47q-85 0 -137 -81v-72h292q-6 62 -42 106zM410 222q-79 32 -140 32q-135 0 -135 -96
q0 -42 29.5 -67t81.5 -25q48 0 95 26q49 28 69 59v71z" />
    <glyph glyph-name="Oslashacute" unicode="&#x1fe;" horiz-adv-x="816" 
d="M414 747l-79 19l163 172l46 -71zM413 -14q-79 2 -144 29l-22 -41l-17 -36l-67 32l43 81q-72 52 -113 132.5t-43 171.5q-1 92 48.5 177t132 136t172.5 49q68 0 134 -25l19 38l18 37l42 -21l20 -12q0 -12 -5 -19l-30 -56q62 -45 113 -117q50 -75 52 -195q2 -92 -48 -176.5
t-133 -135t-172 -49.5zM405 629q-99 2 -179.5 -84t-78.5 -186q2 -86 35 -138q29 -46 69 -85l245 475q-45 16 -91 18zM631 488q-34 52 -74 86l-246 -478q47 -20 102 -22q100 -2 179 84.5t77 189.5q-2 89 -38 140z" />
    <glyph glyph-name="oslashacute" unicode="&#x1ff;" horiz-adv-x="622" 
d="M305 554l-78 18l161 172l46 -71zM312 -12q-52 2 -96 18l-32 -70l-69 27l38 76q-50 37 -78 95t-29 124q-2 105 78 187t182 80q49 0 88 -15l39 66l63 -32l-37 -67q111 -80 113 -223q2 -105 -78 -186.5t-182 -79.5zM309 439q-70 0 -121 -54t-51 -129q0 -42 14 -71.5
t45 -61.5l158 309q-21 7 -45 7zM416 395l-161 -312q23 -10 54 -10q69 0 120 54t51 129q0 79 -64 139z" />
    <glyph glyph-name="uni0218" unicode="&#x218;" horiz-adv-x="639" 
d="M538 542l-24 18q-83 63 -187 63q-87 0 -127.5 -37t-40.5 -88q0 -45 41 -68t146 -37q121 -16 180 -62.5t59 -135.5q0 -92 -69 -152.5t-187 -60.5q-161 0 -291 93l51 73q115 -77 231 -77q75 0 124 29q47 29 47 92q0 51 -41 76t-149 40q-105 15 -168 54q-68 38 -68 136
q0 81 66 147t183 66q77 0 130 -19q64 -24 144 -75zM267 -388l-29 50q76 45 89 108q-25 1 -42.5 21t-17.5 46q0 28 19 48t46 20q31 0 50 -23t19 -61q0 -74 -32 -123t-102 -86z" />
    <glyph glyph-name="uni0219" unicode="&#x219;" horiz-adv-x="508" 
d="M259 -19q-119 0 -221 73l39 73q100 -67 178 -67q60 0 90.5 22t30.5 59q0 26 -29 42.5t-97 26.5q-100 14 -146.5 44t-47.5 103q-1 75 52.5 119t140.5 44q107 0 214 -66l-45 -69q-63 36 -92 45q-35 11 -73 11q-53 0 -81 -20.5t-29 -55.5q2 -17 5 -25.5t8 -15.5t21.5 -11.5
t35 -8t57.5 -9.5q95 -14 144.5 -49.5t49.5 -100.5q0 -75 -56.5 -119.5t-148.5 -44.5zM180 -388l-30 48q74 51 87 110q-25 1 -42.5 20.5t-17.5 45.5q0 28 19 48t46 20q31 0 49.5 -23t18.5 -61q0 -138 -130 -208z" />
    <glyph glyph-name="uni021A" unicode="&#x21a;" horiz-adv-x="609" 
d="M352 610v-617h-95v617h-247v90h589v-90h-247zM236 -388l-28 50q76 46 89 108q-25 1 -43 21t-18 46q0 28 19.5 48t46.5 20q31 0 50 -23t19 -61q0 -74 -32 -123t-103 -86z" />
    <glyph glyph-name="uni021B" unicode="&#x21b;" horiz-adv-x="438" 
d="M288 -18q-180 0 -180 227v222h-62v80h62v117h89v-117h185v-80h-185v-216q0 -81 23 -114t76 -33q41 0 85 26l23 -80q-54 -32 -116 -32zM128 -388l-30 48q72 49 87 110q-25 1 -42.5 21t-17.5 46q0 27 19 47t46 20q31 0 49 -22.5t18 -60.5q0 -140 -129 -209z" />
    <glyph glyph-name="circumflex" unicode="&#x2c6;" horiz-adv-x="378" 
d="M263 578l-74 103l-80 -103h-82l144 180h36l141 -180h-85z" />
    <glyph glyph-name="caron" unicode="&#x2c7;" horiz-adv-x="378" 
d="M208 571h-36l-144 180h82l80 -103l74 103h85z" />
    <glyph glyph-name="uni02C9" unicode="&#x2c9;" horiz-adv-x="395" 
d="M61 656v57h273v-57h-273z" />
    <glyph glyph-name="breve" unicode="&#x2d8;" horiz-adv-x="354" 
d="M177 615q-57 0 -90.5 24t-62.5 83l61 26q21 -43 39 -56.5t53 -13.5q31 0 47.5 11t33.5 41l9 18l62 -26q-27 -59 -60.5 -83t-91.5 -24z" />
    <glyph glyph-name="dotaccent" unicode="&#x2d9;" horiz-adv-x="171" 
d="M85 624q-22 0 -37 15t-15 37t15 37t37 15t37.5 -15t15.5 -37t-15.5 -37t-37.5 -15z" />
    <glyph glyph-name="ring" unicode="&#x2da;" horiz-adv-x="290" 
d="M145 579q-46 0 -76 31t-30 78t30 78t76 31t76 -31t30 -78t-30 -78t-76 -31zM146 741q-21 0 -35 -15.5t-14 -37.5q0 -23 13.5 -38.5t34.5 -15.5t34.5 15.5t13.5 38.5t-13.5 38t-33.5 15z" />
    <glyph glyph-name="ogonek" unicode="&#x2db;" horiz-adv-x="228" 
d="M91 -88q0 -61 42 -59l63 2v-56q-6 0 -31 -1.5t-38 -1.5q-44 0 -69.5 27.5t-25.5 78.5q0 76 90 113l83 -27q-52 -7 -83 -28t-31 -48z" />
    <glyph glyph-name="tilde" unicode="&#x2dc;" horiz-adv-x="440" 
d="M296 619q-45 0 -87 30q-35 27 -57 27q-23 0 -32 -8.5t-22 -44.5l-70 16l10 27q27 74 108 74q42 0 89 -32q26 -17 34.5 -21t21.5 -4q20 0 32.5 10.5t31.5 47.5l61 -26q-27 -54 -52 -75t-68 -21z" />
    <glyph glyph-name="hungarumlaut" unicode="&#x2dd;" horiz-adv-x="360" 
d="M100 574l-77 17l158 158l45 -66zM223 572l-77 17l158 158l45 -65z" />
    <glyph glyph-name="uni0394" unicode="&#x394;" horiz-adv-x="774" 
d="M9 0l372 713h15l371 -713h-758zM389 549l-237 -462l473 -1z" />
    <glyph glyph-name="uni03A9" unicode="&#x3a9;" horiz-adv-x="852" 
d="M501 0v80q23 18 77 71q48 46 64 64q42 57 44 138q2 102 -79 187t-182 85q-100 1 -181.5 -83.5t-79.5 -183.5q2 -84 38 -141q38 -61 132 -136v-81h-280v87h146q-53 43 -89 105q-42 72 -44 163q-1 68 28.5 134t79 115t116 79t134.5 30q140 0 250.5 -109.5t107.5 -248.5
q-2 -87 -51 -161q-41 -63 -98 -107h167v-87h-300z" />
    <glyph glyph-name="uni03BC" unicode="&#x3bc;" horiz-adv-x="621" 
d="M431 -6v78q-32 -56 -57.5 -70.5t-82.5 -17.5q-63 -3 -101 40v-228h-91v713h91v-276q0 -164 115 -164q52 0 89 53.5t37 129.5v257h91v-515h-91z" />
    <glyph glyph-name="pi" unicode="&#x3c0;" horiz-adv-x="745" 
d="M597 -11q-98 0 -144 55.5t-46 167.5v211h-152v-423h-92v423h-147v86l674 -1l-2 -86l-189 1v-205q0 -80 23.5 -112t77.5 -32q42 0 90 26l17 -77q-53 -34 -110 -34z" />
    <glyph glyph-name="Wgrave" unicode="&#x1e80;" horiz-adv-x="961" 
d="M482 759l-129 118l57 56l164 -174h-92zM680 0h-57l-143 500l-132 -500h-64l-254 705h95l183 -516l158 516h32l158 -516l183 516h96z" />
    <glyph glyph-name="wgrave" unicode="&#x1e81;" horiz-adv-x="733" 
d="M328 562l-128 117l56 56l164 -173h-92zM555 0h-48l-140 351l-142 -351h-48l-162 515h103l95 -335l140 335h27l141 -336l95 336h102z" />
    <glyph glyph-name="Wacute" unicode="&#x1e82;" horiz-adv-x="961" 
d="M445 743l-80 19l164 172l47 -71zM680 0h-57l-143 500l-132 -500h-64l-254 705h95l183 -516l158 516h32l158 -516l183 516h96z" />
    <glyph glyph-name="wacute" unicode="&#x1e83;" horiz-adv-x="733" 
d="M323 570l-79 19l163 171l47 -71zM555 0h-48l-140 352l-142 -352h-48l-162 515h103l95 -335l140 335h27l141 -335l95 335h102z" />
    <glyph glyph-name="Wdieresis" unicode="&#x1e84;" horiz-adv-x="961" 
d="M387 804q-23 0 -38.5 16t-15.5 38q0 23 16 39t38 16q23 0 39 -16.5t16 -38.5t-16 -38t-39 -16zM577 804q-23 0 -39 16t-16 38t16 38.5t39 16.5q22 0 38 -16t16 -39q0 -22 -15.5 -38t-38.5 -16zM680 0h-57l-143 500l-132 -500h-64l-254 705h95l183 -516l158 516h32
l158 -516l183 516h96z" />
    <glyph glyph-name="wdieresis" unicode="&#x1e85;" horiz-adv-x="733" 
d="M273 614q-22 0 -38 15.5t-16 37.5q0 23 16 39t38 16t38 -16.5t16 -38.5t-16 -37.5t-38 -15.5zM461 614q-22 0 -38 15.5t-16 37.5t16 38.5t38 16.5t38 -16t16 -39q0 -22 -16 -37.5t-38 -15.5zM555 0h-48l-140 351l-142 -351h-48l-162 515h103l95 -336l140 336h27l141 -336
l95 336h102z" />
    <glyph glyph-name="Ygrave" unicode="&#x1ef2;" horiz-adv-x="623" 
d="M322 759l-128 118l56 56l163 -174h-91zM360 275v-275h-94v275l-254 430h99l203 -336l201 336h96z" />
    <glyph glyph-name="ygrave" unicode="&#x1ef3;" horiz-adv-x="516" 
d="M259 561l-126 118l55 56l162 -174h-91zM205 -204h-98l102 235l-206 483h90l165 -377l163 377h92z" />
    <glyph glyph-name="endash" unicode="&#x2013;" horiz-adv-x="402" 
d="M48 254v61h307v-61h-307z" />
    <glyph glyph-name="emdash" unicode="&#x2014;" horiz-adv-x="571" 
d="M503 253h-434q-25 0 -25 20v21q0 20 25 20h434q24 0 24 -19v-23q0 -19 -24 -19z" />
    <glyph glyph-name="quoteleft" unicode="&#x2018;" horiz-adv-x="268" 
d="M142 567q23 -1 39 -19.5t16 -44.5t-17.5 -45t-42.5 -19q-28 0 -45 21.5t-17 57.5q0 69 29 116.5t93 83.5l25 -49q-68 -45 -80 -102z" />
    <glyph glyph-name="quoteright" unicode="&#x2019;" horiz-adv-x="268" 
d="M74 432l-25 49q65 46 78 104q-24 2 -39.5 20t-15.5 44t17.5 45t42.5 19q28 0 45 -22.5t17 -56.5q0 -67 -28.5 -115.5t-91.5 -86.5z" />
    <glyph glyph-name="quotesinglbase" unicode="&#x201a;" horiz-adv-x="268" 
d="M72 -174l-25 48q69 49 79 104q-23 2 -38.5 20.5t-15.5 43.5q0 26 17.5 45t42.5 19q28 0 45 -22.5t17 -56.5q0 -67 -29 -115t-93 -86z" />
    <glyph glyph-name="quotedblleft" unicode="&#x201c;" horiz-adv-x="463" 
d="M147 567q25 -1 42 -19.5t17 -44.5t-18.5 -45t-45.5 -19q-31 0 -49 22t-18 57q0 70 31.5 117.5t99.5 82.5l27 -49q-73 -45 -86 -102zM331 567q25 -1 42 -19.5t17 -44.5t-18.5 -45t-45.5 -19q-30 0 -48.5 22t-18.5 58q0 131 124 199l35 -44q-75 -51 -87 -107z" />
    <glyph glyph-name="quotedblright" unicode="&#x201d;" horiz-adv-x="463" 
d="M76 434l-29 49q72 45 85 102q-25 2 -41.5 20.5t-16.5 43.5q0 26 18.5 45t45.5 19q30 0 48.5 -22.5t18.5 -56.5q0 -67 -31 -115.5t-98 -84.5zM260 434l-31 49q74 45 87 102q-25 2 -41.5 20.5t-16.5 43.5q0 26 18.5 45t45.5 19q30 0 48.5 -22.5t18.5 -56.5
q0 -67 -31 -115.5t-98 -84.5z" />
    <glyph glyph-name="quotedblbase" unicode="&#x201e;" horiz-adv-x="463" 
d="M75 -171l-31 46q79 45 89 103q-25 1 -42.5 19.5t-17.5 44.5t19 45t46 19q30 0 48.5 -22.5t18.5 -56.5q0 -69 -31 -116.5t-99 -81.5zM259 -172l-30 47q78 45 88 103q-25 1 -42 19.5t-17 44.5t18.5 45t45.5 19q30 0 48.5 -22.5t18.5 -56.5q0 -68 -31.5 -116t-98.5 -83z" />
    <glyph glyph-name="dagger" unicode="&#x2020;" horiz-adv-x="412" 
d="M245 404l-5 -503h-68l-5 503h-120v79h119v217h80v-217h119v-79h-120z" />
    <glyph glyph-name="daggerdbl" unicode="&#x2021;" horiz-adv-x="424" 
d="M252 125v-224h-80v224h-119v79h119v229h-119v79h119v188h80v-188h119v-79h-119v-229h119v-79h-119z" />
    <glyph glyph-name="bullet" unicode="&#x2022;" horiz-adv-x="229" 
d="M115 271q-31 0 -51.5 20.5t-20.5 51.5q0 30 21 51t51 21q29 0 50.5 -21.5t21.5 -50.5q0 -30 -21 -51t-51 -21z" />
    <glyph glyph-name="ellipsis" unicode="&#x2026;" horiz-adv-x="747" 
d="M141 -11q-28 0 -47 16.5t-19 41.5t19 42t47 17q27 0 46.5 -17t19.5 -42t-19.5 -41.5t-46.5 -16.5zM373 -11q-27 0 -46.5 16.5t-19.5 41.5t19.5 42t46.5 17q28 0 47.5 -17t19.5 -42t-19.5 -41.5t-47.5 -16.5zM606 -11q-28 0 -47 16.5t-19 41.5t19 42t47 17q27 0 47 -17
t20 -42q0 -24 -20 -41t-47 -17z" />
    <glyph glyph-name="perthousand" unicode="&#x2030;" horiz-adv-x="1260" 
d="M212 345q-81 0 -127.5 49t-46.5 135t46.5 135t127.5 49t128 -49t47 -135t-47 -135t-128 -49zM230 0h-89l499 700h90zM212 646q-46 0 -72 -31t-26 -86t26 -86t72 -31t72 31t26 86t-26 86t-72 31zM657 -2q-81 0 -128 49t-47 135t47 135t128 49t128 -49t47 -135t-47 -135
t-128 -49zM1047 -2q-81 0 -127.5 49t-46.5 135t46.5 135t127.5 49t128 -49t47 -135t-47 -135t-128 -49zM657 299q-45 0 -71.5 -31t-26.5 -86t26.5 -86t71.5 -31q47 0 73 30.5t26 86.5t-26 86.5t-73 30.5zM1047 299q-45 0 -71 -31t-26 -86t26 -86t71 -31q47 0 73 30.5
t26 86.5t-26 86.5t-73 30.5z" />
    <glyph glyph-name="guilsinglleft" unicode="&#x2039;" horiz-adv-x="329" 
d="M223 21l-198 230l198 235l64 -42l-156 -190l160 -190z" />
    <glyph glyph-name="guilsinglright" unicode="&#x203a;" horiz-adv-x="329" 
d="M106 21l-68 43l160 190l-156 190l64 42l198 -235z" />
    <glyph glyph-name="fraction" unicode="&#x2044;" horiz-adv-x="459" 
d="M102 0h-78l342 700h77z" />
    <glyph glyph-name="uni2070" unicode="&#x2070;" horiz-adv-x="311" 
d="M155 466q-60 0 -92.5 45.5t-32.5 118.5t32.5 118t92.5 45t92.5 -45t32.5 -118t-32.5 -118.5t-92.5 -45.5zM209 713q-18 32 -54 32q-37 0 -54 -32q-19 -36 -19 -83q0 -46 19 -84q17 -31 54 -31t54 31q19 35 19 84q0 47 -19 83z" />
    <glyph glyph-name="uni2074" unicode="&#x2074;" horiz-adv-x="284" 
d="M216 547v-69h-50v69h-150v38l150 208h50v-201h53v-45h-53zM166 716l-88 -124h88v124z" />
    <glyph glyph-name="uni2076" unicode="&#x2076;" horiz-adv-x="285" 
d="M147 466q-69 0 -96 42q-25 38 -25 104q0 181 122 181q30 0 53 -9q20 -8 54 -40l-33 -37q-33 29 -39 31q-16 7 -36 7q-35 0 -52 -32q-13 -25 -16 -57q29 29 74 29t74 -28t29 -75q0 -49 -30.5 -82.5t-78.5 -33.5zM145 638q-24 1 -45 -20q-21 -20 -20 -42q0 -25 16.5 -43.5
t48.5 -18.5q27 0 43.5 18.5t16.5 47.5q0 26 -17 42t-43 16z" />
    <glyph glyph-name="uni2077" unicode="&#x2077;" horiz-adv-x="254" 
d="M81 476h-64l158 265h-157v50h240z" />
    <glyph glyph-name="uni2078" unicode="&#x2078;" horiz-adv-x="283" 
d="M144 475q-52 0 -83 25t-31 68q0 48 47 75q-7 5 -19 15q-21 20 -21 53q0 40 30 65.5t77 25.5t76.5 -25t29.5 -66q0 -33 -21 -53l-18 -15q46 -26 46 -75q0 -43 -30.5 -68t-82.5 -25zM144 754q-26 0 -41.5 -12.5t-15.5 -32.5q0 -18 16 -30q16 -13 41 -14q25 1 40.5 14
t15.5 30q0 20 -15 32.5t-41 12.5zM189 603q-19 14 -45 17q-27 -3 -46 -17q-17 -11 -17 -33q0 -21 16 -34t47 -13q62 0 62 47q0 22 -17 33z" />
    <glyph glyph-name="uni2079" unicode="&#x2079;" horiz-adv-x="287" 
d="M133 466q-57 0 -110 50l34 38q23 -23 41 -33q10 -6 36 -6q36 0 52 31q13 27 16 58q-29 -29 -74 -29q-44 0 -73.5 28t-29.5 74q0 49 30.5 82.5t78.5 33.5q70 0 96 -42q25 -42 25 -103q0 -182 -122 -182zM136 745q-28 0 -44 -19t-16 -47q0 -25 17.5 -41t44.5 -16
q24 0 43.5 19t19.5 41q0 26 -16 44.5t-49 18.5z" />
    <glyph glyph-name="uni2080" unicode="&#x2080;" horiz-adv-x="311" 
d="M152 0q-60 0 -92.5 45t-32.5 118t32.5 118.5t92.5 45.5t92.5 -45.5t32.5 -118.5t-32.5 -118t-92.5 -45zM206 247q-17 31 -54 31t-54 -31q-19 -38 -19 -84q0 -47 19 -83q17 -32 54 -32t54 31q19 35 19 84q0 48 -19 84z" />
    <glyph glyph-name="uni2081" unicode="&#x2081;" horiz-adv-x="182" 
d="M80 -50v251l-38 -31v56l45 39h38v-315h-45z" />
    <glyph glyph-name="uni2082" unicode="&#x2082;" horiz-adv-x="264" 
d="M13 -50l167 202q13 16 13 31q0 16 -14 27.5t-39 11.5q-42 0 -80 -44l-34 36q56 57 114 57q45 0 74 -24t29 -61q0 -32 -25 -62l-104 -126h133v-48h-234z" />
    <glyph glyph-name="uni2083" unicode="&#x2083;" horiz-adv-x="270" 
d="M132 -60q-56 0 -113 57l34 36q41 -45 79 -45q67 0 67 53q0 17 -15.5 29t-41.5 12h-60v48h60q24 0 36.5 11t12.5 25q0 24 -15.5 38t-43.5 14q-34 0 -74 -44l-34 38q56 55 108 55q46 0 78 -26t32 -72q0 -25 -16 -46q-14 -14 -17 -16q10 -5 22 -17q19 -19 19 -52
q0 -48 -32 -73t-86 -25z" />
    <glyph glyph-name="uni2084" unicode="&#x2084;" horiz-adv-x="284" 
d="M217 -1v-69h-50v69h-150v38l150 208h50v-201h53v-45h-53zM167 168l-88 -124h88v124z" />
    <glyph glyph-name="uni2085" unicode="&#x2085;" horiz-adv-x="265" 
d="M131 -52q-53 0 -114 55l33 37q29 -29 44 -36q16 -8 37 -8q35 0 50.5 13.5t15.5 43.5q0 47 -64 47h-92v168l189 1v-48l-138 -1v-71l43 1q49 0 80 -22q33 -24 33 -75t-31.5 -78t-85.5 -27z" />
    <glyph glyph-name="uni2086" unicode="&#x2086;" horiz-adv-x="285" 
d="M149 -70q-68 0 -96 42q-25 42 -25 103q0 182 122 182q58 0 107 -49l-34 -37q-24 24 -38 31q-11 6 -36 6q-37 0 -52 -31q-13 -27 -16 -58q29 29 75 29q44 0 73 -28t29 -74q0 -49 -30.5 -82.5t-78.5 -33.5zM146 101q-24 0 -44 -20q-20 -19 -19 -41q0 -25 16.5 -43.5
t48.5 -18.5q27 0 43 18.5t16 47.5q0 25 -17 41t-44 16z" />
    <glyph glyph-name="uni2087" unicode="&#x2087;" horiz-adv-x="254" 
d="M76 -60h-64l158 265h-157v50h240z" />
    <glyph glyph-name="uni2088" unicode="&#x2088;" horiz-adv-x="283" 
d="M140 -70q-52 0 -82.5 25t-30.5 68q0 47 46 75q-3 2 -9.5 7t-9.5 7q-21 18 -21 54q0 40 30 65.5t77 25.5t77 -25.5t30 -65.5q0 -33 -21 -53q-9 -9 -18 -15q19 -11 32 -31t13 -44q0 -43 -30.5 -68t-82.5 -25zM140 209q-25 0 -40.5 -12.5t-15.5 -32.5t15 -30q19 -14 41 -14
q26 1 41 13.5t15 30.5q0 20 -15 32.5t-41 12.5zM185 58q-19 14 -45 16q-26 -2 -46 -16q-17 -13 -17 -33q0 -21 16 -34t47 -13q63 0 63 47q0 21 -18 33z" />
    <glyph glyph-name="uni2089" unicode="&#x2089;" horiz-adv-x="287" 
d="M141 -70q-57 0 -110 50l34 38q28 -28 41 -33q18 -7 36 -7q35 0 52 32q13 25 16 57q-29 -29 -74 -29q-44 0 -73.5 28.5t-29.5 74.5q0 49 30.5 82.5t78.5 33.5q69 0 96 -43q25 -42 25 -103q0 -181 -122 -181zM144 209q-29 0 -44 -18q-16 -20 -16 -48q0 -26 16.5 -42
t43.5 -16q22 -1 45 19q20 19 20 42q0 26 -16 44.5t-49 18.5z" />
    <glyph glyph-name="peseta" unicode="&#x20a7;" horiz-adv-x="1544" 
d="M1012 439q-14 -79 -70 -120q-71 -53 -176 -53h-158v-266h-96v439h-128v75h128v186h254q104 0 177 -49q63 -44 71 -137h117v-75h-119zM761 614h-153v-100h310q-16 100 -157 100zM608 439v-87h153q130 0 154 87h-307z" />
    <glyph glyph-name="Euro" unicode="&#x20ac;" horiz-adv-x="623" 
d="M551 595q-34 14 -67 22q-38 8 -61 8q-91 0 -149 -56q-55 -55 -75 -126h299v-59h-311l-1 -30q-1 -14 4 -55h308v-59h-292q26 -67 77 -113q56 -52 140 -52q64 0 104 20l24 9l27 -82q-73 -33 -154 -35q-110 -1 -201 72t-117 181h-94v59h81q-4 31 -4 56l2 29h-79v59h87
q26 117 116 193.5t208 76.5q78 0 159 -36z" />
    <glyph glyph-name="uni2113" unicode="&#x2113;" horiz-adv-x="475" 
d="M396 419q-49 -107 -224 -177v-16q0 -176 142 -176q15 0 37 6t31 13l20 8l20 -57q-46 -31 -111 -31q-96 0 -149 60t-53 164v7l-71 -19l-14 54l85 28v204q0 112 36.5 168t133.5 56q68 0 107 -44.5t39 -118.5q0 -70 -29 -129zM279 651q-57 0 -82 -36.5t-25 -127.5v-181
q61 26 106.5 64t63.5 77q22 47 22 99q0 49 -22.5 77t-62.5 28z" />
    <glyph glyph-name="trademark" unicode="&#x2122;" horiz-adv-x="886" 
d="M812 706l53 -392h-65l-30 259l-149 -259h-38l-155 259l-25 -259h-66l43 332h-145v-334h-66v334h-149v60h364v-31l4 31h30l184 -307l178 307h32z" />
    <glyph glyph-name="uni2126" unicode="&#x2126;" horiz-adv-x="852" 
d="M501 0v82l28 18q65 52 112 114q43 58 45 139q2 102 -79 187t-182 85q-65 0 -126.5 -38.5t-98.5 -101t-36 -127.5q3 -142 141 -259l29 -17v-82h-280v87h146q-53 43 -89 105q-42 72 -44 163q-1 68 28.5 134t79 115t116 79t134.5 30q140 0 250.5 -109.5t107.5 -248.5
q-2 -87 -51 -161q-41 -63 -98 -107h167v-87h-300z" />
    <glyph glyph-name="estimated" unicode="&#x212e;" horiz-adv-x="805" 
d="M175 313v-127q41 -60 100.5 -95t128.5 -35q114 0 218 107l51 -56q-69 -64 -132 -91.5t-142 -28.5q-138 -2 -245.5 109.5t-107.5 253.5q1 141 109.5 252t248.5 111q152 -1 256.5 -116t101.5 -284h-587zM630 517q-88 126 -226 126q-74 0 -137 -40q-61 -42 -92 -89v-131h455
v134z" />
    <glyph glyph-name="oneeighth" unicode="&#x215b;" horiz-adv-x="643" 
d="M153 0h-78l345 700h77zM122 358v260l-45 -32v58l54 39h45v-325h-54zM457 4q-56 0 -88 25.5t-32 70.5q0 48 49 77q-9 5 -19 15q-22 19 -22 54q0 42 31 68t81 26q49 0 79.5 -26t30.5 -68q0 -36 -21 -54q-12 -11 -20 -15q49 -27 49 -77q0 -45 -31.5 -70.5t-86.5 -25.5z
M457 292q-27 0 -43.5 -13.5t-16.5 -33.5q0 -19 17 -31q13 -13 43 -16q27 3 42.5 16t15.5 31q0 20 -15.5 33.5t-42.5 13.5zM504 136q-20 14 -47 17q-29 -3 -48 -17q-19 -13 -19 -35q0 -21 17 -34.5t50 -13.5q65 0 65 48q0 21 -18 35z" />
    <glyph glyph-name="threeeighths" unicode="&#x215c;" horiz-adv-x="698" 
d="M196 -1h-79l347 700h78zM153 354q-59 0 -119 59l35 36q45 -45 84 -45q71 0 71 54q0 18 -16.5 31t-44.5 13h-63v47h63q26 0 39 12t13 27q0 24 -16.5 39t-45.5 15q-36 0 -78 -47l-36 39q57 57 114 57q48 0 81.5 -27t33.5 -74q0 -29 -17 -47q-5 -7 -17 -17q12 -6 23 -17
q20 -22 20 -54q0 -49 -33.5 -75t-90.5 -26zM506 4q-56 0 -88 25.5t-32 70.5q0 48 49 77q-7 4 -20 15q-21 20 -21 54q0 42 31 68t81 26t80.5 -26t30.5 -68q0 -36 -21 -54q-12 -11 -20 -15q49 -29 49 -77q0 -46 -31.5 -71t-87.5 -25zM506 292q-27 0 -43.5 -13.5t-16.5 -33.5
q0 -19 17 -31q13 -13 43 -16q27 3 43 16t16 31q0 20 -16 33.5t-43 13.5zM553 136q-19 14 -47 17q-29 -3 -48 -17q-19 -13 -19 -35q0 -21 17 -34.5t50 -13.5q66 0 66 48q0 22 -19 35z" />
    <glyph glyph-name="fiveeighths" unicode="&#x215d;" horiz-adv-x="690" 
d="M196 -1h-79l347 700h78zM154 359q-57 0 -120 57l35 36q32 -30 46 -36q18 -8 39 -8q37 0 53.5 14t16.5 45q0 49 -68 49h-97v173h199v-49h-145v-74h45q50 0 84 -22q35 -24 35 -76q0 -53 -33.5 -81t-89.5 -28zM506 4q-56 0 -88 25.5t-32 70.5q0 48 49 77q-7 4 -20 15
q-21 20 -21 54q0 42 31 68t81 26t80.5 -26t30.5 -68q0 -36 -21 -54q-12 -11 -20 -15q49 -29 49 -77q0 -46 -31.5 -71t-87.5 -25zM506 292q-27 0 -43.5 -13.5t-16.5 -33.5q0 -19 17 -31q13 -13 43 -16q27 3 43 16t16 31q0 20 -16 33.5t-43 13.5zM553 136q-19 14 -47 17
q-29 -3 -48 -17q-19 -13 -19 -35q0 -21 17 -34.5t50 -13.5q66 0 66 48q0 22 -19 35z" />
    <glyph glyph-name="seveneighths" unicode="&#x215e;" horiz-adv-x="617" 
d="M160 0h-78l345 700h77zM122 362h-66l165 274h-164v51h250zM437 4q-56 0 -88 25.5t-32 70.5q0 48 49 77q-9 5 -19 15q-22 19 -22 54q0 42 31 68t81 26q49 0 79.5 -26t30.5 -68q0 -36 -21 -54q-12 -11 -20 -15q49 -27 49 -77q0 -45 -31.5 -70.5t-86.5 -25.5zM437 292
q-27 0 -43.5 -13.5t-16.5 -33.5q0 -19 17 -31q13 -13 43 -16q27 3 42.5 16t15.5 31q0 20 -15.5 33.5t-42.5 13.5zM484 136q-20 14 -47 17q-29 -3 -48 -17q-19 -13 -19 -35q0 -21 17 -34.5t50 -13.5q65 0 65 48q0 21 -18 35z" />
    <glyph glyph-name="partialdiff" unicode="&#x2202;" horiz-adv-x="610" 
d="M501 78q-60 -91 -212 -91q-108 0 -175 73t-67 181q0 101 65.5 162t161.5 61q124 0 189 -92q-6 105 -43 176q-43 77 -131 77q-51 0 -90.5 -17t-92.5 -64l-63 64q116 105 242 105q273 0 273 -404q0 -141 -57 -231zM295 381q-66 -1 -110 -40.5t-44 -103.5q0 -69 40 -118
q39 -46 112 -46q82 0 122.5 49t41.5 109q1 53 -51.5 102t-110.5 48z" />
    <glyph glyph-name="uni2206" unicode="&#x2206;" horiz-adv-x="771" 
d="M6 0l372 713h15l371 -713h-758zM386 549l-237 -462l473 -1z" />
    <glyph glyph-name="product" unicode="&#x220f;" horiz-adv-x="659" 
d="M462 0v613h-265v-613h-95v700h455v-700h-95z" />
    <glyph glyph-name="summation" unicode="&#x2211;" horiz-adv-x="607" 
d="M54 0l224 348l-224 352h495v-87h-330l163 -264l-163 -262h330v-87h-495z" />
    <glyph glyph-name="minus" unicode="&#x2212;" horiz-adv-x="573" 
d="M50 259v57h473v-57h-473z" />
    <glyph glyph-name="uni2215" unicode="&#x2215;" horiz-adv-x="481" 
d="M111 0h-78l339 700h78z" />
    <glyph glyph-name="uni2219" unicode="&#x2219;" horiz-adv-x="222" 
d="M111 281q-26 0 -44 18t-18 44t18.5 44t43.5 18q26 0 44 -18t18 -44t-18 -44t-44 -18z" />
    <glyph glyph-name="radical" unicode="&#x221a;" horiz-adv-x="697" 
d="M568 609l-296 -625h-16l-251 530h100l159 -356l250 542h183v-91h-129z" />
    <glyph glyph-name="infinity" unicode="&#x221e;" horiz-adv-x="691" 
d="M482 156q-53 0 -90 31t-55 72q-13 -25 -36 -51q-34 -38 -96 -38q-76 0 -122.5 55t-46.5 146t46.5 146t122.5 55q61 0 95 -37q23 -24 37 -51q15 32 43 61q39 41 102 41q81 0 127 -57t46 -158q0 -100 -46.5 -157.5t-126.5 -57.5zM479 504q-44 0 -73 -38q-28 -39 -33 -95
q5 -56 33 -95q29 -38 73 -38q45 0 72.5 34t27.5 99t-27.5 99t-72.5 34zM207 490q-41 0 -68 -32.5t-27 -86.5t27 -86t68 -32t66.5 31.5t29.5 86.5q-4 55 -30 87t-66 32z" />
    <glyph glyph-name="integral" unicode="&#x222b;" horiz-adv-x="491" 
d="M458 604q-47 23 -80 23q-53 0 -76.5 -33t-23.5 -114v-488q0 -228 -184 -228q-56 0 -115 36l12 82q62 -32 96 -32q54 0 77 32.5t23 114.5v488q0 228 185 228q55 0 117 -35z" />
    <glyph glyph-name="approxequal" unicode="&#x2248;" horiz-adv-x="510" 
d="M329 304q-44 0 -87 33q-37 30 -57 30q-23 0 -32 -9.5t-22 -48.5l-70 17l10 29q28 81 108 81q44 0 89 -35q27 -20 35 -24t21 -4q20 0 32.5 12t31.5 52l61 -28q-27 -59 -52 -82t-68 -23zM329 153q-44 0 -87 33q-39 30 -57 30q-23 0 -32 -9.5t-22 -48.5l-70 16l10 30
q28 81 108 81q42 0 89 -35q27 -20 35 -24t21 -4q20 0 32.5 12t31.5 52l61 -28q-27 -59 -52 -82t-68 -23z" />
    <glyph glyph-name="notequal" unicode="&#x2260;" horiz-adv-x="560" 
d="M272 235l-92 -235h-74l90 235h-146v79h176l45 113h-221v79h250l77 194h78q-13 -20 -46 -109l-33 -85h134v-79h-164l-43 -113h207v-79h-238z" />
    <glyph glyph-name="lessequal" unicode="&#x2264;" horiz-adv-x="545" 
d="M69 408v75l395 193v-94l-279 -136l279 -136v-94zM57 105v75l429 6v-81h-429z" />
    <glyph glyph-name="greaterequal" unicode="&#x2265;" horiz-adv-x="545" 
d="M81 216v94l279 136l-279 136v94l395 -193v-75zM59 105v81l429 -6v-75h-429z" />
    <glyph glyph-name="lozenge" unicode="&#x25ca;" horiz-adv-x="678" 
d="M347 -7h-12l-306 357l306 357h12l306 -357zM341 595l-208 -245l208 -245l208 245z" />
    <glyph glyph-name="f_f" unicode="&#xfb00;" horiz-adv-x="743" 
d="M714 659q-40 16 -83 16q-54 0 -77.5 -32t-23.5 -114v-15h190v-80h-190v-434h-93v434h-228v-434h-92v434h-87v80h87v20q0 227 186 227q63 0 108 -23l-19 -83q-51 20 -81 20q-54 0 -78 -32.5t-24 -113.5v-15h228v20q0 227 187 227q60 0 106 -25z" />
    <glyph glyph-name="f_i" unicode="&#xfb01;" horiz-adv-x="666" 
d="M458 0v435h-251v-435h-90v435h-87v80h87v19q0 227 184 227q49 0 109 -29l-25 -75q-42 18 -76 18q-54 0 -78 -32.5t-24 -113.5v-14h342l1 -515h-92zM502 608q-25 0 -42.5 17.5t-17.5 42.5t17.5 43t42.5 18t43 -18t18 -43t-18 -42.5t-43 -17.5z" />
    <glyph glyph-name="f_f_i" unicode="&#xfb03;" horiz-adv-x="996" 
d="M785 0v434h-253v-434h-93v434h-229v-434h-92v434h-88v80h88v20q0 227 187 227q63 0 108 -23l-19 -83q-52 20 -82 20q-54 0 -78 -32.5t-24 -113.5v-15h229v20q0 227 188 227q60 0 107 -25l-17 -77q-40 16 -83 16q-55 0 -78.5 -32.5t-23.5 -113.5v-15l342 1l4 -515h-93z
M831 608q-25 0 -42.5 17.5t-17.5 42.5t17.5 43t42.5 18t43 -17.5t18 -43.5q0 -25 -18 -42.5t-43 -17.5z" />
    <glyph glyph-name="_142" horiz-adv-x="855" 
d="M45 578v88h756v-88h-756zM703 409q0 17 -20 32.5t-46 15.5q-24 0 -43.5 -11t-19.5 -26q0 -21 11 -33t47 -20l32 -7q37 -8 55.5 -13.5t40 -15.5t30.5 -26t10 -39q1 -51 -44 -82t-117 -31q-82 0 -125 41t-43 94l87 -1q0 -6 3 -14.5t11 -19.5t26 -19t43 -8q29 0 47.5 10.5
t18.5 23.5q0 28 -71 43q-69 15 -112 39q-44 24 -44 76q0 50 45 81.5t114 31.5q71 0 113 -37t42 -85h-91zM145 445v-86h182v-84h-182v-122h-99v376h317v-84h-218zM354 199q0 -18 14 -31t33 -13q20 0 34.5 12.5t14.5 31.5q0 18 -14.5 31t-34.5 13q-19 0 -33 -13t-14 -31z
M43 18v88h756v-88h-756z" />
    <glyph glyph-name="f_f_j" horiz-adv-x="1013" 
d="M688 -236q-25 0 -45 5q-20 7 -50 25v88q57 -32 88 -32q54 0 78 33t24 114v436l-251 -1v-437h-93v437h-229v-437h-92v437h-88v80h88v21q0 228 187 228q63 0 108 -23l-19 -83q-56 20 -82 20q-54 0 -78 -33t-24 -114v-16h229v21q0 228 188 228q60 0 107 -25l-17 -78
q-39 17 -83 17q-54 0 -78 -32.5t-24 -114.5v-16l343 2v-522q0 -228 -187 -228zM831 607q-25 0 -42.5 18t-17.5 43t17.5 43t42.5 18t43 -17.5t18 -43.5t-18 -43.5t-43 -17.5z" />
    <glyph glyph-name="f_j" horiz-adv-x="684" 
d="M389 -236q-25 0 -66 12q-41 13 -66 30l36 76q32 -20 48.5 -26t41.5 -6q54 0 77.5 33t23.5 114v436h-276v-438h-91v438h-87v81l87 -1v20q0 228 184 228q57 0 108 -27l-38 -73q-34 14 -62 14q-54 0 -77.5 -33t-23.5 -114v-15l367 1v-522q0 -228 -186 -228zM527 607
q-25 0 -42.5 18t-17.5 43t17.5 43t42.5 18t43 -18t18 -43t-18 -43t-43 -18z" />
    <glyph glyph-name="seven.001" horiz-adv-x="562" 
d="M158 0h-119l366 609h-374v91h525z" />
    <glyph glyph-name="zero.denom" horiz-adv-x="311" 
d="M152 0q-60 0 -92.5 45t-32.5 118t32.5 118.5t92.5 45.5t92.5 -45.5t32.5 -118.5t-32.5 -118t-92.5 -45zM206 247q-17 31 -54 31t-54 -31q-19 -38 -19 -84q0 -47 19 -83q17 -32 54 -32t54 31q19 35 19 84q0 48 -19 84z" />
    <glyph glyph-name="one.denom" horiz-adv-x="182" 
d="M80 0v251l-38 -31v56l45 39h38v-315h-45z" />
    <glyph glyph-name="two.denom" horiz-adv-x="264" 
d="M13 0l167 202q13 16 13 31q0 16 -14 27.5t-39 11.5q-42 0 -80 -44l-34 36q56 57 114 57q45 0 74 -24t29 -61q0 -32 -25 -62l-104 -126h133v-48h-234z" />
    <glyph glyph-name="three.denom" horiz-adv-x="270" 
d="M132 0q-56 0 -113 57l34 36q41 -45 79 -45q67 0 67 53q0 17 -15.5 29t-41.5 12h-60v48h60q24 0 36.5 11t12.5 25q0 24 -15.5 38t-43.5 14q-34 0 -74 -44l-34 38q56 55 108 55q46 0 78 -26t32 -72q0 -25 -16 -46q-14 -14 -17 -16q10 -5 22 -17q19 -19 19 -52
q0 -48 -32 -73t-86 -25z" />
    <glyph glyph-name="four.denom" horiz-adv-x="284" 
d="M217 69v-69h-50v69h-150v38l150 208h50v-201h53v-45h-53zM167 238l-88 -124h88v124z" />
    <glyph glyph-name="five.denom" horiz-adv-x="265" 
d="M131 -2q-53 0 -114 55l33 37q29 -29 44 -36q16 -8 37 -8q35 0 50.5 13.5t15.5 43.5q0 47 -64 47h-92v168l189 1v-48l-138 -1v-71l43 1q49 0 80 -22q33 -24 33 -75t-31.5 -78t-85.5 -27z" />
    <glyph glyph-name="six.denom" horiz-adv-x="285" 
d="M149 0q-68 0 -96 42q-25 42 -25 103q0 182 122 182q58 0 107 -49l-34 -37q-24 24 -38 31q-11 6 -36 6q-37 0 -52 -31q-13 -27 -16 -58q29 29 75 29q44 0 73 -28t29 -74q0 -49 -30.5 -82.5t-78.5 -33.5zM146 171q-24 0 -44 -20q-20 -19 -19 -41q0 -25 16.5 -43.5
t48.5 -18.5q27 0 43 18.5t16 47.5q0 25 -17 41t-44 16z" />
    <glyph glyph-name="seven.denom" horiz-adv-x="254" 
d="M76 0h-64l158 265h-157v50h240z" />
    <glyph glyph-name="eight.denom" horiz-adv-x="283" 
d="M140 0q-52 0 -82.5 25t-30.5 68q0 47 46 75q-3 2 -9.5 7t-9.5 7q-21 18 -21 54q0 40 30 65.5t77 25.5t77 -25.5t30 -65.5q0 -33 -21 -53q-9 -9 -18 -15q19 -11 32 -31t13 -44q0 -43 -30.5 -68t-82.5 -25zM140 279q-25 0 -40.5 -12.5t-15.5 -32.5t15 -30q19 -14 41 -14
q26 1 41 13.5t15 30.5q0 20 -15 32.5t-41 12.5zM185 128q-19 14 -45 16q-26 -2 -46 -16q-17 -13 -17 -33q0 -21 16 -34t47 -13q63 0 63 47q0 21 -18 33z" />
    <glyph glyph-name="nine.denom" horiz-adv-x="287" 
d="M141 0q-57 0 -110 50l34 38q28 -28 41 -33q18 -7 36 -7q35 0 52 32q13 25 16 57q-29 -29 -74 -29q-44 0 -73.5 28.5t-29.5 74.5q0 49 30.5 82.5t78.5 33.5q69 0 96 -43q25 -42 25 -103q0 -181 -122 -181zM144 279q-29 0 -44 -18q-16 -20 -16 -48q0 -26 16.5 -42t43.5 -16
q22 -1 45 19q20 19 20 42q0 26 -16 44.5t-49 18.5z" />
    <glyph glyph-name="zero.num" horiz-adv-x="311" 
d="M155 396q-60 0 -92.5 45.5t-32.5 118.5t32.5 118t92.5 45t92.5 -45t32.5 -118t-32.5 -118.5t-92.5 -45.5zM209 643q-18 32 -54 32q-37 0 -54 -32q-19 -36 -19 -83q0 -46 19 -84q17 -31 54 -31t54 31q19 35 19 84q0 47 -19 83z" />
    <glyph glyph-name="one.num" horiz-adv-x="182" 
d="M80 408v251l-38 -31v56l45 39h38v-315h-45z" />
    <glyph glyph-name="two.num" horiz-adv-x="264" 
d="M13 402l167 202q13 16 13 31q0 17 -14 28.5t-39 11.5q-39 0 -80 -45l-34 37q56 56 114 56q45 0 74 -24t29 -61q0 -32 -25 -62l-104 -126h133v-48h-234z" />
    <glyph glyph-name="three.num" horiz-adv-x="270" 
d="M131 393q-55 0 -113 57l33 36q44 -44 80 -44q67 0 67 52q0 18 -15 30t-42 12h-60v47h60q24 0 36.5 11t12.5 26q0 24 -15.5 38t-43.5 14q-34 0 -74 -45l-34 38q55 55 108 55q46 0 78 -26t32 -72q0 -25 -16 -46q-14 -14 -17 -16q10 -5 22 -17q19 -19 19 -52q0 -48 -32 -73
t-86 -25z" />
    <glyph glyph-name="four.num" horiz-adv-x="284" 
d="M216 477v-69h-50v69h-150v38l150 208h50v-201h53v-45h-53zM166 646l-88 -124h88v124z" />
    <glyph glyph-name="five.num" horiz-adv-x="265" 
d="M134 403q-53 0 -114 55l33 37q29 -29 44 -36q16 -8 37 -8q35 0 50.5 13.5t15.5 43.5q0 47 -64 47h-92v168h189v-48h-138v-71q23 0 42.5 0.5t41 -4.5t39.5 -18q33 -24 33 -74q0 -51 -31.5 -78t-85.5 -27z" />
    <glyph glyph-name="six.num" horiz-adv-x="285" 
d="M147 396q-69 0 -96 42q-25 38 -25 104q0 181 122 181q30 0 53 -9q20 -8 54 -40l-33 -37q-33 29 -39 31q-16 7 -36 7q-35 0 -52 -32q-13 -25 -16 -57q29 29 74 29t74 -28t29 -75q0 -49 -30.5 -82.5t-78.5 -33.5zM145 568q-24 1 -45 -20q-21 -20 -20 -42q0 -25 16.5 -43.5
t48.5 -18.5q27 0 43.5 18.5t16.5 47.5q0 26 -17 42t-43 16z" />
    <glyph glyph-name="seven.num" horiz-adv-x="254" 
d="M81 406h-64l158 265h-157v50h240z" />
    <glyph glyph-name="eight.num" horiz-adv-x="283" 
d="M144 395q-52 0 -83 25t-31 68q0 48 47 75q-7 5 -19 15q-21 20 -21 53q0 40 30 65.5t77 25.5t76.5 -25t29.5 -66q0 -33 -21 -53l-18 -15q46 -26 46 -75q0 -43 -30.5 -68t-82.5 -25zM144 674q-26 0 -41.5 -12.5t-15.5 -32.5q0 -18 16 -30q16 -13 41 -14q25 1 40.5 14
t15.5 30q0 20 -15 32.5t-41 12.5zM189 523q-19 14 -45 17q-27 -3 -46 -17q-17 -11 -17 -33q0 -21 16 -34t47 -13q62 0 62 47q0 22 -17 33z" />
    <glyph glyph-name="nine.num" horiz-adv-x="287" 
d="M133 396q-57 0 -110 50l34 38q23 -23 41 -33q10 -6 36 -6q36 0 52 31q13 27 16 58q-29 -29 -74 -29q-44 0 -73.5 28t-29.5 74q0 49 30.5 82.5t78.5 33.5q70 0 96 -42q25 -42 25 -103q0 -182 -122 -182zM136 675q-28 0 -44 -19t-16 -47q0 -25 17.5 -41t44.5 -16
q24 0 43.5 19t19.5 41q0 26 -16 44.5t-49 18.5z" />
    <glyph glyph-name="one.superior" horiz-adv-x="182" 
d="M80 458v251l-38 -31v56l45 39h38v-315h-45z" />
    <glyph glyph-name="two.superior" horiz-adv-x="264" 
d="M13 482l167 202q13 16 13 31q0 17 -14 28.5t-39 11.5q-39 0 -80 -45l-34 37q56 56 114 56q45 0 74 -24t29 -61q0 -32 -25 -62l-104 -126h133v-48h-234z" />
    <glyph glyph-name="zero.tf" horiz-adv-x="652" 
d="M326 -13q-133 0 -205 100.5t-72 262.5t72 262.5t205 100.5t205 -100.5t72 -262.5t-72 -262.5t-205 -100.5zM462 548q-41 77 -136 77t-136 -77q-44 -82 -44 -198t44 -198q41 -77 136 -77q94 0 136 76q44 82 44 199q0 116 -44 198z" />
    <glyph glyph-name="one.tf" horiz-adv-x="369" 
d="M168 0v590l-95 -71v97l104 84h81v-700h-90z" />
    <glyph glyph-name="two.tf" horiz-adv-x="560" 
d="M13 0l372 444q31 39 31 80q0 45 -35 73t-98 28q-100 0 -189 -95l-62 64q64 64 121.5 91.5t129.5 27.5q100 0 163.5 -52.5t63.5 -130.5q0 -71 -55 -136l-261 -307h325v-87h-506z" />
    <glyph glyph-name="three.tf" horiz-adv-x="584" 
d="M275 -13q-129 0 -246 120l61 63q93 -95 185 -95q87 0 128 32.5t41 98.5q0 45 -40.5 76.5t-106.5 31.5h-127v84h128q61 0 93 30t32 67q0 61 -39 95.5t-109 34.5q-85 0 -172 -96l-63 68q59 60 114.5 88t120.5 28q100 0 171.5 -56t71.5 -156q0 -55 -35 -98q-26 -31 -54 -47
q36 -15 67 -46q42 -42 42 -110q0 -104 -70 -158.5t-193 -54.5z" />
    <glyph glyph-name="four.tf" horiz-adv-x="647" 
d="M484 157v-157h-91v157h-348v73l341 470h98v-462h123v-81h-123zM393 571l-241 -333h241v333z" />
    <glyph glyph-name="five.tf" horiz-adv-x="579" 
d="M271 -13q-67 0 -124.5 27t-122.5 88l59 66q63 -58 96 -75q38 -18 92 -18q87 0 126.5 33.5t39.5 107.5q0 123 -161 122l-202 -1v362l415 1v-87l-321 -1v-187l112 1q111 0 179 -48q72 -48 72 -160q0 -111 -69.5 -171t-190.5 -60z" />
    <glyph glyph-name="six.tf" horiz-adv-x="610" 
d="M320 -13q-154 0 -212 91q-56 91 -56 231q0 404 273 404q69 0 119 -21t112 -79l-62 -68q-53 51 -84 66q-31 14 -90 14q-89 0 -130 -77q-37 -68 -43 -177q64 93 190 93q97 0 161.5 -60.5t64.5 -162.5q0 -108 -67 -181t-176 -73zM316 381q-58 1 -110.5 -48t-51.5 -102
q1 -61 41 -109.5t123 -48.5q69 0 110 46.5t41 117.5q0 63 -44 103t-109 41z" />
    <glyph glyph-name="eight.tf" horiz-adv-x="600" 
d="M300 -13q-118 0 -185 54.5t-67 147.5q0 62 37 105.5t86 64.5q-34 18 -63 44q-44 40 -44 112q0 88 65 143t172 55q106 0 170.5 -55t64.5 -143q0 -71 -44 -112q-31 -28 -63 -44q47 -20 85 -64.5t38 -105.5q0 -94 -66.5 -148t-185.5 -54zM301 627q-65 0 -104 -32.5
t-39 -82.5t39 -79q41 -31 104 -35q64 5 102.5 36t38.5 78q0 51 -38 83t-103 32zM413 279q-47 34 -112 40q-68 -6 -115 -40q-45 -33 -45 -86q0 -54 41 -87t118 -33q78 0 118.5 32.5t40.5 87.5q0 52 -46 86z" />
    <glyph glyph-name="nine.tf" horiz-adv-x="609" 
d="M286 -13q-69 0 -122.5 23.5t-115.5 81.5l62 67q61 -55 90 -69q33 -15 91 -15q87 0 130 77q37 71 43 176q-65 -92 -189 -92q-97 0 -162 60.5t-65 162.5q0 108 67 181t176 73q152 0 211 -92q57 -90 57 -230q0 -404 -273 -404zM294 627q-74 0 -111 -47q-41 -49 -41 -117
q0 -64 44 -103.5t110 -40.5q58 -1 110.5 48t51.5 102q-1 60 -41.5 109t-122.5 49z" />
    <glyph glyph-name="periodcentered.case" horiz-adv-x="235" 
d="M117 293q-27 0 -45.5 18.5t-18.5 45.5t18.5 45.5t45.5 18.5t46 -18.5t19 -45.5t-19 -45.5t-46 -18.5z" />
    <glyph glyph-name="bullet.case" horiz-adv-x="229" 
d="M115 285q-31 0 -51.5 21t-20.5 51t20.5 51t51.5 21q29 0 50.5 -21t21.5 -51t-21.5 -51t-50.5 -21z" />
    <glyph glyph-name="braceleft.case" horiz-adv-x="450" 
d="M216 -53q-83 55 -83 204v77q0 27 -28 51q-30 25 -69 36v85q36 9 68 37q29 26 29 53v77q0 256 267 256v-88q-72 0 -123.5 -40.5t-51.5 -127.5v-77q0 -44 -20.5 -79.5t-52.5 -51.5q32 -16 52.5 -51.5t20.5 -79.5v-77q0 -87 51.5 -127.5t123.5 -40.5v-88q-105 0 -184 52z
" />
    <glyph glyph-name="braceright.case" horiz-adv-x="450" 
d="M345 289q-28 -24 -28 -51v-77q0 -256 -267 -256v88q175 0 175 168v77q0 44 21 79t54 52q-33 17 -54 52t-21 79v77q0 85 -42.5 126.5t-132.5 41.5v88q267 0 267 -256v-77q0 -66 97 -87v-88q-39 -11 -69 -36z" />
    <glyph glyph-name="bracketleft.case" horiz-adv-x="383" 
d="M97 -105v897h219v-83h-135v-731h135v-83h-219z" />
    <glyph glyph-name="bracketright.case" horiz-adv-x="380" 
d="M65 -105v83h135v731h-135v83h219v-897h-219z" />
    <glyph glyph-name="parenleft.case" horiz-adv-x="388" 
d="M303 -52q-267 143 -267 430q0 286 268 430l44 -80q-222 -110 -222 -350q0 -116 56 -206t166 -145z" />
    <glyph glyph-name="parenright.case" horiz-adv-x="388" 
d="M108 -60l-44 79q223 108 223 349t-223 349l44 81q269 -144 269 -430q0 -289 -269 -428z" />
    <glyph glyph-name="emdash.case" horiz-adv-x="571" 
d="M47 325v64h477v-64h-477z" />
    <glyph glyph-name="endash.case" horiz-adv-x="402" 
d="M47 325v61h307v-61h-307z" />
    <glyph glyph-name="hyphen.case" horiz-adv-x="429" 
d="M61 325v61h307v-61h-307z" />
    <glyph glyph-name="guillemotleft.case" horiz-adv-x="538" 
d="M236 156l-204 230l205 235l66 -42l-161 -190l165 -190zM439 155l-205 230l205 235l66 -42l-161 -190l165 -190z" />
    <glyph glyph-name="guillemotright.case" horiz-adv-x="538" 
d="M304 156l-71 43l165 190l-161 190l66 42l205 -235zM101 155l-70 43l165 190l-161 190l66 42l205 -235z" />
    <glyph glyph-name="guilsinglleft.case" horiz-adv-x="329" 
d="M223 132l-198 230l198 235l64 -42l-156 -190l160 -190z" />
    <glyph glyph-name="guilsinglright.case" horiz-adv-x="329" 
d="M106 132l-68 43l160 190l-156 190l64 42l198 -235z" />
    <glyph glyph-name="bar.case" horiz-adv-x="257" 
d="M96 -89v898h65v-898h-65z" />
    <glyph glyph-name="brokenbar.case" horiz-adv-x="259" 
d="M102 409v363h55v-363h-55zM102 -88v410h55v-410h-55z" />
    <glyph glyph-name="fivessuperior" horiz-adv-x="265" 
d="M133 461q-53 0 -114 55l33 36q28 -28 44 -35q16 -8 37 -8q35 0 50.5 13.5t15.5 43.5q0 47 -64 47h-92v168h189v-48h-138v-71h43q48 0 79 -22q34 -22 34 -74q0 -51 -31.5 -78t-85.5 -27z" />
    </font>
</defs>
</svg>
