<?xml version="1.0" standalone="no"?>
<!DOCTYPE svg PUBLIC "-//W3C//DTD SVG 1.1//EN" "http://www.w3.org/Graphics/SVG/1.1/DTD/svg11.dtd" >
<svg xmlns="http://www.w3.org/2000/svg" xmlns:xlink="http://www.w3.org/1999/xlink" version="1.1">
<metadata>
Created by FontForge 20170731 at Tue Mar 20 16:50:05 2018
 By Aleksey,,,
Hamlin is a trademark of Fontastica.
</metadata>
<defs>
<font id="Hamlin-Regular" horiz-adv-x="605" >
  <font-face 
    font-family="Hamlin"
    font-weight="400"
    font-stretch="normal"
    units-per-em="1000"
    panose-1="0 0 0 0 0 0 0 0 0 0"
    ascent="758"
    descent="-242"
    x-height="509"
    cap-height="700"
    bbox="-47 -385 1222 1202"
    underline-thickness="50"
    underline-position="-200"
    unicode-range="U+000D-FB03"
  />
<missing-glyph horiz-adv-x="253" 
 />
    <glyph glyph-name=".notdef" horiz-adv-x="253" 
 />
    <glyph glyph-name=".null" horiz-adv-x="0" 
 />
    <glyph glyph-name="nonmarkingreturn" horiz-adv-x="333" 
 />
    <glyph glyph-name="CR" unicode="&#xd;" horiz-adv-x="253" 
 />
    <glyph glyph-name="space" unicode=" " horiz-adv-x="253" 
 />
    <glyph glyph-name="exclam" unicode="!" horiz-adv-x="340" 
d="M206 235h-72l-9 465h90zM228 46q0 -24 -17 -40.5t-41 -16.5t-40.5 16.5t-16.5 40.5t16.5 41t40.5 17t41 -17t17 -41z" />
    <glyph glyph-name="quotedbl" unicode="&#x22;" horiz-adv-x="372" 
d="M113 443h-49v257h73zM291 443h-49v257h72z" />
    <glyph glyph-name="numbersign" unicode="#" horiz-adv-x="831" 
d="M405 700l-48 -186h203l47 186h62l-47 -186h179v-59h-194l-53 -206h185v-59h-200l-49 -190h-61l48 190h-204l-48 -189h-60l47 189h-172v59h188l53 206h-180v59h195l47 186h62zM545 455h-202l-54 -206h204z" />
    <glyph glyph-name="dollar" unicode="$" horiz-adv-x="615" 
d="M176 83q57 -21 105 -23v262q-105 14 -167 53q-64 39 -64 127q0 80 63.5 142t167.5 66v74h47v-74q102 -4 234 -82l-38 -59q-107 68 -196 71v-253q106 -13 174 -54q67 -40 67 -137q0 -86 -65 -145t-176 -62v-80h-47v81q-133 7 -246 84l39 60q44 -30 102 -51zM127 504
q0 -50 45 -75q44 -24 109 -35v245q-79 -4 -117 -46q-37 -40 -37 -89zM443 94q49 31 49 99q0 50 -38 78t-126 44v-255q67 4 115 34z" />
    <glyph glyph-name="percent" unicode="%" horiz-adv-x="863" 
d="M205 713q78 0 123 -47.5t45 -131.5t-45 -131.5t-123 -47.5t-122.5 47.5t-44.5 131.5t44.5 131.5t122.5 47.5zM644 700h68l-492 -700h-70zM205 664q-52 0 -81 -35t-29 -95t29 -95t81 -35t81 35t29 95t-29 95t-81 35zM657 356q78 0 123 -47.5t45 -131.5t-45 -131.5
t-123 -47.5t-122.5 47.5t-44.5 131.5t44.5 131.5t122.5 47.5zM657 307q-51 0 -80 -35t-29 -95t29 -95t80 -35q53 0 82 34.5t29 95.5t-29 95.5t-82 34.5z" />
    <glyph glyph-name="ampersand" unicode="&#x26;" horiz-adv-x="756" 
d="M597 0l-108 135q-36 -41 -72 -80q-66 -68 -154 -68q-98 0 -157 55.5t-59 143.5q0 77 57 119q58 42 147 68l-1 1q-60 60 -84 98t-24 81q0 63 52 111.5t138 48.5q88 0 145 -49t57 -111q0 -74 -52 -123t-115 -77l125 -120l82 83l50 -43l-83 -88l157 -185h-101zM332 648
q-52 0 -83 -29t-31 -76q0 -57 97 -142l3 -2q52 17 96 57q44 41 44 87q0 45 -35.5 75t-90.5 30zM272 55q37 0 67 19q28 18 47 38q39 45 58 71l-140 141q-72 -20 -125 -53q-51 -33 -51 -83q0 -63 38.5 -98t105.5 -35z" />
    <glyph glyph-name="quotesingle" unicode="'" horiz-adv-x="191" 
d="M108 443h-48v257h70z" />
    <glyph glyph-name="parenleft" unicode="(" horiz-adv-x="388" 
d="M112 288q0 -121 59.5 -215t172.5 -149l-37 -63q-271 139 -271 427q0 286 271 427l37 -64q-113 -54 -172.5 -147.5t-59.5 -215.5z" />
    <glyph glyph-name="parenright" unicode=")" horiz-adv-x="388" 
d="M301 288q0 123 -59.5 216t-173.5 146l37 65q272 -141 272 -427q0 -291 -272 -425l-37 63q114 53 173.5 146t59.5 216z" />
    <glyph glyph-name="asterisk" unicode="*" horiz-adv-x="437" 
d="M63 624l133 -71l-6 149h58l-6 -148l131 74l27 -50l-129 -63l135 -63l-27 -49l-137 74l5 -156h-55l4 155l-137 -73l-22 47l131 64l-131 61z" />
    <glyph glyph-name="plus" unicode="+" horiz-adv-x="492" 
d="M442 275h-164v-166h-63v166h-165v63h165v164h63v-164h164v-63z" />
    <glyph glyph-name="comma" unicode="," horiz-adv-x="268" 
d="M133 111q27 0 44 -20t17 -55q0 -132 -123 -202l-21 35q80 53 89 125h-7q-24 0 -40.5 17t-16.5 41t17 41.5t41 17.5z" />
    <glyph glyph-name="hyphen" unicode="-" horiz-adv-x="429" 
d="M368 315v-61h-307v61h307z" />
    <glyph glyph-name="period" unicode="." horiz-adv-x="266" 
d="M191 47q0 -25 -17 -41.5t-41 -16.5q-25 0 -41.5 16.5t-16.5 41.5t16.5 42t41.5 17q24 0 41 -17t17 -42z" />
    <glyph glyph-name="slash" unicode="/" horiz-adv-x="375" 
d="M273 700h75l-242 -700h-74z" />
    <glyph glyph-name="zero" unicode="0" horiz-adv-x="652" 
d="M603 350q0 -163 -72 -263t-205 -100t-205 100t-72 263t72 263t205 100t205 -100t72 -263zM476 141q47 86 47 209q0 122 -47 208q-46 85 -150 85t-150 -85q-47 -86 -47 -208t47 -208q46 -85 150 -85t150 84z" />
    <glyph glyph-name="one" unicode="1" horiz-adv-x="369" 
d="M258 0h-79v616l-106 -73v76l109 81h76v-700z" />
    <glyph glyph-name="two" unicode="2" horiz-adv-x="560" 
d="M519 0h-495l373 440q35 41 35 89q0 51 -40 82.5t-109 31.5q-108 0 -196 -94l-51 52q60 60 117.5 86t129.5 26q101 0 164 -51.5t63 -126.5q0 -69 -55 -133l-286 -333h350v-69z" />
    <glyph glyph-name="three" unicode="3" horiz-adv-x="584" 
d="M298 389q68 0 104.5 33.5t36.5 76.5q0 68 -44 106t-120 38q-93 0 -179 -94l-52 55q109 109 231 109q100 0 171 -55.5t71 -152.5q0 -54 -34 -94q-34 -41 -75 -55v-1q50 -14 89 -53q41 -41 41 -106q0 -102 -69 -155.5t-194 -53.5q-129 0 -242 113l49 51q92 -94 193 -94
q185 0 185 145q0 52 -45.5 86.5t-117.5 34.5h-121v66h122z" />
    <glyph glyph-name="four" unicode="4" horiz-adv-x="647" 
d="M607 225v-63h-127v-162h-75v162h-360v61l348 477h87v-475h127zM405 608l-279 -383h279v383z" />
    <glyph glyph-name="five" unicode="5" horiz-adv-x="579" 
d="M154 630v-213l126 1q110 1 181 -47q70 -48 70 -157q0 -110 -69 -168.5t-191 -58.5q-67 0 -124 26t-119 83l48 53q57 -53 95 -72q42 -20 100 -20q93 0 137.5 37t44.5 118q0 138 -177 136l-200 -1v352l411 1v-69z" />
    <glyph glyph-name="six" unicode="6" horiz-adv-x="610" 
d="M321 -13q-155 0 -212 89q-57 88 -57 232q0 405 274 405q70 0 120 -21q49 -19 106 -72l-51 -55q-48 45 -83 62q-35 16 -97 16q-99 0 -145 -85t-46 -226q27 59 80.5 92t127.5 33q97 0 161 -59.5t64 -159.5q0 -107 -67 -179t-175 -72zM316 392q-64 1 -121.5 -52t-56.5 -112
q1 -66 45 -119.5t135 -53.5q77 0 122 51t45 128q0 70 -48.5 113t-120.5 45z" />
    <glyph glyph-name="seven" unicode="7" horiz-adv-x="562" 
d="M427 627h-396v73h518l-402 -700h-100z" />
    <glyph glyph-name="eight" unicode="8" horiz-adv-x="600" 
d="M190 360q-44 17 -83 52q-42 38 -42 108q0 85 64.5 139t171.5 54t170.5 -54t63.5 -139q0 -70 -42 -108q-38 -35 -82 -52v-3q49 -13 95 -59.5t46 -112.5q0 -91 -66 -144.5t-186 -53.5q-119 0 -185.5 53.5t-66.5 144.5q0 67 45.5 112.5t96.5 60.5v2zM187 427q46 -34 114 -38
q70 5 113.5 39.5t43.5 87.5q0 57 -43 93t-114 36t-115 -36t-44 -93q0 -56 45 -89zM300 55q84 0 129.5 36.5t45.5 97.5q0 59 -52 96t-122 43q-73 -6 -125 -43q-51 -36 -51 -96q0 -61 46 -97.5t129 -36.5z" />
    <glyph glyph-name="nine" unicode="9" horiz-adv-x="609" 
d="M290 713q152 0 211 -90q58 -89 58 -231q0 -405 -274 -405q-69 0 -122 22.5t-111 75.5l51 55q53 -49 89 -66q39 -17 98 -17q98 0 144 85q47 86 47 226q-27 -59 -80 -92t-127 -33q-97 0 -161.5 59t-64.5 160q0 107 67 179t175 72zM296 308q64 -1 121.5 52t56.5 112
q0 29 -10 58t-30 55.5t-56.5 43t-83.5 16.5q-81 0 -124 -52q-44 -53 -44 -127q0 -70 48.5 -113t121.5 -45z" />
    <glyph glyph-name="colon" unicode=":" horiz-adv-x="266" 
d="M191 387q0 -24 -17 -40.5t-42 -16.5t-41 16.5t-16 40.5q0 26 16 43t41 17t42 -17.5t17 -42.5zM191 47q0 -25 -17 -41.5t-41 -16.5q-25 0 -41.5 16.5t-16.5 41.5q0 24 17 41.5t41 17.5t41 -17.5t17 -41.5z" />
    <glyph glyph-name="semicolon" unicode=";" horiz-adv-x="268" 
d="M191 388q0 -25 -17 -41.5t-41 -16.5q-25 0 -41.5 16.5t-16.5 41.5t16.5 42t41.5 17q24 0 41 -17t17 -42zM133 106q27 0 44 -21t17 -54q0 -68 -30.5 -116.5t-94.5 -84.5l-19 34q80 53 89 125h-7q-24 0 -40.5 17t-16.5 41t17 41.5t41 17.5z" />
    <glyph glyph-name="less" unicode="&#x3c;" horiz-adv-x="545" 
d="M495 561l-373 -209l373 -210v-71l-479 280v2l479 278v-70z" />
    <glyph glyph-name="equal" unicode="=" horiz-adv-x="476" 
d="M415 434v-59l-354 -2v61h354zM415 236v-61h-354v61h354z" />
    <glyph glyph-name="greater" unicode="&#x3e;" horiz-adv-x="545" 
d="M50 141l374 211l-373 209l-1 68l479 -276v-2l-479 -280v70z" />
    <glyph glyph-name="question" unicode="?" horiz-adv-x="517" 
d="M6 624q71 47 125 67t112 20q124 0 194 -62.5t70 -149.5q0 -80 -58 -128t-178 -73v-90h-70v132q118 23 173.5 60.5t55.5 94.5q0 60 -53.5 103t-137.5 43q-46 0 -89 -17t-106 -60zM293 46q0 -25 -17 -41.5t-42 -16.5q-24 0 -41 16.5t-17 41.5q0 24 17 41.5t41 17.5
q25 0 42 -17.5t17 -41.5z" />
    <glyph glyph-name="at" unicode="@" horiz-adv-x="1054" 
d="M117 255q0 -159 117.5 -282.5t271.5 -120.5q42 2 81 11q45 12 69 23l20 -62q-73 -34 -170 -36q-121 -2 -227 63t-167.5 173.5t-61.5 230.5q0 123 63.5 230.5t172.5 171.5t236 64q132 -1 241.5 -55.5t175.5 -159.5t65 -240q-2 -133 -36 -215q-36 -88 -125 -88
q-54 0 -90.5 29t-49.5 84l-8 33q-30 -48 -76 -84q-43 -36 -120 -36q-100 0 -164.5 77t-64.5 189t64.5 188.5t164.5 76.5q76 0 120 -38q43 -38 67 -80v107h71v-384q0 -100 80 -100q54 0 76 58t24 181q1 175 -121 283.5t-296 109.5q-107 0 -200 -55.5t-148 -148.5t-55 -198z
M513 452q-73 0 -122 -58.5t-49 -138.5q0 -86 48 -142.5t123 -56.5q74 0 122.5 59t48.5 139t-48.5 139t-122.5 59z" />
    <glyph glyph-name="A" unicode="A" horiz-adv-x="712" 
d="M532 186h-349l-85 -186h-82l340 717h3l341 -717h-83zM505 254l-147 326h-1l-147 -326h295z" />
    <glyph glyph-name="B" unicode="B" horiz-adv-x="669" 
d="M354 700q98 0 172 -47q73 -46 73 -147q0 -58 -35 -94q-35 -35 -79 -51v-1q52 -16 94 -55q46 -42 46 -112q0 -99 -69 -146q-71 -47 -177 -47h-283v700h258zM175 632v-241h197q65 0 106 30t41 78q0 65 -44 99t-126 34h-174zM175 325v-257h198q171 0 171 133q0 52 -47 88
t-115 36h-207z" />
    <glyph glyph-name="C" unicode="C" horiz-adv-x="718" 
d="M403 -13q-137 -2 -245 109.5t-108 253.5q0 141 108 253t245 110q168 -3 280 -114l-55 -56q-91 97 -225 100q-106 1 -189.5 -91t-83.5 -202t83.5 -202t189.5 -91q129 3 229 99l51 -55q-112 -112 -280 -114z" />
    <glyph glyph-name="D" unicode="D" horiz-adv-x="758" 
d="M99 0v700h261q141 0 244.5 -104t103.5 -246t-103.5 -246t-244.5 -104h-261zM359 68q113 0 191 84.5t78 197.5q0 114 -78 198t-191 84h-181v-564h181z" />
    <glyph glyph-name="E" unicode="E" horiz-adv-x="634" 
d="M572 700v-69h-397v-243h397v-69h-397v-250h397v-69h-476v700h476z" />
    <glyph glyph-name="F" unicode="F" horiz-adv-x="624" 
d="M99 700h476v-69h-397v-243h388v-69h-388v-319h-79v700z" />
    <glyph glyph-name="G" unicode="G" horiz-adv-x="755" 
d="M401 57q126 2 211 77v162h-284v69h358v-265q-124 -111 -285 -113q-138 -2 -244.5 109.5t-106.5 253.5t106.5 253.5t244.5 109.5q160 -2 278 -111l-54 -58q-97 97 -224 99q-105 2 -188 -90.5t-83 -202.5t83 -202.5t188 -90.5z" />
    <glyph glyph-name="H" unicode="H" horiz-adv-x="758" 
d="M655 0h-79v316h-394v-316h-79v700h79v-314h394v314h79v-700z" />
    <glyph glyph-name="I" unicode="I" horiz-adv-x="285" 
d="M182 0h-79v700h79v-700z" />
    <glyph glyph-name="J" unicode="J" horiz-adv-x="580" 
d="M543 638h-205v-366q0 -149 -70 -211t-230 -64v72q124 0 172.5 43t48.5 160v365h-221v63h505v-62z" />
    <glyph glyph-name="K" unicode="K" horiz-adv-x="652" 
d="M183 336v-336h-80v700h80v-307l325 306l100 1l-358 -334l377 -366h-101z" />
    <glyph glyph-name="L" unicode="L" horiz-adv-x="570" 
d="M99 0v700h79v-631h359v-69h-438z" />
    <glyph glyph-name="M" unicode="M" horiz-adv-x="996" 
d="M194 536l-50 -536h-79l87 700h27l319 -601l318 601h29l84 -700h-79l-51 536l-279 -536h-45z" />
    <glyph glyph-name="N" unicode="N" horiz-adv-x="776" 
d="M102 700l494 -513l-1 513h79l-1 -702l-492 521v-519h-79v700z" />
    <glyph glyph-name="O" unicode="O" horiz-adv-x="816" 
d="M766 350q0 -142 -109 -252.5t-249 -110.5t-249 110.5t-109 252.5q0 141 109.5 252t248.5 111t248.5 -111t109.5 -252zM686 350q0 110 -84.5 201.5t-193.5 91.5q-107 0 -192.5 -92t-85.5 -201t85.5 -201t192.5 -92q109 0 193.5 91.5t84.5 201.5z" />
    <glyph glyph-name="P" unicode="P" horiz-adv-x="620" 
d="M99 0v700h251q106 0 176 -49q70 -48 70 -160t-71 -165q-70 -52 -175 -52h-172v-274h-79zM178 632v-290h167q174 0 174 149q0 141 -174 141h-167z" />
    <glyph glyph-name="Q" unicode="Q" horiz-adv-x="816" 
d="M766 353q-3 -182 -157 -299l70 -94l-64 -45l-70 104q-68 -31 -142 -32q-90 -1 -172.5 50t-131.5 136t-49 177q1 141 110 252.5t248 110.5q140 -1 249.5 -110.5t108.5 -249.5zM375 276l60 40l135 -201q114 88 116 238q2 109 -83.5 199.5t-194.5 90.5q-107 0 -192.5 -92
t-85.5 -201q0 -110 84 -202.5t189 -90.5q60 2 104 20z" />
    <glyph glyph-name="R" unicode="R" horiz-adv-x="668" 
d="M532 0l-175 274h-179v-274h-79v700h254q100 0 171 -50q72 -50 72 -160q0 -163 -157 -207l190 -283h-97zM178 632v-290h170q171 0 171 148q0 70 -44 106t-127 36h-170z" />
    <glyph glyph-name="S" unicode="S" horiz-adv-x="639" 
d="M346 387q122 -16 180.5 -60.5t58.5 -130.5q0 -89 -68.5 -148t-186.5 -59q-165 0 -288 87l41 58q114 -75 237 -75q82 0 134 31q54 32 54 103q0 58 -46.5 85.5t-159.5 42.5q-105 15 -171 53q-65 38 -65 130q0 79 65.5 143t182.5 64q78 0 131 -19q60 -21 139 -70l-40 -59
l-16 12q-88 66 -200 66q-94 0 -139.5 -40t-45.5 -97q0 -52 46 -77t157 -40z" />
    <glyph glyph-name="T" unicode="T" horiz-adv-x="609" 
d="M344 628v-628h-79v628h-255v72h589v-72h-255z" />
    <glyph glyph-name="U" unicode="U" horiz-adv-x="716" 
d="M154 700v-407q0 -116 53 -176t151 -60t151 60t53 176v407h79v-412q0 -142 -77.5 -221.5t-205.5 -79.5t-205.5 79.5t-77.5 221.5v412h79z" />
    <glyph glyph-name="V" unicode="V" horiz-adv-x="712" 
d="M357 135h1l261 565h82l-330 -700h-28l-328 700h83z" />
    <glyph glyph-name="W" unicode="W" horiz-adv-x="961" 
d="M491 700l168 -549l195 549h77l-254 -700h-43l-154 539l-143 -539h-50l-253 700h76l195 -549l168 549h18z" />
    <glyph glyph-name="X" unicode="X" horiz-adv-x="667" 
d="M301 348l-278 352h91l221 -288l222 288h90l-277 -352l277 -348h-90l-222 285l-221 -285h-90z" />
    <glyph glyph-name="Y" unicode="Y" horiz-adv-x="623" 
d="M314 348l214 352h76l-252 -426v-274h-77v274l-256 426h79z" />
    <glyph glyph-name="Z" unicode="Z" horiz-adv-x="621" 
d="M71 631v69h518l-417 -630l398 -1v-69h-534l419 630z" />
    <glyph glyph-name="bracketleft" unicode="[" horiz-adv-x="383" 
d="M97 712h219v-65h-148v-767h148v-65h-219v897z" />
    <glyph glyph-name="backslash" unicode="\" horiz-adv-x="430" 
d="M375 0h-72l-245 700h73z" />
    <glyph glyph-name="bracketright" unicode="]" horiz-adv-x="380" 
d="M213 647h-148v65h219v-897h-219v65h148v767z" />
    <glyph glyph-name="asciicircum" unicode="^" horiz-adv-x="358" 
d="M266 573l-84 122l-90 -122h-62l138 180h28l135 -180h-65z" />
    <glyph glyph-name="underscore" unicode="_" horiz-adv-x="514" 
d="M473 -12v-64h-429v64h429z" />
    <glyph glyph-name="grave" unicode="`" horiz-adv-x="237" 
d="M67 737l134 -143l13 -13h-75l-107 103l24 38z" />
    <glyph glyph-name="a" unicode="a" horiz-adv-x="567" 
d="M282 520q125 -6 169.5 -57t44.5 -183v-280h-74v84q-69 -95 -190 -95q-77 0 -127.5 45t-50.5 121q0 78 54 120t151 42q74 0 162 -35q0 93 -29.5 128t-112.5 44q-3 1 -25 1q-20 0 -52 -4q-85 -14 -92 -16l-16 63q97 26 167 23zM255 48q51 0 94 28q47 28 72 66v83
q-87 36 -147 36q-71 0 -108 -27.5t-37 -78.5q0 -49 33.5 -78t92.5 -29z" />
    <glyph glyph-name="b" unicode="b" horiz-adv-x="633" 
d="M585 255q0 -112 -65.5 -189t-165.5 -77q-76 0 -117 29q-40 30 -68 74v-92h-75v738h78l-3 -335q18 39 63 78q47 39 122 39q100 0 165.5 -76.5t65.5 -188.5zM340 452q-74 0 -122.5 -59t-48.5 -139q0 -79 49.5 -138.5t121.5 -59.5q75 0 123 56.5t48 142.5q0 80 -49 138.5
t-122 58.5z" />
    <glyph glyph-name="c" unicode="c" horiz-adv-x="541" 
d="M307 -11q-103 -1 -181 79.5t-78 185.5t78 186.5t181 79.5q115 -1 199 -84l-48 -51q-61 67 -147 67q-77 0 -133 -58t-56 -140t55.5 -139.5t133.5 -57.5q38 0 77.5 18t69.5 48l48 -50q-38 -38 -92 -60.5t-107 -23.5z" />
    <glyph glyph-name="d" unicode="d" horiz-adv-x="633" 
d="M539 0h-74v90q-24 -35 -43 -54t-55.5 -33t-90.5 -14q-98 -1 -163 77t-65 189q0 112 65.5 188.5t165.5 76.5q73 0 120 -38t65 -79v335h75v-738zM294 452q-74 0 -122.5 -58t-48.5 -139q0 -86 48 -142.5t123 -56.5q72 0 121.5 59.5t49.5 138.5t-49.5 138.5t-121.5 59.5z" />
    <glyph glyph-name="e" unicode="e" horiz-adv-x="600" 
d="M48 254q0 105 78.5 186t181.5 80q113 -2 181 -80.5t68 -211.5h-432q5 -69 62.5 -121t130.5 -52q88 0 171 60l42 -51q-35 -33 -96 -54q-58 -19 -124 -21q-105 -1 -184 79.5t-79 185.5zM480 280q-3 72 -51.5 124.5t-119.5 52.5q-73 0 -126 -53.5t-56 -123.5h353z" />
    <glyph glyph-name="f" unicode="f" horiz-adv-x="413" 
d="M385 678q-37 15 -76 15q-61 0 -88 -37t-27 -123v-26h191v-62h-191v-445h-74v445h-90v62h90v31q0 112 44 167.5t137 55.5q51 0 97 -24z" />
    <glyph glyph-name="g" unicode="g" horiz-adv-x="633" 
d="M48 254q0 112 65.5 189t165.5 77q80 0 117 -25q39 -24 65 -63v77h78v-473q0 -279 -269 -279q-48 0 -84 10q-37 9 -50 16q-11 5 -40 21v74l25 -9q74 -26 95 -31q37 -8 71 -8q177 0 177 198v78q-18 -41 -65 -79t-120 -38q-101 0 -166 76t-65 189zM294 57q72 0 121.5 59.5
t49.5 138.5t-49.5 138.5t-121.5 59.5q-75 0 -123 -56.5t-48 -142.5q0 -81 48.5 -139t122.5 -58z" />
    <glyph glyph-name="h" unicode="h" horiz-adv-x="602" 
d="M530 0h-75v275q0 84 -38 130.5t-103 46.5q-62 0 -102.5 -54t-40.5 -130v-268h-75v738h75v-297q18 35 61 57t100 22q92 0 145 -58.5t53 -166.5v-295z" />
    <glyph glyph-name="i" unicode="i" horiz-adv-x="311" 
d="M208 676q0 -22 -15.5 -37t-37.5 -15t-37 15t-15 37t15 37t37 15t37.5 -15t15.5 -37zM194 0h-75v509h75v-509z" />
    <glyph glyph-name="j" unicode="j" horiz-adv-x="380" 
d="M284 676q0 -22 -15.5 -37t-36.5 -15q-22 0 -37.5 15t-15.5 37t15.5 37t37.5 15q21 0 36.5 -15t15.5 -37zM271 -13q0 -223 -182 -223q-25 0 -43 5q-15 4 -44 21v67q46 -25 80 -25q61 0 88 37t27 123v517h74v-522z" />
    <glyph glyph-name="k" unicode="k" horiz-adv-x="554" 
d="M172 250v-250h-75v738h75v-453l254 224h90l-268 -239l276 -270h-100z" />
    <glyph glyph-name="l" unicode="l" horiz-adv-x="281" 
d="M178 0h-75v738h75v-738z" />
    <glyph glyph-name="m" unicode="m" horiz-adv-x="918" 
d="M792 464q54 -55 54 -169v-295h-75v275q0 82 -36 129.5t-95 47.5q-58 0 -94.5 -49.5t-36.5 -129.5v-273h-75v275q0 81 -35.5 129t-95.5 48q-57 0 -94 -57.5t-37 -139.5v-255h-75v509h75l-1 -95q44 106 150 106q112 0 156 -116q20 44 71 80t110 36q80 0 134 -56z" />
    <glyph glyph-name="n" unicode="n" 
d="M533 0h-75v275q0 84 -38 130.5t-103 46.5q-62 0 -102.5 -54t-40.5 -130v-268h-75v509h75v-90q51 101 161 101q92 0 145 -58.5t53 -166.5v-295z" />
    <glyph glyph-name="o" unicode="o" horiz-adv-x="622" 
d="M574 254q0 -104 -79.5 -184.5t-183.5 -80.5t-183.5 80.5t-79.5 184.5q0 105 79.5 185.5t183.5 80.5t183.5 -80.5t79.5 -185.5zM311 452q-77 0 -132.5 -58.5t-55.5 -139.5t55.5 -139.5t132.5 -58.5t133 58t56 140t-56 140t-133 58z" />
    <glyph glyph-name="p" unicode="p" horiz-adv-x="633" 
d="M94 509h74v-93q28 44 68 74t118 30q100 0 165.5 -77t65.5 -189t-65.5 -188.5t-165.5 -76.5q-76 0 -122 39q-45 39 -63 78v-310h-75v713zM340 57q73 0 122 58.5t49 138.5q0 86 -48 142.5t-123 56.5q-72 0 -121.5 -59.5t-49.5 -138.5q0 -80 48.5 -139t122.5 -59z" />
    <glyph glyph-name="q" unicode="q" horiz-adv-x="633" 
d="M48 254q0 112 65.5 189t165.5 77q76 0 117 -29q41 -28 69 -71v89h74v-713h-75v310q-18 -41 -65 -79t-120 -38q-100 0 -165.5 76.5t-65.5 188.5zM294 57q72 0 121.5 59.5t49.5 138.5t-49.5 138.5t-121.5 59.5q-75 0 -123 -56.5t-48 -142.5q0 -81 48.5 -139t122.5 -58z" />
    <glyph glyph-name="r" unicode="r" horiz-adv-x="414" 
d="M99 0v509h75v-116q25 52 70 88q46 39 140 39v-74q-90 0 -150 -54.5t-60 -129.5v-262h-75z" />
    <glyph glyph-name="s" unicode="s" horiz-adv-x="508" 
d="M251 223q-103 15 -148 43t-46 98q-1 71 51.5 113.5t140.5 42.5q109 0 210 -61l-36 -54q-57 32 -91 43q-38 11 -79 11q-59 0 -92 -23.5t-33 -64.5q4 -43 26.5 -55t114.5 -26q97 -14 146 -48t49 -95q0 -71 -56 -114.5t-149 -43.5q-121 0 -218 68l31 57q99 -64 183 -64
q66 0 101.5 25t35.5 68q0 61 -141 80z" />
    <glyph glyph-name="t" unicode="t" horiz-adv-x="438" 
d="M111 447h-65v62h65v119h74v-119h196v-62h-196v-230q0 -86 27 -123t88 -37q44 0 84 22l18 -62q-47 -28 -110 -28q-93 0 -137 55t-44 167v236z" />
    <glyph glyph-name="u" unicode="u" 
d="M72 509h75v-275q0 -84 38 -130.5t103 -46.5q62 0 102.5 54t40.5 130v268h75v-509h-75v106q-31 -60 -67.5 -88.5t-93.5 -28.5q-92 0 -145 58.5t-53 166.5v295z" />
    <glyph glyph-name="v" unicode="v" horiz-adv-x="513" 
d="M257 128v-1l175 382h74l-248 -506h-3l-249 506h75z" />
    <glyph glyph-name="w" unicode="w" horiz-adv-x="733" 
d="M374 509l153 -365l104 365h83l-161 -509h-35l-151 378l-153 -378h-35l-160 509h84l104 -365l152 365h15z" />
    <glyph glyph-name="x" unicode="x" horiz-adv-x="484" 
d="M193 254l-181 255h78l154 -209l150 209h77l-176 -255l176 -254h-76l-151 208l-154 -208h-78z" />
    <glyph glyph-name="y" unicode="y" horiz-adv-x="516" 
d="M196 -204h-80l102 230l-210 483h72l178 -398h1l175 398h74z" />
    <glyph glyph-name="z" unicode="z" horiz-adv-x="488" 
d="M51 442v67h401l-304 -442h307v-67h-423l305 442h-286z" />
    <glyph glyph-name="braceleft" unicode="{" horiz-adv-x="450" 
d="M400 643q-72 0 -128.5 -44t-56.5 -137v-79q0 -49 -26 -85.5t-64 -46.5v-4q38 -10 64 -46.5t26 -85.5v-79q0 -93 56.5 -137t128.5 -44v-70q-97 0 -179 52q-83 53 -83 199v79q0 33 -33 60t-69 37v71q32 8 68 38q34 30 34 62v79q0 251 262 251v-70z" />
    <glyph glyph-name="bar" unicode="|" horiz-adv-x="257" 
d="M161 -99h-65v898h65v-898z" />
    <glyph glyph-name="braceright" unicode="}" horiz-adv-x="450" 
d="M50 -145q185 0 185 181v79q0 48 26 84t65 48v4q-39 12 -65 48t-26 84v79q0 181 -185 181v70q262 0 262 -251v-79q0 -36 27 -61.5t75 -35.5v-74q-36 -10 -69 -37t-33 -60v-79q0 -251 -262 -251v70z" />
    <glyph glyph-name="asciitilde" unicode="~" horiz-adv-x="542" 
d="M464 424q-24 -55 -48 -76t-65 -21q-45 0 -85 33q-43 34 -67 34q-29 0 -40 -11.5t-23 -48.5l-54 13l7 21q27 80 104 80q42 0 88 -35q28 -21 38 -26.5t27 -5.5q24 0 39 13t33 52z" />
    <glyph glyph-name="exclamdown" unicode="&#xa1;" horiz-adv-x="340" 
d="M228 329q0 -24 -17 -41t-41 -17t-40.5 17t-16.5 41t16.5 40.5t40.5 16.5t41 -16.5t17 -40.5zM215 -325h-90l9 463h72z" />
    <glyph glyph-name="cent" unicode="&#xa2;" horiz-adv-x="537" 
d="M329 519l15 111l46 -6l-16 -112q70 -15 130 -78l-43 -50q-49 49 -96 60l-53 -386q80 -1 149 62l43 -46q-45 -46 -91.5 -66t-109.5 -20l-19 -141l-46 4l20 143q-91 18 -150 93.5t-60 169.5q-1 104 81 186t181 77zM122 254q0 -69 44 -124t101 -66l53 387q-81 3 -139.5 -56
t-58.5 -141z" />
    <glyph glyph-name="sterling" unicode="&#xa3;" horiz-adv-x="530" 
d="M61 524q0 79 52.5 134t147.5 55q102 0 223 -78l-40 -62q-45 33 -95 52q-49 18 -84 18q-65 0 -96 -39q-32 -41 -32 -89q0 -24 12 -52t43 -81l17 -29h218v-41h-209q2 -18 2 -33q0 -33 -8 -68q-7 -28 -29 -103l-12 -39h310l-1 -69h-406q0 23 4 35l18 48q50 134 50 193
q0 18 -3 36h-89l1 41h75l-17 28q-31 52 -41 76q-11 30 -11 67z" />
    <glyph glyph-name="currency" unicode="&#xa4;" horiz-adv-x="524" 
d="M82 560l79 -78q47 32 101 32q56 0 101 -33l82 79l37 -37l-82 -81q34 -43 34 -100q0 -55 -34 -101l79 -78l-37 -41l-79 80q-46 -31 -101 -31q-54 0 -101 32l-80 -80l-37 40l79 78q-32 44 -32 101q0 58 31 101l-78 80zM377 342q0 51 -32.5 84.5t-82.5 33.5q-51 0 -83 -33.5
t-32 -84.5t32 -84t83 -33q50 0 82.5 34t32.5 83z" />
    <glyph glyph-name="yen" unicode="&#xa5;" horiz-adv-x="641" 
d="M418 372h153v-53h-179l-35 -45v-70h214v-53h-214v-151h-77v151h-210v53h210v70l-29 45h-181v53h149l-209 328h81l228 -352l226 352h83z" />
    <glyph glyph-name="brokenbar" unicode="&#xa6;" horiz-adv-x="259" 
d="M157 419h-55v353h55v-353zM157 -88h-55v399h55v-399z" />
    <glyph glyph-name="section" unicode="&#xa7;" horiz-adv-x="634" 
d="M580 -73q0 -91 -67.5 -148.5t-187.5 -57.5q-82 0 -146 19.5t-133 65.5l37 60q48 -33 112 -54q65 -21 120 -21q82 0 134 31q54 32 54 103q0 56 -46.5 84.5t-158.5 43.5q-106 13 -172 52q-65 38 -65 129q0 83 65 143q-65 44 -65 127q-1 78 65.5 143t184.5 64q76 -2 130 -19
q64 -22 132 -64l-38 -62q-109 75 -213 75q-90 0 -138 -41.5t-46 -92.5q1 -58 44.5 -81t159.5 -39q112 -16 175 -58q63 -41 63 -133q0 -37 -16 -76t-43 -63q59 -47 59 -130zM138 238q2 -57 46 -80t158 -39q63 -10 81 -17l25 -10q22 9 38.5 38t16.5 63q0 57 -46 84t-159 44
q-39 6 -100 22q-27 -16 -44 -46t-16 -59z" />
    <glyph glyph-name="dieresis" unicode="&#xa8;" horiz-adv-x="396" 
d="M147 676q0 -19 -13.5 -32t-32.5 -13t-32 13t-13 32t13 32.5t32 13.5t32.5 -13.5t13.5 -32.5zM340 676q0 -19 -13 -32t-32 -13t-32.5 13t-13.5 32t13.5 32.5t32.5 13.5t32 -13.5t13 -32.5z" />
    <glyph glyph-name="copyright" unicode="&#xa9;" horiz-adv-x="822" 
d="M764 350q0 -147 -98 -255t-255 -108q-144 0 -253.5 109.5t-109.5 253.5q0 92 50 176.5t134.5 135.5t178.5 51q158 -1 255.5 -108.5t97.5 -254.5zM735 350q0 133 -90 232t-233 100q-130 0 -231 -101t-101 -231q0 -132 100.5 -232t231.5 -100q95 0 170.5 47.5t114 123
t38.5 161.5zM414 175q-69 0 -119.5 52.5t-50.5 122.5t51 122.5t120 52.5q73 0 132 -55l-32 -34q-41 44 -97 44q-51 0 -88 -38.5t-37 -91.5q0 -56 36 -93q37 -37 89 -37q54 0 97 43l32 -33q-55 -55 -133 -55z" />
    <glyph glyph-name="ordfeminine" unicode="&#xaa;" horiz-adv-x="395" 
d="M203 711q82 -5 110.5 -38.5t28.5 -119.5v-182h-47v54q-47 -62 -125 -62q-51 0 -83.5 29.5t-32.5 79.5q0 51 35 78.5t98 27.5q50 0 107 -23q0 61 -19 83t-74 30h-16q-19 0 -35 -2l-26 -4l-34 -6l-11 41q78 16 109 15zM185 401q34 0 62 19q30 21 47 43v55q-60 23 -97 23
q-46 0 -70.5 -18t-24.5 -51q0 -32 22.5 -51.5t60.5 -19.5z" />
    <glyph glyph-name="guillemotleft" unicode="&#xab;" horiz-adv-x="538" 
d="M116 254l170 -196l-56 -34l-202 227l202 232l52 -33zM327 253l170 -196l-56 -34l-202 227l202 232l52 -33z" />
    <glyph glyph-name="logicalnot" unicode="&#xac;" horiz-adv-x="517" 
d="M50 342h411v-281h-61v220h-350v61z" />
    <glyph glyph-name="uni00AD" unicode="&#xad;" horiz-adv-x="407" 
d="M355 315v-61h-307v61h307z" />
    <glyph glyph-name="registered" unicode="&#xae;" horiz-adv-x="822" 
d="M774 350q0 -143 -110.5 -253t-252.5 -110q-144 0 -253.5 109.5t-109.5 253.5q0 142 110 252.5t253 110.5q141 0 252 -111t111 -252zM743 350q0 130 -100.5 231t-231.5 101t-231.5 -101t-100.5 -231t100.5 -231t231.5 -101t231.5 101t100.5 231zM504 181l-84 132h-86v-132
h-38v336h122q48 0 82 -24t34 -77q0 -80 -75 -99l91 -136h-46zM334 484v-139h81q82 0 82 71q0 68 -82 68h-81z" />
    <glyph glyph-name="overscore" unicode="&#xaf;" horiz-adv-x="373" 
d="M323 713v-57h-273v57h273z" />
    <glyph glyph-name="degree" unicode="&#xb0;" horiz-adv-x="400" 
d="M352 560q0 -63 -45 -107.5t-108 -44.5t-107 44t-44 108q0 63 44 107t107 44t108 -44t45 -107zM296 560q0 39 -28.5 67.5t-68.5 28.5t-68.5 -28.5t-28.5 -67.5q0 -41 28 -69.5t69 -28.5q40 0 68.5 28.5t28.5 69.5z" />
    <glyph glyph-name="plusminus" unicode="&#xb1;" horiz-adv-x="559" 
d="M477 439h-164v-166h-63v166h-165v63h165v164h63v-164h164v-63zM488 138v-57h-407v57h407z" />
    <glyph glyph-name="uni00B3" unicode="&#xb3;" horiz-adv-x="270" 
d="M141 664q30 0 47 15t17 35q0 30 -20 47.5t-54 17.5q-42 0 -81 -43l-23 25q49 49 104 49q46 0 77.5 -25.5t31.5 -68.5q0 -24 -15 -42q-16 -19 -34 -25q22 -6 40 -24t18 -48q0 -45 -31.5 -69.5t-86.5 -24.5q-57 0 -109 51l22 23q42 -42 87 -42q83 0 83 65q0 24 -20 39.5
t-53 15.5h-55v29h55z" />
    <glyph glyph-name="acute" unicode="&#xb4;" horiz-adv-x="260" 
d="M228 684l-107 -103h-75l13 13l134 143l11 -15z" />
    <glyph glyph-name="uni00B5" unicode="&#xb5;" horiz-adv-x="621" 
d="M289 -11q-37 -1 -68.5 16t-46.5 47v-256h-75v713h75v-274q0 -178 131 -178q60 0 101 58.5t41 139.5v254h75v-509h-77l-1 95l-11 -14q-20 -25 -29 -37q-40 -54 -115 -55z" />
    <glyph glyph-name="paragraph" unicode="&#xb6;" horiz-adv-x="768" 
d="M725 700v-70h-131v-868h-67v868h-153v-867h-67v472q-114 0 -188 66t-74 172q0 100 67.5 163.5t162.5 63.5h450z" />
    <glyph glyph-name="middot" unicode="&#xb7;" horiz-adv-x="235" 
d="M182 343q0 -27 -19 -46t-46 -19t-45.5 19t-18.5 46q0 26 18.5 45t45.5 19t46 -19t19 -45z" />
    <glyph glyph-name="cedilla" unicode="&#xb8;" horiz-adv-x="283" 
d="M241 -161q0 -40 -26.5 -64t-71.5 -24q-47 0 -102 45l22 30q41 -30 84 -30q48 0 48 43q0 50 -65 50h-53l21 101l38 -3l-8 -56q113 0 113 -92z" />
    <glyph glyph-name="ordmasculine" unicode="&#xba;" horiz-adv-x="335" 
d="M298 545q0 -78 -34 -123t-96 -45q-63 0 -97 45t-34 123t34 123t97 45q62 0 96 -45t34 -123zM246 545q0 119 -78 119q-39 0 -59 -31t-20 -88t20 -88t59 -31q78 0 78 119z" />
    <glyph glyph-name="guillemotright" unicode="&#xbb;" horiz-adv-x="538" 
d="M303 487l202 -232l-202 -227l-56 34l170 196l-166 196zM92 486l202 -232l-202 -227l-56 34l170 196l-166 196z" />
    <glyph glyph-name="onequarter" unicode="&#xbc;" horiz-adv-x="646" 
d="M475 699h58l-348 -700h-59zM160 368h-36v277l-47 -33v35l49 36h34v-315zM590 101v-28h-57v-73h-34v73h-162v27l157 215h39v-214h57zM499 274l-125 -173h125v173z" />
    <glyph glyph-name="onehalf" unicode="&#xbd;" horiz-adv-x="680" 
d="M475 699h58l-348 -700h-59zM160 368h-36v277l-47 -33v35l49 36h34v-315zM642 2h-223l168 198q16 19 16 40q0 22 -18.5 36.5t-48.5 14.5q-51 0 -88 -42l-23 23q51 51 111 51q45 0 73.5 -23t28.5 -57q0 -32 -25 -60l-128 -150h157v-31z" />
    <glyph glyph-name="threequarters" unicode="&#xbe;" horiz-adv-x="694" 
d="M171 564q30 0 47 15t17 35q0 30 -20 47.5t-54 17.5q-42 0 -81 -43l-23 25q49 49 104 49q46 0 77.5 -25.5t31.5 -68.5q0 -24 -15 -42q-16 -19 -34 -25q22 -6 40 -24t18 -48q0 -45 -31.5 -69.5t-86.5 -24.5q-57 0 -109 51l22 23q42 -42 87 -42q83 0 83 65q0 24 -20 39.5
t-53 15.5h-55v29h55zM475 699h58l-348 -700h-59zM640 101v-28h-57v-73h-34v73h-162v27l157 215h39v-214h57zM549 274l-125 -173h125v173z" />
    <glyph glyph-name="questiondown" unicode="&#xbf;" horiz-adv-x="517" 
d="M224 329q0 25 17 41.5t42 16.5q24 0 41 -16.5t17 -41.5q0 -24 -17 -41.5t-41 -17.5q-25 0 -42 17.5t-17 41.5zM246 167v-90q-120 -25 -178 -73t-58 -128q0 -87 70 -149.5t194 -62.5q59 0 113.5 20t123.5 67l-37 59q-63 -42 -107 -59t-89 -17q-84 0 -137.5 43t-53.5 103
q0 112 229 155v132h-70z" />
    <glyph glyph-name="Agrave" unicode="&#xc0;" horiz-adv-x="712" 
d="M275 929l145 -154h-67l-121 111zM532 186h-349l-85 -186h-82l340 717h3l341 -717h-83zM505 254l-147 326h-1l-147 -326h295z" />
    <glyph glyph-name="Aacute" unicode="&#xc1;" horiz-adv-x="712" 
d="M454 928l36 -55l-124 -113l-59 14zM532 186h-349l-85 -186h-82l340 717h3l341 -717h-83zM505 254l-147 326h-1l-147 -326h295z" />
    <glyph glyph-name="Acircumflex" unicode="&#xc2;" horiz-adv-x="712" 
d="M445 769l-84 122l-90 -122h-62l138 180h28l135 -180h-65zM532 186h-349l-85 -186h-82l340 717h3l341 -717h-83zM505 254l-147 326h-1l-147 -326h295z" />
    <glyph glyph-name="Atilde" unicode="&#xc3;" horiz-adv-x="712" 
d="M550 872q-24 -55 -48 -76t-65 -21q-45 0 -85 33q-43 34 -67 34q-29 0 -40 -11.5t-23 -48.5l-54 13l7 21q27 80 104 80q42 0 88 -35q28 -21 38 -26.5t27 -5.5q24 0 39 13t33 52zM532 186h-349l-85 -186h-82l340 717h3l341 -717h-83zM505 254l-147 326h-1l-147 -326h295z
" />
    <glyph glyph-name="Adieresis" unicode="&#xc4;" horiz-adv-x="712" 
d="M307 867q0 -19 -13.5 -32t-32.5 -13t-32 13t-13 32t13 32.5t32 13.5t32.5 -13.5t13.5 -32.5zM500 867q0 -19 -13 -32t-32 -13t-32.5 13t-13.5 32t13.5 32.5t32.5 13.5t32 -13.5t13 -32.5zM532 186h-349l-85 -186h-82l340 717h3l341 -717h-83zM505 254l-147 326h-1
l-147 -326h295z" />
    <glyph glyph-name="Aring" unicode="&#xc5;" horiz-adv-x="712" 
d="M357 988q46 0 76 -31t30 -78t-30 -78t-76 -31t-76 31t-30 78t30 78t76 31zM358 947q-27 0 -45.5 -20t-18.5 -48t18 -48.5t45 -20.5q28 0 45.5 19.5t17.5 49.5q0 28 -17.5 48t-44.5 20zM532 186h-349l-85 -186h-82l340 717h3l341 -717h-83zM505 254l-147 326h-1l-147 -326
h295z" />
    <glyph glyph-name="AE" unicode="&#xc6;" horiz-adv-x="973" 
d="M204 186l-110 -186h-88l405 700h500v-69h-397v-243h375v-69h-375v-250h397v-69h-482v186h-225zM429 591l-190 -337h190v337z" />
    <glyph glyph-name="Ccedilla" unicode="&#xc7;" horiz-adv-x="718" 
d="M403 713q165 -3 278 -112l-51 -56q-95 95 -227 98q-106 1 -189.5 -91t-83.5 -202t83.5 -202t189.5 -91q132 3 227 101l51 -55q-113 -115 -282 -116l-8 -56q112 0 112 -92q0 -40 -26.5 -64t-71.5 -24q-46 0 -101 45l24 32q39 -32 82 -32q48 0 48 43q0 50 -65 50h-53
l21 101q-122 12 -216.5 123t-94.5 237q-1 140 107.5 252.5t245.5 110.5z" />
    <glyph glyph-name="Egrave" unicode="&#xc8;" horiz-adv-x="634" 
d="M269 929l145 -154h-67l-121 111zM572 700v-69h-397v-243h397v-69h-397v-250h397v-69h-476v700h476z" />
    <glyph glyph-name="Eacute" unicode="&#xc9;" horiz-adv-x="634" 
d="M410 928l36 -55l-124 -113l-59 14zM572 700v-69h-397v-243h397v-69h-397v-250h397v-69h-476v700h476z" />
    <glyph glyph-name="Ecircumflex" unicode="&#xca;" horiz-adv-x="618" 
d="M437 769l-84 122l-90 -122h-62l138 180h28l135 -180h-65zM572 700v-69h-397v-243h397v-69h-397v-250h397v-69h-476v700h476z" />
    <glyph glyph-name="Edieresis" unicode="&#xcb;" horiz-adv-x="634" 
d="M281 867q0 -19 -13.5 -32t-32.5 -13t-32 13t-13 32t13 32.5t32 13.5t32.5 -13.5t13.5 -32.5zM474 867q0 -19 -13 -32t-32 -13t-32.5 13t-13.5 32t13.5 32.5t32.5 13.5t32 -13.5t13 -32.5zM572 700v-69h-397v-243h397v-69h-397v-250h397v-69h-476v700h476z" />
    <glyph glyph-name="Igrave" unicode="&#xcc;" horiz-adv-x="306" 
d="M51 929l145 -154h-67l-121 111zM182 0h-79v700h79v-700z" />
    <glyph glyph-name="Iacute" unicode="&#xcd;" horiz-adv-x="299" 
d="M207 928l36 -55l-124 -113l-59 14zM182 0h-79v700h79v-700z" />
    <glyph glyph-name="Icircumflex" unicode="&#xce;" horiz-adv-x="300" 
d="M234 765l-84 122l-90 -122h-62l138 180h28l135 -180h-65zM182 0h-79v700h79v-700z" />
    <glyph glyph-name="Idieresis" unicode="&#xcf;" horiz-adv-x="299" 
d="M88 867q0 -19 -13.5 -32t-32.5 -13t-32 13t-13 32t13 32.5t32 13.5t32.5 -13.5t13.5 -32.5zM281 867q0 -19 -13 -32t-32 -13t-32.5 13t-13.5 32t13.5 32.5t32.5 13.5t32 -13.5t13 -32.5zM182 0h-79v700h79v-700z" />
    <glyph glyph-name="Eth" unicode="&#xd0;" horiz-adv-x="800" 
d="M402 700q141 0 244.5 -104t103.5 -246t-103.5 -246t-244.5 -104h-261v322h-120v66h120v312h261zM404 390v-68h-184v-254h181q113 0 191 84.5t78 197.5q0 114 -78 198t-191 84h-181v-244z" />
    <glyph glyph-name="Ntilde" unicode="&#xd1;" horiz-adv-x="776" 
d="M572 872q-24 -55 -48 -76t-65 -21q-45 0 -85 33q-43 34 -67 34q-29 0 -40 -11.5t-23 -48.5l-54 13l7 21q27 80 104 80q42 0 88 -35q28 -21 38 -26.5t27 -5.5q24 0 39 13t33 52zM102 700l494 -513l-1 513h79l-1 -702l-492 521v-519h-79v700z" />
    <glyph glyph-name="Ograve" unicode="&#xd2;" horiz-adv-x="816" 
d="M346 929l145 -154h-67l-121 111zM766 350q0 -142 -109 -252.5t-249 -110.5t-249 110.5t-109 252.5q0 141 109.5 252t248.5 111t248.5 -111t109.5 -252zM686 350q0 110 -84.5 201.5t-193.5 91.5q-107 0 -192.5 -92t-85.5 -201t85.5 -201t192.5 -92q109 0 193.5 91.5
t84.5 201.5z" />
    <glyph glyph-name="Oacute" unicode="&#xd3;" horiz-adv-x="816" 
d="M466 928l36 -55l-124 -113l-59 14zM766 350q0 -142 -109 -252.5t-249 -110.5t-249 110.5t-109 252.5q0 141 109.5 252t248.5 111t248.5 -111t109.5 -252zM686 350q0 110 -84.5 201.5t-193.5 91.5q-107 0 -192.5 -92t-85.5 -201t85.5 -201t192.5 -92q109 0 193.5 91.5
t84.5 201.5z" />
    <glyph glyph-name="Ocircumflex" unicode="&#xd4;" horiz-adv-x="816" 
d="M496 769l-84 122l-90 -122h-62l138 180h28l135 -180h-65zM766 350q0 -142 -109 -252.5t-249 -110.5t-249 110.5t-109 252.5q0 141 109.5 252t248.5 111t248.5 -111t109.5 -252zM686 350q0 110 -84.5 201.5t-193.5 91.5q-107 0 -192.5 -92t-85.5 -201t85.5 -201t192.5 -92
q109 0 193.5 91.5t84.5 201.5z" />
    <glyph glyph-name="Otilde" unicode="&#xd5;" horiz-adv-x="816" 
d="M591 872q-24 -55 -48 -76t-65 -21q-45 0 -85 33q-43 34 -67 34q-28 0 -39.5 -11.5t-23.5 -48.5l-54 13l7 21q27 80 104 80q42 0 88 -35q28 -21 38 -26.5t27 -5.5q24 0 39 13t33 52zM766 350q0 -142 -109 -252.5t-249 -110.5t-249 110.5t-109 252.5q0 141 109.5 252
t248.5 111t248.5 -111t109.5 -252zM686 350q0 110 -84.5 201.5t-193.5 91.5q-107 0 -192.5 -92t-85.5 -201t85.5 -201t192.5 -92q109 0 193.5 91.5t84.5 201.5z" />
    <glyph glyph-name="Odieresis" unicode="&#xd6;" horiz-adv-x="816" 
d="M349 867q0 -19 -13.5 -32t-32.5 -13t-32 13t-13 32t13 32.5t32 13.5t32.5 -13.5t13.5 -32.5zM542 867q0 -19 -13 -32t-32 -13t-32.5 13t-13.5 32t13.5 32.5t32.5 13.5t32 -13.5t13 -32.5zM766 350q0 -142 -109 -252.5t-249 -110.5t-249 110.5t-109 252.5q0 141 109.5 252
t248.5 111t248.5 -111t109.5 -252zM686 350q0 110 -84.5 201.5t-193.5 91.5q-107 0 -192.5 -92t-85.5 -201t85.5 -201t192.5 -92q109 0 193.5 91.5t84.5 201.5z" />
    <glyph glyph-name="multiply" unicode="&#xd7;" horiz-adv-x="413" 
d="M325 142l-116 116l-118 -117l-44 45l117 117l-117 117l45 44l117 -116l116 115l44 -44l-116 -116l116 -116z" />
    <glyph glyph-name="Oslash" unicode="&#xd8;" horiz-adv-x="816" 
d="M577 746l12 -3l43 -9l-39 -74q67 -45 121 -122q50 -72 52 -193q3 -139 -106.5 -249.5t-246.5 -108.5q-91 2 -152 33l-37 -71l-50 24l39 73q-76 52 -119 132.5t-44 175.5q-2 140 106.5 250.5t246.5 108.5q75 -2 142 -28zM405 643q-106 2 -191.5 -89t-83.5 -197
q2 -89 37 -147q39 -60 83 -96l263 506q-56 21 -108 23zM413 57q70 -1 134.5 41.5t102 110t36.5 137.5q-2 95 -40 149q-40 60 -88 97l-264 -508q54 -25 119 -27z" />
    <glyph glyph-name="Ugrave" unicode="&#xd9;" horiz-adv-x="716" 
d="M275 929l145 -154h-67l-121 111zM154 700v-407q0 -116 53 -176t151 -60t151 60t53 176v407h79v-412q0 -142 -77.5 -221.5t-205.5 -79.5t-205.5 79.5t-77.5 221.5v412h79z" />
    <glyph glyph-name="Uacute" unicode="&#xda;" horiz-adv-x="716" 
d="M422 925l36 -55l-124 -113l-59 14zM154 700v-407q0 -116 53 -176t151 -60t151 60t53 176v407h79v-412q0 -142 -77.5 -221.5t-205.5 -79.5t-205.5 79.5t-77.5 221.5v412h79z" />
    <glyph glyph-name="Ucircumflex" unicode="&#xdb;" horiz-adv-x="716" 
d="M445 769l-84 122l-90 -122h-62l138 180h28l135 -180h-65zM154 700v-407q0 -116 53 -176t151 -60t151 60t53 176v407h79v-412q0 -142 -77.5 -221.5t-205.5 -79.5t-205.5 79.5t-77.5 221.5v412h79z" />
    <glyph glyph-name="Udieresis" unicode="&#xdc;" horiz-adv-x="716" 
d="M308 867q0 -19 -13.5 -32t-32.5 -13t-32 13t-13 32t13 32.5t32 13.5t32.5 -13.5t13.5 -32.5zM501 867q0 -19 -13 -32t-32 -13t-32.5 13t-13.5 32t13.5 32.5t32.5 13.5t32 -13.5t13 -32.5zM154 700v-407q0 -116 53 -176t151 -60t151 60t53 176v407h79v-412
q0 -142 -77.5 -221.5t-205.5 -79.5t-205.5 79.5t-77.5 221.5v412h79z" />
    <glyph glyph-name="Yacute" unicode="&#xdd;" horiz-adv-x="625" 
d="M379 928l36 -55l-124 -113l-59 14zM314 348l214 352h76l-252 -426v-274h-77v274l-256 426h79z" />
    <glyph glyph-name="Thorn" unicode="&#xde;" horiz-adv-x="644" 
d="M92 -204v917h75v-204h195q97 0 167 -75.5t69 -179.5q-2 -108 -69 -181t-167 -73h-195v-204h-75zM167 442v-374h179q73 0 125 52.5t52 133.5q0 82 -52 135t-125 53h-179z" />
    <glyph glyph-name="germandbls" unicode="&#xdf;" horiz-adv-x="644" 
d="M332 632q-80 0 -123 -33t-43 -99v-500h-78v506q0 101 70 147q71 47 170 47h6q104 0 178 -47t74 -147q0 -58 -35 -94q-35 -35 -79 -51v-1q52 -16 94 -55q46 -42 46 -112q0 -102 -70 -148q-70 -45 -176 -45h-90v68h84q171 0 171 133q0 52 -46.5 88t-115.5 36h-62v66h52
q65 0 106 30t41 78q0 66 -44.5 99.5t-129.5 33.5z" />
    <glyph glyph-name="agrave" unicode="&#xe0;" horiz-adv-x="561" 
d="M222 731l145 -154h-67l-121 111zM282 520q125 -6 169.5 -57t44.5 -183v-280h-74v84q-69 -95 -190 -95q-77 0 -127.5 45t-50.5 121q0 78 54 120t151 42q74 0 162 -35q0 93 -29.5 128t-112.5 44q-3 1 -25 1q-20 0 -52 -4q-85 -14 -92 -16l-16 63q97 26 167 23zM255 48
q51 0 94 28q47 28 72 66v83q-87 36 -147 36q-71 0 -108 -27.5t-37 -78.5q0 -49 33.5 -78t92.5 -29z" />
    <glyph glyph-name="aacute" unicode="&#xe1;" horiz-adv-x="561" 
d="M336 745l36 -55l-124 -113l-59 14zM282 520q125 -6 169.5 -57t44.5 -183v-280h-74v84q-69 -95 -190 -95q-77 0 -127.5 45t-50.5 121q0 78 54 120t151 42q74 0 162 -35q0 93 -29.5 128t-112.5 44q-3 1 -25 1q-20 0 -52 -4q-85 -14 -92 -16l-16 63q97 26 167 23zM255 48
q51 0 94 28q47 28 72 66v83q-87 36 -147 36q-71 0 -108 -27.5t-37 -78.5q0 -49 33.5 -78t92.5 -29z" />
    <glyph glyph-name="acircumflex" unicode="&#xe2;" horiz-adv-x="561" 
d="M364 573l-84 122l-90 -122h-62l138 180h28l135 -180h-65zM282 520q125 -6 169.5 -57t44.5 -183v-280h-74v84q-69 -95 -190 -95q-77 0 -127.5 45t-50.5 121q0 78 54 120t151 42q74 0 162 -35q0 93 -29.5 128t-112.5 44q-3 1 -25 1q-20 0 -52 -4q-85 -14 -92 -16l-16 63
q97 26 167 23zM255 48q51 0 94 28q47 28 72 66v83q-87 36 -147 36q-71 0 -108 -27.5t-37 -78.5q0 -49 33.5 -78t92.5 -29z" />
    <glyph glyph-name="atilde" unicode="&#xe3;" horiz-adv-x="561" 
d="M471 716q-24 -55 -48 -76t-65 -21q-46 0 -85 33q-40 34 -67 34q-28 0 -39.5 -11.5t-23.5 -48.5l-54 13l7 21q27 80 104 80q45 0 88 -35q28 -21 38 -26.5t27 -5.5q24 0 39 13t33 52zM282 520q125 -6 169.5 -57t44.5 -183v-280h-74v84q-69 -95 -190 -95q-77 0 -127.5 45
t-50.5 121q0 78 54 120t151 42q74 0 162 -35q0 93 -29.5 128t-112.5 44q-3 1 -25 1q-20 0 -52 -4q-85 -14 -92 -16l-16 63q97 26 167 23zM255 48q51 0 94 28q47 28 72 66v83q-87 36 -147 36q-71 0 -108 -27.5t-37 -78.5q0 -49 33.5 -78t92.5 -29z" />
    <glyph glyph-name="adieresis" unicode="&#xe4;" horiz-adv-x="561" 
d="M221 676q0 -19 -13.5 -32t-32.5 -13t-32 13t-13 32t13 32.5t32 13.5t32.5 -13.5t13.5 -32.5zM414 676q0 -19 -13 -32t-32 -13t-32.5 13t-13.5 32t13.5 32.5t32.5 13.5t32 -13.5t13 -32.5zM282 520q125 -6 169.5 -57t44.5 -183v-280h-74v84q-69 -95 -190 -95
q-77 0 -127.5 45t-50.5 121q0 78 54 120t151 42q74 0 162 -35q0 93 -29.5 128t-112.5 44q-3 1 -25 1q-20 0 -52 -4q-85 -14 -92 -16l-16 63q97 26 167 23zM255 48q51 0 94 28q47 28 72 66v83q-87 36 -147 36q-71 0 -108 -27.5t-37 -78.5q0 -49 33.5 -78t92.5 -29z" />
    <glyph glyph-name="aring" unicode="&#xe5;" horiz-adv-x="561" 
d="M281 797q46 0 76 -31t30 -78t-30 -78t-76 -31t-76 31t-30 78t30 78t76 31zM282 756q-27 0 -45.5 -20t-18.5 -48t18 -48.5t45 -20.5q28 0 45.5 19.5t17.5 49.5q0 28 -17.5 48t-44.5 20zM282 520q125 -6 169.5 -57t44.5 -183v-280h-74v84q-69 -95 -190 -95q-77 0 -127.5 45
t-50.5 121q0 78 54 120t151 42q74 0 162 -35q0 93 -29.5 128t-112.5 44q-3 1 -25 1q-20 0 -52 -4q-85 -14 -92 -16l-16 63q97 26 167 23zM255 48q51 0 94 28q47 28 72 66v83q-87 36 -147 36q-71 0 -108 -27.5t-37 -78.5q0 -49 33.5 -78t92.5 -29z" />
    <glyph glyph-name="ae" unicode="&#xe6;" horiz-adv-x="937" 
d="M92 498q23 6 90 15q61 7 97 7q133 0 178 -79q77 77 194 79q110 1 176.5 -81.5t66.5 -192.5v-18h-398v-65q18 -44 62 -76t95 -32q89 0 172 59l39 -47q-80 -78 -215 -78q-66 0 -118 34q-52 35 -74 78q-33 -42 -96 -77q-62 -35 -135 -35q-78 0 -127 43q-51 44 -51 121
q0 80 52.5 122t148.5 42q83 0 170 -35v83q-11 48 -44.5 68.5t-99.5 20.5q-52 0 -169 -20zM771 405q-43 52 -123 52q-94 0 -150 -90v-87h319q-3 76 -46 125zM117 152q0 -48 33.5 -76t90.5 -28q53 0 102 28q52 28 76 66v83q-86 36 -154 36q-148 0 -148 -109z" />
    <glyph glyph-name="ccedilla" unicode="&#xe7;" horiz-adv-x="541" 
d="M307 520q61 -1 107 -20.5t91 -64.5l-46 -49q-65 66 -148 66q-77 0 -133 -58t-56 -140t55.5 -139.5t133.5 -57.5q84 0 147 66l47 -48q-45 -46 -89 -65.5t-106 -20.5l-8 -56q54 0 83 -23.5t29 -68.5q0 -40 -26.5 -64t-71.5 -24q-43 0 -103 43l25 33q42 -31 83 -31
q47 0 47 43q0 50 -64 50h-49l17 100q-98 17 -160.5 90t-63.5 176t78 184t181 79z" />
    <glyph glyph-name="egrave" unicode="&#xe8;" horiz-adv-x="600" 
d="M222 731l145 -154h-67l-121 111zM48 254q0 105 78.5 186t181.5 80q113 -2 181 -80.5t68 -211.5h-432q5 -69 62.5 -121t130.5 -52q88 0 171 60l42 -51q-35 -33 -96 -54q-58 -19 -124 -21q-105 -1 -184 79.5t-79 185.5zM480 280q-3 72 -51.5 124.5t-119.5 52.5
q-73 0 -126 -53.5t-56 -123.5h353z" />
    <glyph glyph-name="eacute" unicode="&#xe9;" horiz-adv-x="600" 
d="M372 754l36 -55l-124 -113l-59 14zM48 254q0 105 78.5 186t181.5 80q113 -2 181 -80.5t68 -211.5h-432q5 -69 62.5 -121t130.5 -52q88 0 171 60l42 -51q-35 -33 -96 -54q-58 -19 -124 -21q-105 -1 -184 79.5t-79 185.5zM480 280q-3 72 -51.5 124.5t-119.5 52.5
q-73 0 -126 -53.5t-56 -123.5h353z" />
    <glyph glyph-name="ecircumflex" unicode="&#xea;" horiz-adv-x="600" 
d="M390 573l-84 122l-90 -122h-62l138 180h28l135 -180h-65zM48 254q0 105 78.5 186t181.5 80q113 -2 181 -80.5t68 -211.5h-432q5 -69 62.5 -121t130.5 -52q88 0 171 60l42 -51q-35 -33 -96 -54q-58 -19 -124 -21q-105 -1 -184 79.5t-79 185.5zM480 280q-3 72 -51.5 124.5
t-119.5 52.5q-73 0 -126 -53.5t-56 -123.5h353z" />
    <glyph glyph-name="edieresis" unicode="&#xeb;" horiz-adv-x="600" 
d="M257 676q0 -19 -13.5 -32t-32.5 -13t-32 13t-13 32t13 32.5t32 13.5t32.5 -13.5t13.5 -32.5zM450 676q0 -19 -13 -32t-32 -13t-32.5 13t-13.5 32t13.5 32.5t32.5 13.5t32 -13.5t13 -32.5zM48 254q0 105 78.5 186t181.5 80q113 -2 181 -80.5t68 -211.5h-432
q5 -69 62.5 -121t130.5 -52q88 0 171 60l42 -51q-35 -33 -96 -54q-58 -19 -124 -21q-105 -1 -184 79.5t-79 185.5zM480 280q-3 72 -51.5 124.5t-119.5 52.5q-73 0 -126 -53.5t-56 -123.5h353z" />
    <glyph glyph-name="igrave" unicode="&#xec;" horiz-adv-x="294" 
d="M53 731l145 -154h-67l-121 111zM194 0h-75v509h75v-509z" />
    <glyph glyph-name="iacute" unicode="&#xed;" horiz-adv-x="290" 
d="M225 754l36 -55l-124 -113l-59 14zM184 0h-75v509h75v-509z" />
    <glyph glyph-name="icircumflex" unicode="&#xee;" horiz-adv-x="330" 
d="M251 573l-84 122l-90 -122h-62l138 180h28l135 -180h-65zM193 0h-75v509h75v-509z" />
    <glyph glyph-name="idieresis" unicode="&#xef;" horiz-adv-x="292" 
d="M96 676q0 -19 -13.5 -32t-32.5 -13t-32 13t-13 32t13 32.5t32 13.5t32.5 -13.5t13.5 -32.5zM289 676q0 -19 -13 -32t-32 -13t-32.5 13t-13.5 32t13.5 32.5t32.5 13.5t32 -13.5t13 -32.5zM184 0h-75v509h75v-509z" />
    <glyph glyph-name="eth" unicode="&#xf0;" horiz-adv-x="601" 
d="M490 69q-60 -82 -208 -82q-108 0 -175 72t-67 179q0 100 64 159.5t161 59.5q74 0 127.5 -33t80.5 -92q0 221 -104 287l-58 -96l-39 14l58 97q-32 8 -71 7l-42 -1v71l51 1q44 2 100 -13l37 62l37 -16l-37 -62q77 -44 111.5 -134t34.5 -241q0 -157 -61 -239zM287 392
q-72 -2 -120.5 -45t-48.5 -113q0 -77 45 -128t122 -51q96 0 138 52q40 51 42 121q1 59 -56.5 112t-121.5 52z" />
    <glyph glyph-name="ntilde" unicode="&#xf1;" 
d="M498 716q-24 -55 -48 -76t-65 -21q-45 0 -85 33q-43 34 -67 34q-29 0 -40 -11.5t-23 -48.5l-54 13l7 21q27 80 104 80q42 0 88 -35q28 -21 38 -26.5t27 -5.5q24 0 39 13t33 52zM533 0h-75v275q0 84 -38 130.5t-103 46.5q-62 0 -102.5 -54t-40.5 -130v-268h-75v509h75v-90
q51 101 161 101q92 0 145 -58.5t53 -166.5v-295z" />
    <glyph glyph-name="ograve" unicode="&#xf2;" horiz-adv-x="622" 
d="M222 731l145 -154h-67l-121 111zM574 254q0 -104 -79.5 -184.5t-183.5 -80.5t-183.5 80.5t-79.5 184.5q0 105 79.5 185.5t183.5 80.5t183.5 -80.5t79.5 -185.5zM311 452q-77 0 -132.5 -58.5t-55.5 -139.5t55.5 -139.5t132.5 -58.5t133 58t56 140t-56 140t-133 58z" />
    <glyph glyph-name="oacute" unicode="&#xf3;" horiz-adv-x="622" 
d="M372 750l36 -55l-124 -113l-59 14zM574 254q0 -104 -79.5 -184.5t-183.5 -80.5t-183.5 80.5t-79.5 184.5q0 105 79.5 185.5t183.5 80.5t183.5 -80.5t79.5 -185.5zM311 452q-77 0 -132.5 -58.5t-55.5 -139.5t55.5 -139.5t132.5 -58.5t133 58t56 140t-56 140t-133 58z" />
    <glyph glyph-name="ocircumflex" unicode="&#xf4;" horiz-adv-x="622" 
d="M390 573l-84 122l-90 -122h-62l138 180h28l135 -180h-65zM574 254q0 -104 -79.5 -184.5t-183.5 -80.5t-183.5 80.5t-79.5 184.5q0 105 79.5 185.5t183.5 80.5t183.5 -80.5t79.5 -185.5zM311 452q-77 0 -132.5 -58.5t-55.5 -139.5t55.5 -139.5t132.5 -58.5t133 58t56 140
t-56 140t-133 58z" />
    <glyph glyph-name="otilde" unicode="&#xf5;" horiz-adv-x="622" 
d="M489 716q-24 -55 -48 -76t-65 -21q-45 0 -85 33q-43 34 -67 34q-28 0 -39.5 -11.5t-23.5 -48.5l-54 13l7 21q27 80 104 80q42 0 88 -35q28 -21 38 -26.5t27 -5.5q24 0 39 13t33 52zM574 254q0 -104 -79.5 -184.5t-183.5 -80.5t-183.5 80.5t-79.5 184.5q0 105 79.5 185.5
t183.5 80.5t183.5 -80.5t79.5 -185.5zM311 452q-77 0 -132.5 -58.5t-55.5 -139.5t55.5 -139.5t132.5 -58.5t133 58t56 140t-56 140t-133 58z" />
    <glyph glyph-name="odieresis" unicode="&#xf6;" horiz-adv-x="622" 
d="M259 676q0 -19 -13.5 -32t-32.5 -13t-32 13t-13 32t13 32.5t32 13.5t32.5 -13.5t13.5 -32.5zM452 676q0 -19 -13 -32t-32 -13t-32.5 13t-13.5 32t13.5 32.5t32.5 13.5t32 -13.5t13 -32.5zM574 254q0 -104 -79.5 -184.5t-183.5 -80.5t-183.5 80.5t-79.5 184.5
q0 105 79.5 185.5t183.5 80.5t183.5 -80.5t79.5 -185.5zM311 452q-77 0 -132.5 -58.5t-55.5 -139.5t55.5 -139.5t132.5 -58.5t133 58t56 140t-56 140t-133 58z" />
    <glyph glyph-name="divide" unicode="&#xf7;" horiz-adv-x="537" 
d="M317 493q0 -20 -14 -33.5t-34 -13.5t-33.5 13.5t-13.5 33.5t13.5 34.5t33.5 14.5t34 -14.5t14 -34.5zM499 330v-57h-447v57h447zM317 112q0 -20 -14 -33.5t-34 -13.5t-33.5 13.5t-13.5 33.5q0 21 13.5 35t33.5 14t34 -14t14 -35z" />
    <glyph glyph-name="oslash" unicode="&#xf8;" horiz-adv-x="620" 
d="M424 540l13 21l48 -23l-34 -61q57 -37 88.5 -95.5t32.5 -129.5q2 -103 -78 -184t-182 -79q-57 2 -105 21l-25 -55h-62l40 80q-53 36 -83 95t-31 126q-2 103 78 184t182 80q58 -2 96 -18zM309 452q-77 0 -133 -58t-56 -140q0 -48 17.5 -81.5t56.5 -71.5l176 339
q-31 12 -61 12zM239 72q31 -16 70 -16q77 0 132.5 58.5t55.5 139.5q0 92 -80 158z" />
    <glyph glyph-name="ugrave" unicode="&#xf9;" 
d="M222 731l145 -154h-67l-121 111zM72 509h75v-275q0 -84 38 -130.5t103 -46.5q62 0 102.5 54t40.5 130v268h75v-509h-75v106q-31 -60 -67.5 -88.5t-93.5 -28.5q-92 0 -145 58.5t-53 166.5v295z" />
    <glyph glyph-name="uacute" unicode="&#xfa;" 
d="M363 754l36 -55l-124 -113l-59 14zM72 509h75v-275q0 -84 38 -130.5t103 -46.5q62 0 102.5 54t40.5 130v268h75v-509h-75v106q-31 -60 -67.5 -88.5t-93.5 -28.5q-92 0 -145 58.5t-53 166.5v295z" />
    <glyph glyph-name="ucircumflex" unicode="&#xfb;" 
d="M373 573l-84 122l-90 -122h-62l138 180h28l135 -180h-65zM72 509h75v-275q0 -84 38 -130.5t103 -46.5q62 0 102.5 54t40.5 130v268h75v-509h-75v106q-31 -60 -67.5 -88.5t-93.5 -28.5q-92 0 -145 58.5t-53 166.5v295z" />
    <glyph glyph-name="udieresis" unicode="&#xfc;" 
d="M239 676q0 -19 -13.5 -32t-32.5 -13t-32 13t-13 32t13 32.5t32 13.5t32.5 -13.5t13.5 -32.5zM432 676q0 -19 -13 -32t-32 -13t-32.5 13t-13.5 32t13.5 32.5t32.5 13.5t32 -13.5t13 -32.5zM72 509h75v-275q0 -84 38 -130.5t103 -46.5q62 0 102.5 54t40.5 130v268h75v-509
h-75v106q-31 -60 -67.5 -88.5t-93.5 -28.5q-92 0 -145 58.5t-53 166.5v295z" />
    <glyph glyph-name="yacute" unicode="&#xfd;" horiz-adv-x="516" 
d="M326 754l36 -55l-124 -113l-59 14zM196 -204h-80l102 230l-210 483h72l178 -398h1l175 398h74z" />
    <glyph glyph-name="thorn" unicode="&#xfe;" horiz-adv-x="651" 
d="M93 -204v917h75v-204h195q97 0 167 -75.5t69 -179.5q-2 -108 -69 -181t-167 -73h-195v-204h-75zM168 442v-374h179q73 0 125 52.5t52 133.5q0 82 -52 135t-125 53h-179z" />
    <glyph glyph-name="ydieresis" unicode="&#xff;" horiz-adv-x="516" 
d="M204 676q0 -19 -13.5 -32t-32.5 -13t-32 13t-13 32t13 32.5t32 13.5t32.5 -13.5t13.5 -32.5zM397 676q0 -19 -13 -32t-32 -13t-32.5 13t-13.5 32t13.5 32.5t32.5 13.5t32 -13.5t13 -32.5zM196 -204h-80l102 230l-210 483h72l178 -398h1l175 398h74z" />
    <glyph glyph-name="Amacron" unicode="&#x100;" horiz-adv-x="712" 
d="M495 904v-57h-273v57h273zM532 186h-349l-85 -186h-82l340 717h3l341 -717h-83zM505 254l-147 326h-1l-147 -326h295z" />
    <glyph glyph-name="amacron" unicode="&#x101;" horiz-adv-x="561" 
d="M415 713v-57h-273v57h273zM282 520q125 -6 169.5 -57t44.5 -183v-280h-74v84q-69 -95 -190 -95q-77 0 -127.5 45t-50.5 121q0 78 54 120t151 42q74 0 162 -35q0 93 -29.5 128t-112.5 44q-3 1 -25 1q-20 0 -52 -4q-85 -14 -92 -16l-16 63q97 26 167 23zM255 48q51 0 94 28
q47 28 72 66v83q-87 36 -147 36q-71 0 -108 -27.5t-37 -78.5q0 -49 33.5 -78t92.5 -29z" />
    <glyph glyph-name="Abreve" unicode="&#x102;" horiz-adv-x="712" 
d="M255 927q21 -46 42 -62t61 -16q37 0 56.5 14.5t38.5 51.5l6 12l48 -22q-25 -59 -58 -83.5t-91 -24.5q-57 0 -90 24.5t-60 83.5zM532 186h-349l-85 -186h-82l340 717h3l341 -717h-83zM505 254l-147 326h-1l-147 -326h295z" />
    <glyph glyph-name="abreve" unicode="&#x103;" horiz-adv-x="561" 
d="M181 745q21 -46 42 -62t61 -16q37 0 56.5 14.5t38.5 51.5l6 12l48 -22q-25 -59 -58 -83.5t-91 -24.5q-57 0 -90 24.5t-60 83.5zM282 520q125 -6 169.5 -57t44.5 -183v-280h-74v84q-69 -95 -190 -95q-77 0 -127.5 45t-50.5 121q0 78 54 120t151 42q74 0 162 -35
q0 93 -29.5 128t-112.5 44q-3 1 -25 1q-20 0 -52 -4q-85 -14 -92 -16l-16 63q97 26 167 23zM255 48q51 0 94 28q47 28 72 66v83q-87 36 -147 36q-71 0 -108 -27.5t-37 -78.5q0 -49 33.5 -78t92.5 -29z" />
    <glyph glyph-name="Aogonek" unicode="&#x104;" horiz-adv-x="712" 
d="M684 -160v-42l-34 -1q-7 -1 -33 -1q-45 0 -71 27t-26 79q0 74 80 112l-68 172h-349l-85 -186h-89l347 717l332 -717h-32q-29 -3 -59.5 -29t-30.5 -58q0 -38 15 -57t43 -18zM505 254l-147 326l-1 1l-147 -327h295z" />
    <glyph glyph-name="aogonek" unicode="&#x105;" horiz-adv-x="559" 
d="M357 -97q0 69 72 110l-4 24l-4 31q-82 -79 -198 -79q-73 0 -124 46t-51 120q0 77 53 119.5t146 42.5q77 0 162 -35q0 95 -31 133.5t-111 38.5q-68 0 -148 -16q-12 -4 -15 -4l-17 63q29 8 85 16q54 7 98 7q121 0 167.5 -54t46.5 -186v-280q-82 -42 -82 -86
q0 -36 19.5 -56.5t50.5 -19.5l60 2v-44h-67q-49 0 -78.5 27.5t-29.5 79.5zM246 48q42 0 89 24q45 25 74 54v99q-85 36 -147 36q-67 0 -103 -27.5t-36 -78.5q0 -47 34 -77t89 -30z" />
    <glyph glyph-name="Cacute" unicode="&#x106;" horiz-adv-x="725" 
d="M465 927l36 -55l-124 -113l-59 14zM403 -13q-137 -2 -245 109.5t-108 253.5q0 141 108 253t245 110q168 -3 280 -114l-55 -56q-91 97 -225 100q-106 1 -189.5 -91t-83.5 -202t83.5 -202t189.5 -91q129 3 229 99l51 -55q-112 -112 -280 -114z" />
    <glyph glyph-name="cacute" unicode="&#x107;" horiz-adv-x="532" 
d="M351 754l36 -55l-124 -113l-59 14zM307 -11q-103 -1 -181 79.5t-78 185.5t78 186.5t181 79.5q115 -1 199 -84l-48 -51q-61 67 -147 67q-77 0 -133 -58t-56 -140t55.5 -139.5t133.5 -57.5q38 0 77.5 18t69.5 48l48 -50q-38 -38 -92 -60.5t-107 -23.5z" />
    <glyph glyph-name="Ccircumflex" unicode="&#x108;" horiz-adv-x="725" 
d="M494 769l-84 122l-90 -122h-62l138 180h28l135 -180h-65zM403 -13q-137 -2 -245 109.5t-108 253.5q0 141 108 253t245 110q168 -3 280 -114l-55 -56q-91 97 -225 100q-106 1 -189.5 -91t-83.5 -202t83.5 -202t189.5 -91q129 3 229 99l51 -55q-112 -112 -280 -114z" />
    <glyph glyph-name="ccircumflex" unicode="&#x109;" horiz-adv-x="532" 
d="M384 574l-84 122l-90 -122h-62l138 180h28l135 -180h-65zM307 -11q-103 -1 -181 79.5t-78 185.5t78 186.5t181 79.5q115 -1 199 -84l-48 -51q-61 67 -147 67q-77 0 -133 -58t-56 -140t55.5 -139.5t133.5 -57.5q38 0 77.5 18t69.5 48l48 -50q-38 -38 -92 -60.5t-107 -23.5
z" />
    <glyph glyph-name="Cdotaccent" unicode="&#x10a;" horiz-adv-x="725" 
d="M451 867q0 -22 -15.5 -37t-37.5 -15t-37 15t-15 37t15 37t37 15t37.5 -15t15.5 -37zM403 -13q-137 -2 -245 109.5t-108 253.5q0 141 108 253t245 110q168 -3 280 -114l-55 -56q-91 97 -225 100q-106 1 -189.5 -91t-83.5 -202t83.5 -202t189.5 -91q129 3 229 99l51 -55
q-112 -112 -280 -114z" />
    <glyph glyph-name="cdotaccent" unicode="&#x10b;" horiz-adv-x="532" 
d="M356 676q0 -22 -15.5 -37t-37.5 -15t-37 15t-15 37t15 37t37 15t37.5 -15t15.5 -37zM307 -11q-103 -1 -181 79.5t-78 185.5t78 186.5t181 79.5q115 -1 199 -84l-48 -51q-61 67 -147 67q-77 0 -133 -58t-56 -140t55.5 -139.5t133.5 -57.5q38 0 77.5 18t69.5 48l48 -50
q-38 -38 -92 -60.5t-107 -23.5z" />
    <glyph glyph-name="Ccaron" unicode="&#x10c;" horiz-adv-x="725" 
d="M315 946l88 -133l88 133h61l-127 -180h-45l-128 180h63zM403 -13q-137 -2 -245 109.5t-108 253.5q0 141 108 253t245 110q168 -3 280 -114l-55 -56q-91 97 -225 100q-106 1 -189.5 -91t-83.5 -202t83.5 -202t189.5 -91q129 3 229 99l51 -55q-112 -112 -280 -114z" />
    <glyph glyph-name="ccaron" unicode="&#x10d;" horiz-adv-x="532" 
d="M212 753l88 -133l88 133h61l-127 -180h-45l-128 180h63zM307 -11q-103 -1 -181 79.5t-78 185.5t78 186.5t181 79.5q115 -1 199 -84l-48 -51q-61 67 -147 67q-77 0 -133 -58t-56 -140t55.5 -139.5t133.5 -57.5q38 0 77.5 18t69.5 48l48 -50q-38 -38 -92 -60.5t-107 -23.5z
" />
    <glyph glyph-name="Dcaron" unicode="&#x10e;" horiz-adv-x="753" 
d="M264 946l88 -133l88 133h61l-127 -180h-45l-128 180h63zM99 0v700h261q141 0 244.5 -104t103.5 -246t-103.5 -246t-244.5 -104h-261zM359 68q113 0 191 84.5t78 197.5q0 114 -78 198t-191 84h-181v-564h181z" />
    <glyph glyph-name="dcaron" unicode="&#x10f;" horiz-adv-x="737" 
d="M539 0h-74v90q-24 -35 -43 -54t-55.5 -33t-90.5 -14q-98 -1 -163 77t-65 189q0 112 65.5 188.5t165.5 76.5q73 0 120 -38t65 -79v335h75v-738zM735 734q27 0 44 -20t17 -55q0 -136 -123 -200l-21 33q78 53 90 125h-8q-24 0 -40.5 17t-16.5 41t17 41.5t41 17.5zM294 452
q-74 0 -122.5 -58t-48.5 -139q0 -86 48 -142.5t123 -56.5q72 0 121.5 59.5t49.5 138.5t-49.5 138.5t-121.5 59.5z" />
    <glyph glyph-name="Dcroat" unicode="&#x110;" horiz-adv-x="791" 
d="M393 700q141 0 244.5 -104t103.5 -246t-103.5 -246t-244.5 -104h-261v322h-120v66h120v312h261zM396 388v-66h-185v-254h181q113 0 191 84.5t78 197.5q0 114 -78 198t-191 84h-181v-244h185z" />
    <glyph glyph-name="dslash" unicode="&#x111;" horiz-adv-x="631" 
d="M464 0v92q-8 -12 -31 -39q-59 -64 -154 -64q-100 0 -165.5 77t-65.5 189t65.5 188.5t165.5 76.5q74 0 121 -39t64 -78v169h-126v53h126v98h75v-98h65v-53h-65v-572h-75zM293 452q-73 0 -121.5 -58.5t-48.5 -138.5q0 -86 47 -142.5t123 -56.5q72 0 121.5 59.5t49.5 138.5
q0 80 -48.5 139t-122.5 59z" />
    <glyph glyph-name="Emacron" unicode="&#x112;" horiz-adv-x="634" 
d="M465 908v-57h-273v57h273zM572 700v-69h-397v-243h397v-69h-397v-250h397v-69h-476v700h476z" />
    <glyph glyph-name="emacron" unicode="&#x113;" horiz-adv-x="600" 
d="M447 712v-57h-273v57h273zM48 254q0 105 78.5 186t181.5 80q113 -2 181 -80.5t68 -211.5h-432q5 -69 62.5 -121t130.5 -52q88 0 171 60l42 -51q-35 -33 -96 -54q-58 -19 -124 -21q-105 -1 -184 79.5t-79 185.5zM480 280q-3 72 -51.5 124.5t-119.5 52.5q-73 0 -126 -53.5
t-56 -123.5h353z" />
    <glyph glyph-name="Ebreve" unicode="&#x114;" horiz-adv-x="634" 
d="M226 936q21 -46 42 -62t61 -16q37 0 56.5 14.5t38.5 51.5l6 12l48 -22q-25 -59 -58 -83.5t-91 -24.5q-57 0 -90 24.5t-60 83.5zM572 700v-69h-397v-243h397v-69h-397v-250h397v-69h-476v700h476z" />
    <glyph glyph-name="ebreve" unicode="&#x115;" horiz-adv-x="600" 
d="M202 745q21 -46 42 -62t61 -16q37 0 56.5 14.5t38.5 51.5l6 12l48 -22q-25 -59 -58 -83.5t-91 -24.5q-57 0 -90 24.5t-60 83.5zM48 254q0 105 78.5 186t181.5 80q113 -2 181 -80.5t68 -211.5h-432q5 -69 62.5 -121t130.5 -52q88 0 171 60l42 -51q-35 -33 -96 -54
q-58 -19 -124 -21q-105 -1 -184 79.5t-79 185.5zM480 280q-3 72 -51.5 124.5t-119.5 52.5q-73 0 -126 -53.5t-56 -123.5h353z" />
    <glyph glyph-name="Edotaccent" unicode="&#x116;" horiz-adv-x="634" 
d="M388 867q0 -22 -15.5 -37t-37.5 -15t-37 15t-15 37t15 37t37 15t37.5 -15t15.5 -37zM572 700v-69h-397v-243h397v-69h-397v-250h397v-69h-476v700h476z" />
    <glyph glyph-name="edotaccent" unicode="&#x117;" horiz-adv-x="600" 
d="M359 676q0 -22 -15.5 -37t-37.5 -15t-37 15t-15 37t15 37t37 15t37.5 -15t15.5 -37zM48 254q0 105 78.5 186t181.5 80q113 -2 181 -80.5t68 -211.5h-432q5 -69 62.5 -121t130.5 -52q88 0 171 60l42 -51q-35 -33 -96 -54q-58 -19 -124 -21q-105 -1 -184 79.5t-79 185.5z
M480 280q-3 72 -51.5 124.5t-119.5 52.5q-73 0 -126 -53.5t-56 -123.5h353z" />
    <glyph glyph-name="Eogonek" unicode="&#x118;" horiz-adv-x="630" 
d="M599 -160v-44h-67q-45 0 -71.5 27t-26.5 79q0 58 58 98l-395 1v699h476v-69h-397v-243h375v-69h-375v-250h397v-68q-30 -6 -61 -30q-32 -24 -32 -58q0 -38 14.5 -57t43.5 -18z" />
    <glyph glyph-name="eogonek" unicode="&#x119;" horiz-adv-x="600" 
d="M414 -159l3 -40q-36 -5 -68 -5q-49 0 -79.5 28t-30.5 79q0 52 41 88q-95 11 -163.5 88t-68.5 178q0 103 79 183.5t181 79.5q110 -1 179.5 -78t69.5 -187v-27h-432q5 -69 62.5 -121t130.5 -52q86 0 172 59l37 -45q-74 -73 -195 -79q-48 -32 -48 -76q0 -36 19.5 -57
t49.5 -19zM480 280q-3 72 -51.5 124.5t-119.5 52.5q-73 0 -126 -53.5t-56 -123.5h353z" />
    <glyph glyph-name="Ecaron" unicode="&#x11a;" horiz-adv-x="638" 
d="M252 946l88 -133l88 133h61l-127 -180h-45l-128 180h63zM572 700v-69h-397v-243h397v-69h-397v-250h397v-69h-476v700h476z" />
    <glyph glyph-name="ecaron" unicode="&#x11b;" horiz-adv-x="600" 
d="M220 753l88 -133l88 133h61l-127 -180h-45l-128 180h63zM48 254q0 105 78.5 186t181.5 80q113 -2 181 -80.5t68 -211.5h-432q5 -69 62.5 -121t130.5 -52q88 0 171 60l42 -51q-35 -33 -96 -54q-58 -19 -124 -21q-105 -1 -184 79.5t-79 185.5zM480 280q-3 72 -51.5 124.5
t-119.5 52.5q-73 0 -126 -53.5t-56 -123.5h353z" />
    <glyph glyph-name="Gcircumflex" unicode="&#x11c;" horiz-adv-x="755" 
d="M490 769l-84 122l-90 -122h-62l138 180h28l135 -180h-65zM401 57q126 2 211 77v162h-284v69h358v-265q-124 -111 -285 -113q-138 -2 -244.5 109.5t-106.5 253.5t106.5 253.5t244.5 109.5q160 -2 278 -111l-54 -58q-97 97 -224 99q-105 2 -188 -90.5t-83 -202.5t83 -202.5
t188 -90.5z" />
    <glyph glyph-name="gcircumflex" unicode="&#x11d;" horiz-adv-x="633" 
d="M389 573l-84 122l-90 -122h-62l138 180h28l135 -180h-65zM48 254q0 112 65.5 189t165.5 77q80 0 117 -25q39 -24 65 -63v77h78v-473q0 -279 -269 -279q-48 0 -84 10q-37 9 -50 16q-11 5 -40 21v74l25 -9q74 -26 95 -31q37 -8 71 -8q177 0 177 198v78q-18 -41 -65 -79
t-120 -38q-101 0 -166 76t-65 189zM294 57q72 0 121.5 59.5t49.5 138.5t-49.5 138.5t-121.5 59.5q-75 0 -123 -56.5t-48 -142.5q0 -81 48.5 -139t122.5 -58z" />
    <glyph glyph-name="Gbreve" unicode="&#x11e;" horiz-adv-x="755" 
d="M289 930q21 -46 42 -62t61 -16q37 0 56.5 14.5t38.5 51.5l6 12l48 -22q-25 -59 -58 -83.5t-91 -24.5q-57 0 -90 24.5t-60 83.5zM401 57q126 2 211 77v162h-284v69h358v-265q-124 -111 -285 -113q-138 -2 -244.5 109.5t-106.5 253.5t106.5 253.5t244.5 109.5
q160 -2 278 -111l-54 -58q-97 97 -224 99q-105 2 -188 -90.5t-83 -202.5t83 -202.5t188 -90.5z" />
    <glyph glyph-name="gbreve" unicode="&#x11f;" horiz-adv-x="633" 
d="M191 745q21 -46 42 -62t61 -16q37 0 56.5 14.5t38.5 51.5l6 12l48 -22q-25 -59 -58 -83.5t-91 -24.5q-57 0 -90 24.5t-60 83.5zM48 254q0 112 65.5 189t165.5 77q80 0 117 -25q39 -24 65 -63v77h78v-473q0 -279 -269 -279q-48 0 -84 10q-37 9 -50 16q-11 5 -40 21v74
l25 -9q74 -26 95 -31q37 -8 71 -8q177 0 177 198v78q-18 -41 -65 -79t-120 -38q-101 0 -166 76t-65 189zM294 57q72 0 121.5 59.5t49.5 138.5t-49.5 138.5t-121.5 59.5q-75 0 -123 -56.5t-48 -142.5q0 -81 48.5 -139t122.5 -58z" />
    <glyph glyph-name="Gdotaccent" unicode="&#x120;" horiz-adv-x="755" 
d="M443 867q0 -22 -15.5 -37t-37.5 -15t-37 15t-15 37t15 37t37 15t37.5 -15t15.5 -37zM401 57q126 2 211 77v162h-284v69h358v-265q-124 -111 -285 -113q-138 -2 -244.5 109.5t-106.5 253.5t106.5 253.5t244.5 109.5q160 -2 278 -111l-54 -58q-97 97 -224 99
q-105 2 -188 -90.5t-83 -202.5t83 -202.5t188 -90.5z" />
    <glyph glyph-name="gdotaccent" unicode="&#x121;" horiz-adv-x="633" 
d="M355 676q0 -22 -15.5 -37t-37.5 -15t-37 15t-15 37t15 37t37 15t37.5 -15t15.5 -37zM48 254q0 112 65.5 189t165.5 77q80 0 117 -25q39 -24 65 -63v77h78v-473q0 -279 -269 -279q-48 0 -84 10q-37 9 -50 16q-11 5 -40 21v74l25 -9q74 -26 95 -31q37 -8 71 -8
q177 0 177 198v78q-18 -41 -65 -79t-120 -38q-101 0 -166 76t-65 189zM294 57q72 0 121.5 59.5t49.5 138.5t-49.5 138.5t-121.5 59.5q-75 0 -123 -56.5t-48 -142.5q0 -81 48.5 -139t122.5 -58z" />
    <glyph glyph-name="uni0122" unicode="&#x122;" horiz-adv-x="755" 
d="M401 57q126 2 211 77v162h-284v69h358v-265q-124 -111 -285 -113q-138 -2 -244.5 109.5t-106.5 253.5t106.5 253.5t244.5 109.5q160 -2 278 -111l-54 -58q-97 97 -224 99q-105 2 -188 -90.5t-83 -202.5t83 -202.5t188 -90.5zM409 -110q27 0 44 -20t17 -55
q0 -72 -30 -119.5t-95 -80.5l-20 34q79 48 91 124h-8q-24 0 -40.5 17t-16.5 41t17 41.5t41 17.5z" />
    <glyph glyph-name="uni0123" unicode="&#x123;" horiz-adv-x="633" 
d="M312 595q-27 0 -44 20t-17 55q0 136 123 200l21 -33q-78 -53 -90 -125h8q24 0 40.5 -17t16.5 -41t-17 -41.5t-41 -17.5zM48 254q0 112 65.5 189t165.5 77q80 0 117 -25q39 -24 65 -63v77h78v-473q0 -279 -269 -279q-48 0 -84 10q-37 9 -50 16q-11 5 -40 21v74l25 -9
q74 -26 95 -31q37 -8 71 -8q177 0 177 198v78q-18 -41 -65 -79t-120 -38q-101 0 -166 76t-65 189zM294 57q72 0 121.5 59.5t49.5 138.5t-49.5 138.5t-121.5 59.5q-75 0 -123 -56.5t-48 -142.5q0 -81 48.5 -139t122.5 -58z" />
    <glyph glyph-name="Hcircumflex" unicode="&#x124;" horiz-adv-x="758" 
d="M476 769l-84 122l-90 -122h-62l138 180h28l135 -180h-65zM655 0h-79v316h-394v-316h-79v700h79v-314h394v314h79v-700z" />
    <glyph glyph-name="hcircumflex" unicode="&#x125;" horiz-adv-x="602" 
d="M221 767l-84 122l-90 -122h-62l138 180h28l135 -180h-65zM530 0h-75v275q0 84 -38 130.5t-103 46.5q-62 0 -102.5 -54t-40.5 -130v-268h-75v738h75v-297q18 35 61 57t100 22q92 0 145 -58.5t53 -166.5v-295z" />
    <glyph glyph-name="Hbar" unicode="&#x126;" horiz-adv-x="742" 
d="M568 0v316h-394v-316h-79v509h-95v53h95v138h79v-138h394l-1 139l80 -1v-138h95v-53h-95v-509h-79zM174 386h394v123h-394v-123z" />
    <glyph glyph-name="hbar" unicode="&#x127;" horiz-adv-x="603" 
d="M186 624h140v-53h-140v-160q19 38 60 73q40 36 97 36q93 0 142 -58t49 -172v-290h-75v270q0 89 -34 135.5t-97 46.5q-60 0 -101 -58.5t-41 -139.5v-254h-75v571h-72v53h72v99h75v-99z" />
    <glyph glyph-name="Itilde" unicode="&#x128;" horiz-adv-x="290" 
d="M337 884q-24 -55 -48 -76t-65 -21q-45 0 -85 33q-43 34 -67 34q-28 0 -39.5 -11.5t-23.5 -48.5l-54 13l7 21q27 80 104 80q42 0 88 -35q28 -21 38 -26.5t27 -5.5q24 0 39 13t33 52zM182 0h-79v700h79v-700z" />
    <glyph glyph-name="itilde" unicode="&#x129;" horiz-adv-x="292" 
d="M335 716q-24 -55 -48 -76t-65 -21q-45 0 -85 33q-43 34 -67 34q-28 0 -39.5 -11.5t-23.5 -48.5l-54 13l7 21q27 80 104 80q42 0 88 -35q28 -21 38 -26.5t27 -5.5q24 0 39 13t33 52zM184 0h-75v509h75v-509z" />
    <glyph glyph-name="Imacron" unicode="&#x12a;" horiz-adv-x="299" 
d="M286 903v-57h-273v57h273zM182 0h-79v700h79v-700z" />
    <glyph glyph-name="imacron" unicode="&#x12b;" horiz-adv-x="292" 
d="M283 712v-57h-273v57h273zM183 0h-75v509h75v-509z" />
    <glyph glyph-name="Ibreve" unicode="&#x12c;" horiz-adv-x="285" 
d="M39 920q21 -46 42 -62t61 -16q37 0 56.5 14.5t38.5 51.5l6 12l48 -22q-25 -59 -58 -83.5t-91 -24.5q-57 0 -90 24.5t-60 83.5zM182 0h-79v700h79v-700z" />
    <glyph glyph-name="ibreve" unicode="&#x12d;" horiz-adv-x="279" 
d="M39 745q21 -46 42 -62t61 -16q37 0 56.5 14.5t38.5 51.5l6 12l48 -22q-25 -59 -58 -83.5t-91 -24.5q-57 0 -90 24.5t-60 83.5zM174 0h-75v509h75v-509z" />
    <glyph glyph-name="Iogonek" unicode="&#x12e;" horiz-adv-x="299" 
d="M189 0h-16q-36 -8 -61.5 -33t-25.5 -54q0 -38 14.5 -57t43.5 -18l60 2v-44h-67q-45 0 -71 27t-26 79q0 29 21 60.5t49 47.5v690h79v-700z" />
    <glyph glyph-name="iogonek" unicode="&#x12f;" horiz-adv-x="288" 
d="M95 676q0 22 15 37t37 15t37 -15t15 -37t-15 -37t-37 -15t-37 15t-15 37zM204 -160v-41q-51 -3 -67 -3q-45 0 -71.5 27t-26.5 79q0 76 88 108h-17v499h75v-509q-30 -7 -65 -30q-34 -24 -34 -57q0 -38 14.5 -57t42.5 -18z" />
    <glyph glyph-name="Idot" unicode="&#x130;" horiz-adv-x="311" 
d="M208 868q0 -22 -15.5 -37t-37.5 -15t-37 15t-15 37t15 37t37 15t37.5 -15t15.5 -37zM182 0h-79v700h79v-700z" />
    <glyph glyph-name="dotlessi" unicode="&#x131;" horiz-adv-x="279" 
d="M177 0h-75v509h75v-509z" />
    <glyph glyph-name="IJ" unicode="&#x132;" horiz-adv-x="825" 
d="M778 642h-205v-366q0 -149 -70 -211t-230 -64v72q124 0 172.5 43t48.5 160v365h-221v63h505v-62zM152 0h-79v700h79v-700z" />
    <glyph glyph-name="ij" unicode="&#x133;" horiz-adv-x="700" 
d="M208 676q0 -22 -15.5 -37t-37.5 -15t-37 15t-15 37t15 37t37 15t37.5 -15t15.5 -37zM605 676q0 -22 -15.5 -37t-36.5 -15q-22 0 -37.5 15t-15.5 37t15.5 37t37.5 15q21 0 36.5 -15t15.5 -37zM194 0h-75v509h75v-509zM591 -13q0 -223 -182 -223q-25 0 -43 5q-15 4 -44 21
v67q46 -25 80 -25q61 0 88 37t27 123v517h74v-522z" />
    <glyph glyph-name="Jcircumflex" unicode="&#x134;" horiz-adv-x="577" 
d="M382 769l-84 122l-90 -122h-62l138 180h28l135 -180h-65zM543 638h-205v-366q0 -149 -70 -211t-230 -64v72q124 0 172.5 43t48.5 160v365h-221v63h505v-62z" />
    <glyph glyph-name="jcircumflex" unicode="&#x135;" horiz-adv-x="408" 
d="M309 573l-84 122l-90 -122h-62l138 180h28l135 -180h-65zM271 -13q0 -223 -182 -223q-25 0 -43 5q-15 4 -44 21v67q46 -25 80 -25q61 0 88 37t27 123v517h74v-522z" />
    <glyph glyph-name="uni0136" unicode="&#x136;" horiz-adv-x="652" 
d="M183 336v-336h-80v700h80v-307l325 306l100 1l-358 -334l377 -366h-101zM345 -110q27 0 44 -20t17 -55q0 -72 -30 -119.5t-95 -80.5l-20 34q79 48 91 124h-8q-24 0 -40.5 17t-16.5 41t17 41.5t41 17.5z" />
    <glyph glyph-name="uni0137" unicode="&#x137;" horiz-adv-x="551" 
d="M172 250v-250h-75v738h75v-453l254 224h90l-268 -239l276 -270h-100zM282 -110q27 0 44 -20t17 -55q0 -136 -123 -200l-21 33q78 53 90 125h-8q-24 0 -40.5 17t-16.5 41t17 41.5t41 17.5z" />
    <glyph glyph-name="kgreenlandic" unicode="&#x138;" horiz-adv-x="554" 
d="M172 250v-250h-75v510h75v-225l254 224h90l-268 -239l276 -270h-100z" />
    <glyph glyph-name="Lacute" unicode="&#x139;" horiz-adv-x="570" 
d="M240 928l36 -55l-124 -113l-59 14zM99 0v700h79v-631h359v-69h-438z" />
    <glyph glyph-name="lacute" unicode="&#x13a;" horiz-adv-x="282" 
d="M227 940l36 -55l-124 -113l-59 14zM178 0h-75v738h75v-738z" />
    <glyph glyph-name="uni013B" unicode="&#x13b;" horiz-adv-x="570" 
d="M99 0v700h79v-631h359v-69h-438zM327 -109q27 0 44 -20t17 -55q0 -72 -30 -119.5t-95 -80.5l-20 34q79 48 91 124h-8q-24 0 -40.5 17t-16.5 41t17 41.5t41 17.5z" />
    <glyph glyph-name="uni013C" unicode="&#x13c;" horiz-adv-x="269" 
d="M178 0h-75v738h75v-738zM134 -110q27 0 44 -20t17 -55q0 -136 -123 -200l-21 33q78 53 90 125h-8q-24 0 -40.5 17t-16.5 41t17 41.5t41 17.5z" />
    <glyph glyph-name="Lcaron" unicode="&#x13d;" horiz-adv-x="583" 
d="M488 703q27 0 44 -20t17 -55q0 -65 -32 -117t-90 -83l-22 33q78 53 90 125h-8q-24 0 -40.5 17t-16.5 41t17 41.5t41 17.5zM99 0v700h79v-631h359v-69h-438z" />
    <glyph glyph-name="lcaron" unicode="&#x13e;" horiz-adv-x="361" 
d="M178 0h-75v738h75v-738zM352 738q27 0 44 -20t17 -55q0 -136 -123 -200l-21 33q78 53 90 125h-8q-24 0 -40.5 17t-16.5 41t17 41.5t41 17.5z" />
    <glyph glyph-name="Ldot" unicode="&#x13f;" horiz-adv-x="573" 
d="M99 0v700h79v-631h359v-69h-438zM539 346q0 -22 -15.5 -37t-37.5 -15t-37 15t-15 37t15 37t37 15t37.5 -15t15.5 -37z" />
    <glyph glyph-name="ldot" unicode="&#x140;" horiz-adv-x="442" 
d="M178 0h-75v738h75v-738zM415 357q0 -22 -15.5 -37t-37.5 -15t-37 15t-15 37t15 37t37 15t37.5 -15t15.5 -37z" />
    <glyph glyph-name="Lslash" unicode="&#x141;" horiz-adv-x="589" 
d="M113 0v260l-79 -35l-14 49l93 41v385h79v-357l204 73l20 -47l-224 -81v-219h364v-69h-443z" />
    <glyph glyph-name="lslash" unicode="&#x142;" horiz-adv-x="351" 
d="M9 293l128 47v383h75v-357l110 40l19 -49l-129 -46v-311h-75v285l-110 -40z" />
    <glyph glyph-name="Nacute" unicode="&#x143;" horiz-adv-x="776" 
d="M462 928l36 -55l-124 -113l-59 14zM102 700l494 -513l-1 513h79l-1 -702l-492 521v-519h-79v700z" />
    <glyph glyph-name="nacute" unicode="&#x144;" 
d="M372 754l36 -55l-124 -113l-59 14zM533 0h-75v275q0 84 -38 130.5t-103 46.5q-62 0 -102.5 -54t-40.5 -130v-268h-75v509h75v-90q51 101 161 101q92 0 145 -58.5t53 -166.5v-295z" />
    <glyph glyph-name="uni0145" unicode="&#x145;" horiz-adv-x="776" 
d="M102 700l494 -513l-1 513h79l-1 -702l-492 521v-519h-79v700zM395 -110q27 0 44 -20t17 -55q0 -72 -30 -119.5t-95 -80.5l-20 34q79 48 91 124h-8q-24 0 -40.5 17t-16.5 41t17 41.5t41 17.5z" />
    <glyph glyph-name="uni0146" unicode="&#x146;" 
d="M533 0h-75v275q0 84 -38 130.5t-103 46.5q-62 0 -102.5 -54t-40.5 -130v-268h-75v509h75v-90q51 101 161 101q92 0 145 -58.5t53 -166.5v-295zM306 -110q27 0 44 -20t17 -55q0 -136 -123 -200l-21 33q78 53 90 125h-8q-24 0 -40.5 17t-16.5 41t17 41.5t41 17.5z" />
    <glyph glyph-name="Ncaron" unicode="&#x147;" horiz-adv-x="776" 
d="M310 946l88 -133l88 133h61l-127 -180h-45l-128 180h63zM102 700l494 -513l-1 513h79l-1 -702l-492 521v-519h-79v700z" />
    <glyph glyph-name="ncaron" unicode="&#x148;" 
d="M226 753l88 -133l88 133h61l-127 -180h-45l-128 180h63zM533 0h-75v275q0 84 -38 130.5t-103 46.5q-62 0 -102.5 -54t-40.5 -130v-268h-75v509h75v-90q51 101 161 101q92 0 145 -58.5t53 -166.5v-295z" />
    <glyph glyph-name="napostrophe" unicode="&#x149;" horiz-adv-x="601" 
d="M85 845q27 0 44 -20t17 -55q0 -136 -123 -200l-21 33q78 53 90 125h-8q-24 0 -40.5 17t-16.5 41t17 41.5t41 17.5zM533 0h-75v275q0 84 -38 130.5t-103 46.5q-62 0 -102.5 -54t-40.5 -130v-268h-75v509h75v-90q51 101 161 101q92 0 145 -58.5t53 -166.5v-295z" />
    <glyph glyph-name="Eng" unicode="&#x14a;" horiz-adv-x="776" 
d="M102 0v705l492 -544l1 539h79v-699q0 -122 -85 -185t-240 -63v73q128 0 183.5 48.5t61.5 168.5l-412 460l-1 -503h-79z" />
    <glyph glyph-name="eng" unicode="&#x14b;" 
d="M255 -142q45 -26 89 -26q61 0 87.5 36.5t26.5 123.5v283q0 84 -38 130.5t-103 46.5q-62 0 -102.5 -54t-40.5 -130v-268h-75v509h75v-94q20 39 55 69q42 36 106 36q92 0 145 -58.5t53 -166.5v-308q0 -223 -182 -223q-33 0 -49 6q-12 4 -47 26v62z" />
    <glyph glyph-name="Omacron" unicode="&#x14c;" horiz-adv-x="816" 
d="M548 904v-57h-273v57h273zM766 350q0 -142 -109 -252.5t-249 -110.5t-249 110.5t-109 252.5q0 141 109.5 252t248.5 111t248.5 -111t109.5 -252zM686 350q0 110 -84.5 201.5t-193.5 91.5q-107 0 -192.5 -92t-85.5 -201t85.5 -201t192.5 -92q109 0 193.5 91.5t84.5 201.5z
" />
    <glyph glyph-name="omacron" unicode="&#x14d;" horiz-adv-x="622" 
d="M448 712v-57h-273v57h273zM574 254q0 -104 -79.5 -184.5t-183.5 -80.5t-183.5 80.5t-79.5 184.5q0 105 79.5 185.5t183.5 80.5t183.5 -80.5t79.5 -185.5zM311 452q-77 0 -132.5 -58.5t-55.5 -139.5t55.5 -139.5t132.5 -58.5t133 58t56 140t-56 140t-133 58z" />
    <glyph glyph-name="Obreve" unicode="&#x14e;" horiz-adv-x="816" 
d="M297 930q21 -46 42 -62t61 -16q37 0 56.5 14.5t38.5 51.5l6 12l48 -22q-25 -59 -58 -83.5t-91 -24.5q-57 0 -90 24.5t-60 83.5zM766 350q0 -142 -109 -252.5t-249 -110.5t-249 110.5t-109 252.5q0 141 109.5 252t248.5 111t248.5 -111t109.5 -252zM686 350
q0 110 -84.5 201.5t-193.5 91.5q-107 0 -192.5 -92t-85.5 -201t85.5 -201t192.5 -92q109 0 193.5 91.5t84.5 201.5z" />
    <glyph glyph-name="obreve" unicode="&#x14f;" horiz-adv-x="622" 
d="M205 745q21 -46 42 -62t61 -16q37 0 56.5 14.5t38.5 51.5l6 12l48 -22q-25 -59 -58 -83.5t-91 -24.5q-57 0 -90 24.5t-60 83.5zM574 254q0 -104 -79.5 -184.5t-183.5 -80.5t-183.5 80.5t-79.5 184.5q0 105 79.5 185.5t183.5 80.5t183.5 -80.5t79.5 -185.5zM311 452
q-77 0 -132.5 -58.5t-55.5 -139.5t55.5 -139.5t132.5 -58.5t133 58t56 140t-56 140t-133 58z" />
    <glyph glyph-name="Ohungarumlaut" unicode="&#x150;" horiz-adv-x="816" 
d="M435 929l36 -55l-124 -113l-59 14zM566 927l36 -55l-124 -113l-59 14zM766 350q0 -142 -109 -252.5t-249 -110.5t-249 110.5t-109 252.5q0 141 109.5 252t248.5 111t248.5 -111t109.5 -252zM686 350q0 110 -84.5 201.5t-193.5 91.5q-107 0 -192.5 -92t-85.5 -201
t85.5 -201t192.5 -92q109 0 193.5 91.5t84.5 201.5z" />
    <glyph glyph-name="ohungarumlaut" unicode="&#x151;" horiz-adv-x="622" 
d="M315 748l36 -55l-124 -113l-59 14zM446 746l36 -55l-124 -113l-59 14zM574 254q0 -104 -79.5 -184.5t-183.5 -80.5t-183.5 80.5t-79.5 184.5q0 105 79.5 185.5t183.5 80.5t183.5 -80.5t79.5 -185.5zM311 452q-77 0 -132.5 -58.5t-55.5 -139.5t55.5 -139.5t132.5 -58.5
t133 58t56 140t-56 140t-133 58z" />
    <glyph glyph-name="OE" unicode="&#x152;" horiz-adv-x="1114" 
d="M1052 0h-472q-30 0 -89 -7q-31 -4 -94 -6q-89 -2 -169.5 49t-129 136t-48.5 177q0 93 48 178t129 136.5t171 49.5q61 -2 92 -6q59 -7 90 -7h472v-68l-439 -1q60 -36 98.5 -101.5t43.5 -141.5h274v-69h-274q-11 -165 -142 -250h439v-69zM676 350q0 112 -81 202.5
t-189 90.5t-191.5 -91t-83.5 -203q0 -110 83 -201t190 -91q108 1 190 91.5t82 201.5z" />
    <glyph glyph-name="oe" unicode="&#x153;" horiz-adv-x="970" 
d="M898 68q-85 -79 -213 -79q-112 0 -189 75q-73 -73 -188 -75q-102 -1 -181 79.5t-79 185.5t79 186.5t181 79.5q113 -2 188 -75q77 75 186 75q110 0 178 -81t67 -211h-393v-93q19 -36 63 -58t91 -22q87 0 171 60zM679 457q-44 0 -82.5 -23t-60.5 -60v-94h314
q-3 74 -51 125.5t-120 51.5zM123 254q0 -82 55 -140t133 -58q50 0 90 26t60 72v200q-20 46 -60 72t-90 26q-77 0 -132.5 -58.5t-55.5 -139.5z" />
    <glyph glyph-name="Racute" unicode="&#x154;" horiz-adv-x="668" 
d="M398 925l36 -55l-124 -113l-59 14zM532 0l-175 274h-179v-274h-79v700h254q100 0 171 -50q72 -50 72 -160q0 -163 -157 -207l190 -283h-97zM178 632v-290h170q171 0 171 148q0 70 -44 106t-127 36h-170z" />
    <glyph glyph-name="racute" unicode="&#x155;" horiz-adv-x="414" 
d="M311 749l36 -55l-124 -113l-59 14zM87 0v509h75v-116q24 49 70 88q47 39 140 39v-74q-90 0 -150 -54.5t-60 -129.5v-262h-75z" />
    <glyph glyph-name="uni0156" unicode="&#x156;" horiz-adv-x="668" 
d="M532 0l-175 274h-179v-274h-79v700h254q100 0 171 -50q72 -50 72 -160q0 -163 -157 -207l190 -283h-97zM178 632v-290h170q171 0 171 148q0 70 -44 106t-127 36h-170zM349 -110q27 0 44 -20t17 -55q0 -72 -30 -119.5t-95 -80.5l-20 34q79 48 91 124h-8q-24 0 -40.5 17
t-16.5 41t17 41.5t41 17.5z" />
    <glyph glyph-name="uni0157" unicode="&#x157;" horiz-adv-x="397" 
d="M79 0v509h75v-116q25 52 70 88q46 39 140 39v-74q-90 0 -150 -54.5t-60 -129.5v-262h-75zM124 -110q27 0 44 -20t17 -55q0 -136 -123 -200l-21 33q78 53 90 125h-8q-24 0 -40.5 17t-16.5 41t17 41.5t41 17.5z" />
    <glyph glyph-name="Rcaron" unicode="&#x158;" horiz-adv-x="668" 
d="M233 946l88 -133l88 133h61l-127 -180h-45l-128 180h63zM532 0l-175 274h-179v-274h-79v700h254q100 0 171 -50q72 -50 72 -160q0 -163 -157 -207l190 -283h-97zM178 632v-290h170q171 0 171 148q0 70 -44 106t-127 36h-170z" />
    <glyph glyph-name="rcaron" unicode="&#x159;" horiz-adv-x="371" 
d="M100 753l88 -133l88 133h61l-127 -180h-45l-128 180h63zM55 0v509h75v-116q24 49 70 88t140 39v-74q-90 0 -150 -54.5t-60 -129.5v-262h-75z" />
    <glyph glyph-name="Sacute" unicode="&#x15a;" horiz-adv-x="639" 
d="M385 926l36 -55l-124 -113l-59 14zM346 387q122 -16 180.5 -60.5t58.5 -130.5q0 -89 -68.5 -148t-186.5 -59q-165 0 -288 87l41 58q114 -75 237 -75q82 0 134 31q54 32 54 103q0 58 -46.5 85.5t-159.5 42.5q-105 15 -171 53q-65 38 -65 130q0 79 65.5 143t182.5 64
q78 0 131 -19q60 -21 139 -70l-40 -59l-16 12q-88 66 -200 66q-94 0 -139.5 -40t-45.5 -97q0 -52 46 -77t157 -40z" />
    <glyph glyph-name="sacute" unicode="&#x15b;" horiz-adv-x="508" 
d="M341 754l36 -55l-124 -113l-59 14zM251 223q-103 15 -148 43t-46 98q-1 71 51.5 113.5t140.5 42.5q109 0 210 -61l-36 -54q-57 32 -91 43q-38 11 -79 11q-59 0 -92 -23.5t-33 -64.5q4 -43 26.5 -55t114.5 -26q97 -14 146 -48t49 -95q0 -71 -56 -114.5t-149 -43.5
q-121 0 -218 68l31 57q99 -64 183 -64q66 0 101.5 25t35.5 68q0 61 -141 80z" />
    <glyph glyph-name="Scircumflex" unicode="&#x15c;" horiz-adv-x="639" 
d="M407 770l-84 122l-90 -122h-62l138 180h28l135 -180h-65zM346 387q122 -16 180.5 -60.5t58.5 -130.5q0 -89 -68.5 -148t-186.5 -59q-165 0 -288 87l41 58q114 -75 237 -75q82 0 134 31q54 32 54 103q0 58 -46.5 85.5t-159.5 42.5q-105 15 -171 53q-65 38 -65 130
q0 79 65.5 143t182.5 64q78 0 131 -19q60 -21 139 -70l-40 -59l-16 12q-88 66 -200 66q-94 0 -139.5 -40t-45.5 -97q0 -52 46 -77t157 -40z" />
    <glyph glyph-name="scircumflex" unicode="&#x15d;" horiz-adv-x="508" 
d="M336 573l-84 122l-90 -122h-62l138 180h28l135 -180h-65zM251 223q-103 15 -148 43t-46 98q-1 71 51.5 113.5t140.5 42.5q109 0 210 -61l-36 -54q-57 32 -91 43q-38 11 -79 11q-59 0 -92 -23.5t-33 -64.5q4 -43 26.5 -55t114.5 -26q97 -14 146 -48t49 -95
q0 -71 -56 -114.5t-149 -43.5q-121 0 -218 68l31 57q99 -64 183 -64q66 0 101.5 25t35.5 68q0 61 -141 80z" />
    <glyph glyph-name="Scedilla" unicode="&#x15e;" horiz-adv-x="634" 
d="M342 387q122 -16 180 -60.5t58 -130.5q0 -90 -68.5 -148.5t-191.5 -58.5l-8 -56q54 0 83 -23.5t29 -68.5q0 -40 -26.5 -64t-71.5 -24q-44 0 -104 43l26 33q42 -31 82 -31q48 0 48 43q0 27 -15 39t-50 11l-53 -1l22 101q-126 11 -237 83l38 59q113 -74 232 -74
q82 0 134 31q54 32 54 103q0 56 -46.5 84.5t-158.5 43.5q-105 15 -171 53t-66 130q-1 78 65.5 143t184.5 64q78 -2 127 -19q54 -17 135 -65l-37 -60q-108 74 -213 74q-93 0 -139 -40t-46 -97q0 -52 46.5 -77t157.5 -40z" />
    <glyph glyph-name="scedilla" unicode="&#x15f;" horiz-adv-x="508" 
d="M73 115q88 -65 182 -65q66 0 101.5 25t35.5 68q0 61 -141 80q-103 15 -148 43t-46 98q-1 71 51.5 113.5t140.5 42.5q47 0 105 -17.5t104 -47.5l-30 -58l-13 10q-86 52 -162 52q-59 0 -92 -23.5t-33 -64.5q4 -43 26.5 -55t114.5 -26q103 -16 149 -48.5t46 -94.5
q0 -70 -54.5 -113.5t-147.5 -44.5l-8 -55q54 0 83 -23.5t29 -68.5q0 -40 -26.5 -64t-71.5 -24q-47 0 -102 42l23 33q50 -30 83 -30q48 0 48 43q0 26 -15 38t-50 12h-52l21 99q-53 7 -97 22q-38 15 -86 47z" />
    <glyph glyph-name="Scaron" unicode="&#x160;" horiz-adv-x="645" 
d="M231 946l88 -133l88 133h61l-127 -180h-45l-128 180h63zM346 387q122 -16 180.5 -60.5t58.5 -130.5q0 -89 -68.5 -148t-186.5 -59q-165 0 -288 87l41 58q114 -75 237 -75q82 0 134 31q54 32 54 103q0 58 -46.5 85.5t-159.5 42.5q-105 15 -171 53q-65 38 -65 130
q0 79 65.5 143t182.5 64q78 0 131 -19q60 -21 139 -70l-40 -59l-16 12q-88 66 -200 66q-94 0 -139.5 -40t-45.5 -97q0 -52 46 -77t157 -40z" />
    <glyph glyph-name="scaron" unicode="&#x161;" horiz-adv-x="508" 
d="M164 753l88 -133l88 133h61l-127 -180h-45l-128 180h63zM251 223q-103 15 -148 43t-46 98q-1 71 51.5 113.5t140.5 42.5q109 0 210 -61l-36 -54q-57 32 -91 43q-38 11 -79 11q-59 0 -92 -23.5t-33 -64.5q4 -43 26.5 -55t114.5 -26q97 -14 146 -48t49 -95
q0 -71 -56 -114.5t-149 -43.5q-121 0 -218 68l31 57q99 -64 183 -64q66 0 101.5 25t35.5 68q0 61 -141 80z" />
    <glyph glyph-name="uni0162" unicode="&#x162;" horiz-adv-x="609" 
d="M344 628v-628h-79v628h-255v72h589v-72h-255zM302 -110q27 0 44 -20t17 -55q0 -72 -30 -119.5t-95 -80.5l-20 34q79 48 91 124h-8q-24 0 -40.5 17t-16.5 41t17 41.5t41 17.5z" />
    <glyph glyph-name="uni0163" unicode="&#x163;" horiz-adv-x="438" 
d="M111 447h-65v62h65v119h74v-119h196v-62h-196v-230q0 -86 27 -123t88 -37q44 0 84 22l18 -62q-47 -28 -110 -28q-93 0 -137 55t-44 167v236zM183 -110q27 0 44 -20t17 -55q0 -136 -123 -200l-21 33q78 53 90 125h-8q-24 0 -40.5 17t-16.5 41t17 41.5t41 17.5z" />
    <glyph glyph-name="Tcaron" unicode="&#x164;" horiz-adv-x="609" 
d="M219 946l88 -133l88 133h61l-127 -180h-45l-128 180h63zM344 628v-628h-79v628h-255v72h589v-72h-255z" />
    <glyph glyph-name="tcaron" unicode="&#x165;" horiz-adv-x="476" 
d="M495 867q27 0 44 -20t17 -55q0 -136 -123 -200l-21 33q78 53 90 125h-8q-24 0 -40.5 17t-16.5 41t17 41.5t41 17.5zM112 447h-49q-16 0 -16 16v30q0 10 3.5 13t12.5 3h49v103q0 16 15 16h44q15 0 15 -16v-103h181q9 0 12 -3t3 -13v-30q0 -16 -15 -16h-181v-230
q0 -86 27 -123t88 -37q39 0 69 15q7 4 11 4q6 0 9 -12l6 -32l2 -8q0 -6 -9 -11q-41 -24 -96 -24q-93 0 -137 55t-44 167v236z" />
    <glyph glyph-name="Tbar" unicode="&#x166;" horiz-adv-x="619" 
d="M270 0v348h-243v66h243v214h-260v72h599v-72h-260v-214h243v-66h-243v-348h-79z" />
    <glyph glyph-name="tbar" unicode="&#x167;" horiz-adv-x="471" 
d="M327 57q37 0 89 23l16 -58q-49 -33 -113 -33q-84 0 -126.5 46.5t-50.5 143.5q-4 47 -4 80h-90v62h90v126h-90l-1 62h91v109h74v-109h196l1 -62h-197v-126h196v-62h-196l4 -63q5 -76 29.5 -107.5t81.5 -31.5z" />
    <glyph glyph-name="Utilde" unicode="&#x168;" horiz-adv-x="716" 
d="M549 884q-24 -55 -48 -76t-65 -21q-45 0 -85 33q-43 34 -67 34q-28 0 -39.5 -11.5t-23.5 -48.5l-54 13l7 21q27 80 104 80q42 0 88 -35q28 -21 38 -26.5t27 -5.5q24 0 39 13t33 52zM154 700v-407q0 -116 53 -176t151 -60t151 60t53 176v407h79v-412q0 -142 -77.5 -221.5
t-205.5 -79.5t-205.5 79.5t-77.5 221.5v412h79z" />
    <glyph glyph-name="utilde" unicode="&#x169;" 
d="M474 716q-24 -55 -48 -76t-65 -21q-45 0 -85 33q-43 34 -67 34q-29 0 -40 -11.5t-23 -48.5l-54 13l7 21q27 80 104 80q42 0 88 -35q28 -21 38 -26.5t27 -5.5q24 0 39 13t33 52zM72 509h75v-275q0 -84 38 -130.5t103 -46.5q62 0 102.5 54t40.5 130v268h75v-509h-75v106
q-31 -60 -67.5 -88.5t-93.5 -28.5q-92 0 -145 58.5t-53 166.5v295z" />
    <glyph glyph-name="Umacron" unicode="&#x16a;" horiz-adv-x="716" 
d="M495 904v-57h-273v57h273zM154 700v-407q0 -116 53 -176t151 -60t151 60t53 176v407h79v-412q0 -142 -77.5 -221.5t-205.5 -79.5t-205.5 79.5t-77.5 221.5v412h79z" />
    <glyph glyph-name="umacron" unicode="&#x16b;" 
d="M426 712v-57h-273v57h273zM72 509h75v-275q0 -84 38 -130.5t103 -46.5q62 0 102.5 54t40.5 130v268h75v-509h-75v106q-31 -60 -67.5 -88.5t-93.5 -28.5q-92 0 -145 58.5t-53 166.5v295z" />
    <glyph glyph-name="Ubreve" unicode="&#x16c;" horiz-adv-x="716" 
d="M261 930q21 -46 42 -62t61 -16q37 0 56.5 14.5t38.5 51.5l6 12l48 -22q-25 -59 -58 -83.5t-91 -24.5q-57 0 -90 24.5t-60 83.5zM154 700v-407q0 -116 53 -176t151 -60t151 60t53 176v407h79v-412q0 -142 -77.5 -221.5t-205.5 -79.5t-205.5 79.5t-77.5 221.5v412h79z" />
    <glyph glyph-name="ubreve" unicode="&#x16d;" 
d="M193 745q21 -46 42 -62t61 -16q37 0 56.5 14.5t38.5 51.5l6 12l48 -22q-25 -59 -58 -83.5t-91 -24.5q-57 0 -90 24.5t-60 83.5zM72 509h75v-275q0 -84 38 -130.5t103 -46.5q62 0 102.5 54t40.5 130v268h75v-509h-75v106q-31 -60 -67.5 -88.5t-93.5 -28.5q-92 0 -145 58.5
t-53 166.5v295z" />
    <glyph glyph-name="Uring" unicode="&#x16e;" horiz-adv-x="716" 
d="M358 988q46 0 76 -31t30 -78t-30 -78t-76 -31t-76 31t-30 78t30 78t76 31zM359 947q-27 0 -45.5 -20t-18.5 -48t18 -48.5t45 -20.5q28 0 45.5 19.5t17.5 49.5q0 28 -17.5 48t-44.5 20zM154 700v-407q0 -116 53 -176t151 -60t151 60t53 176v407h79v-412
q0 -142 -77.5 -221.5t-205.5 -79.5t-205.5 79.5t-77.5 221.5v412h79z" />
    <glyph glyph-name="uring" unicode="&#x16f;" 
d="M292 797q46 0 76 -31t30 -78t-30 -78t-76 -31t-76 31t-30 78t30 78t76 31zM293 756q-27 0 -45.5 -20t-18.5 -48t18 -48.5t45 -20.5q28 0 45.5 19.5t17.5 49.5q0 28 -17.5 48t-44.5 20zM72 509h75v-275q0 -84 38 -130.5t103 -46.5q62 0 102.5 54t40.5 130v268h75v-509h-75
v106q-31 -60 -67.5 -88.5t-93.5 -28.5q-92 0 -145 58.5t-53 166.5v295z" />
    <glyph glyph-name="Uhungarumlaut" unicode="&#x170;" horiz-adv-x="716" 
d="M375 932l36 -55l-124 -113l-59 14zM506 930l36 -55l-124 -113l-59 14zM154 700v-407q0 -116 53 -176t151 -60t151 60t53 176v407h79v-412q0 -142 -77.5 -221.5t-205.5 -79.5t-205.5 79.5t-77.5 221.5v412h79z" />
    <glyph glyph-name="uhungarumlaut" unicode="&#x171;" 
d="M287 742l36 -55l-124 -113l-59 14zM418 740l36 -55l-124 -113l-59 14zM72 509h75v-275q0 -84 38 -130.5t103 -46.5q62 0 102.5 54t40.5 130v268h75v-509h-75v106q-31 -60 -67.5 -88.5t-93.5 -28.5q-92 0 -145 58.5t-53 166.5v295z" />
    <glyph glyph-name="Uogonek" unicode="&#x172;" horiz-adv-x="716" 
d="M75 700h79v-407q0 -116 53.5 -176t150.5 -60t150.5 60t53.5 176v407h79v-412q0 -132 -68 -212q-67 -76 -180 -87q-68 -35 -68 -84q0 -38 14.5 -57t43.5 -18l60 2v-42q-1 0 -9.5 -0.5t-24 -1t-33.5 -0.5q-45 0 -71 27t-26 79q0 56 53 94q-120 8 -189 87q-68 80 -68 213
v412z" />
    <glyph glyph-name="uogonek" unicode="&#x173;" horiz-adv-x="624" 
d="M72 509h75v-275q0 -84 38 -130.5t103 -46.5q62 0 102.5 54t40.5 130v268h75v-509q-49 -13 -71 -28q-28 -21 -28 -59q0 -36 15.5 -55.5t42.5 -19.5q3 0 45 2l15 1v-43q-1 0 -9.5 -0.5t-24 -1t-33.5 -0.5q-45 0 -71 27t-26 79q0 43 29 72l41 40v92q-28 -57 -55 -81
q-42 -36 -106 -36q-92 0 -145 58.5t-53 166.5v295z" />
    <glyph glyph-name="Wcircumflex" unicode="&#x174;" horiz-adv-x="961" 
d="M566 768l-84 122l-90 -122h-62l138 180h28l135 -180h-65zM491 700l168 -549l195 549h77l-254 -700h-43l-154 539l-143 -539h-50l-253 700h76l195 -549l168 549h18z" />
    <glyph glyph-name="wcircumflex" unicode="&#x175;" horiz-adv-x="733" 
d="M453 573l-84 122l-90 -122h-62l138 180h28l135 -180h-65zM374 509l153 -365l104 365h83l-161 -509h-35l-151 378l-153 -378h-35l-160 509h84l104 -365l152 365h15z" />
    <glyph glyph-name="Ycircumflex" unicode="&#x176;" horiz-adv-x="623" 
d="M403 769l-84 122l-90 -122h-62l138 180h28l135 -180h-65zM314 348l214 352h76l-252 -426v-274h-77v274l-256 426h79z" />
    <glyph glyph-name="ycircumflex" unicode="&#x177;" horiz-adv-x="516" 
d="M353 573l-84 122l-90 -122h-62l138 180h28l135 -180h-65zM196 -204h-80l102 230l-210 483h72l178 -398h1l175 398h74z" />
    <glyph glyph-name="Ydieresis" unicode="&#x178;" horiz-adv-x="623" 
d="M252 867q0 -19 -13.5 -32t-32.5 -13t-32 13t-13 32t13 32.5t32 13.5t32.5 -13.5t13.5 -32.5zM445 867q0 -19 -13 -32t-32 -13t-32.5 13t-13.5 32t13.5 32.5t32.5 13.5t32 -13.5t13 -32.5zM314 348l214 352h76l-252 -426v-274h-77v274l-256 426h79z" />
    <glyph glyph-name="Zacute" unicode="&#x179;" horiz-adv-x="621" 
d="M389 928l36 -55l-124 -113l-59 14zM71 631v69h518l-417 -630l398 -1v-69h-534l419 630z" />
    <glyph glyph-name="zacute" unicode="&#x17a;" horiz-adv-x="488" 
d="M308 754l36 -55l-124 -113l-59 14zM51 442v67h401l-304 -442h307v-67h-423l305 442h-286z" />
    <glyph glyph-name="Zdotaccent" unicode="&#x17b;" horiz-adv-x="621" 
d="M375 867q0 -22 -15.5 -37t-37.5 -15t-37 15t-15 37t15 37t37 15t37.5 -15t15.5 -37zM71 631v69h518l-417 -630l398 -1v-69h-534l419 630z" />
    <glyph glyph-name="zdotaccent" unicode="&#x17c;" horiz-adv-x="488" 
d="M311 676q0 -22 -15.5 -37t-37.5 -15t-37 15t-15 37t15 37t37 15t37.5 -15t15.5 -37zM51 442v67h401l-304 -442h307v-67h-423l305 442h-286z" />
    <glyph glyph-name="Zcaron" unicode="&#x17d;" horiz-adv-x="621" 
d="M231 946l88 -133l88 133h61l-127 -180h-45l-128 180h63zM71 631v69h518l-417 -630l398 -1v-69h-534l419 630z" />
    <glyph glyph-name="zcaron" unicode="&#x17e;" horiz-adv-x="488" 
d="M164 753l88 -133l88 133h61l-127 -180h-45l-128 180h63zM51 442v67h401l-304 -442h307v-67h-423l305 442h-286z" />
    <glyph glyph-name="longs" unicode="&#x17f;" horiz-adv-x="413" 
d="M385 678q-37 15 -76 15q-61 0 -88 -37t-27 -123v-533h-74v445h-90v62h90v31q0 112 44 167.5t137 55.5q51 0 97 -24z" />
    <glyph glyph-name="florin" unicode="&#x192;" horiz-adv-x="480" 
d="M5 -142q16 -10 43 -18t43 -8q83 0 83 160v453h-105v62h105v31q0 223 182 223q55 0 108 -30l-2 -16l-9 -47q-51 25 -90 25q-61 0 -87.5 -37t-26.5 -123v-26h196v-62h-196v-458q0 -115 -36.5 -169t-114.5 -54q-58 0 -111 32z" />
    <glyph glyph-name="Aringacute" unicode="&#x1fa;" horiz-adv-x="712" 
d="M427 1202l36 -55l-124 -113l-59 14zM355 988q46 0 76 -31t30 -78t-30 -78t-76 -31t-76 31t-30 78t30 78t76 31zM356 947q-27 0 -45.5 -20t-18.5 -48t18 -48.5t45 -20.5q28 0 45.5 19.5t17.5 49.5q0 28 -17.5 48t-44.5 20zM532 186h-349l-85 -186h-82l340 717h3l341 -717
h-83zM505 254l-147 326h-1l-147 -326h295z" />
    <glyph glyph-name="aringacute" unicode="&#x1fb;" horiz-adv-x="561" 
d="M357 1006l36 -55l-124 -113l-59 14zM280 797q46 0 76 -31t30 -78t-30 -78t-76 -31t-76 31t-30 78t30 78t76 31zM281 756q-27 0 -45.5 -20t-18.5 -48t18 -48.5t45 -20.5q28 0 45.5 19.5t17.5 49.5q0 28 -17.5 48t-44.5 20zM282 520q125 -6 169.5 -57t44.5 -183v-280h-74
v84q-69 -95 -190 -95q-77 0 -127.5 45t-50.5 121q0 78 54 120t151 42q74 0 162 -35q0 93 -29.5 128t-112.5 44q-3 1 -25 1q-20 0 -52 -4q-85 -14 -92 -16l-16 63q97 26 167 23zM255 48q51 0 94 28q47 28 72 66v83q-87 36 -147 36q-71 0 -108 -27.5t-37 -78.5q0 -49 33.5 -78
t92.5 -29z" />
    <glyph glyph-name="AEacute" unicode="&#x1fc;" horiz-adv-x="973" 
d="M544 926l36 -55l-124 -113l-59 14zM204 186l-110 -186h-88l405 700h500v-69h-397v-243h375v-69h-375v-250h397v-69h-482v186h-225zM429 591l-190 -337h190v337z" />
    <glyph glyph-name="aeacute" unicode="&#x1fd;" horiz-adv-x="937" 
d="M507 754l36 -55l-124 -113l-59 14zM106 433l-18 64l17 5q11 4 72 11q49 7 102 7q133 0 178 -79q77 77 194 79q110 1 176.5 -81.5t66.5 -192.5v-18h-398v-65q18 -44 62 -76t95 -32q91 0 173 59l39 -48q-83 -77 -216 -77q-66 0 -118 34q-52 35 -74 78q-33 -42 -96 -77
q-62 -35 -135 -35q-78 0 -127 43q-51 44 -51 121q0 80 52.5 122t148.5 42q83 0 170 -35v83q-11 48 -44.5 68.5t-99.5 20.5q-73 0 -154 -16zM771 405q-43 52 -123 52q-94 0 -150 -90v-87h319q-3 76 -46 125zM117 152q0 -48 33.5 -76t90.5 -28q53 0 102 28q52 28 76 66v83
q-86 36 -154 36q-148 0 -148 -109z" />
    <glyph glyph-name="Oslashacute" unicode="&#x1fe;" horiz-adv-x="816" 
d="M499 932l36 -55l-124 -113l-59 14zM569 731l14 29l34 -17l15 -9q0 -4 -3 -8l-36 -66q67 -45 121 -122q50 -72 52 -193q3 -139 -106.5 -249.5t-246.5 -108.5q-85 2 -152 33l-27 -51l-14 -28l-50 24l43 81q-76 52 -118.5 133.5t-44.5 174.5q-2 140 106.5 250.5t246.5 108.5
q75 -2 142 -28zM405 643q-106 2 -191.5 -89t-83.5 -197q2 -91 37 -146q36 -58 83 -97l263 506q-56 21 -108 23zM413 57q70 -1 134.5 41.5t102 110t36.5 137.5q-2 95 -40 149q-40 60 -88 97l-264 -508q54 -25 119 -27z" />
    <glyph glyph-name="oslashacute" unicode="&#x1ff;" horiz-adv-x="622" 
d="M390 738l36 -55l-124 -113l-59 14zM442 569l47 -24l-38 -68q57 -37 88.5 -95.5t32.5 -129.5q2 -103 -78 -184t-182 -79q-57 2 -105 21l-33 -71l-52 20l38 76q-53 36 -83 95t-31 126q-2 103 78 184t182 80q58 -2 96 -18zM309 452q-77 0 -133 -58t-56 -140
q0 -48 17.5 -81.5t56.5 -71.5l176 339q-31 12 -61 12zM239 72q31 -16 70 -16q77 0 132.5 58.5t55.5 139.5q0 92 -80 158z" />
    <glyph glyph-name="uni0218" unicode="&#x218;" horiz-adv-x="639" 
d="M346 387q122 -16 180.5 -60.5t58.5 -130.5q0 -89 -68.5 -148t-186.5 -59q-165 0 -288 87l41 58q114 -75 237 -75q82 0 134 31q54 32 54 103q0 58 -46.5 85.5t-159.5 42.5q-105 15 -171 53q-65 38 -65 130q0 79 65.5 143t182.5 64q78 0 131 -19q60 -21 139 -70l-40 -59
l-16 12q-88 66 -200 66q-94 0 -139.5 -40t-45.5 -97q0 -52 46 -77t157 -40zM333 -110q27 0 44 -20t17 -55q0 -72 -30 -119.5t-95 -80.5l-20 34q79 48 91 124h-8q-24 0 -40.5 17t-16.5 41t17 41.5t41 17.5z" />
    <glyph glyph-name="uni0219" unicode="&#x219;" horiz-adv-x="508" 
d="M251 223q-103 15 -148 43t-46 98q-1 71 51.5 113.5t140.5 42.5q109 0 210 -61l-36 -54q-57 32 -91 43q-38 11 -79 11q-59 0 -92 -23.5t-33 -64.5q4 -43 26.5 -55t114.5 -26q97 -14 146 -48t49 -95q0 -71 -56 -114.5t-149 -43.5q-121 0 -218 68l31 57q99 -64 183 -64
q66 0 101.5 25t35.5 68q0 61 -141 80zM242 -110q27 0 44 -20t17 -55q0 -136 -123 -200l-21 33q78 53 90 125h-8q-24 0 -40.5 17t-16.5 41t17 41.5t41 17.5z" />
    <glyph glyph-name="uni021A" unicode="&#x21a;" horiz-adv-x="609" 
d="M344 628v-628h-79v628h-255v72h589v-72h-255zM302 -110q27 0 44 -20t17 -55q0 -72 -30 -119.5t-95 -80.5l-20 34q79 48 91 124h-8q-24 0 -40.5 17t-16.5 41t17 41.5t41 17.5z" />
    <glyph glyph-name="uni021B" unicode="&#x21b;" horiz-adv-x="438" 
d="M111 447h-65v62h65v119h74v-119h196v-62h-196v-230q0 -86 27 -123t88 -37q44 0 84 22l18 -62q-47 -28 -110 -28q-93 0 -137 55t-44 167v236zM188 -110q27 0 44 -20t17 -55q0 -136 -123 -200l-21 33q78 53 90 125h-8q-24 0 -40.5 17t-16.5 41t17 41.5t41 17.5z" />
    <glyph glyph-name="circumflex" unicode="&#x2c6;" horiz-adv-x="378" 
d="M273 578l-84 122l-90 -122h-62l138 180h28l135 -180h-65z" />
    <glyph glyph-name="caron" unicode="&#x2c7;" horiz-adv-x="378" 
d="M204 571h-28l-138 180h62l90 -122l84 122h65z" />
    <glyph glyph-name="uni02C9" unicode="&#x2c9;" horiz-adv-x="395" 
d="M334 713v-57h-273v57h273z" />
    <glyph glyph-name="breve" unicode="&#x2d8;" horiz-adv-x="354" 
d="M74 745q21 -46 42 -62t61 -16q37 0 56.5 14.5t38.5 51.5l6 12l48 -22q-25 -59 -58 -83.5t-91 -24.5q-57 0 -90 24.5t-60 83.5z" />
    <glyph glyph-name="dotaccent" unicode="&#x2d9;" horiz-adv-x="171" 
d="M138 676q0 -22 -15.5 -37t-37.5 -15t-37 15t-15 37t15 37t37 15t37.5 -15t15.5 -37z" />
    <glyph glyph-name="ring" unicode="&#x2da;" horiz-adv-x="290" 
d="M145 797q46 0 76 -31t30 -78t-30 -78t-76 -31t-76 31t-30 78t30 78t76 31zM146 756q-27 0 -45.5 -20t-18.5 -48t18 -48.5t45 -20.5q28 0 45.5 19.5t17.5 49.5q0 28 -17.5 48t-44.5 20z" />
    <glyph glyph-name="ogonek" unicode="&#x2db;" horiz-adv-x="228" 
d="M196 -160v-41l-26 -1q-26 -2 -41 -2q-45 0 -71 27t-26 79q0 76 91 112l45 -14q-29 -3 -59.5 -29t-30.5 -58q0 -38 15 -57t43 -18z" />
    <glyph glyph-name="tilde" unicode="&#x2dc;" horiz-adv-x="440" 
d="M413 716q-24 -55 -48 -76t-65 -21q-45 0 -85 33q-43 34 -67 34q-28 0 -39.5 -11.5t-23.5 -48.5l-54 13l7 21q27 80 104 80q42 0 88 -35q28 -21 38 -26.5t27 -5.5q24 0 39 13t33 52z" />
    <glyph glyph-name="hungarumlaut" unicode="&#x2dd;" horiz-adv-x="360" 
d="M179 743l36 -55l-124 -113l-59 14zM310 741l36 -55l-124 -113l-59 14z" />
    <glyph glyph-name="uni0394" unicode="&#x394;" horiz-adv-x="774" 
d="M390 713l371 -713h-746l372 713h3zM648 68l-259 508l-260 -507z" />
    <glyph glyph-name="uni03A9" unicode="&#x3a9;" horiz-adv-x="852" 
d="M147 358q2 -87 40 -150q41 -65 134 -140v-68h-267v69h171q-71 48 -114 123q-42 74 -44 163q-1 68 28.5 134t79 115t116 79t134.5 30t134.5 -30t116 -79t79 -115t28.5 -134q-2 -86 -51 -160q-50 -77 -123 -126h192v-69h-288v67q20 16 76 71q49 48 66 66q46 62 48 149
q1 71 -38 138t-104.5 109.5t-135.5 42.5q-107 0 -193.5 -89.5t-84.5 -195.5z" />
    <glyph glyph-name="uni03BC" unicode="&#x3bc;" horiz-adv-x="621" 
d="M174 -204h-75v713h75v-274q0 -178 131 -178q60 0 101 58.5t41 139.5v254h75v-509h-75v109q-42 -80 -68.5 -98.5t-89.5 -21.5q-37 -2 -68.5 15.5t-46.5 47.5v-256z" />
    <glyph glyph-name="pi" unicode="&#x3c0;" horiz-adv-x="745" 
d="M493 440v-223q0 -87 26.5 -123.5t87.5 -36.5q45 0 86 22l13 -60q-48 -30 -102 -30q-96 0 -141 54.5t-45 167.5v229h-176v-440h-75v440h-151v69l673 -1l-1 -69z" />
    <glyph glyph-name="Wgrave" unicode="&#x1e80;" horiz-adv-x="961" 
d="M408 929l145 -154h-67l-121 111zM491 700l168 -549l195 549h77l-254 -700h-43l-154 539l-143 -539h-50l-253 700h76l195 -549l168 549h18z" />
    <glyph glyph-name="wgrave" unicode="&#x1e81;" horiz-adv-x="733" 
d="M253 731l145 -154h-67l-121 111zM374 509l153 -365l104 365h83l-161 -509h-35l-151 378l-153 -378h-35l-160 509h84l104 -365l152 365h15z" />
    <glyph glyph-name="Wacute" unicode="&#x1e82;" horiz-adv-x="961" 
d="M529 928l36 -55l-124 -113l-59 14zM491 700l168 -549l195 549h77l-254 -700h-43l-154 539l-143 -539h-50l-253 700h76l195 -549l168 549h18z" />
    <glyph glyph-name="wacute" unicode="&#x1e83;" horiz-adv-x="733" 
d="M407 754l36 -55l-124 -113l-59 14zM374 509l153 -365l104 365h83l-161 -509h-35l-151 378l-153 -378h-35l-160 509h84l104 -365l152 365h15z" />
    <glyph glyph-name="Wdieresis" unicode="&#x1e84;" horiz-adv-x="961" 
d="M431 867q0 -19 -13.5 -32t-32.5 -13t-32 13t-13 32t13 32.5t32 13.5t32.5 -13.5t13.5 -32.5zM624 867q0 -19 -13 -32t-32 -13t-32.5 13t-13.5 32t13.5 32.5t32.5 13.5t32 -13.5t13 -32.5zM491 700l168 -549l195 549h77l-254 -700h-43l-154 539l-143 -539h-50l-253 700h76
l195 -549l168 549h18z" />
    <glyph glyph-name="wdieresis" unicode="&#x1e85;" horiz-adv-x="733" 
d="M316 676q0 -19 -13.5 -32t-32.5 -13t-32 13t-13 32t13 32.5t32 13.5t32.5 -13.5t13.5 -32.5zM509 676q0 -19 -13 -32t-32 -13t-32.5 13t-13.5 32t13.5 32.5t32.5 13.5t32 -13.5t13 -32.5zM374 509l153 -365l104 365h83l-161 -509h-35l-151 378l-153 -378h-35l-160 509h84
l104 -365l152 365h15z" />
    <glyph glyph-name="Ygrave" unicode="&#x1ef2;" horiz-adv-x="623" 
d="M248 929l145 -154h-67l-121 111zM314 348l214 352h76l-252 -426v-274h-77v274l-256 426h79z" />
    <glyph glyph-name="ygrave" unicode="&#x1ef3;" horiz-adv-x="516" 
d="M185 731l145 -154h-67l-121 111zM196 -204h-80l102 230l-210 483h72l178 -398h1l175 398h74z" />
    <glyph glyph-name="endash" unicode="&#x2013;" horiz-adv-x="402" 
d="M355 315v-61h-307v61h307z" />
    <glyph glyph-name="emdash" unicode="&#x2014;" horiz-adv-x="571" 
d="M512 314q9 0 12 -3t3 -12v-31q0 -15 -15 -15h-452q-16 0 -16 16v29q0 10 3.5 13t12.5 3h452z" />
    <glyph glyph-name="quoteleft" unicode="&#x2018;" horiz-adv-x="268" 
d="M136 439q-27 0 -44 20t-17 55q0 71 30.5 119t94.5 82l19 -36q-39 -24 -62.5 -57t-27.5 -66h8q24 0 40.5 -17t16.5 -41t-17 -41.5t-41 -17.5z" />
    <glyph glyph-name="quoteright" unicode="&#x2019;" horiz-adv-x="268" 
d="M133 713q27 0 44 -21t17 -54q0 -132 -123 -202l-19 35q79 52 87 125h-7q-24 0 -40.5 17t-16.5 41t17 41.5t41 17.5z" />
    <glyph glyph-name="quotesinglbase" unicode="&#x201a;" horiz-adv-x="268" 
d="M133 106q27 0 44 -21t17 -54q0 -68 -30.5 -116.5t-94.5 -84.5l-19 34q80 53 89 125h-7q-24 0 -40.5 17t-16.5 41t17 41.5t41 17.5z" />
    <glyph glyph-name="quotedblleft" unicode="&#x201c;" horiz-adv-x="463" 
d="M136 439q-27 0 -44 20t-17 55q0 71 30.5 119t94.5 82l19 -36q-39 -24 -62.5 -57t-27.5 -66h8q24 0 40.5 -17t16.5 -41t-17 -41.5t-41 -17.5zM331 439q-27 0 -44 20.5t-17 55.5q0 135 119 200l25 -32q-81 -54 -90 -127h8q24 0 40.5 -17t16.5 -41t-17 -41.5t-41 -17.5z" />
    <glyph glyph-name="quotedblright" unicode="&#x201d;" horiz-adv-x="463" 
d="M133 713q27 0 44 -21t17 -54q0 -134 -123 -201l-21 36q38 24 61.5 57t27.5 66h-7q-24 0 -40.5 17t-16.5 41t17 41.5t41 17.5zM328 713q27 0 44 -21t17 -54q0 -134 -123 -201l-22 36q39 24 62.5 57t27.5 66h-7q-24 0 -40.5 17t-16.5 41t17 41.5t41 17.5z" />
    <glyph glyph-name="quotedblbase" unicode="&#x201e;" horiz-adv-x="463" 
d="M133 106q27 0 44 -21t17 -54q0 -135 -124 -199l-22 33q84 48 91 124h-7q-24 0 -40.5 17t-16.5 41t17 41.5t41 17.5zM328 106q27 0 44 -21t17 -54q0 -134 -124 -200l-21 34q83 49 90 124h-7q-24 0 -40.5 17t-16.5 41t17 41.5t41 17.5z" />
    <glyph glyph-name="dagger" unicode="&#x2020;" horiz-adv-x="412" 
d="M180 -99l-6 516h-127v61h127v222h64v-222h127v-61h-128l-5 -516h-52z" />
    <glyph glyph-name="daggerdbl" unicode="&#x2021;" horiz-adv-x="424" 
d="M180 -99v230h-127v61h127v254h-127v61h127v193h64v-193h127v-61h-127v-254h127v-61h-127v-230h-64z" />
    <glyph glyph-name="bullet" unicode="&#x2022;" horiz-adv-x="229" 
d="M187 343q0 -30 -21 -51t-51 -21q-31 0 -51.5 20.5t-20.5 51.5q0 30 21 51t51 21q29 0 50.5 -21.5t21.5 -50.5z" />
    <glyph glyph-name="ellipsis" unicode="&#x2026;" horiz-adv-x="747" 
d="M191 47q0 -25 -17 -41.5t-41 -16.5q-25 0 -41.5 16.5t-16.5 41.5t16.5 42t41.5 17q24 0 41 -17t17 -42zM432 47q0 -25 -17 -41.5t-42 -16.5q-24 0 -41 16.5t-17 41.5t17 42t41 17q25 0 42 -17t17 -42zM673 47q0 -24 -17.5 -41t-41.5 -17q-25 0 -41.5 16.5t-16.5 41.5
t16.5 42t41.5 17q24 0 41.5 -17t17.5 -42z" />
    <glyph glyph-name="perthousand" unicode="&#x2030;" horiz-adv-x="1260" 
d="M205 713q78 0 123 -47.5t45 -131.5t-45 -131.5t-123 -47.5t-122.5 47.5t-44.5 131.5t44.5 131.5t122.5 47.5zM645 700h67l-494 -700h-66zM205 664q-52 0 -81 -35t-29 -95t29 -95t81 -35t81 35t29 95t-29 95t-81 35zM657 356q78 0 123 -47.5t45 -131.5t-45 -131.5
t-123 -47.5t-122.5 47.5t-44.5 131.5t44.5 131.5t122.5 47.5zM1054 356q78 0 123 -47.5t45 -131.5t-45 -131.5t-123 -47.5t-122.5 47.5t-44.5 131.5t44.5 131.5t122.5 47.5zM657 307q-51 0 -80 -35t-29 -95t29 -95t80 -35q53 0 82 34.5t29 95.5t-29 95.5t-82 34.5zM1054 307
q-51 0 -80 -35t-29 -95t29 -95t80 -35q53 0 82 34.5t29 95.5t-29 95.5t-82 34.5z" />
    <glyph glyph-name="guilsinglleft" unicode="&#x2039;" horiz-adv-x="329" 
d="M116 254l170 -196l-56 -34l-202 227l202 232l52 -33z" />
    <glyph glyph-name="guilsinglright" unicode="&#x203a;" horiz-adv-x="329" 
d="M99 483l202 -232l-202 -227l-56 34l170 196l-166 196z" />
    <glyph glyph-name="fraction" unicode="&#x2044;" horiz-adv-x="459" 
d="M379 700h58l-348 -700h-59z" />
    <glyph glyph-name="uni2070" unicode="&#x2070;" horiz-adv-x="311" 
d="M280 630q0 -74 -33 -119t-92 -45t-92 45t-33 119t33 118.5t92 44.5t92 -44.5t33 -118.5zM222 536q22 39 22 94t-22 93q-21 39 -67 39t-67 -39q-22 -41 -22 -93q0 -54 22 -94q20 -38 67 -38q46 0 67 38z" />
    <glyph glyph-name="uni2074" unicode="&#x2074;" horiz-adv-x="284" 
d="M269 579v-28h-57v-73h-34v73h-162v27l157 215h39v-214h57zM178 752l-125 -173h125v173z" />
    <glyph glyph-name="uni2076" unicode="&#x2076;" horiz-adv-x="285" 
d="M147 466q-69 0 -96 40q-25 38 -25 105q0 182 123 182q31 0 54 -9t48 -33l-23 -25q-28 25 -38 28q-18 8 -43 8q-44 0 -65 -39q-21 -40 -21 -101q26 56 93 56q45 0 73.5 -27t28.5 -72q0 -49 -30.5 -81t-78.5 -32zM145 649q-31 0 -56 -24q-25 -22 -25 -52q1 -31 21.5 -53.5
t59.5 -22.5q35 0 55.5 22.5t20.5 57.5q0 32 -21.5 51.5t-54.5 20.5z" />
    <glyph glyph-name="uni2077" unicode="&#x2077;" horiz-adv-x="254" 
d="M196 758h-178v33h233l-181 -315h-45z" />
    <glyph glyph-name="uni2078" unicode="&#x2078;" horiz-adv-x="283" 
d="M94 643q-22 9 -37 24q-19 16 -19 48q0 39 29 63t77 24t76.5 -24t28.5 -63q0 -30 -19 -48q-17 -17 -37 -24v-1q24 -6 44 -27t20 -51q0 -41 -29.5 -65t-83.5 -24t-84 24.5t-30 64.5q0 28 19.5 49t44.5 29v1zM93 673q19 -14 51 -17q31 2 51 18t20 39q0 26 -19.5 42t-51.5 16
t-52 -16t-20 -42q0 -25 21 -40zM144 506q38 0 58 16t20 44q0 26 -23 43q-27 17 -55 20q-33 -3 -56 -20q-23 -14 -23 -43q0 -28 20.5 -44t58.5 -16z" />
    <glyph glyph-name="uni2079" unicode="&#x2079;" horiz-adv-x="287" 
d="M134 793q70 0 95 -40q26 -41 26 -104q0 -183 -123 -183q-57 0 -105 44l23 25q22 -20 40 -30q14 -7 44 -7q45 0 65 38q21 39 21 102q-26 -56 -93 -56q-44 0 -73 26.5t-29 71.5q0 49 30.5 81t78.5 32zM138 611q30 0 54.5 23t24.5 51q0 31 -20.5 54t-60.5 23q-36 0 -56 -23
t-20 -57q0 -32 22 -51.5t56 -19.5z" />
    <glyph glyph-name="uni2080" unicode="&#x2080;" horiz-adv-x="311" 
d="M277 163q0 -74 -33 -118.5t-92 -44.5t-92 44.5t-33 118.5t33 119t92 45t92 -45t33 -119zM219 69q22 39 22 94q0 53 -22 94q-21 38 -67 38q-47 0 -67 -38q-22 -40 -22 -94q0 -52 22 -93q21 -39 67 -39t67 38z" />
    <glyph glyph-name="uni2081" unicode="&#x2081;" horiz-adv-x="182" 
d="M125 -50h-36v277l-47 -33v35l49 36h34v-315z" />
    <glyph glyph-name="uni2082" unicode="&#x2082;" horiz-adv-x="264" 
d="M247 -50h-223l168 198q16 19 16 40q0 22 -18.5 36.5t-48.5 14.5q-51 0 -88 -42l-23 23q51 51 111 51q45 0 73.5 -23t28.5 -57q0 -32 -25 -60l-128 -150h157v-31z" />
    <glyph glyph-name="uni2083" unicode="&#x2083;" horiz-adv-x="270" 
d="M142 121q30 0 47 14.5t17 34.5q0 30 -20 47.5t-54 17.5q-42 0 -81 -42l-23 25q51 49 104 49q46 0 77.5 -25.5t31.5 -68.5q0 -24 -15 -42q-16 -19 -34 -25q22 -6 40 -24t18 -48q0 -45 -31.5 -69.5t-86.5 -24.5q-58 0 -109 51l22 23q40 -43 87 -43q83 0 83 66
q0 23 -20.5 38.5t-52.5 15.5h-55v30h55z" />
    <glyph glyph-name="uni2084" unicode="&#x2084;" horiz-adv-x="284" 
d="M270 31v-28h-57v-73h-34v73h-162v27l157 215h39v-214h57zM179 204l-125 -173h125v173z" />
    <glyph glyph-name="uni2085" unicode="&#x2085;" horiz-adv-x="265" 
d="M78 237v-96l57 1q47 1 81 -21q32 -23 32 -71q0 -49 -31 -75.5t-86 -26.5t-110 49l22 24q24 -24 43 -33q20 -9 45 -9q82 0 82 70q0 61 -80 61h-90v158l185 1v-31z" />
    <glyph glyph-name="uni2086" unicode="&#x2086;" horiz-adv-x="285" 
d="M149 -70q-70 0 -95 40q-26 40 -26 104q0 183 123 183q30 0 54 -10q26 -11 48 -32l-23 -25q-19 19 -37 28q-14 7 -44 7q-45 0 -65 -38q-21 -39 -21 -102q26 56 94 56q44 0 72.5 -26.5t28.5 -71.5q0 -49 -30.5 -81t-78.5 -32zM146 112q-30 0 -55 -24q-24 -21 -24 -51
q1 -30 21.5 -53t59.5 -23q34 0 54.5 22.5t20.5 57.5q0 32 -22 51.5t-55 19.5z" />
    <glyph glyph-name="uni2087" unicode="&#x2087;" horiz-adv-x="254" 
d="M191 222h-178v33h233l-181 -315h-45z" />
    <glyph glyph-name="uni2088" unicode="&#x2088;" horiz-adv-x="283" 
d="M91 98q-16 4 -38 23q-19 16 -19 49q0 39 29 63t77 24t77 -24t29 -63q0 -30 -19 -49q-19 -17 -37 -23v-2q23 -4 43 -26t20 -51q0 -41 -29.5 -65t-83.5 -24q-53 0 -83 24.5t-30 64.5q0 30 19.5 50t44.5 28v1zM89 128q21 -15 51 -17q31 2 51 17.5t20 39.5q0 26 -19.5 42
t-51.5 16q-31 0 -51 -16t-20 -42t20 -40zM140 -39q38 0 58.5 16t20.5 44q0 27 -24 43q-23 17 -55 19q-31 -2 -56 -19q-23 -17 -23 -43q0 -28 20.5 -44t58.5 -16z" />
    <glyph glyph-name="uni2089" unicode="&#x2089;" horiz-adv-x="287" 
d="M142 257q69 0 95 -41t26 -104q0 -182 -123 -182q-57 0 -105 44l23 25q23 -23 40 -30q21 -8 44 -8q44 0 65 39q21 37 21 101q-26 -56 -93 -56q-44 0 -73 27t-29 72q0 49 30.5 81t78.5 32zM144 74q29 0 55 23t26 52q0 31 -20.5 54t-60.5 23q-36 0 -56 -23q-20 -26 -20 -57
q0 -32 21.5 -51.5t54.5 -20.5z" />
    <glyph glyph-name="peseta" unicode="&#x20a7;" horiz-adv-x="1544" 
d="M1131 452h-121q-12 -82 -69 -126q-70 -52 -175 -52h-172v-274h-79v452h-131v57h131v191h251q105 0 176 -49q64 -43 70 -142h119v-57zM594 509h340q-11 123 -173 123h-167v-123zM594 452v-110h167q150 0 171 110h-338z" />
    <glyph glyph-name="Euro" unicode="&#x20ac;" horiz-adv-x="623" 
d="M554 84l22 -66q-67 -29 -148 -31q-112 -1 -205 74.5t-116 185.5h-95v41h85q-6 44 -5 67l2 40h-82v41h88q24 120 115.5 198.5t212.5 78.5q77 0 151 -32l-25 -66q-21 10 -61 19q-38 9 -65 9q-101 0 -162 -61q-61 -60 -84 -146h313v-41h-321l-2 -40q-1 -24 6 -67h317v-41
h-306q26 -77 87 -134q62 -56 152 -56q67 0 111 22z" />
    <glyph glyph-name="uni2113" unicode="&#x2113;" horiz-adv-x="475" 
d="M26 246l87 28v217q0 112 36.5 166t132.5 54q66 0 104.5 -42.5t38.5 -114.5q0 -66 -29 -129q-52 -109 -237 -179v-23q0 -94 41 -142.5t119 -48.5q16 0 40.5 6t35.5 14l10 4l15 -41q-39 -26 -105 -26q-96 0 -149 58.5t-53 161.5v21l-77 -21zM282 669q-66 0 -94.5 -41
t-28.5 -137v-201q70 27 123.5 68.5t74.5 86.5q24 53 24 106q0 54 -26 86t-73 32z" />
    <glyph glyph-name="trademark" unicode="&#x2122;" horiz-adv-x="886" 
d="M220 663v-351h-47v351h-153v43h353v-43h-153zM421 608l-28 -294h-47l50 392h16l194 -333l188 333h18l52 -392h-47l-33 294l-165 -294h-27z" />
    <glyph glyph-name="uni2126" unicode="&#x2126;" horiz-adv-x="852" 
d="M147 358q3 -152 149 -274l25 -15v-69h-267v69h171q-71 48 -114 123q-42 74 -44 163q-1 68 28.5 134t79 115t116 79t134.5 30t134.5 -30t116 -79t79 -115t28.5 -134q-2 -86 -51 -160q-50 -77 -123 -126h192v-69h-288v69l24 15q68 54 118 120q46 62 48 149q1 71 -38 138
t-104.5 109.5t-135.5 42.5q-107 0 -193.5 -89.5t-84.5 -195.5z" />
    <glyph glyph-name="estimated" unicode="&#x212e;" horiz-adv-x="805" 
d="M404 38q122 0 224 105l38 -42q-64 -60 -126.5 -86.5t-140.5 -27.5q-90 -1 -172.5 50t-131.5 136t-49 177q1 141 110 252t248 111q150 -1 255.5 -114.5t102.5 -276.5h-603v-144q43 -64 106.5 -102t138.5 -38zM646 525q-93 136 -242 136q-82 0 -146 -43q-65 -42 -99 -97
v-147h487v151z" />
    <glyph glyph-name="oneeighth" unicode="&#x215b;" horiz-adv-x="643" 
d="M430 700h58l-348 -700h-59zM160 368h-36v277l-47 -33v35l49 36h34v-315zM412 171q-21 8 -37 24q-19 18 -19 48q0 39 29 63t77 24t76.5 -24t28.5 -63q0 -32 -19 -48q-18 -17 -37 -24v-1q24 -6 44 -27.5t20 -49.5q0 -42 -29.5 -65.5t-83.5 -23.5t-84 23.5t-30 65.5
q0 28 20 49.5t44 27.5v1zM411 202q17 -15 51 -18q31 3 51 18.5t20 39.5q0 25 -19.5 41.5t-51.5 16.5t-52 -16.5t-20 -41.5t21 -40zM462 34q38 0 58 16t20 44q0 27 -23 44q-22 16 -55 19q-34 -3 -56 -19q-23 -17 -23 -44q0 -28 20.5 -44t58.5 -16z" />
    <glyph glyph-name="threeeighths" unicode="&#x215c;" horiz-adv-x="698" 
d="M475 699h58l-348 -700h-59zM157 545q30 0 47 15t17 35q0 30 -20 47.5t-54 17.5q-42 0 -81 -43l-23 25q49 49 104 49q46 0 77.5 -25.5t31.5 -68.5q0 -24 -15 -42q-16 -19 -34 -25q22 -6 40 -24t18 -48q0 -45 -31.5 -69.5t-86.5 -24.5q-57 0 -109 51l22 23q42 -42 87 -42
q83 0 83 65q0 24 -20 39.5t-53 15.5h-55v29h55zM462 171q-21 8 -37 24q-19 18 -19 48q0 39 29 63t77 24t76.5 -24t28.5 -63q0 -32 -19 -48q-18 -17 -37 -24v-1q24 -6 44 -27.5t20 -49.5q0 -42 -29.5 -65.5t-83.5 -23.5t-84 23.5t-30 65.5q0 28 20 49.5t44 27.5v1zM461 202
q17 -15 51 -18q31 3 51 18.5t20 39.5q0 25 -19.5 41.5t-51.5 16.5t-52 -16.5t-20 -41.5t21 -40zM512 34q38 0 58 16t20 44q0 27 -23 44q-22 16 -55 19q-34 -3 -56 -19q-23 -17 -23 -44q0 -28 20.5 -44t58.5 -16z" />
    <glyph glyph-name="fiveeighths" unicode="&#x215d;" horiz-adv-x="690" 
d="M475 699h58l-348 -700h-59zM95 658v-96h57q52 0 81 -21q32 -21 32 -70t-31 -75.5t-86 -26.5t-110 49l22 23q26 -24 43 -32q19 -9 45 -9q82 0 82 70q0 61 -80 61h-90v158h185v-31h-150zM462 171q-21 8 -37 24q-19 18 -19 48q0 39 29 63t77 24t76.5 -24t28.5 -63
q0 -32 -19 -48q-18 -17 -37 -24v-1q24 -6 44 -27.5t20 -49.5q0 -42 -29.5 -65.5t-83.5 -23.5t-84 23.5t-30 65.5q0 28 20 49.5t44 27.5v1zM461 202q17 -15 51 -18q31 3 51 18.5t20 39.5q0 25 -19.5 41.5t-51.5 16.5t-52 -16.5t-20 -41.5t21 -40zM512 34q38 0 58 16t20 44
q0 27 -23 44q-22 16 -55 19q-34 -3 -56 -19q-23 -17 -23 -44q0 -28 20.5 -44t58.5 -16z" />
    <glyph glyph-name="seveneighths" unicode="&#x215e;" horiz-adv-x="617" 
d="M438 700h58l-348 -700h-59zM235 654h-178v33h233l-181 -315h-45zM392 171q-21 8 -37 24q-19 18 -19 48q0 39 29 63t77 24t76.5 -24t28.5 -63q0 -32 -19 -48q-18 -17 -37 -24v-1q24 -6 44 -27.5t20 -49.5q0 -42 -29.5 -65.5t-83.5 -23.5t-84 23.5t-30 65.5q0 28 20 49.5
t44 27.5v1zM391 202q17 -15 51 -18q31 3 51 18.5t20 39.5q0 25 -19.5 41.5t-51.5 16.5t-52 -16.5t-20 -41.5t21 -40zM442 34q38 0 58 16t20 44q0 27 -23 44q-22 16 -55 19q-34 -3 -56 -19q-23 -17 -23 -44q0 -28 20.5 -44t58.5 -16z" />
    <glyph glyph-name="partialdiff" unicode="&#x2202;" horiz-adv-x="610" 
d="M433 558q-46 85 -144 85q-55 0 -96.5 -17.5t-93.5 -62.5l-52 52q111 98 237 98q274 0 274 -405q0 -144 -58 -232q-57 -89 -211 -89q-108 0 -175 72t-67 179q0 100 65 159.5t161 59.5q74 0 127 -33t80 -92q0 140 -47 226zM295 392q-73 -2 -121.5 -45t-48.5 -113
q0 -75 44 -128q43 -51 124 -51q47 0 83.5 16.5t56.5 43t30 55.5t10 58q1 59 -56.5 112t-121.5 52z" />
    <glyph glyph-name="uni2206" unicode="&#x2206;" horiz-adv-x="771" 
d="M387 713l371 -713h-746l372 713h3zM645 68l-259 508l-260 -507z" />
    <glyph glyph-name="product" unicode="&#x220f;" horiz-adv-x="659" 
d="M102 700h455v-700h-79v631h-297v-631h-79v700z" />
    <glyph glyph-name="summation" unicode="&#x2211;" horiz-adv-x="607" 
d="M549 0h-487l227 348l-227 352h487v-69h-352l176 -282l-176 -280h352v-69z" />
    <glyph glyph-name="minus" unicode="&#x2212;" horiz-adv-x="573" 
d="M523 316v-57h-473v57h473z" />
    <glyph glyph-name="uni2215" unicode="&#x2215;" horiz-adv-x="481" 
d="M385 700h59l-346 -700h-59z" />
    <glyph glyph-name="uni2219" unicode="&#x2219;" horiz-adv-x="222" 
d="M173 343q0 -26 -18 -44t-44 -18t-44 18t-18 44t18.5 44t43.5 18q26 0 44 -18t18 -44z" />
    <glyph glyph-name="radical" unicode="&#x221a;" horiz-adv-x="697" 
d="M260 -16l-249 525h80l170 -381l264 572h172v-73h-129l-305 -643h-3z" />
    <glyph glyph-name="infinity" unicode="&#x221e;" horiz-adv-x="691" 
d="M337 278q-14 -35 -45 -71q-32 -36 -92 -36q-73 0 -118.5 54.5t-45.5 145.5t45.5 145.5t118.5 54.5q59 0 91 -35t46 -70h2q12 42 49 80q37 40 98 40q78 0 123.5 -56t45.5 -159q0 -102 -45.5 -158.5t-123.5 -56.5q-58 0 -97 39.5t-50 82.5h-2zM597 371q0 71 -31 110t-83 39
q-51 0 -83 -44t-36 -105q4 -61 36 -105t83 -44q52 0 83 39t31 110zM312 371q-4 60 -33 97.5t-76 37.5q-48 0 -78.5 -37.5t-30.5 -97.5t30.5 -97t78.5 -37q47 0 76 37t33 97z" />
    <glyph glyph-name="integral" unicode="&#x222b;" horiz-adv-x="491" 
d="M462 625q-43 20 -78 20q-60 0 -87 -37t-27 -123v-498q0 -223 -182 -223q-54 0 -108 32l9 63q53 -27 92 -27q61 0 87.5 36.5t26.5 123.5v498q0 223 183 223q53 0 108 -30z" />
    <glyph glyph-name="approxequal" unicode="&#x2248;" horiz-adv-x="510" 
d="M446 412q-24 -55 -48 -76t-65 -21q-45 0 -85 33q-43 34 -67 34q-29 0 -40 -11.5t-23 -48.5l-54 13l7 21q27 80 104 80q42 0 88 -35q28 -21 38 -26.5t27 -5.5q24 0 39 13t33 52zM446 250q-24 -55 -48 -76t-65 -21q-45 0 -85 33q-43 34 -67 34q-29 0 -40 -11.5t-23 -48.5
l-54 13l7 21q27 80 104 80q42 0 88 -35q28 -21 38 -26.5t27 -5.5q24 0 39 13.5t33 51.5z" />
    <glyph glyph-name="notequal" unicode="&#x2260;" horiz-adv-x="560" 
d="M342 439l-53 -136h221v-61h-245l-96 -242h-56l94 242h-157v61h181l54 136h-235v61h258l80 200h56q-3 -4 -39 -98l-39 -102h144v-61h-168z" />
    <glyph glyph-name="lessequal" unicode="&#x2264;" horiz-adv-x="545" 
d="M463 595l-305 -147l305 -147v-75l-393 189v65l393 190v-75zM486 169v-64h-429v58z" />
    <glyph glyph-name="greaterequal" unicode="&#x2265;" horiz-adv-x="545" 
d="M475 480v-65l-393 -189v75l305 147l-305 147v75zM488 105h-429v64l429 -6v-58z" />
    <glyph glyph-name="lozenge" unicode="&#x25ca;" horiz-adv-x="678" 
d="M32 350l307 357h4l307 -357l-307 -357h-4zM341 617l-228 -267l228 -267l228 267z" />
    <glyph glyph-name="f_f" unicode="&#xfb00;" horiz-adv-x="743" 
d="M631 761q59 0 98 -21l-13 -60q-30 13 -78 13q-61 0 -87.5 -36.5t-26.5 -123.5v-26h196v-62h-196v-445h-75v445h-255v-445h-74v445h-90v62h90v31q0 112 44 167.5t137 55.5q62 0 99 -19l-15 -66q-45 17 -76 17q-61 0 -88 -37t-27 -123v-26h255v31q0 223 182 223z" />
    <glyph glyph-name="f_i" unicode="&#xfb01;" horiz-adv-x="666" 
d="M120 0v446h-90v63h90v29q0 112 44 167.5t137 55.5q49 0 101 -25l-20 -58q-38 15 -73 15q-61 0 -88 -37t-27 -123v-24h354l1 -509h-75v446h-280v-446h-74zM563 676q0 -22 -15.5 -37t-37.5 -15t-37 15t-15 37t15 37t37 15t37.5 -15t15.5 -37z" />
    <glyph glyph-name="f_f_i" unicode="&#xfb03;" horiz-adv-x="996" 
d="M524 445v-445h-75v445h-255v-445h-74v445h-90v62h90v31q0 112 44 167.5t137 55.5q62 0 99 -19l-15 -66q-45 17 -76 17q-61 0 -88 -37t-27 -123v-26h255v31q0 223 182 223q59 0 98 -21l-13 -60q-30 13 -78 13q-61 0 -87.5 -36.5t-26.5 -123.5v-26l350 1l4 -508h-75v446z
M788 676q0 22 15 37t37 15t37 -15t15 -37t-15 -37t-37 -15t-37 15t-15 37z" />
    <glyph glyph-name="_142" horiz-adv-x="855" 
d="M45 578v88h756v-88h-756zM703 409q0 17 -20 32.5t-46 15.5q-24 0 -43.5 -11t-19.5 -26q0 -21 11 -33t47 -20l32 -7q37 -8 55.5 -13.5t40 -15.5t30.5 -26t10 -39q1 -51 -44 -82t-117 -31q-82 0 -125 41t-43 94l87 -1q0 -6 3 -14.5t11 -19.5t26 -19t43 -8q29 0 47.5 10.5
t18.5 23.5q0 28 -71 43q-69 15 -112 39q-44 24 -44 76q0 50 45 81.5t114 31.5q71 0 113 -37t42 -85h-91zM145 445v-86h182v-84h-182v-122h-99v376h317v-84h-218zM354 199q0 -18 14 -31t33 -13q20 0 34.5 12.5t14.5 31.5q0 18 -14.5 31t-34.5 13q-19 0 -33 -13t-14 -31z
M43 18v88h756v-88h-756z" />
    <glyph glyph-name="f_f_j" horiz-adv-x="1013" 
d="M524 507l351 2v-522q0 -223 -182 -223q-25 0 -43 5q-15 4 -44 21v67q46 -25 80 -25q61 0 88 37t27 123v454l-277 -1v-445h-75v445h-255v-445h-74v445h-90v62h90v31q0 112 44 167.5t137 55.5q62 0 99 -19l-15 -66q-45 17 -76 17q-61 0 -88 -37t-27 -123v-26h255v31
q0 223 182 223q59 0 98 -21l-13 -60q-30 13 -78 13q-61 0 -87.5 -36.5t-26.5 -123.5v-26zM892 676q0 -22 -15 -37t-37 -15t-37 15t-15 37t15 37t37 15t37 -15t15 -37z" />
    <glyph glyph-name="f_j" horiz-adv-x="684" 
d="M392 -236q-28 0 -66 12q-37 10 -58 24l29 60q27 -17 44 -22.5t45 -5.5q61 0 87.5 37t26.5 123v454h-306v-446h-74v446h-90v63l90 -1v30q0 112 44 167.5t137 55.5q56 0 98 -22l-30 -57q-28 11 -60 11q-61 0 -88 -37t-27 -123v-25l381 1v-522q0 -223 -183 -223zM588 676
q0 -22 -15.5 -37t-37.5 -15t-37 15t-15 37t15 37t37 15t37.5 -15t15.5 -37z" />
    <glyph glyph-name="seven.001" horiz-adv-x="562" 
d="M427 627h-396v73h518l-402 -700h-100z" />
    <glyph glyph-name="zero.denom" horiz-adv-x="311" 
d="M277 163q0 -74 -33 -118.5t-92 -44.5t-92 44.5t-33 118.5t33 119t92 45t92 -45t33 -119zM219 69q22 39 22 94q0 53 -22 94q-21 38 -67 38q-47 0 -67 -38q-22 -40 -22 -94q0 -52 22 -93q21 -39 67 -39t67 38z" />
    <glyph glyph-name="one.denom" horiz-adv-x="182" 
d="M125 0h-36v277l-47 -33v35l49 36h34v-315z" />
    <glyph glyph-name="two.denom" horiz-adv-x="264" 
d="M247 0h-223l168 198q16 19 16 40q0 22 -18.5 36.5t-48.5 14.5q-51 0 -88 -42l-23 23q51 51 111 51q45 0 73.5 -23t28.5 -57q0 -32 -25 -60l-128 -150h157v-31z" />
    <glyph glyph-name="three.denom" horiz-adv-x="270" 
d="M142 181q30 0 47 14.5t17 34.5q0 30 -20 47.5t-54 17.5q-42 0 -81 -42l-23 25q51 49 104 49q46 0 77.5 -25.5t31.5 -68.5q0 -24 -15 -42q-16 -19 -34 -25q22 -6 40 -24t18 -48q0 -45 -31.5 -69.5t-86.5 -24.5q-58 0 -109 51l22 23q40 -43 87 -43q83 0 83 66
q0 23 -20.5 38.5t-52.5 15.5h-55v30h55z" />
    <glyph glyph-name="four.denom" horiz-adv-x="284" 
d="M270 101v-28h-57v-73h-34v73h-162v27l157 215h39v-214h57zM179 274l-125 -173h125v173z" />
    <glyph glyph-name="five.denom" horiz-adv-x="265" 
d="M78 287v-96l57 1q47 1 81 -21q32 -23 32 -71q0 -49 -31 -75.5t-86 -26.5t-110 49l22 24q24 -24 43 -33q20 -9 45 -9q82 0 82 70q0 61 -80 61h-90v158l185 1v-31z" />
    <glyph glyph-name="six.denom" horiz-adv-x="285" 
d="M149 0q-70 0 -95 40q-26 40 -26 104q0 183 123 183q30 0 54 -10q26 -11 48 -32l-23 -25q-19 19 -37 28q-14 7 -44 7q-45 0 -65 -38q-21 -39 -21 -102q26 56 94 56q44 0 72.5 -26.5t28.5 -71.5q0 -49 -30.5 -81t-78.5 -32zM146 182q-30 0 -55 -24q-24 -21 -24 -51
q1 -30 21.5 -53t59.5 -23q34 0 54.5 22.5t20.5 57.5q0 32 -22 51.5t-55 19.5z" />
    <glyph glyph-name="seven.denom" horiz-adv-x="254" 
d="M191 282h-178v33h233l-181 -315h-45z" />
    <glyph glyph-name="eight.denom" horiz-adv-x="283" 
d="M91 168q-16 4 -38 23q-19 16 -19 49q0 39 29 63t77 24t77 -24t29 -63q0 -30 -19 -49q-19 -17 -37 -23v-2q23 -4 43 -26t20 -51q0 -41 -29.5 -65t-83.5 -24q-53 0 -83 24.5t-30 64.5q0 30 19.5 50t44.5 28v1zM89 198q21 -15 51 -17q31 2 51 17.5t20 39.5q0 26 -19.5 42
t-51.5 16q-31 0 -51 -16t-20 -42t20 -40zM140 31q38 0 58.5 16t20.5 44q0 27 -24 43q-23 17 -55 19q-31 -2 -56 -19q-23 -17 -23 -43q0 -28 20.5 -44t58.5 -16z" />
    <glyph glyph-name="nine.denom" horiz-adv-x="287" 
d="M142 327q69 0 95 -41t26 -104q0 -182 -123 -182q-57 0 -105 44l23 25q23 -23 40 -30q21 -8 44 -8q44 0 65 39q21 37 21 101q-26 -56 -93 -56q-44 0 -73 27t-29 72q0 49 30.5 81t78.5 32zM144 144q29 0 55 23t26 52q0 31 -20.5 54t-60.5 23q-36 0 -56 -23q-20 -26 -20 -57
q0 -32 21.5 -51.5t54.5 -20.5z" />
    <glyph glyph-name="zero.num" horiz-adv-x="311" 
d="M280 560q0 -74 -33 -119t-92 -45t-92 45t-33 119t33 118.5t92 44.5t92 -44.5t33 -118.5zM222 466q22 39 22 94t-22 93q-21 39 -67 39t-67 -39q-22 -41 -22 -93q0 -54 22 -94q20 -38 67 -38q46 0 67 38z" />
    <glyph glyph-name="one.num" horiz-adv-x="182" 
d="M125 408h-35v277l-48 -33v35l49 36h34v-315z" />
    <glyph glyph-name="two.num" horiz-adv-x="264" 
d="M247 402h-223l168 198q16 19 16 40q0 23 -18 37.5t-49 14.5q-48 0 -88 -43l-23 24q51 50 111 50q45 0 73.5 -23t28.5 -57q0 -32 -25 -60l-128 -150h157v-31z" />
    <glyph glyph-name="three.num" horiz-adv-x="270" 
d="M141 574q30 0 47 15t17 35q0 30 -20 47.5t-54 17.5q-42 0 -81 -43l-23 25q49 49 104 49q46 0 77.5 -25.5t31.5 -68.5q0 -24 -15 -42q-16 -19 -34 -25q22 -6 40 -24t18 -48q0 -45 -31.5 -69.5t-86.5 -24.5q-57 0 -109 51l22 23q42 -42 87 -42q83 0 83 65q0 24 -20 39.5
t-53 15.5h-55v29h55z" />
    <glyph glyph-name="four.num" horiz-adv-x="284" 
d="M269 509v-28h-57v-73h-34v73h-162v27l157 215h39v-214h57zM178 682l-125 -173h125v173z" />
    <glyph glyph-name="five.num" horiz-adv-x="265" 
d="M81 692v-96l57 1q48 1 81 -22q32 -21 32 -70t-31 -75.5t-86 -26.5t-110 49l22 24q24 -24 43 -33t45 -9q82 0 82 70q0 61 -80 61h-90v158h185v-31h-150z" />
    <glyph glyph-name="six.num" horiz-adv-x="285" 
d="M147 396q-69 0 -96 40q-25 37 -25 105q0 182 123 182q31 0 54 -9t48 -33l-23 -25q-28 25 -38 28q-18 8 -43 8q-44 0 -65 -39q-21 -40 -21 -101q26 56 93 56q45 0 73.5 -27t28.5 -72q0 -49 -30.5 -81t-78.5 -32zM145 579q-31 0 -56 -24q-25 -22 -25 -52q1 -31 21.5 -53.5
t59.5 -22.5q35 0 55.5 22.5t20.5 57.5q0 32 -21.5 51.5t-54.5 20.5z" />
    <glyph glyph-name="seven.num" horiz-adv-x="254" 
d="M196 688h-178v33h233l-181 -315h-45z" />
    <glyph glyph-name="eight.num" horiz-adv-x="283" 
d="M94 563q-22 9 -37 24q-19 16 -19 48q0 39 29 63t77 24t76.5 -24t28.5 -63q0 -30 -19 -48q-17 -17 -37 -24v-1q24 -6 44 -27t20 -51q0 -41 -29.5 -65t-83.5 -24t-84 24.5t-30 64.5q0 28 19.5 49t44.5 29v1zM93 593q19 -14 51 -17q31 2 51 18t20 39q0 26 -19.5 42t-51.5 16
t-52 -16t-20 -42q0 -25 21 -40zM144 426q38 0 58 16t20 44q0 26 -23 43q-27 17 -55 20q-33 -3 -56 -20q-23 -14 -23 -43q0 -28 20.5 -44t58.5 -16z" />
    <glyph glyph-name="nine.num" horiz-adv-x="287" 
d="M134 723q70 0 95 -40q26 -41 26 -104q0 -183 -123 -183q-57 0 -105 44l23 25q22 -20 40 -30q14 -7 44 -7q45 0 65 38q21 39 21 102q-26 -56 -93 -56q-44 0 -73 26.5t-29 71.5q0 49 30.5 81t78.5 32zM138 541q30 0 54.5 23t24.5 51q0 31 -20.5 54t-60.5 23q-36 0 -56 -23
t-20 -57q0 -32 22 -51.5t56 -19.5z" />
    <glyph glyph-name="one.superior" horiz-adv-x="182" 
d="M125 458h-35v277l-48 -33v35l49 36h34v-315z" />
    <glyph glyph-name="two.superior" horiz-adv-x="264" 
d="M247 482h-223l168 198q16 19 16 40q0 23 -18 37.5t-49 14.5q-48 0 -88 -43l-23 24q51 50 111 50q45 0 73.5 -23t28.5 -57q0 -32 -25 -60l-128 -150h157v-31z" />
    <glyph glyph-name="zero.tf" horiz-adv-x="652" 
d="M603 350q0 -163 -72 -263t-205 -100t-205 100t-72 263t72 263t205 100t205 -100t72 -263zM476 141q47 86 47 209q0 122 -47 208q-46 85 -150 85t-150 -85q-47 -86 -47 -208t47 -208q46 -85 150 -85t150 84z" />
    <glyph glyph-name="one.tf" horiz-adv-x="369" 
d="M258 0h-79v616l-106 -73v76l109 81h76v-700z" />
    <glyph glyph-name="two.tf" horiz-adv-x="560" 
d="M519 0h-495l373 440q35 41 35 89q0 51 -40 82.5t-109 31.5q-108 0 -196 -94l-51 52q60 60 117.5 86t129.5 26q101 0 164 -51.5t63 -126.5q0 -69 -55 -133l-286 -333h350v-69z" />
    <glyph glyph-name="three.tf" horiz-adv-x="584" 
d="M298 389q68 0 104.5 33.5t36.5 76.5q0 68 -44 106t-120 38q-93 0 -179 -94l-52 55q109 109 231 109q100 0 171 -55.5t71 -152.5q0 -54 -34 -94q-34 -41 -75 -55v-1q50 -14 89 -53q41 -41 41 -106q0 -102 -69 -155.5t-194 -53.5q-129 0 -242 113l49 51q92 -94 193 -94
q185 0 185 145q0 52 -45.5 86.5t-117.5 34.5h-121v66h122z" />
    <glyph glyph-name="four.tf" horiz-adv-x="647" 
d="M607 225v-63h-127v-162h-75v162h-360v61l348 477h87v-475h127zM405 608l-279 -383h279v383z" />
    <glyph glyph-name="five.tf" horiz-adv-x="579" 
d="M154 630v-213l126 1q110 1 181 -47q70 -48 70 -157q0 -110 -69 -168.5t-191 -58.5q-67 0 -124 26t-119 83l48 53q57 -53 95 -72q42 -20 100 -20q93 0 137.5 37t44.5 118q0 138 -177 136l-200 -1v352l411 1v-69z" />
    <glyph glyph-name="six.tf" horiz-adv-x="610" 
d="M321 -13q-155 0 -212 89q-57 88 -57 232q0 405 274 405q70 0 120 -21q49 -19 106 -72l-51 -55q-48 45 -83 62q-35 16 -97 16q-99 0 -145 -85t-46 -226q27 59 80.5 92t127.5 33q97 0 161 -59.5t64 -159.5q0 -107 -67 -179t-175 -72zM316 392q-64 1 -121.5 -52t-56.5 -112
q1 -66 45 -119.5t135 -53.5q77 0 122 51t45 128q0 70 -48.5 113t-120.5 45z" />
    <glyph glyph-name="eight.tf" horiz-adv-x="600" 
d="M190 360q-44 17 -83 52q-42 38 -42 108q0 85 64.5 139t171.5 54t170.5 -54t63.5 -139q0 -70 -42 -108q-38 -35 -82 -52v-3q49 -13 95 -59.5t46 -112.5q0 -91 -66 -144.5t-186 -53.5q-119 0 -185.5 53.5t-66.5 144.5q0 67 45.5 112.5t96.5 60.5v2zM187 427q46 -34 114 -38
q70 5 113.5 39.5t43.5 87.5q0 57 -43 93t-114 36t-115 -36t-44 -93q0 -56 45 -89zM300 55q84 0 129.5 36.5t45.5 97.5q0 59 -52 96t-122 43q-73 -6 -125 -43q-51 -36 -51 -96q0 -61 46 -97.5t129 -36.5z" />
    <glyph glyph-name="nine.tf" horiz-adv-x="609" 
d="M290 713q152 0 211 -90q58 -89 58 -231q0 -405 -274 -405q-69 0 -122 22.5t-111 75.5l51 55q53 -49 89 -66q39 -17 98 -17q98 0 144 85q47 86 47 226q-27 -59 -80 -92t-127 -33q-97 0 -161.5 59t-64.5 160q0 107 67 179t175 72zM296 308q64 -1 121.5 52t56.5 112
q0 29 -10 58t-30 55.5t-56.5 43t-83.5 16.5q-81 0 -124 -52q-44 -53 -44 -127q0 -70 48.5 -113t121.5 -45z" />
    <glyph glyph-name="periodcentered.case" horiz-adv-x="235" 
d="M182 357q0 -27 -19 -45.5t-46 -18.5t-45.5 18.5t-18.5 45.5t18.5 45.5t45.5 18.5t46 -18.5t19 -45.5z" />
    <glyph glyph-name="bullet.case" horiz-adv-x="229" 
d="M187 357q0 -30 -21.5 -51t-50.5 -21q-31 0 -51.5 21t-20.5 51t20.5 51t51.5 21q29 0 50.5 -21t21.5 -51z" />
    <glyph glyph-name="braceleft.case" horiz-adv-x="450" 
d="M400 753q-72 0 -128.5 -44t-56.5 -137v-79q0 -49 -26 -85.5t-64 -46.5v-4q38 -10 64 -46.5t26 -85.5v-79q0 -93 56.5 -137t128.5 -44v-70q-97 0 -179 52q-83 53 -83 199v79q0 33 -33 60t-69 37v71q32 8 68 38q34 30 34 62v79q0 251 262 251v-70z" />
    <glyph glyph-name="braceright.case" horiz-adv-x="450" 
d="M50 -25q185 0 185 181v79q0 48 26 84t65 48v4q-39 12 -65 48t-26 84v79q0 181 -185 181v70q262 0 262 -251v-79q0 -36 27 -61.5t75 -35.5v-74q-36 -10 -69 -37t-33 -60v-79q0 -251 -262 -251v70z" />
    <glyph glyph-name="bracketleft.case" horiz-adv-x="383" 
d="M97 792h219v-65h-148v-767h148v-65h-219v897z" />
    <glyph glyph-name="bracketright.case" horiz-adv-x="380" 
d="M213 727h-148v65h219v-897h-219v65h148v767z" />
    <glyph glyph-name="parenleft.case" horiz-adv-x="388" 
d="M112 378q0 -121 59.5 -215t172.5 -149l-37 -63q-271 139 -271 427q0 286 271 427l37 -64q-113 -54 -172.5 -147.5t-59.5 -215.5z" />
    <glyph glyph-name="parenright.case" horiz-adv-x="388" 
d="M301 368q0 123 -59.5 216t-173.5 146l37 65q272 -141 272 -427q0 -291 -272 -425l-37 63q114 53 173.5 146t59.5 216z" />
    <glyph glyph-name="emdash.case" horiz-adv-x="571" 
d="M524 389v-64h-477v64h477z" />
    <glyph glyph-name="endash.case" horiz-adv-x="402" 
d="M354 386v-61h-307v61h307z" />
    <glyph glyph-name="hyphen.case" horiz-adv-x="429" 
d="M368 386v-61h-307v61h307z" />
    <glyph glyph-name="guillemotleft.case" horiz-adv-x="538" 
d="M123 389l170 -196l-56 -34l-202 227l202 232l52 -33zM334 388l170 -196l-56 -34l-202 227l202 232l52 -33z" />
    <glyph glyph-name="guillemotright.case" horiz-adv-x="538" 
d="M303 618l202 -232l-202 -227l-56 34l170 196l-166 196zM92 617l202 -232l-202 -227l-56 34l170 196l-166 196z" />
    <glyph glyph-name="guilsinglleft.case" horiz-adv-x="329" 
d="M116 365l170 -196l-56 -34l-202 227l202 232l52 -33z" />
    <glyph glyph-name="guilsinglright.case" horiz-adv-x="329" 
d="M99 594l202 -232l-202 -227l-56 34l170 196l-166 196z" />
    <glyph glyph-name="bar.case" horiz-adv-x="257" 
d="M161 -89h-65v898h65v-898z" />
    <glyph glyph-name="brokenbar.case" horiz-adv-x="259" 
d="M157 421h-55v351h55v-351zM157 -88h-55v399h55v-399z" />
    <glyph glyph-name="fivessuperior" horiz-adv-x="265" 
d="M80 750v-96h57q49 0 81 -21t32 -70t-31 -75.5t-86 -26.5t-110 49l22 23q26 -24 43 -32q20 -9 45 -9q82 0 82 70q0 61 -80 61h-90v158h185v-31h-150z" />
    </font>
</defs>
</svg>
