<?xml version="1.0" standalone="no"?>
<!DOCTYPE svg PUBLIC "-//W3C//DTD SVG 1.1//EN" "http://www.w3.org/Graphics/SVG/1.1/DTD/svg11.dtd" >
<svg xmlns="http://www.w3.org/2000/svg" xmlns:xlink="http://www.w3.org/1999/xlink" version="1.1">
<metadata>
Created by FontForge 20170731 at Tue Mar 20 16:53:28 2018
 By Aleksey,,,
Hamlin is a trademark of Fontastica.
</metadata>
<defs>
<font id="Hamlin-Light" horiz-adv-x="605" >
  <font-face 
    font-family="Hamlin Light"
    font-weight="300"
    font-stretch="normal"
    units-per-em="1000"
    panose-1="0 0 0 0 0 0 0 0 0 0"
    ascent="758"
    descent="-242"
    x-height="509"
    cap-height="700"
    bbox="-45 -383 1222 1197"
    underline-thickness="50"
    underline-position="-200"
    unicode-range="U+000D-FB03"
  />
<missing-glyph horiz-adv-x="253" 
 />
    <glyph glyph-name=".notdef" horiz-adv-x="253" 
 />
    <glyph glyph-name=".null" horiz-adv-x="0" 
 />
    <glyph glyph-name="nonmarkingreturn" horiz-adv-x="333" 
 />
    <glyph glyph-name="CR" unicode="&#xd;" horiz-adv-x="253" 
 />
    <glyph glyph-name="space" unicode=" " horiz-adv-x="253" 
 />
    <glyph glyph-name="exclam" unicode="!" horiz-adv-x="340" 
d="M137 240l-10 460h86l-10 -460h-66zM113 40q0 21 16.5 36t40.5 15t41 -15t17 -36q0 -22 -17 -36.5t-41 -14.5t-40.5 14.5t-16.5 36.5z" />
    <glyph glyph-name="quotedbl" unicode="&#x22;" horiz-adv-x="372" 
d="M64 443v257h61l-24 -257h-37zM253 443v257h60l-23 -257h-37z" />
    <glyph glyph-name="numbersign" unicode="#" horiz-adv-x="831" 
d="M547 239h191v-45h-203l-50 -194h-46l49 194h-224l-49 -193h-45l48 193h-178v45h190l58 226h-186v45h197l48 190h48l-49 -190h223l48 190h47l-48 -190h185v-45h-196zM276 239h224l57 226h-221z" />
    <glyph glyph-name="dollar" unicode="$" horiz-adv-x="615" 
d="M321 -91h-33v82q-138 7 -250 80l32 49q41 -28 100 -49q63 -23 118 -24v281q-108 13 -175 54q-63 39 -63 123q0 79 66 139.5t172 64.5v75h33v-75q60 -2 113.5 -20t124.5 -59l-31 -47q-107 67 -207 70v-272q117 -15 183 -55q65 -39 65 -133q0 -85 -66.5 -142.5
t-181.5 -60.5v-81zM154 602q-40 -40 -40 -95q0 -56 50 -83q43 -24 124 -38v266q-91 -4 -134 -50zM321 47q81 6 130 36q54 35 54 107q0 56 -42 86t-142 48v-277z" />
    <glyph glyph-name="percent" unicode="%" horiz-adv-x="863" 
d="M38 538q0 83 43.5 129t119.5 46t119.5 -46t43.5 -129t-43.5 -129t-119.5 -46t-119.5 46t-43.5 129zM159 0l493 700h51l-491 -700h-53zM81 538q0 -65 32 -103t88 -38t87.5 38.5t31.5 102.5t-31.5 102t-87.5 38t-88 -38t-32 -102zM499 173q0 83 43 129t119 46t120 -46
t44 -129t-44 -129t-120 -46t-119 46t-43 129zM543 173q0 -64 31.5 -102t86.5 -38q57 0 89 37t32 103t-32 103.5t-89 37.5q-54 0 -86 -38.5t-32 -102.5z" />
    <glyph glyph-name="ampersand" unicode="&#x26;" horiz-adv-x="756" 
d="M492 142l-79 -88q-59 -67 -153 -67q-96 0 -154.5 54.5t-58.5 141.5q0 75 55 115q59 42 161 72l-10 10q-62 62 -85 98q-24 38 -24 79q0 62 52 109t135 47q86 0 142.5 -48t56.5 -108q0 -73 -51 -120q-51 -49 -126 -82l142 -135l84 85l40 -34l-84 -89l154 -182h-83zM207 547
q0 -59 102 -151l7 -4q60 18 104 61q48 45 48 94q0 50 -39 82.5t-98 32.5q-56 0 -90 -31.5t-34 -83.5zM170 276q-55 -35 -55 -91q0 -68 41.5 -106t113.5 -38q38 0 72 21q31 19 50 40q29 31 64 78l-151 152q-79 -22 -135 -56z" />
    <glyph glyph-name="quotesingle" unicode="'" horiz-adv-x="191" 
d="M60 443v257h69l-26 -257h-43z" />
    <glyph glyph-name="parenleft" unicode="(" horiz-adv-x="388" 
d="M36 288q0 283 274 424l31 -51q-117 -56 -179 -152t-62 -221q0 -124 62 -220.5t179 -153.5l-31 -51q-274 139 -274 425z" />
    <glyph glyph-name="parenright" unicode=")" horiz-adv-x="388" 
d="M71 -84q118 55 180 150.5t62 221.5t-62 221.5t-180 150.5l31 52q275 -141 275 -424q0 -286 -275 -423z" />
    <glyph glyph-name="asterisk" unicode="*" horiz-adv-x="437" 
d="M235 489l5 -168h-41l4 167l-147 -79l-16 35l144 70l-144 67l20 37l143 -77l-6 161h44l-7 -160l142 80l21 -38l-142 -69l148 -69l-20 -37z" />
    <glyph glyph-name="plus" unicode="+" horiz-adv-x="492" 
d="M271 109h-49v173h-172v49h172v171h49v-171h171v-49h-171v-173z" />
    <glyph glyph-name="comma" unicode="," horiz-adv-x="268" 
d="M53 -139q87 58 97 142h-17q-23 0 -39 15.5t-16 38.5q0 22 16.5 38t39.5 16q27 0 43.5 -19t16.5 -52q0 -132 -126 -203z" />
    <glyph glyph-name="hyphen" unicode="-" horiz-adv-x="429" 
d="M61 315h307v-61h-307v61z" />
    <glyph glyph-name="period" unicode="." horiz-adv-x="266" 
d="M75 47q0 25 16.5 42t41.5 17q24 0 41 -17t17 -42t-17 -41.5t-41 -16.5q-25 0 -41.5 16.5t-16.5 41.5z" />
    <glyph glyph-name="slash" unicode="/" horiz-adv-x="375" 
d="M35 0l248 700h62l-249 -700h-61z" />
    <glyph glyph-name="zero" unicode="0" horiz-adv-x="652" 
d="M49 350q0 165 73 264t204 99t204 -99t73 -264t-73 -264t-204 -99t-204 99t-73 264zM326 657q-112 0 -161 -91q-49 -88 -49 -216t49 -216q49 -91 161 -91t161 90q49 88 49 217q0 128 -49 216q-49 91 -161 91z" />
    <glyph glyph-name="one" unicode="1" horiz-adv-x="369" 
d="M188 636l-115 -74v59l113 79h72v-700h-70v636z" />
    <glyph glyph-name="two" unicode="2" horiz-adv-x="560" 
d="M407 437q38 44 38 96q0 56 -44 90t-118 34q-111 0 -202 -93l-41 42q59 57 115.5 82t127.5 25q101 0 164 -50.5t63 -123.5q0 -67 -55 -131l-306 -353h370v-55h-486z" />
    <glyph glyph-name="three" unicode="3" horiz-adv-x="584" 
d="M76 136q94 -93 199 -93q198 0 198 156q0 56 -50 93.5t-126 37.5h-117v52h118q72 0 112.5 35.5t40.5 84.5q0 72 -47.5 113.5t-128.5 41.5q-98 0 -185 -93l-43 45q107 104 228 104q101 0 171 -56t70 -149q0 -50 -33 -91q-35 -41 -79 -55v-13q53 -13 94 -53q40 -40 40 -103
q0 -99 -68.5 -152.5t-194.5 -53.5t-239 108z" />
    <glyph glyph-name="four" unicode="4" horiz-adv-x="647" 
d="M477 0h-62v166h-370v52l354 482h78v-485h130v-49h-130v-166zM105 215h310v422z" />
    <glyph glyph-name="five" unicode="5" horiz-adv-x="579" 
d="M70 134q56 -52 94 -70q43 -21 107 -21q99 0 147 40t48 126q0 148 -190 147l-199 -1v344l409 1v-55l-344 -1v-233l138 1q111 1 182 -47q69 -47 69 -154q0 -108 -68 -166t-192 -58q-123 0 -240 104z" />
    <glyph glyph-name="six" unicode="6" horiz-adv-x="610" 
d="M109 74q-57 86 -57 233q0 406 275 406q71 0 120 -21q50 -20 101 -67l-42 -45q-49 46 -81 60q-37 17 -104 17q-105 0 -156 -91q-48 -89 -48 -270q70 156 222 156q97 0 160.5 -59t63.5 -157q0 -107 -67.5 -178t-174.5 -71q-155 0 -212 87zM125 228q2 -74 50.5 -130.5
t142.5 -56.5q81 0 130.5 54.5t49.5 136.5q0 74 -53 120.5t-130 48.5q-66 1 -128.5 -56t-61.5 -117z" />
    <glyph glyph-name="seven" unicode="7" horiz-adv-x="562" 
d="M53 0l392 641h-414v59h512l-405 -700h-85z" />
    <glyph glyph-name="eight" unicode="8" horiz-adv-x="600" 
d="M48 182q0 63 44.5 108t101.5 62v13q-49 19 -88 54q-40 36 -40 105q0 83 64 136t171 53q106 0 169.5 -53t63.5 -136q0 -71 -40 -105q-37 -33 -87 -54v-14q53 -14 99 -60.5t46 -108.5q0 -91 -66 -143t-186 -52q-119 0 -185.5 52.5t-66.5 142.5zM129 520q0 -62 50 -98
q49 -36 122 -40q76 5 123 43t47 95q0 62 -47 100.5t-123 38.5t-124 -39q-48 -38 -48 -100zM301 335q-78 -6 -133 -45q-56 -39 -56 -104q0 -67 50.5 -106t137.5 -39q89 0 138.5 39t49.5 106q0 64 -57 104q-56 39 -130 45z" />
    <glyph glyph-name="nine" unicode="9" horiz-adv-x="609" 
d="M97 125q53 -47 88 -64q41 -18 105 -18q104 0 155 91q49 91 49 270q-70 -156 -221 -156q-97 0 -161 59t-64 157q0 107 67.5 178t174.5 71q152 0 210 -88q59 -89 59 -232q0 -406 -275 -406q-68 0 -120 21t-109 72zM160 603q-47 -56 -47 -135q0 -74 53 -120.5t131 -48.5
q66 -1 128.5 56t61.5 117q-2 73 -50.5 130t-142.5 57q-87 0 -134 -56z" />
    <glyph glyph-name="colon" unicode=":" horiz-adv-x="266" 
d="M75 393q0 24 16 39t41 15t42 -15.5t17 -38.5q0 -22 -17 -36.5t-42 -14.5t-41 14.5t-16 36.5zM75 41q0 22 17 37.5t41 15.5t41 -15.5t17 -37.5t-17 -37t-41 -15q-25 0 -41.5 15t-16.5 37z" />
    <glyph glyph-name="semicolon" unicode=";" horiz-adv-x="268" 
d="M78 394q0 23 16 38t40 15q23 0 40 -15.5t17 -37.5t-17 -37t-40 -15q-24 0 -40 15t-16 37zM53 -145q85 55 97 138h-17q-23 0 -39 15t-16 37q0 21 16.5 37t39.5 16q27 0 43.5 -19t16.5 -51q0 -127 -128 -195z" />
    <glyph glyph-name="less" unicode="&#x3c;" horiz-adv-x="545" 
d="M495 625v-54l-393 -219l393 -220v-55l-473 275z" />
    <glyph glyph-name="equal" unicode="=" horiz-adv-x="476" 
d="M61 434h354v-47l-354 -2v49zM61 224h354v-49h-354v49z" />
    <glyph glyph-name="greater" unicode="&#x3e;" horiz-adv-x="545" 
d="M50 77v54l394 221l-393 219l-1 52l473 -271z" />
    <glyph glyph-name="question" unicode="?" horiz-adv-x="517" 
d="M264 213h-57v121q121 24 178.5 64t57.5 100q0 64 -58.5 110.5t-146.5 46.5q-47 0 -91 -17t-107 -59l-31 49q72 45 124.5 64t109.5 19q122 0 193 -61.5t71 -147.5q0 -78 -58.5 -125.5t-184.5 -73.5v-90zM181 40q0 21 15.5 36.5t36.5 15.5q22 0 37.5 -15.5t15.5 -36.5
q0 -22 -15 -37t-38 -15q-21 0 -36.5 15t-15.5 37z" />
    <glyph glyph-name="at" unicode="@" horiz-adv-x="1054" 
d="M848 -34q-52 0 -87 28t-48 81l-12 51q-41 -62 -85 -99q-44 -35 -117 -35q-97 0 -161 76t-64 187q0 110 64 186t161 76q75 0 116 -37q45 -39 81 -105v131h57v-383q0 -53 23 -81t66 -28q59 0 83 60.5t26 194.5q2 173 -126.5 287t-304.5 115q-81 0 -158.5 -34.5
t-134.5 -91.5t-91 -134t-33 -156q2 -107 54 -202q56 -99 146 -156q92 -59 195 -59q45 0 92 11q36 9 63 21l16 -49q-73 -31 -170 -33q-87 -2 -170.5 37.5t-145 104t-98 151t-35.5 174.5q3 129 64 229q64 107 171 172q106 63 235 65q130 1 241 -55t178 -160t65 -234
q-2 -142 -36 -221q-36 -85 -120 -85zM331 255q0 -90 51 -149.5t131 -60.5q76 -1 128.5 62.5t52.5 146.5t-52.5 146.5t-128.5 62.5q-78 -1 -130 -62.5t-52 -145.5z" />
    <glyph glyph-name="A" unicode="A" horiz-adv-x="712" 
d="M696 0h-68l-87 190h-367l-87 -190h-67l337 710zM352 592l-157 -348h325l-157 348h-11z" />
    <glyph glyph-name="B" unicode="B" horiz-adv-x="669" 
d="M96 0v700h258q99 0 173 -47q71 -45 71 -144q0 -56 -34 -90q-36 -37 -83 -52v-12q57 -18 99 -57q45 -41 45 -108q0 -99 -68 -143q-71 -47 -177 -47h-284zM162 646v-262h210q70 0 114.5 32.5t44.5 85.5q0 71 -47 107.5t-135 36.5h-187zM162 332v-278h211q184 0 184 144
q0 56 -51 95t-123 39h-221z" />
    <glyph glyph-name="C" unicode="C" horiz-adv-x="718" 
d="M50 350q0 87 50 172.5t132 139t167 51.5q169 -3 281 -109l-46 -46q-93 96 -233 99q-107 2 -195.5 -96.5t-88.5 -210.5t88.5 -210.5t195.5 -96.5q135 3 237 98l42 -45q-110 -106 -281 -109q-86 -2 -167.5 51t-131.5 138.5t-50 173.5z" />
    <glyph glyph-name="D" unicode="D" horiz-adv-x="758" 
d="M99 0v700h260q137 0 243 -106t106 -244t-106 -244t-243 -106h-260zM165 646v-592h193q116 0 199.5 90t83.5 206q0 117 -83.5 206.5t-199.5 89.5h-193z" />
    <glyph glyph-name="E" unicode="E" horiz-adv-x="634" 
d="M96 700h476v-55h-410v-264h410v-55h-410v-271h410v-55h-476v700z" />
    <glyph glyph-name="F" unicode="F" horiz-adv-x="624" 
d="M165 381h401v-55h-401v-326h-66v700h476v-55h-410v-264z" />
    <glyph glyph-name="G" unicode="G" horiz-adv-x="755" 
d="M50 350q0 88 49.5 173.5t130.5 138.5t167 51q165 -3 279 -106l-45 -48q-99 95 -233 98q-106 2 -193.5 -96.5t-87.5 -210.5t87.5 -210.5t193.5 -96.5q136 3 228 83v177h-291v55h351v-260q-59 -52 -134.5 -80.5t-154.5 -30.5q-86 -2 -167 51t-130.5 138.5t-49.5 173.5z" />
    <glyph glyph-name="H" unicode="H" horiz-adv-x="758" 
d="M589 323h-420v-323h-66v700h66v-321h420v321h66v-700h-66v323z" />
    <glyph glyph-name="I" unicode="I" horiz-adv-x="285" 
d="M112 700h62v-700h-62v700z" />
    <glyph glyph-name="J" unicode="J" horiz-adv-x="580" 
d="M332 270q0 -148 -67.5 -209t-226.5 -64v58q127 2 177.5 48t50.5 167v381h-228v49h505v-48h-211v-382z" />
    <glyph glyph-name="K" unicode="K" horiz-adv-x="652" 
d="M170 354v-354h-67v700h67v-324l345 323l80 1l-360 -334l381 -366h-82z" />
    <glyph glyph-name="L" unicode="L" horiz-adv-x="570" 
d="M99 700h66v-645h372v-55h-438v700z" />
    <glyph glyph-name="M" unicode="M" horiz-adv-x="996" 
d="M809 567l-293 -567h-37l-296 567l-52 -567h-65l87 700h16l329 -623l328 623h18l84 -700h-65z" />
    <glyph glyph-name="N" unicode="N" horiz-adv-x="776" 
d="M168 544v-544h-66v700l506 -537v537h66l-1 -700z" />
    <glyph glyph-name="O" unicode="O" horiz-adv-x="816" 
d="M50 350q0 89 51.5 173.5t135 137t171.5 52.5t171.5 -52.5t135 -137t51.5 -173.5q0 -90 -51.5 -174.5t-135 -136.5t-171.5 -52t-171.5 52t-135 136.5t-51.5 174.5zM116 350q0 -111 91.5 -209t200.5 -98q110 1 201 98t91 209t-91 209t-201 98q-109 0 -200.5 -98t-91.5 -209
z" />
    <glyph glyph-name="P" unicode="P" horiz-adv-x="620" 
d="M165 280v-280h-66v700h251q107 0 177 -49q69 -47 69 -157t-70 -162t-176 -52h-185zM165 646v-312h180q187 0 187 160q0 73 -47.5 112.5t-139.5 39.5h-180z" />
    <glyph glyph-name="Q" unicode="Q" horiz-adv-x="816" 
d="M674 -45l-53 -37l-70 105q-42 -20 -77 -28q-22 -5 -76 -7q-86 -2 -167.5 51t-131 138.5t-49.5 173.5q0 89 51.5 173.5t135 136.5t171.5 52t172 -51.5t135.5 -134.5t50.5 -170q-3 -185 -163 -306zM116 351q1 -112 89 -211t194 -96q67 2 122 25l-136 204l48 32l139 -205
q125 96 128 257q1 71 -40.5 141t-110.5 114.5t-141 44.5q-109 0 -200.5 -98t-91.5 -208z" />
    <glyph glyph-name="R" unicode="R" horiz-adv-x="668" 
d="M361 280h-196v-280h-66v700h254q100 0 171 -50q71 -48 71 -157q0 -161 -166 -207l193 -286h-81zM165 646v-312h183q90 0 136.5 40.5t46.5 118.5q0 75 -47.5 114t-135.5 39h-183z" />
    <glyph glyph-name="S" unicode="S" horiz-adv-x="639" 
d="M78 119q119 -74 242 -74q85 0 142 33q60 36 59 112q-1 64 -48.5 92.5t-169.5 45.5q-106 15 -173 53q-63 36 -63 126q0 80 66.5 142t180.5 62q81 0 132 -19q64 -23 135 -67l-32 -47l-10 8q-86 69 -211 69q-96 0 -147 -41.5t-51 -106.5q0 -56 49.5 -84t166.5 -43
q125 -16 182 -60t57 -127q0 -87 -69 -145.5t-186 -58.5q-163 0 -285 83z" />
    <glyph glyph-name="T" unicode="T" horiz-adv-x="609" 
d="M337 0h-65v642h-262v58h589v-58h-262v-642z" />
    <glyph glyph-name="U" unicode="U" horiz-adv-x="716" 
d="M75 700h66v-408q0 -122 56 -185.5t161 -63.5t161 63.5t56 185.5v408h66v-413q0 -140 -77.5 -220t-205.5 -80t-205.5 80t-77.5 220v413z" />
    <glyph glyph-name="V" unicode="V" horiz-adv-x="712" 
d="M348 0l-329 700h68l265 -577h11l267 577h67l-331 -700h-18z" />
    <glyph glyph-name="W" unicode="W" horiz-adv-x="961" 
d="M642 0l-162 572l-151 -572h-40l-252 700h61l205 -578l175 578h8l175 -578l205 578h62l-253 -700h-33z" />
    <glyph glyph-name="X" unicode="X" horiz-adv-x="667" 
d="M335 296l-230 -296h-73l278 348l-279 352h74l230 -299l231 299h73l-278 -352l278 -348h-73z" />
    <glyph glyph-name="Y" unicode="Y" horiz-adv-x="623" 
d="M345 0h-63v274l-257 426h63l226 -367l224 367h60l-253 -426v-274z" />
    <glyph glyph-name="Z" unicode="Z" horiz-adv-x="621" 
d="M569 55v-55h-526l430 644l-401 1v55h510l-428 -644z" />
    <glyph glyph-name="bracketleft" unicode="[" horiz-adv-x="383" 
d="M97 712h219v-51h-159v-795h159v-51h-219v897z" />
    <glyph glyph-name="backslash" unicode="\" horiz-adv-x="430" 
d="M61 700h60l251 -700h-59z" />
    <glyph glyph-name="bracketright" unicode="]" horiz-adv-x="380" 
d="M65 -134h159v795h-159v51h219v-897h-219v51z" />
    <glyph glyph-name="asciicircum" unicode="^" horiz-adv-x="358" 
d="M182 712l-99 -139h-45l133 180h22l130 -180h-48z" />
    <glyph glyph-name="underscore" unicode="_" horiz-adv-x="514" 
d="M44 -12h429v-64h-429v64z" />
    <glyph glyph-name="grave" unicode="`" horiz-adv-x="237" 
d="M34 688l23 36l6 8l139 -151h-58z" />
    <glyph glyph-name="a" unicode="a" horiz-adv-x="567" 
d="M435 103q-44 -60 -92.5 -87t-112.5 -27q-77 0 -127 44q-49 45 -49 119q0 77 53 118t151 41q77 0 176 -40q0 108 -31.5 147.5t-122.5 48.5q-10 2 -27 2q-23 0 -55 -5l-36 -6l-52 -8l-13 50q93 24 163 21l22 -1q129 -6 171.5 -54.5t42.5 -184.5v-281h-61v103zM274 269
q-75 0 -116.5 -30t-41.5 -87q0 -54 37 -86t101 -32q54 0 102 30q50 33 78 72v93q-60 25 -89 31q-33 9 -71 9z" />
    <glyph glyph-name="b" unicode="b" horiz-adv-x="633" 
d="M238 17q-38 27 -82 95v-112h-62v738h65l-3 -370q31 71 78 110q47 38 120 38q98 0 164.5 -76t66.5 -187t-66.5 -187.5t-164.5 -76.5q-76 0 -116 28zM156 252q0 -84 53.5 -147t130.5 -63q81 0 132.5 60t51.5 151q0 85 -53 146.5t-131 61.5q-79 0 -131.5 -62t-52.5 -147z
" />
    <glyph glyph-name="c" unicode="c" horiz-adv-x="541" 
d="M48 254q0 102 78 185t177 81q117 -1 200 -79l-39 -41q-61 65 -152 65q-83 0 -143 -62.5t-60 -148.5q0 -87 60 -148.5t143 -61.5q39 0 80 17.5t72 46.5l39 -40q-38 -36 -92 -57t-106 -22q-99 -1 -178 81.5t-79 183.5z" />
    <glyph glyph-name="d" unicode="d" horiz-adv-x="633" 
d="M478 110q-35 -51 -57 -73t-56 -34t-92 -14q-94 -3 -160 76.5t-65 187.5q1 111 67 187t164 76q71 0 118 -38q47 -36 80 -110v370h62v-738h-61v110zM110 253q0 -91 51.5 -151t132.5 -60q77 0 130.5 63t53.5 147q0 83 -53.5 146t-130.5 63q-79 0 -131.5 -61.5t-52.5 -146.5z
" />
    <glyph glyph-name="e" unicode="e" horiz-adv-x="600" 
d="M318 41q94 1 175 60l34 -42q-36 -32 -90 -49q-57 -19 -129 -21q-100 -1 -179.5 81t-80.5 184q-1 101 78.5 184t178.5 82q112 -2 181.5 -78.5t70.5 -206.5h-446q3 -77 67 -136.5t140 -57.5zM493 273q-3 82 -55.5 140t-128.5 58q-78 0 -135 -59t-60 -139h379z" />
    <glyph glyph-name="f" unicode="f" horiz-adv-x="413" 
d="M313 707q-68 0 -98 -40.5t-30 -130.5v-34h199v-48h-199v-454h-61v454h-94v48h94v39q0 112 44 166t137 54q47 0 92 -21l-10 -46q-35 13 -74 13z" />
    <glyph glyph-name="g" unicode="g" horiz-adv-x="633" 
d="M185 -233q-44 13 -51 16q-5 1 -36 19v60l15 -6q71 -28 99 -31q31 -9 75 -9q190 0 190 210v115q-33 -74 -80 -110q-46 -37 -118 -37q-100 0 -165.5 75.5t-65.5 186.5t66.5 187.5t164.5 76.5q79 0 116 -24q42 -29 79 -83v96h65v-475q0 -277 -270 -277q-44 0 -84 10z
M110 256q0 -85 52.5 -146.5t131.5 -61.5q77 0 130.5 63t53.5 146q0 84 -53.5 147t-130.5 63q-81 0 -132.5 -60t-51.5 -151z" />
    <glyph glyph-name="h" unicode="h" horiz-adv-x="602" 
d="M468 273q0 88 -41.5 138t-112.5 50q-67 0 -111.5 -57.5t-44.5 -137.5v-266h-62v738h62v-327q56 104 175 104q92 0 144.5 -57.5t52.5 -164.5v-293h-62v273z" />
    <glyph glyph-name="i" unicode="i" horiz-adv-x="311" 
d="M103 683q0 19 15 32t37 13t37.5 -13t15.5 -32t-15.5 -32.5t-37.5 -13.5t-37 13.5t-15 32.5zM124 504h57v-504h-57v504z" />
    <glyph glyph-name="j" unicode="j" horiz-adv-x="380" 
d="M189 683q0 19 14 32t34 13q19 0 33 -13t14 -32t-14 -32t-33 -13q-20 0 -34 13t-14 32zM43 -231q-12 3 -41 18v51q40 -20 77 -20q69 0 99 40t30 130v518h62v-523q0 -111 -45 -165t-139 -54q-25 0 -43 5z" />
    <glyph glyph-name="k" unicode="k" horiz-adv-x="554" 
d="M159 738v-738h-62v738h62zM513 0h-82l-272 266l274 238h70l-269 -236z" />
    <glyph glyph-name="l" unicode="l" horiz-adv-x="281" 
d="M112 738l58 1v-738l-58 -1v738z" />
    <glyph glyph-name="m" unicode="m" horiz-adv-x="918" 
d="M785 275q0 87 -39 138.5t-103 51.5q-62 0 -101.5 -53.5t-39.5 -138.5v-273h-61v275q0 87 -38 138.5t-103 51.5q-62 0 -102 -61.5t-40 -148.5v-255h-61v509h61l-1 -130q33 78 68.5 109.5t92.5 31.5q56 0 94 -31.5t64 -100.5q25 54 76 93t110 39q79 0 131 -55
q53 -56 53 -169v-296h-61v275z" />
    <glyph glyph-name="n" unicode="n" 
d="M471 275q0 89 -41 139.5t-113 50.5q-67 0 -111.5 -58t-44.5 -139v-268h-62v509h62v-118q36 70 75.5 99.5t99.5 29.5q92 0 144.5 -58.5t52.5 -165.5v-296h-62v275z" />
    <glyph glyph-name="o" unicode="o" horiz-adv-x="622" 
d="M48 254q0 101 81 183.5t182 82.5t182 -82.5t81 -183.5t-81 -183t-182 -82t-182 82t-81 183zM110 254q0 -85 60 -148.5t141 -62.5q83 1 142.5 63t59.5 148t-59.5 148t-142.5 63q-81 1 -141 -62.5t-60 -148.5z" />
    <glyph glyph-name="p" unicode="p" horiz-adv-x="633" 
d="M234 31q-46 39 -78 109v-344h-62v713h61v-114q41 66 82 96q41 29 117 29q98 0 164.5 -76.5t66.5 -187.5t-66.5 -187t-164.5 -76q-73 0 -120 38zM156 257q0 -85 53 -147.5t131 -62.5t131 62t53 147q0 90 -51.5 150.5t-132.5 60.5q-77 0 -130.5 -63t-53.5 -147z" />
    <glyph glyph-name="q" unicode="q" horiz-adv-x="633" 
d="M477 141q-31 -71 -80 -111q-46 -37 -118 -37q-98 0 -164.5 76t-66.5 187t66.5 187.5t164.5 76.5q76 0 116 -28q41 -29 83 -93v110h61v-713h-62v345zM110 256q0 -85 52.5 -147t131.5 -62q77 0 130.5 63t53.5 147t-53.5 147t-130.5 63q-81 0 -132.5 -60.5t-51.5 -150.5z
" />
    <glyph glyph-name="r" unicode="r" horiz-adv-x="414" 
d="M162 0h-63v509h63v-146q40 80 87 119q45 36 135 38v-61q-93 -1 -157.5 -60t-64.5 -137v-262z" />
    <glyph glyph-name="s" unicode="s" horiz-adv-x="508" 
d="M68 99q99 -63 187 -63q70 0 110 27.5t40 76.5q0 36 -37 57.5t-116 32.5q-112 17 -152.5 43.5t-41.5 97.5q-1 68 51.5 108.5t139.5 40.5q109 0 207 -58l-29 -42q-64 33 -90 41q-37 12 -84 12q-64 0 -100.5 -26t-36.5 -73q5 -35 16 -51q13 -16 39 -23q20 -5 97 -17
q101 -15 148.5 -48t47.5 -91q0 -70 -56 -112.5t-149 -42.5q-119 0 -216 65z" />
    <glyph glyph-name="t" unicode="t" horiz-adv-x="438" 
d="M114 458h-68v48h68v122h61v-122h205v-48h-205v-243q0 -90 30 -131t98 -41q46 0 83 19l15 -48q-45 -25 -106 -25q-93 0 -137 54t-44 166v249z" />
    <glyph glyph-name="u" unicode="u" 
d="M444 133q-43 -81 -80 -112q-38 -32 -95 -32q-92 0 -144.5 58.5t-52.5 165.5v296h62v-275q0 -89 41 -139.5t113 -50.5q66 0 111 58t45 139v268h62v-509h-62v133z" />
    <glyph glyph-name="v" unicode="v" horiz-adv-x="513" 
d="M501 509l-245 -499l-245 499h60l178 -387v-34l193 421h59zM256 10l6 -11l-5 3l-6 -3z" />
    <glyph glyph-name="w" unicode="w" horiz-adv-x="733" 
d="M527 0l-160 402l-162 -402h-25l-158 509h69l111 -392l162 392h5l163 -392l111 392h68l-159 -509h-25z" />
    <glyph glyph-name="x" unicode="x" horiz-adv-x="484" 
d="M244 220l-163 -220h-62l182 254l-182 255h62l163 -221l159 221h61l-177 -255l177 -254h-60z" />
    <glyph glyph-name="y" unicode="y" horiz-adv-x="516" 
d="M123 -204l102 227l-213 486h57l184 -407h11l180 407h60l-315 -713h-66z" />
    <glyph glyph-name="z" unicode="z" horiz-adv-x="488" 
d="M355 455h-303v54h393l-315 -455h325v-54h-416z" />
    <glyph glyph-name="braceleft" unicode="{" horiz-adv-x="450" 
d="M142 113q0 39 -37 67q-31 25 -69 37v61q35 11 68 38q38 32 38 69v81q0 244 258 247v-56q-80 -3 -136.5 -51t-56.5 -140v-81q0 -47 -26 -82t-68 -46v-16q42 -11 68 -46t26 -82v-80q0 -93 56.5 -141t136.5 -51v-56q-94 1 -175 52q-83 51 -83 196v80z" />
    <glyph glyph-name="bar" unicode="|" horiz-adv-x="257" 
d="M96 799h65v-898h-65v898z" />
    <glyph glyph-name="braceright" unicode="}" horiz-adv-x="450" 
d="M308 33q0 -245 -258 -248v56q193 5 193 192v80q0 45 26.5 80t68.5 48v16q-42 13 -68.5 48t-26.5 80v81q0 186 -193 191v56q258 -3 258 -247v-81q0 -39 28.5 -66.5t77.5 -38.5v-63q-38 -12 -69 -37q-37 -28 -37 -67v-80z" />
    <glyph glyph-name="asciitilde" unicode="~" horiz-adv-x="542" 
d="M271 363q-45 40 -75 40q-32 0 -45.5 -13t-25.5 -53l-41 10l5 16q27 85 101 85q24 0 42 -8t45 -30q31 -26 41 -32q12 -6 31 -6q27 0 44 15.5t35 55.5l34 -18q-24 -56 -47 -77t-61 -21q-25 0 -42.5 7.5t-40.5 28.5z" />
    <glyph glyph-name="exclamdown" unicode="&#xa1;" horiz-adv-x="340" 
d="M113 335q0 22 16.5 36.5t40.5 14.5t41 -14.5t17 -36.5q0 -21 -17 -36t-41 -15t-40.5 15t-16.5 36zM137 133h66l10 -458h-86z" />
    <glyph glyph-name="cent" unicode="&#xa2;" horiz-adv-x="537" 
d="M278 -152l-32 2l20 145q-95 18 -155.5 94.5t-62.5 170.5q-1 64 38 126.5t101 99t124 32.5l27 -2l15 113l32 -4l-16 -114q74 -15 132 -73l-34 -40q-27 26 -49.5 38.5t-56.5 20.5l-57 -410q90 -1 163 60l34 -36q-45 -43 -92 -61.5t-112 -18.5zM330 462q-90 5 -156.5 -58
t-64.5 -150q1 -73 49.5 -131.5t114.5 -70.5z" />
    <glyph glyph-name="sterling" unicode="&#xa3;" horiz-adv-x="530" 
d="M355 638q-50 19 -90 19q-70 0 -106 -43q-35 -44 -35 -96q0 -28 13 -55q3 -5 46 -84l19 -34h223v-26h-218q3 -27 3 -42q0 -37 -8 -67q-2 -10 -30 -105l-15 -50h324l-1 -55h-405q0 16 3 25l19 49q29 74 40 118q12 42 12 82q0 22 -4 45h-91l1 26h84l-25 41q-35 57 -42 76
q-11 30 -11 66q0 78 53.5 131.5t146.5 53.5q100 0 220 -74l-33 -50q-45 31 -93 49z" />
    <glyph glyph-name="currency" unicode="&#xa4;" horiz-adv-x="524" 
d="M432 342q0 -52 -37 -105l81 -81l-28 -30l-80 81q-52 -34 -106 -34q-51 0 -106 35l-81 -82l-28 30l81 81q-35 48 -35 105q0 59 34 105l-80 82l29 28l80 -80q53 35 106 35q56 0 105 -36l84 81l28 -28l-85 -83q38 -46 38 -104zM135 342q0 -55 35.5 -92t91.5 -37q55 0 91 37
q36 38 36 92q0 55 -36.5 92.5t-90.5 37.5q-56 0 -91.5 -36.5t-35.5 -93.5z" />
    <glyph glyph-name="yen" unicode="&#xa5;" horiz-adv-x="641" 
d="M570 365v-39h-180l-40 -51v-82h220v-39h-220v-154h-63v154h-216v39h216v82l-34 51h-182v39h160l-215 335h65l238 -366l236 366h67l-216 -335h164z" />
    <glyph glyph-name="brokenbar" unicode="&#xa6;" horiz-adv-x="259" 
d="M102 772h55v-344h-55v344zM102 303h55v-391h-55v391z" />
    <glyph glyph-name="section" unicode="&#xa7;" horiz-adv-x="634" 
d="M79 -150q50 -32 110 -51q65 -22 126 -22q86 0 142 32q59 35 59 112q0 60 -49.5 90.5t-167.5 46.5q-112 15 -175 52t-63 124q0 83 72 146q-72 48 -72 128q-1 77 66 140t180 63q77 0 135 -19q63 -20 128 -60l-31 -50q-108 73 -217 73q-93 0 -146 -42.5t-51 -98.5
q2 -66 45.5 -90t171.5 -42q115 -17 177 -58q61 -40 61 -128q0 -38 -17.5 -77t-47.5 -65q65 -52 65 -131q0 -90 -67.5 -146t-187.5 -56q-81 0 -144.5 18.5t-131.5 62.5zM193 353q-31 -18 -50 -48.5t-18 -62.5q3 -66 45.5 -89.5t171.5 -42.5q56 -8 81 -17l29 -11q27 11 46 43
t18 68q-1 63 -47.5 90t-169.5 47q-53 10 -106 23z" />
    <glyph glyph-name="dieresis" unicode="&#xa8;" horiz-adv-x="396" 
d="M56 676q0 19 12 32.5t28 13.5t28 -13.5t12 -32.5t-11.5 -32t-28.5 -13t-28.5 13t-11.5 32zM260 676q0 19 12 32.5t28 13.5t28 -13.5t12 -32.5t-11.5 -32t-28.5 -13t-28.5 13t-11.5 32z" />
    <glyph glyph-name="copyright" unicode="&#xa9;" horiz-adv-x="822" 
d="M48 350q0 137 112 250t249 113q153 -1 254 -109t101 -254t-100 -254t-253 -109q-91 0 -175.5 51.5t-136 136t-51.5 175.5zM65 350q0 -133 107.5 -240t239.5 -107q145 0 241.5 104.5t96.5 242.5q0 136 -96.5 241t-241.5 106q-132 0 -239.5 -107.5t-107.5 -239.5zM248 350
q0 68 50 119.5t117 51.5q66 0 124 -49l-22 -23q-41 41 -99 41q-54 0 -94.5 -42t-40.5 -98q0 -59 39 -100q39 -40 96 -40q54 0 99 40l22 -22q-52 -49 -125 -49q-67 0 -116.5 51t-49.5 120z" />
    <glyph glyph-name="ordfeminine" unicode="&#xaa;" horiz-adv-x="395" 
d="M308 443q-62 -80 -140 -80q-51 0 -82.5 29t-31.5 77q0 50 34 76.5t98 26.5q53 0 121 -28q0 75 -21.5 102t-83.5 36h-18q-14 0 -38 -2l-27 -5l-29 -5l-8 28q68 16 105 14l16 -1q83 -5 111 -37.5t28 -119.5v-183h-34v72zM197 549q-51 0 -79.5 -21t-28.5 -59q0 -37 26 -59.5
t69 -22.5q38 0 70 21q35 24 53 49v65q-71 27 -110 27z" />
    <glyph glyph-name="guillemotleft" unicode="&#xab;" horiz-adv-x="538" 
d="M31 251l199 230l41 -26l-170 -201l174 -201l-45 -27zM249 250l199 230l41 -26l-170 -201l174 -201l-45 -27z" />
    <glyph glyph-name="logicalnot" unicode="&#xac;" horiz-adv-x="517" 
d="M413 293h-363v49h411v-281h-48v232z" />
    <glyph glyph-name="uni00AD" unicode="&#xad;" horiz-adv-x="407" 
d="M48 315h307v-61h-307v61z" />
    <glyph glyph-name="registered" unicode="&#xae;" horiz-adv-x="822" 
d="M48 350q0 89 51.5 173.5t136 137t175.5 52.5q89 0 173.5 -52.5t137 -137t52.5 -173.5q0 -91 -52.5 -175.5t-137 -136t-173.5 -51.5q-91 0 -175.5 51.5t-136 136t-51.5 175.5zM64 350q0 -132 107.5 -239.5t239.5 -107.5t239.5 107.5t107.5 239.5t-107.5 239.5
t-239.5 107.5t-239.5 -107.5t-107.5 -239.5zM424 320h-99v-135h-24v328h117q45 0 80 -23q31 -22 31 -73q0 -75 -81 -96l91 -136h-29zM325 494v-157h90q91 0 91 80q0 77 -91 77h-90z" />
    <glyph glyph-name="overscore" unicode="&#xaf;" horiz-adv-x="373" 
d="M50 713h273v-57h-273v57z" />
    <glyph glyph-name="degree" unicode="&#xb0;" horiz-adv-x="400" 
d="M48 560q0 63 44 107t107 44t108 -44t45 -107q0 -62 -45 -107t-108 -45t-107 44t-44 108zM89 560q0 -47 32 -79t78 -32q45 0 77 32q33 33 33 79q0 43 -33 76t-77 33q-45 0 -78 -33q-32 -32 -32 -76z" />
    <glyph glyph-name="plusminus" unicode="&#xb1;" horiz-adv-x="559" 
d="M306 278h-50v170h-171v50h171v168h50v-168h171v-50h-171v-170zM81 124h407v-43h-407v43z" />
    <glyph glyph-name="uni00B3" unicode="&#xb3;" horiz-adv-x="270" 
d="M38 542q44 -41 93 -41q97 0 97 76q0 30 -24 47.5t-63 17.5h-50v15h50q35 0 56 17t21 43q0 35 -24 55.5t-63 20.5q-46 0 -87 -41l-13 14q47 44 100 44q47 0 77.5 -25t30.5 -66q0 -23 -14 -39q-17 -18 -58 -32q46 -11 65 -30q17 -15 17 -44q0 -43 -31 -67t-87 -24
q-54 0 -106 46z" />
    <glyph glyph-name="acute" unicode="&#xb4;" horiz-adv-x="260" 
d="M58 581l139 151l6 -8l23 -36l-110 -107h-58z" />
    <glyph glyph-name="uni00B5" unicode="&#xb5;" horiz-adv-x="621" 
d="M456 116l-25 -32l-30 -38q-43 -53 -116 -53q-79 0 -124 89v-286h-62v713h62v-272q0 -92 36 -141t108 -49q66 0 110.5 62.5t44.5 147.5v252h62v-505h-64z" />
    <glyph glyph-name="paragraph" unicode="&#xb6;" horiz-adv-x="768" 
d="M591 -238h-53v882h-172v-881h-53v480q-118 0 -193 65.5t-75 168.5q0 97 67 160t161 63h452v-56h-134v-882z" />
    <glyph glyph-name="middot" unicode="&#xb7;" horiz-adv-x="235" 
d="M53 343q0 26 18.5 45t45.5 19t46 -19t19 -45q0 -27 -19 -46t-46 -19t-45.5 19t-18.5 46z" />
    <glyph glyph-name="cedilla" unicode="&#xb8;" horiz-adv-x="283" 
d="M59 -188q43 -29 88 -29q60 0 60 54q0 61 -78 61h-47l19 91l25 -2l-8 -60q123 0 123 -90q0 -39 -26.5 -62.5t-71.5 -23.5q-47 0 -99 41z" />
    <glyph glyph-name="ordmasculine" unicode="&#xba;" horiz-adv-x="335" 
d="M37 545q0 80 34 124t97 44q62 0 96 -44t34 -124t-34 -124t-96 -44q-63 0 -97 44t-34 124zM76 545q0 -62 24 -97t68 -35t67.5 35t23.5 97t-23.5 97t-67.5 35t-68 -35t-24 -97z" />
    <glyph glyph-name="guillemotright" unicode="&#xbb;" horiz-adv-x="538" 
d="M258 57l174 201l-170 201l41 26l199 -230l-199 -225zM40 56l174 201l-170 201l41 26l199 -230l-199 -225z" />
    <glyph glyph-name="onequarter" unicode="&#xbc;" horiz-adv-x="646" 
d="M127 -1l349 700h56l-348 -700h-57zM124 648l-47 -33v32l48 36h33v-314h-34v279zM533 0h-32v73h-163v26l157 215h38v-215h57v-26h-57v-73zM372 99h129v178z" />
    <glyph glyph-name="onehalf" unicode="&#xbd;" horiz-adv-x="680" 
d="M127 -1l349 700h56l-348 -700h-57zM124 648l-47 -33v32l48 36h33v-314h-34v279zM589 199q16 19 16 41q0 23 -19 37.5t-49 14.5q-49 0 -89 -42l-21 22q51 50 110 50q44 0 72.5 -22.5t28.5 -56.5q0 -32 -25 -60l-130 -152h159v-29h-220z" />
    <glyph glyph-name="threequarters" unicode="&#xbe;" horiz-adv-x="694" 
d="M73 456q45 -42 87 -42q85 0 85 66q0 25 -21 41t-54 16h-54v27h54q30 0 48 14.5t18 36.5q0 31 -20.5 48.5t-55.5 17.5q-40 0 -81 -42l-22 23q51 48 103 48q47 0 78 -25.5t31 -67.5q0 -24 -15 -42q-14 -16 -39 -26q30 -9 45 -24q18 -18 18 -48q0 -45 -31.5 -69t-86.5 -24
q-52 0 -108 50zM127 -1l349 700h56l-348 -700h-57zM583 0h-32v73h-163v26l157 215h38v-215h57v-26h-57v-73zM422 99h129v178z" />
    <glyph glyph-name="questiondown" unicode="&#xbf;" horiz-adv-x="517" 
d="M231 335q0 22 15 37t38 15q22 0 37 -15t15 -37q0 -21 -15.5 -36.5t-36.5 -15.5q-22 0 -37.5 15.5t-15.5 36.5zM10 -127q0 78 58.5 125.5t184.5 73.5v90h57v-120q-236 -46 -236 -165q0 -64 58.5 -110.5t146.5 -46.5q47 0 92 17t107 58l30 -48q-68 -45 -121.5 -64
t-112.5 -19q-122 0 -193 61.5t-71 147.5z" />
    <glyph glyph-name="Agrave" unicode="&#xc0;" horiz-adv-x="712" 
d="M240 893l33 33l131 -138h-48zM696 0h-68l-87 189h-367l-87 -189h-67l337 707zM352 590l-157 -347h325l-157 347h-11z" />
    <glyph glyph-name="Aacute" unicode="&#xc1;" horiz-adv-x="712" 
d="M321 783l134 140l28 -42l-119 -108zM696 0h-68l-87 189h-367l-87 -189h-67l337 707zM352 590l-157 -347h325l-157 347h-11z" />
    <glyph glyph-name="Acircumflex" unicode="&#xc2;" horiz-adv-x="712" 
d="M361 911l-96 -130h-44l130 168h21l126 -168h-47zM696 0h-68l-87 189h-367l-87 -189h-67l337 706zM352 589l-157 -346h325l-157 346h-11z" />
    <glyph glyph-name="Atilde" unicode="&#xc3;" horiz-adv-x="712" 
d="M357 820q-45 36 -74 36q-30 0 -43.5 -12t-25.5 -47l-40 9l4 14q22 76 99 76q24 0 41 -7t45 -27q30 -23 42 -28.5t29 -5.5q26 0 43 13.5t34 49.5l33 -15q-23 -51 -45.5 -69.5t-59.5 -18.5q-41 0 -82 32zM696 0h-68l-87 189h-367l-87 -189h-67l337 707zM352 590l-157 -347
h325l-157 347h-11z" />
    <glyph glyph-name="Adieresis" unicode="&#xc4;" horiz-adv-x="712" 
d="M220 874q0 16 11.5 27.5t27.5 11.5t27.5 -11.5t11.5 -27.5t-11.5 -27t-27.5 -11t-27.5 11t-11.5 27zM418 874q0 16 11.5 27.5t27.5 11.5t27.5 -11.5t11.5 -27.5t-11.5 -27t-27.5 -11t-27.5 11t-11.5 27zM696 0h-68l-87 189h-367l-87 -189h-67l337 707zM352 590l-157 -347
h325l-157 347h-11z" />
    <glyph glyph-name="Aring" unicode="&#xc5;" horiz-adv-x="712" 
d="M256 885q0 45 28.5 74t72.5 29t72.5 -29t28.5 -74t-28.5 -74t-72.5 -29t-72.5 29t-28.5 74zM285 885q0 -32 20.5 -55t51.5 -23q32 0 52 22.5t20 55.5t-20 55t-51 22q-32 0 -52.5 -22t-20.5 -55zM696 0h-68l-87 189h-367l-87 -189h-67l337 706zM352 589l-157 -346h325
l-157 346h-11z" />
    <glyph glyph-name="AE" unicode="&#xc6;" horiz-adv-x="973" 
d="M436 190h-241l-111 -190h-72l403 700h496v-55h-404v-264h382v-55h-382v-271h404v-55h-475v190zM222 244h214v381z" />
    <glyph glyph-name="Ccedilla" unicode="&#xc7;" horiz-adv-x="718" 
d="M383 -81q116 0 116 -86q0 -37 -25.5 -59.5t-67.5 -22.5q-43 0 -93 39l15 21q37 -30 83 -30q57 0 57 52q0 58 -74 58h-45l21 102q-122 9 -221 122.5t-99 236.5q0 87 50 171.5t131.5 137.5t167.5 52q168 -3 279 -107l-42 -45q-97 93 -236 96q-107 2 -195 -95.5t-88 -209.5
t88 -209.5t195 -95.5q73 2 128.5 24.5t107.5 74.5l42 -45q-113 -109 -285 -110z" />
    <glyph glyph-name="Egrave" unicode="&#xc8;" horiz-adv-x="634" 
d="M234 893l33 33l132 -138h-49zM96 696h476v-55h-410v-262h410v-55h-410v-269h410v-55h-476v696z" />
    <glyph glyph-name="Eacute" unicode="&#xc9;" horiz-adv-x="634" 
d="M276 783l135 140l29 -42l-121 -108zM96 696h476v-55h-410v-262h410v-55h-410v-269h410v-55h-476v696z" />
    <glyph glyph-name="Ecircumflex" unicode="&#xca;" horiz-adv-x="618" 
d="M354 911l-97 -130h-45l131 168h21l128 -168h-48zM96 696h476v-55h-410v-262h410v-55h-410v-269h410v-55h-476v696z" />
    <glyph glyph-name="Edieresis" unicode="&#xcb;" horiz-adv-x="634" 
d="M193 874q0 16 11.5 27.5t27.5 11.5t28 -11.5t12 -27.5t-11.5 -27t-28.5 -11q-16 0 -27.5 11t-11.5 27zM392 874q0 16 12 27.5t28 11.5t27.5 -11.5t11.5 -27.5t-11.5 -27t-27.5 -11q-17 0 -28.5 11t-11.5 27zM96 696h476v-54h-410v-263h410v-55h-410v-269h410v-55h-476
v696z" />
    <glyph glyph-name="Igrave" unicode="&#xcc;" horiz-adv-x="306" 
d="M12 893l34 33l139 -138h-50zM112 700h62v-700h-62v700z" />
    <glyph glyph-name="Iacute" unicode="&#xcd;" horiz-adv-x="299" 
d="M68 783l143 140l30 -42l-127 -108zM112 700h62v-700h-62v700z" />
    <glyph glyph-name="Icircumflex" unicode="&#xce;" horiz-adv-x="300" 
d="M150 907l-99 -130h-45l133 168h22l130 -168h-48zM112 700h62v-700h-62v700z" />
    <glyph glyph-name="Idieresis" unicode="&#xcf;" horiz-adv-x="299" 
d="M-3 874q0 16 12 27.5t28 11.5t28 -11.5t12 -27.5t-11.5 -27t-28.5 -11t-28.5 11t-11.5 27zM201 874q0 16 12 27.5t28 11.5t28 -11.5t12 -27.5t-11.5 -27t-28.5 -11t-28.5 11t-11.5 27zM112 700h62v-700h-62v700z" />
    <glyph glyph-name="Eth" unicode="&#xd0;" horiz-adv-x="800" 
d="M144 0v329h-123v52h123v319h258q137 0 242.5 -106t105.5 -244t-105.5 -244t-242.5 -106h-258zM209 646v-265l188 2v-54h-188v-275h192q115 0 199 90t84 206t-84 206t-199 90h-192z" />
    <glyph glyph-name="Ntilde" unicode="&#xd1;" horiz-adv-x="776" 
d="M378 820q-45 36 -73 36q-30 0 -44 -11.5t-26 -47.5l-40 9l4 14q22 76 100 76q41 0 85 -34q31 -23 42.5 -28.5t29.5 -5.5q27 0 43.5 13.5t33.5 49.5l34 -15q-23 -50 -46 -69t-60 -19q-43 0 -83 32zM168 544v-544h-66v700l506 -537v537h66l-1 -700z" />
    <glyph glyph-name="Ograve" unicode="&#xd2;" horiz-adv-x="816" 
d="M312 893l33 33l130 -138h-48zM50 348q0 89 51.5 173t135 136.5t171.5 52.5t171.5 -52.5t135 -136.5t51.5 -173q0 -90 -51.5 -174t-135 -135.5t-171.5 -51.5t-171.5 51.5t-135 135.5t-51.5 174zM116 348q0 -111 91.5 -208t200.5 -97q72 0 140.5 45.5t110 116.5t41.5 143
q0 110 -91.5 208t-200.5 98t-200.5 -98t-91.5 -208z" />
    <glyph glyph-name="Oacute" unicode="&#xd3;" horiz-adv-x="816" 
d="M332 783l134 140l28 -42l-119 -108zM50 348q0 89 51.5 173t135 136.5t171.5 52.5t171.5 -52.5t135 -136.5t51.5 -173q0 -90 -51.5 -174t-135 -135.5t-171.5 -51.5t-171.5 51.5t-135 135.5t-51.5 174zM116 348q0 -111 91.5 -208t200.5 -97q72 0 140.5 45.5t110 116.5
t41.5 143q0 110 -91.5 208t-200.5 98t-200.5 -98t-91.5 -208z" />
    <glyph glyph-name="Ocircumflex" unicode="&#xd4;" horiz-adv-x="816" 
d="M412 911l-96 -130h-44l130 168h21l126 -168h-47zM50 348q0 136 111.5 248.5t246.5 112.5t246.5 -112.5t111.5 -248.5q0 -90 -51.5 -174t-135 -135.5t-171.5 -51.5t-171.5 51.5t-135 135.5t-51.5 174zM116 348q0 -111 91.5 -208t200.5 -97q72 0 140.5 45.5t110 116.5
t41.5 143t-41.5 143t-110 116.5t-140.5 45.5q-109 0 -200.5 -97t-91.5 -208z" />
    <glyph glyph-name="Otilde" unicode="&#xd5;" horiz-adv-x="816" 
d="M397 820q-45 36 -73 36q-30 0 -43.5 -12t-25.5 -47l-40 9l4 14q22 76 99 76q25 0 42 -7t43 -27q35 -25 42 -29q12 -5 29 -5q27 0 43.5 13.5t34.5 49.5l33 -15q-23 -50 -46 -69t-60 -19q-42 0 -82 32zM50 348q0 89 51.5 173.5t135 136.5t171.5 52t171.5 -52t135 -136.5
t51.5 -173.5q0 -90 -51.5 -174t-135 -135.5t-171.5 -51.5t-171.5 51.5t-135 135.5t-51.5 174zM116 348q0 -111 91.5 -208t200.5 -97q72 0 140.5 45.5t110 116.5t41.5 143q0 112 -91 208.5t-201 97.5q-109 0 -200.5 -97.5t-91.5 -208.5z" />
    <glyph glyph-name="Odieresis" unicode="&#xd6;" horiz-adv-x="816" 
d="M262 874q0 16 11.5 27.5t27.5 11.5t27.5 -11.5t11.5 -27.5t-11.5 -27t-27.5 -11t-27.5 11t-11.5 27zM460 874q0 16 11.5 27.5t27.5 11.5t27 -11.5t11 -27.5t-11 -27t-27 -11t-27.5 11t-11.5 27zM50 348q0 89 51.5 173t135 136.5t171.5 52.5t171.5 -52.5t135 -136.5
t51.5 -173q0 -90 -51.5 -174t-135 -135.5t-171.5 -51.5t-171.5 51.5t-135 135.5t-51.5 174zM116 348q0 -111 91.5 -208t200.5 -97q72 0 140.5 45.5t110 116.5t41.5 143q0 110 -91.5 208t-200.5 98t-200.5 -98t-91.5 -208z" />
    <glyph glyph-name="multiply" unicode="&#xd7;" horiz-adv-x="413" 
d="M209 267l-124 -123l-35 36l123 123l-123 123l36 35l123 -122l122 121l35 -35l-122 -122l122 -122l-35 -36z" />
    <glyph glyph-name="Oslash" unicode="&#xd8;" horiz-adv-x="816" 
d="M217 -49l-37 18l39 74q-80 54 -123.5 136.5t-45.5 179.5q-1 86 49 169t131.5 134.5t166.5 49.5q83 -2 155 -30l33 63l6 -2l34 -7l-38 -73q71 -46 127 -126q49 -71 52 -198q1 -86 -49.5 -169t-132.5 -133.5t-166 -48.5q-97 2 -163 36zM116 362q3 -102 39 -159
q41 -62 94 -105l277 531q-66 25 -127 27q-105 2 -195 -93.5t-88 -200.5zM281 75q62 -29 138 -31q105 -3 194 94t87 205q-2 100 -43 159q-45 65 -98 106z" />
    <glyph glyph-name="Ugrave" unicode="&#xd9;" horiz-adv-x="716" 
d="M240 893l33 33l131 -138h-48zM75 696h66v-406q0 -120 56 -183.5t161 -63.5t161 63.5t56 183.5v406h66v-411q0 -140 -77.5 -219t-205.5 -79t-205.5 79t-77.5 219v411z" />
    <glyph glyph-name="Uacute" unicode="&#xda;" horiz-adv-x="716" 
d="M288 780l135 140l28 -42l-120 -108zM75 696h66v-406q0 -120 56 -183.5t161 -63.5t161 63.5t56 183.5v406h66v-411q0 -140 -77.5 -219t-205.5 -79t-205.5 79t-77.5 219v411z" />
    <glyph glyph-name="Ucircumflex" unicode="&#xdb;" horiz-adv-x="716" 
d="M361 911l-96 -130h-44l130 168h21l127 -168h-48zM75 696h66v-406q0 -120 56 -183.5t161 -63.5t161 63.5t56 183.5v406h66v-411q0 -140 -77.5 -219t-205.5 -79t-205.5 79t-77.5 219v411z" />
    <glyph glyph-name="Udieresis" unicode="&#xdc;" horiz-adv-x="716" 
d="M221 874q0 16 11 27.5t27 11.5t28 -11.5t12 -27.5t-11.5 -27t-28.5 -11q-16 0 -27 11t-11 27zM419 874q0 16 12 27.5t28 11.5t27 -11.5t11 -27.5t-11 -27t-27 -11q-17 0 -28.5 11t-11.5 27zM75 696h66v-406q0 -120 56 -183.5t161 -63.5t161 63.5t56 183.5v406h66v-411
q0 -140 -77.5 -219t-205.5 -79t-205.5 79t-77.5 219v411z" />
    <glyph glyph-name="Yacute" unicode="&#xdd;" horiz-adv-x="625" 
d="M245 783l135 140l28 -42l-120 -108zM345 0h-63v273l-257 423h63l226 -365l224 365h60l-253 -423v-273z" />
    <glyph glyph-name="Thorn" unicode="&#xde;" horiz-adv-x="644" 
d="M154 3v-207h-62v917h62v-207h209q94 0 165 -75t70 -175q-2 -106 -69.5 -179.5t-165.5 -73.5h-209zM154 453v-396h192q78 0 134 56t56 141t-56 142t-134 57h-192z" />
    <glyph glyph-name="germandbls" unicode="&#xdf;" horiz-adv-x="644" 
d="M282 0v54h78q184 0 184 144q0 56 -50.5 95t-123.5 39h-57v52h46q70 0 114.5 32.5t44.5 85.5q0 71 -48 107.5t-139 36.5q-86 0 -132 -36.5t-46 -106.5v-503h-65v509q0 99 69 144q71 47 170 47h7q105 0 179 -47q72 -45 72 -144q0 -56 -34 -90q-37 -37 -83 -52v-12
q57 -18 99 -57q45 -41 45 -108q0 -102 -69 -145q-69 -45 -177 -45h-84z" />
    <glyph glyph-name="agrave" unicode="&#xe0;" horiz-adv-x="561" 
d="M187 695l33 33l132 -139h-48zM435 102q-83 -113 -205 -113q-78 0 -127 44t-49 118q0 76 53 116.5t151 40.5q76 0 176 -39q0 106 -31.5 145.5t-122.5 48.5q-10 2 -27 2q-23 0 -55 -5q-69 -10 -88 -14l-13 49q94 25 163 22l22 -1q129 -6 171.5 -54t42.5 -184v-278h-61v102z
M274 267q-75 0 -116.5 -30t-41.5 -86q0 -54 37 -85.5t101 -31.5q54 0 102 30q51 32 78 71v92q-60 25 -89 31q-33 9 -71 9z" />
    <glyph glyph-name="aacute" unicode="&#xe1;" horiz-adv-x="561" 
d="M201 600l136 140l28 -42l-120 -108zM435 102q-83 -113 -205 -113q-78 0 -127 44t-49 118q0 76 53 116.5t151 40.5q76 0 176 -39q0 106 -31.5 145.5t-122.5 48.5q-3 1 -27 1q-35 0 -55 -4l-36 -6l-52 -8l-13 49q97 24 163 21l22 -1q129 -6 171.5 -53.5t42.5 -183.5v-278
h-61v102zM274 267q-75 0 -116.5 -30t-41.5 -86q0 -54 37 -85.5t101 -31.5q54 0 102 30q51 32 78 71v92q-60 25 -89 31q-33 9 -71 9z" />
    <glyph glyph-name="acircumflex" unicode="&#xe2;" horiz-adv-x="561" 
d="M280 715l-97 -130h-44l131 168h21l128 -168h-48zM435 102q-83 -113 -205 -113q-78 0 -127 44t-49 118q0 76 53 116.5t151 40.5q76 0 176 -39q0 106 -31.5 144.5t-122.5 49.5q-3 1 -27 1q-25 0 -55 -4l-25 -4q-55 -8 -63 -11l-13 50q93 24 163 21l22 -1
q129 -6 171.5 -53.5t42.5 -183.5v-278h-61v102zM274 266q-76 0 -117 -29.5t-41 -85.5q0 -54 37 -85.5t101 -31.5q54 0 102 30q50 31 78 71v92q-62 25 -88 31q-35 8 -72 8z" />
    <glyph glyph-name="atilde" unicode="&#xe3;" horiz-adv-x="561" 
d="M278 664q-41 36 -74 36q-32 0 -45.5 -12t-25.5 -48l-40 10l4 14q22 76 100 76q42 0 87 -34q28 -22 40.5 -28t31.5 -6q27 0 43.5 13.5t34.5 49.5l34 -16q-24 -50 -46.5 -68.5t-60.5 -18.5q-46 0 -83 32zM435 102q-83 -113 -205 -113q-78 0 -127 44t-49 118q0 76 53 116.5
t151 40.5q76 0 176 -39q0 106 -31.5 145.5t-122.5 48.5q-3 1 -27 1q-35 0 -55 -4l-36 -6l-52 -8l-13 49q99 25 163 22l22 -1q129 -6 171.5 -54t42.5 -184v-278h-61v102zM274 267q-75 0 -116.5 -30t-41.5 -86q0 -54 37 -85.5t101 -31.5q54 0 102 30q51 32 78 71v92
q-60 25 -89 31q-33 9 -71 9z" />
    <glyph glyph-name="adieresis" unicode="&#xe4;" horiz-adv-x="561" 
d="M133 683q0 16 11 27.5t27 11.5t28 -11.5t12 -27.5t-12 -27.5t-28 -11.5t-27 11.5t-11 27.5zM332 683q0 16 12 27.5t28 11.5t27.5 -11.5t11.5 -27.5t-11 -27.5t-28 -11.5q-16 0 -28 11.5t-12 27.5zM435 102q-83 -113 -205 -113q-78 0 -127 44t-49 118q0 76 53 117t151 41
q77 0 176 -40q0 106 -31.5 145t-122.5 50h-9q-9 1 -18 1q-32 0 -55 -4l-88 -15l-13 49q94 25 163 22l22 -1q129 -6 171.5 -54t42.5 -184v-278h-61v102zM274 267q-75 0 -116.5 -30t-41.5 -86q0 -54 37 -85.5t101 -31.5q54 0 102 30q51 32 78 71v92q-60 25 -89 31q-33 9 -71 9
z" />
    <glyph glyph-name="aring" unicode="&#xe5;" horiz-adv-x="561" 
d="M179 694q0 45 29 74t73 29t73 -29t29 -74q0 -46 -29 -75t-73 -29t-73 29.5t-29 74.5zM208 694q0 -32 21 -55t52 -23q33 0 53 22t20 56q0 32 -20.5 54.5t-51.5 22.5q-32 0 -53 -23t-21 -54zM435 102q-44 -60 -93 -86.5t-112 -26.5q-76 0 -126 44t-50 117q0 76 53 117
t151 41q76 0 176 -39q0 106 -31.5 144.5t-122.5 49.5q-3 1 -27 1q-32 0 -55 -4l-88 -15l-13 50q93 24 163 21l22 -1q129 -6 171.5 -53.5t42.5 -183.5v-278h-61v102zM274 266q-76 0 -117 -29.5t-41 -86.5q0 -53 37 -84.5t101 -31.5q54 0 102 30q50 31 78 71v92q-62 25 -88 31
q-35 8 -72 8z" />
    <glyph glyph-name="ae" unicode="&#xe6;" horiz-adv-x="937" 
d="M489 159q19 -48 66 -83t101 -35q91 0 174 59l31 -38q-79 -73 -209 -73q-67 0 -116 34q-51 35 -78 88q-40 -52 -103 -87q-62 -35 -133 -35q-77 0 -125 42q-49 43 -49 119q0 78 51 119.5t146 41.5q80 0 181 -40v98q-13 53 -49 76t-106 23q-31 0 -68 -5l-98 -15l-11 51
q20 6 84 14q57 7 98 7q70 0 111 -19.5t68 -66.5q47 47 94 66.5t108 19.5q104 0 170.5 -82t66.5 -192v-11h-405v-76zM651 471q-100 0 -160 -99v-99h340q-3 88 -49 141q-47 57 -131 57zM261 269q-76 0 -117 -30.5t-41 -89.5q0 -53 36.5 -84t97.5 -31q53 0 107 30q56 32 82 72
v93q-95 40 -165 40z" />
    <glyph glyph-name="ccedilla" unicode="&#xe7;" horiz-adv-x="541" 
d="M294 -79q117 0 117 -86q0 -37 -25 -59.5t-69 -22.5q-42 0 -95 38l16 21q41 -28 85 -28q56 0 56 51q0 59 -74 59h-42l18 100q-104 16 -167.5 90t-65.5 177q-2 98 78.5 179t178.5 80q62 -2 107.5 -19.5t89.5 -59.5l-37 -39q-65 64 -153 64q-83 0 -143 -62t-60 -148
q0 -85 60 -146.5t143 -61.5q88 0 152 64l38 -38q-46 -43 -89.5 -61t-108.5 -19z" />
    <glyph glyph-name="egrave" unicode="&#xe8;" horiz-adv-x="600" 
d="M186 695l33 33l132 -139h-48zM318 41q91 0 175 59l34 -41q-33 -30 -90 -49q-61 -19 -129 -21q-100 -2 -179.5 80t-80.5 183t78.5 183t178.5 81q112 -2 181.5 -77.5t70.5 -205.5h-446q4 -78 67 -135t140 -57zM493 271q-3 82 -55.5 139t-128.5 57q-78 0 -135 -58t-60 -138
h379z" />
    <glyph glyph-name="eacute" unicode="&#xe9;" horiz-adv-x="600" 
d="M238 609l135 140l28 -42l-120 -108zM318 41q93 1 175 59l34 -41q-33 -30 -90 -49q-61 -19 -129 -21q-100 -2 -179.5 80t-80.5 183q-1 100 78.5 182t178.5 81q112 -2 181.5 -77.5t70.5 -204.5h-446q3 -77 66.5 -135.5t140.5 -56.5zM493 271q-3 81 -55.5 138t-128.5 57
q-78 0 -135 -58t-60 -137h379z" />
    <glyph glyph-name="ecircumflex" unicode="&#xea;" horiz-adv-x="600" 
d="M306 715l-97 -130h-44l130 168h22l127 -168h-47zM318 41q91 0 175 59l34 -41q-33 -30 -90 -49q-61 -19 -129 -21q-100 -2 -179.5 80t-80.5 183q-1 100 78.5 182t178.5 81q112 -2 181.5 -77.5t70.5 -204.5h-446q4 -78 67 -135t140 -57zM493 271q-3 81 -55.5 138t-128.5 57
q-78 0 -135 -58t-60 -137h379z" />
    <glyph glyph-name="edieresis" unicode="&#xeb;" horiz-adv-x="600" 
d="M170 683q0 16 11 27.5t27 11.5t28 -11.5t12 -27.5t-12 -27.5t-28 -11.5t-27 11.5t-11 27.5zM368 683q0 16 12 27.5t28 11.5t27.5 -11.5t11.5 -27.5t-11 -27.5t-28 -11.5q-16 0 -28 11.5t-12 27.5zM318 41q91 0 175 59l34 -41q-33 -30 -90 -49q-61 -19 -129 -21
q-100 -2 -179.5 80t-80.5 183t78.5 183t178.5 81q112 -2 181.5 -77.5t70.5 -205.5h-446q4 -78 67 -135t140 -57zM493 271q-3 82 -55.5 139t-128.5 57q-78 0 -135 -58t-60 -138h379z" />
    <glyph glyph-name="igrave" unicode="&#xec;" horiz-adv-x="294" 
d="M14 695l34 33l139 -139h-50zM132 504h57v-504h-57v504z" />
    <glyph glyph-name="iacute" unicode="&#xed;" horiz-adv-x="290" 
d="M86 609l143 140l30 -42l-127 -108zM114 504h57v-504h-57v504z" />
    <glyph glyph-name="icircumflex" unicode="&#xee;" horiz-adv-x="330" 
d="M167 715l-99 -130h-45l133 168h22l130 -168h-48zM127 504h57v-504h-57v504z" />
    <glyph glyph-name="idieresis" unicode="&#xef;" horiz-adv-x="292" 
d="M5 683q0 16 12 27.5t28 11.5t28 -11.5t12 -27.5t-12 -27.5t-28 -11.5q-17 0 -28.5 11.5t-11.5 27.5zM209 683q0 16 12 27.5t28 11.5t28 -11.5t12 -27.5t-11.5 -27.5t-28.5 -11.5q-16 0 -28 11.5t-12 27.5zM118 504h57v-504h-57v504z" />
    <glyph glyph-name="eth" unicode="&#xf0;" horiz-adv-x="601" 
d="M282 -13q-107 0 -174.5 70.5t-67.5 177.5q0 98 63.5 157t160.5 59q152 0 222 -155q0 138 -28 219t-89 120l-61 -100l-25 9l60 100q-47 11 -85 10l-36 -1v57l45 1q41 1 107 -14l37 62l24 -10l-37 -63q81 -46 117 -136t36 -243q0 -157 -61 -239q-60 -81 -208 -81zM105 231
q0 -82 49.5 -136t130.5 -54q101 0 148 56q43 54 45 130q1 60 -61 117t-127 56q-78 -2 -131.5 -48.5t-53.5 -120.5z" />
    <glyph glyph-name="ntilde" unicode="&#xf1;" 
d="M304 664q-42 36 -74 36q-31 0 -45 -12t-25 -48l-41 10l4 14q22 76 101 76q42 0 86 -34q31 -23 42.5 -28.5t29.5 -5.5q27 0 44 13.5t35 49.5l33 -16q-23 -50 -46 -68.5t-61 -18.5q-43 0 -83 32zM471 273q0 88 -41.5 138t-112.5 50q-67 0 -111.5 -57.5t-44.5 -137.5v-266
h-62v504h62v-116q36 69 75.5 98t99.5 29q92 0 144.5 -57.5t52.5 -164.5v-293h-62v273z" />
    <glyph glyph-name="ograve" unicode="&#xf2;" horiz-adv-x="622" 
d="M186 695l33 33l132 -139h-48zM48 252q0 101 81 182.5t182 81.5t182 -81.5t81 -182.5t-81 -182t-182 -81t-182 81t-81 182zM110 252q0 -85 60 -148t141 -62q83 1 142.5 63t59.5 147t-59.5 147t-142.5 63q-81 1 -141 -62t-60 -148z" />
    <glyph glyph-name="oacute" unicode="&#xf3;" horiz-adv-x="622" 
d="M237 605l136 140l28 -42l-120 -108zM48 252q0 100 81 181.5t182 81.5t182 -81.5t81 -181.5q0 -101 -81 -182t-182 -81t-182 81t-81 182zM110 252q-1 -85 59.5 -148t141.5 -62q83 1 142.5 63t59.5 147q0 86 -59.5 147.5t-142.5 61.5q-82 0 -140.5 -61t-60.5 -148z" />
    <glyph glyph-name="ocircumflex" unicode="&#xf4;" horiz-adv-x="622" 
d="M306 715l-97 -130h-44l130 168h21l128 -168h-48zM48 252q0 100 81 181.5t182 81.5t182 -81.5t81 -181.5q0 -101 -81 -182t-182 -81t-182 81t-81 182zM110 252q-1 -85 59.5 -148t141.5 -62q83 1 142.5 63t59.5 147q0 86 -59.5 147.5t-142.5 61.5q-82 0 -140.5 -61
t-60.5 -148z" />
    <glyph glyph-name="otilde" unicode="&#xf5;" horiz-adv-x="622" 
d="M295 664q-42 36 -74 36q-30 0 -44 -12t-26 -48l-40 10l5 14q27 76 99 76q42 0 86 -34q31 -23 42.5 -28.5t29.5 -5.5q27 0 43.5 13.5t34.5 49.5l33 -16q-23 -50 -45.5 -68.5t-60.5 -18.5q-43 0 -83 32zM48 252q0 101 81 182.5t182 81.5t182 -81.5t81 -182.5t-81 -182
t-182 -81t-182 81t-81 182zM110 252q-1 -85 59.5 -148t141.5 -62q83 1 142.5 63t59.5 147q0 86 -59.5 147.5t-142.5 61.5q-82 0 -140.5 -61t-60.5 -148z" />
    <glyph glyph-name="odieresis" unicode="&#xf6;" horiz-adv-x="622" 
d="M172 683q0 16 11 27.5t27 11.5t28 -11.5t12 -27.5t-12 -27.5t-28 -11.5t-27 11.5t-11 27.5zM370 683q0 16 12 27.5t28 11.5t27 -11.5t11 -27.5t-11 -27.5t-27 -11.5t-28 11.5t-12 27.5zM48 252q0 101 81 182.5t182 81.5t182 -81.5t81 -182.5t-81 -182t-182 -81t-182 81
t-81 182zM110 252q0 -85 60 -148t141 -62q83 1 142.5 63t59.5 147t-59.5 147t-142.5 63q-81 1 -141 -62t-60 -148z" />
    <glyph glyph-name="divide" unicode="&#xf7;" horiz-adv-x="537" 
d="M228 499q0 18 12 30.5t29 12.5t29.5 -12.5t12.5 -30.5q0 -17 -12 -29t-30 -12t-29.5 12t-11.5 29zM52 323h447v-43h-447v43zM228 106q0 19 11.5 31t29.5 12t30 -12t12 -31q0 -18 -12 -29.5t-30 -11.5t-29.5 11.5t-11.5 29.5z" />
    <glyph glyph-name="oslash" unicode="&#xf8;" horiz-adv-x="620" 
d="M173 -45h-46l39 77q-57 38 -87.5 97.5t-32.5 129.5q-2 98 78.5 179.5t178.5 80.5q59 -2 105 -21l26 45l10 16l35 -17l-34 -62q125 -83 127 -231q1 -64 -35.5 -125t-96.5 -98t-123 -36q-62 2 -117 24zM107 254q0 -51 19 -88t67 -82l190 365q-44 16 -74 16
q-83 0 -142.5 -62.5t-59.5 -148.5zM227 64q41 -21 82 -21q80 -2 141 62t60 149q-2 98 -92 174z" />
    <glyph glyph-name="ugrave" unicode="&#xf9;" 
d="M186 695l33 33l133 -139h-49zM444 132q-42 -79 -80 -111t-95 -32q-92 0 -144.5 57.5t-52.5 164.5v293h62v-273q0 -88 41.5 -138t112.5 -50q66 0 111 58t45 138v265h62v-504h-62v132z" />
    <glyph glyph-name="uacute" unicode="&#xfa;" 
d="M228 609l137 140l28 -42l-121 -108zM444 132q-42 -79 -80 -111t-95 -32q-92 0 -144.5 57.5t-52.5 164.5v293h62v-273q0 -88 41.5 -138t112.5 -50q66 0 111 57.5t45 137.5v266h62v-504h-62v132z" />
    <glyph glyph-name="ucircumflex" unicode="&#xfb;" 
d="M289 715l-97 -130h-45l131 168h22l128 -168h-48zM444 132q-42 -79 -80 -111t-95 -32q-92 0 -144.5 57.5t-52.5 164.5v293h62v-273q0 -88 41.5 -138t112.5 -50q66 0 111 57.5t45 137.5v266h62v-504h-62v132z" />
    <glyph glyph-name="udieresis" unicode="&#xfc;" 
d="M151 683q0 16 11.5 27.5t27.5 11.5t27.5 -11.5t11.5 -27.5t-11.5 -27.5t-27.5 -11.5t-27.5 11.5t-11.5 27.5zM351 683q0 16 12 27.5t28 11.5t27 -11.5t11 -27.5t-11 -27.5t-27 -11.5t-28 11.5t-12 27.5zM444 132q-42 -79 -80 -111t-95 -32q-92 0 -144.5 58t-52.5 164v294
h62v-274q0 -88 41.5 -138t112.5 -50q66 0 111 58t45 138v266h62v-505h-62v132z" />
    <glyph glyph-name="yacute" unicode="&#xfd;" horiz-adv-x="516" 
d="M191 610l136 139l28 -42l-120 -108zM123 -204l102 226l-213 483h57l184 -404h11l180 404h60l-315 -709h-66z" />
    <glyph glyph-name="thorn" unicode="&#xfe;" horiz-adv-x="651" 
d="M155 3v-207h-62v917h62v-207h209q94 0 165 -75t70 -175q-2 -106 -69.5 -179.5t-165.5 -73.5h-209zM155 453v-396h192q78 0 134 56t56 141t-56 142t-134 57h-192z" />
    <glyph glyph-name="ydieresis" unicode="&#xff;" horiz-adv-x="516" 
d="M116 683q0 16 11.5 27.5t27.5 11.5t28 -11.5t12 -27.5t-11.5 -27t-28.5 -11q-16 0 -27.5 11t-11.5 27zM315 683q0 16 12 27.5t28 11.5t27.5 -11.5t11.5 -27.5t-11.5 -27t-27.5 -11q-17 0 -28.5 11t-11.5 27zM123 -204l102 226l-213 483h57l184 -404h11l180 404h60
l-315 -709h-66z" />
    <glyph glyph-name="Amacron" unicode="&#x100;" horiz-adv-x="712" 
d="M227 904h263v-43h-263v43zM696 0h-68l-87 189h-367l-87 -189h-67l337 707zM352 590l-157 -347h325l-157 347h-11z" />
    <glyph glyph-name="amacron" unicode="&#x101;" horiz-adv-x="561" 
d="M145 713h267v-43h-267v43zM435 102q-83 -113 -205 -113q-78 0 -127 44t-49 118q0 76 53 117t151 41q77 0 176 -40q0 106 -31.5 145t-122.5 50q-3 1 -27 1q-32 0 -55 -4l-88 -15l-13 50q93 24 163 21l22 -1q129 -6 171.5 -53.5t42.5 -183.5v-279h-61v102zM274 267
q-76 0 -117 -29.5t-41 -86.5q0 -54 37 -85.5t101 -31.5q54 0 102 30q51 32 78 71v92q-60 25 -89 31q-33 9 -71 9z" />
    <glyph glyph-name="Abreve" unicode="&#x102;" horiz-adv-x="712" 
d="M249 924q21 -44 44 -60t65 -16q41 0 62.5 16.5t44.5 60.5l35 -17q-24 -54 -55.5 -76t-86.5 -22q-54 0 -85.5 22t-57.5 77zM696 0h-68l-87 189h-367l-87 -189h-67l337 707zM352 590l-157 -347h325l-157 347h-11z" />
    <glyph glyph-name="abreve" unicode="&#x103;" horiz-adv-x="561" 
d="M174 742q21 -44 44.5 -60.5t65.5 -16.5q43 0 65 17q21 18 43 61l36 -17q-24 -55 -56 -76.5t-88 -21.5q-54 0 -86 22t-59 77zM435 102q-83 -113 -205 -113q-78 0 -127 44t-49 118q0 76 53 116.5t151 40.5q76 0 176 -39q0 106 -31.5 145.5t-122.5 48.5q-3 1 -27 1
q-35 0 -55 -4l-36 -6l-52 -8l-13 49q97 24 163 21l22 -1q129 -6 171.5 -53.5t42.5 -183.5v-278h-61v102zM274 267q-75 0 -116.5 -30t-41.5 -86q0 -54 37 -85.5t101 -31.5q54 0 102 30q51 32 78 71v92q-60 25 -89 31q-33 9 -71 9z" />
    <glyph glyph-name="Aogonek" unicode="&#x104;" horiz-adv-x="712" 
d="M563 -93q0 -41 17.5 -63t49.5 -21l54 2v-27l-28 -1q-5 -1 -33 -1q-91 0 -91 100q0 71 83 110l-74 186h-367l-87 -189h-73l342 704l328 -704h-22q-33 -3 -66 -32t-33 -64zM355 600l-160 -354h325l-155 344z" />
    <glyph glyph-name="aogonek" unicode="&#x105;" horiz-adv-x="559" 
d="M367 -102q0 66 75 108l-5 30l-6 46q-95 -89 -210 -89q-72 0 -122.5 45.5t-50.5 116.5q0 75 52 116.5t146 41.5q77 0 175 -40q0 109 -34 152t-121 43q-88 0 -154 -17l-8 -2l-14 50q44 10 79 14q52 7 100 7q122 0 167.5 -52t45.5 -185v-282q-84 -44 -84 -92q0 -40 22 -63
t58 -22l54 1v-29h-61q-49 0 -76.5 26.5t-27.5 75.5zM261 271q-72 0 -111.5 -30t-39.5 -86q0 -52 37.5 -84.5t97.5 -32.5q49 0 95 25q44 23 81 59v109q-97 40 -160 40z" />
    <glyph glyph-name="Cacute" unicode="&#x106;" horiz-adv-x="725" 
d="M332 782l134 140l28 -42l-119 -108zM50 348q0 87 50 172t131.5 138t167.5 52q168 -3 281 -109l-46 -46q-93 96 -233 99q-107 1 -195.5 -97t-88.5 -209q0 -112 88 -209.5t195 -95.5q137 3 238 97l42 -45q-111 -105 -281 -108q-86 -1 -167.5 51t-131.5 137t-50 173z" />
    <glyph glyph-name="cacute" unicode="&#x107;" horiz-adv-x="532" 
d="M216 609l136 140l29 -42l-121 -108zM48 252q0 101 78 183t177 80q118 -1 200 -78l-39 -41q-61 65 -152 65q-83 0 -143 -61.5t-60 -147.5t60 -147.5t143 -61.5q39 0 80 17.5t72 46.5l39 -40q-38 -35 -92 -56t-106 -22q-99 -2 -178 80t-79 183z" />
    <glyph glyph-name="Ccircumflex" unicode="&#x108;" horiz-adv-x="725" 
d="M411 911l-96 -130h-44l130 168h21l126 -168h-47zM50 348q0 87 50 171.5t131.5 137.5t167.5 52q169 -3 281 -108l-46 -46q-50 50 -105.5 73t-128.5 25q-107 2 -195 -95.5t-88 -209.5t88 -209.5t195 -95.5q137 3 238 97l42 -45q-111 -105 -281 -108q-86 -1 -167.5 51
t-131.5 137t-50 173z" />
    <glyph glyph-name="ccircumflex" unicode="&#x109;" horiz-adv-x="532" 
d="M301 716l-97 -130h-45l131 168h21l128 -168h-47zM48 252q0 101 78 183t177 80q118 -1 200 -78l-39 -41q-61 65 -152 65q-83 0 -143 -61.5t-60 -147.5t60 -147.5t143 -61.5q39 0 80 17.5t72 46.5l39 -40q-38 -35 -92 -56t-106 -22q-99 -2 -178 80t-79 183z" />
    <glyph glyph-name="Cdotaccent" unicode="&#x10a;" horiz-adv-x="725" 
d="M353 874q0 19 13.5 32t32.5 13t32.5 -13t13.5 -32t-13.5 -32t-32.5 -13t-32.5 13t-13.5 32zM50 348q0 87 50 172t131.5 138t167.5 52q168 -3 281 -109l-46 -46q-93 96 -233 99q-107 1 -195.5 -97t-88.5 -209t88.5 -209t194.5 -96q137 3 238 97l42 -45
q-111 -105 -281 -108q-86 -1 -167.5 51t-131.5 137t-50 173z" />
    <glyph glyph-name="cdotaccent" unicode="&#x10b;" horiz-adv-x="532" 
d="M258 683q0 19 13.5 32t32.5 13q20 0 33.5 -13t13.5 -32t-13.5 -32.5t-33.5 -13.5q-19 0 -32.5 13.5t-13.5 32.5zM48 252q0 101 79 183.5t178 80.5q115 -1 198 -79l-39 -40q-65 65 -152 65q-83 0 -143 -62t-60 -148t60 -147.5t143 -61.5q39 0 80 17.5t72 46.5l39 -40
q-38 -35 -92 -56t-106 -22q-99 -2 -178 80t-79 183z" />
    <glyph glyph-name="Ccaron" unicode="&#x10c;" horiz-adv-x="725" 
d="M384 778l-120 168h46l94 -141l94 141h44l-120 -168h-38zM50 348q0 87 50 171.5t131.5 137.5t167.5 52q169 -3 281 -108l-46 -46q-50 50 -105.5 73t-128.5 25q-107 2 -195 -95.5t-88 -209.5t88 -209.5t195 -95.5q137 3 238 97l42 -45q-111 -105 -281 -108
q-86 -1 -167.5 51t-131.5 137t-50 173z" />
    <glyph glyph-name="ccaron" unicode="&#x10d;" horiz-adv-x="532" 
d="M281 585l-121 168h46l95 -142l95 142h44l-120 -168h-39zM48 252q0 101 78 183t177 80q118 -1 200 -78l-39 -41q-61 65 -152 65q-83 0 -143 -61.5t-60 -147.5t60 -147.5t143 -61.5q39 0 80 17.5t72 46.5l39 -40q-38 -35 -92 -56t-106 -22q-99 -2 -178 80t-79 183z" />
    <glyph glyph-name="Dcaron" unicode="&#x10e;" horiz-adv-x="753" 
d="M331 778l-120 168h45l95 -141l94 141h44l-120 -168h-38zM99 0v696h260q137 0 243 -105t106 -243t-106 -243t-243 -105h-260zM165 642v-588h193q116 0 199.5 89.5t83.5 204.5q0 116 -83.5 205t-199.5 89h-193z" />
    <glyph glyph-name="dcaron" unicode="&#x10f;" horiz-adv-x="737" 
d="M474 110q-34 -50 -56.5 -72.5t-56 -34.5t-90.5 -14q-92 -3 -158 77t-65 187q1 111 66 187t162 76q71 0 118 -38q49 -41 79 -110v370h61v-738h-60v110zM667 493q78 54 91 137h-18q-21 0 -35.5 15t-14.5 36q0 22 15 37.5t36 15.5q25 0 40 -18t15 -51q0 -131 -115 -194z
M109 253q0 -91 51 -151t131 -60q77 0 130 63t53 147q0 83 -53 146t-130 63q-78 0 -130 -61.5t-52 -146.5z" />
    <glyph glyph-name="Dcroat" unicode="&#x110;" horiz-adv-x="791" 
d="M135 0v329h-123v52h123v319h258q137 0 242.5 -106t105.5 -244t-105.5 -244t-242.5 -106h-258zM200 646v-265h189v-52h-189v-275h192q115 0 199 90t84 206t-84 206t-199 90h-192z" />
    <glyph glyph-name="dslash" unicode="&#x111;" horiz-adv-x="631" 
d="M537 0h-61v113q-20 -33 -32 -46l-14 -15q-60 -63 -152 -63q-99 0 -164.5 76.5t-65.5 187.5t65.5 187t164.5 76q72 0 119 -38q48 -41 79 -110v216h-130v39h130v100h61v-100h67v-39h-67v-584zM110 253q0 -90 51 -150.5t131 -60.5q77 0 130.5 63t53.5 147q0 85 -53 147.5
t-131 62.5q-77 0 -129.5 -62t-52.5 -147z" />
    <glyph glyph-name="Emacron" unicode="&#x112;" horiz-adv-x="634" 
d="M195 908h267v-43h-267v43zM96 697h476v-55h-410v-263h410v-55h-410v-269h410v-55h-476v697z" />
    <glyph glyph-name="emacron" unicode="&#x113;" horiz-adv-x="600" 
d="M178 712h266v-43h-266v43zM318 41q91 0 175 59l34 -41q-33 -30 -90 -49q-61 -19 -129 -21q-100 -2 -179.5 80t-80.5 183t78.5 183t178.5 81q112 -2 181.5 -77.5t70.5 -205.5h-446q4 -78 67 -135t140 -57zM493 271q-3 82 -55.5 139t-128.5 57q-78 0 -135 -58t-60 -138h379
z" />
    <glyph glyph-name="Ebreve" unicode="&#x114;" horiz-adv-x="634" 
d="M219 933q21 -44 44 -60t66 -16q41 0 63 16.5t45 60.5l36 -17q-25 -54 -57 -76t-87 -22q-54 0 -86 22t-59 77zM96 696h476v-55h-410v-262h410v-55h-410v-269h410v-55h-476v696z" />
    <glyph glyph-name="ebreve" unicode="&#x115;" horiz-adv-x="600" 
d="M195 742q22 -44 45 -60.5t65 -16.5q43 0 65 17q21 18 43 61l36 -17q-25 -55 -56.5 -76.5t-87.5 -21.5q-54 0 -86 22.5t-58 76.5zM318 41q91 0 175 59l34 -41q-33 -30 -90 -49q-61 -19 -129 -21q-100 -2 -179.5 80t-80.5 183q-1 100 78.5 182t178.5 81q112 -2 181.5 -77.5
t70.5 -204.5h-446q4 -78 67 -135t140 -57zM493 271q-3 81 -55.5 138t-128.5 57q-78 0 -135 -58t-60 -137h379z" />
    <glyph glyph-name="Edotaccent" unicode="&#x116;" horiz-adv-x="634" 
d="M289 874q0 19 13.5 32t32.5 13q20 0 33.5 -13t13.5 -32t-13.5 -32t-33.5 -13t-33 13t-13 32zM96 696h476v-55h-410v-262h410v-55h-410v-269h410v-55h-476v696z" />
    <glyph glyph-name="edotaccent" unicode="&#x117;" horiz-adv-x="600" 
d="M260 683q0 19 13.5 32t32.5 13q20 0 33.5 -13t13.5 -32t-13.5 -32.5t-33.5 -13.5q-19 0 -32.5 13.5t-13.5 32.5zM318 41q91 0 175 59l34 -41q-33 -30 -90 -49q-61 -19 -129 -21q-100 -2 -179.5 80t-80.5 183t78.5 183t178.5 81q112 -2 181.5 -77.5t70.5 -205.5h-446
q4 -78 67 -135t140 -57zM493 271q-3 82 -55.5 139t-128.5 57q-78 0 -135 -58t-60 -138h379z" />
    <glyph glyph-name="Eogonek" unicode="&#x118;" horiz-adv-x="630" 
d="M444 -104q0 31 16.5 54t60.5 53l-424 1v696h475v-55h-409v-262h387v-55h-387v-270h409v-55q-28 -7 -60 -31q-36 -27 -36 -65q0 -41 17.5 -63t50.5 -21l55 2v-29h-61q-94 0 -94 100z" />
    <glyph glyph-name="eogonek" unicode="&#x119;" horiz-adv-x="600" 
d="M318 45q88 0 176 58l29 -35q-73 -68 -193 -74q-54 -36 -54 -85q0 -39 22.5 -63t56.5 -22l55 2l2 -26q-29 -4 -62 -4q-48 0 -76.5 27t-28.5 75q0 49 52 95q-105 12 -176 88t-73 178q-2 98 78.5 180t178.5 81q109 -1 180.5 -77.5t71.5 -185.5v-20h-446q4 -78 67 -135
t140 -57zM493 275q-3 82 -55.5 139t-128.5 57q-78 0 -135 -58t-60 -138h379z" />
    <glyph glyph-name="Ecaron" unicode="&#x11a;" horiz-adv-x="638" 
d="M320 778l-121 168h46l95 -141l95 141h44l-120 -168h-39zM96 696h476v-55h-410v-262h410v-55h-410v-269h410v-55h-476v696z" />
    <glyph glyph-name="ecaron" unicode="&#x11b;" horiz-adv-x="600" 
d="M288 585l-120 168h45l95 -142l95 142h44l-120 -168h-39zM318 41q91 0 175 59l34 -41q-33 -30 -90 -49q-61 -19 -129 -21q-100 -2 -179.5 80t-80.5 183q-1 100 78.5 182t178.5 81q112 -2 181.5 -77.5t70.5 -204.5h-446q4 -78 67 -135t140 -57zM493 271q-3 81 -55.5 138
t-128.5 57q-78 0 -135 -58t-60 -137h379z" />
    <glyph glyph-name="Gcircumflex" unicode="&#x11c;" horiz-adv-x="755" 
d="M407 911l-96 -130h-44l129 168h21l127 -168h-47zM50 348q0 136 108 249.5t239 111.5q161 -3 279 -105l-45 -48q-98 94 -233 97q-107 2 -194 -95.5t-87 -209.5q0 -111 87.5 -209t193.5 -96q138 3 228 82v176h-291v55h351v-258q-59 -52 -134.5 -80.5t-154.5 -30.5
q-131 -2 -239 111.5t-108 249.5z" />
    <glyph glyph-name="gcircumflex" unicode="&#x11d;" horiz-adv-x="633" 
d="M306 715l-97 -130h-45l131 168h21l128 -168h-48zM185 -233q-44 13 -51 16q-5 1 -36 19v59l15 -5q88 -30 99 -32q40 -8 75 -8q190 0 190 209v115q-31 -71 -80 -111q-45 -36 -118 -36q-100 0 -165.5 75t-65.5 186q0 110 66.5 186t164.5 76q78 0 116 -24q43 -28 79 -82v95
h65v-472q0 -276 -270 -276q-44 0 -84 10zM110 254q0 -84 52.5 -146t131.5 -62q77 0 130.5 63.5t53.5 145.5t-53.5 145.5t-130.5 63.5q-81 0 -132.5 -60t-51.5 -150z" />
    <glyph glyph-name="Gbreve" unicode="&#x11e;" horiz-adv-x="755" 
d="M283 927q22 -44 45 -60t65 -16q41 0 62.5 16.5t44.5 60.5l35 -17q-24 -54 -55.5 -76t-86.5 -22q-54 0 -86 22.5t-58 76.5zM50 348q0 88 49.5 173t130.5 137.5t167 50.5q161 -3 279 -105l-45 -48q-101 96 -232 98q-106 2 -194 -96.5t-88 -209.5t87.5 -209t193.5 -96
q138 3 228 82v176h-291v55h351v-258q-59 -52 -134.5 -80.5t-154.5 -30.5q-131 -2 -239 111.5t-108 249.5z" />
    <glyph glyph-name="gbreve" unicode="&#x11f;" horiz-adv-x="633" 
d="M184 742q21 -44 44.5 -60t65.5 -16q41 0 63 16.5t45 60.5l36 -17q-25 -54 -57 -76t-87 -22q-54 0 -86 22.5t-58 76.5zM185 -233q-44 13 -51 16q-5 1 -36 19v59l15 -5q88 -30 99 -32q40 -8 75 -8q190 0 190 209v115q-31 -71 -80 -111q-45 -36 -118 -36q-100 0 -165 75
t-66 186q-1 108 66.5 186t164.5 77q79 -2 116 -25q43 -28 79 -82v95h65v-472q0 -276 -270 -276q-44 0 -84 10zM110 254q0 -84 52.5 -146t131.5 -62q77 0 130.5 63.5t53.5 145.5t-53.5 145.5t-130.5 63.5q-81 0 -132.5 -60t-51.5 -150z" />
    <glyph glyph-name="Gdotaccent" unicode="&#x120;" horiz-adv-x="755" 
d="M345 874q0 19 13.5 32t32.5 13t32.5 -13t13.5 -32t-13.5 -32t-32.5 -13t-32.5 13t-13.5 32zM50 348q1 137 109 250.5t240 111.5q158 -3 277 -106l-45 -48q-101 96 -232 98q-106 2 -194 -96.5t-88 -209.5t87.5 -209t193.5 -96q138 3 228 82v176h-291v55h351v-258
q-59 -52 -134.5 -80.5t-154.5 -30.5q-131 -2 -239 111.5t-108 249.5z" />
    <glyph glyph-name="gdotaccent" unicode="&#x121;" horiz-adv-x="633" 
d="M256 683q0 19 13.5 32t32.5 13q20 0 33.5 -13t13.5 -32t-13.5 -32t-33.5 -13q-19 0 -32.5 13t-13.5 32zM185 -233q-44 13 -51 16q-5 1 -36 19v59l15 -5q88 -30 99 -32q40 -8 75 -8q190 0 190 209v115q-31 -70 -80 -110q-46 -37 -118 -37q-100 0 -165 75t-66 186
q-1 108 66.5 186t164.5 77q81 -2 116 -24q42 -29 79 -83v96h65v-473q0 -276 -270 -276q-44 0 -84 10zM110 254q0 -84 52.5 -146t131.5 -62q77 0 130.5 63.5t53.5 145.5q0 83 -53.5 146t-130.5 63q-81 0 -132.5 -60t-51.5 -150z" />
    <glyph glyph-name="uni0122" unicode="&#x122;" horiz-adv-x="755" 
d="M50 353q0 135 108 248.5t239 111.5q159 -2 279 -105l-45 -48q-98 94 -233 97q-106 2 -193.5 -95.5t-87.5 -208.5q0 -112 87 -209.5t194 -95.5q138 3 228 82v175h-291v55h351v-257q-59 -52 -134.5 -80.5t-152.5 -30.5q-87 -2 -168 50.5t-131 137t-50 173.5zM334 -361
q42 26 63.5 58.5t28.5 77.5h-17q-21 0 -36 15t-15 36q0 22 15.5 37.5t36.5 15.5q25 0 40 -18.5t15 -50.5q0 -68 -28 -113.5t-90 -78.5z" />
    <glyph glyph-name="uni0123" unicode="&#x123;" horiz-adv-x="633" 
d="M314 710q21 0 36 -15t15 -36q0 -22 -15.5 -37.5t-36.5 -15.5q-25 0 -40.5 18.5t-15.5 50.5q0 129 117 193l14 -22q-79 -55 -92 -136h18zM185 -233q-44 13 -51 16q-5 1 -36 19v59l15 -5q88 -30 99 -32q40 -8 75 -8q190 0 190 208v115q-33 -74 -80 -110q-46 -37 -118 -37
q-100 0 -165.5 75t-65.5 186q0 110 66.5 186t164.5 76q78 0 116 -24q43 -28 79 -82v95h65v-472q0 -275 -270 -275q-44 0 -84 10zM110 253q0 -85 52.5 -146t131.5 -61q77 0 130.5 63t53.5 145t-53.5 145.5t-130.5 63.5q-81 0 -132.5 -60t-51.5 -150z" />
    <glyph glyph-name="Hcircumflex" unicode="&#x124;" horiz-adv-x="758" 
d="M393 911l-97 -130h-44l130 168h21l127 -168h-47zM589 321h-420v-321h-66v696h66v-319h420v319h66v-696h-66v321z" />
    <glyph glyph-name="hcircumflex" unicode="&#x125;" horiz-adv-x="602" 
d="M134 909l-97 -130h-44l130 168h21l127 -168h-47zM468 272q0 87 -41 137t-111 50q-67 0 -111 -57t-44 -137v-265h-62v735h62v-326q54 104 173 104q92 0 144 -57.5t52 -163.5v-292h-62v272z" />
    <glyph glyph-name="Hbar" unicode="&#x126;" horiz-adv-x="742" 
d="M645 0h-65v323h-418v-323h-65v520h-97v39h97v141h65v-141h418l-1 142l66 -1v-141h97v-39h-97v-520zM162 520v-141h418v141h-418z" />
    <glyph glyph-name="hbar" unicode="&#x127;" horiz-adv-x="603" 
d="M472 268q0 93 -37 143.5t-106 50.5q-65 0 -109.5 -62.5t-44.5 -147.5v-252h-62v583h-74v39h74v101h62v-101h145v-39h-145v-203q35 67 75 101q38 35 95 35q189 0 189 -228v-288h-62v268z" />
    <glyph glyph-name="Itilde" unicode="&#x128;" horiz-adv-x="290" 
d="M144 832q-45 36 -75 36q-32 0 -45.5 -11.5t-25.5 -47.5l-41 9l5 14q27 76 101 76q39 0 87 -34q35 -25 42 -29q12 -5 30 -5q27 0 44 13.5t35 49.5l34 -15q-24 -50 -47 -69t-61 -19q-42 0 -83 32zM112 700h62v-700h-62v700z" />
    <glyph glyph-name="itilde" unicode="&#x129;" horiz-adv-x="292" 
d="M142 664q-43 36 -75 36t-45.5 -12t-25.5 -48l-41 10l5 14q27 76 101 76q39 0 87 -34q35 -25 42 -29q12 -5 30 -5q27 0 44 13.5t35 49.5l34 -16q-24 -50 -47 -68.5t-61 -18.5q-44 0 -83 32zM118 504h57v-504h-57v504z" />
    <glyph glyph-name="Imacron" unicode="&#x12a;" horiz-adv-x="299" 
d="M13 903h273v-43h-273v43zM112 700h62v-700h-62v700z" />
    <glyph glyph-name="imacron" unicode="&#x12b;" horiz-adv-x="292" 
d="M10 712h273v-43h-273v43zM117 504h57v-504h-57v504z" />
    <glyph glyph-name="Ibreve" unicode="&#x12c;" horiz-adv-x="285" 
d="M30 917q22 -44 45.5 -60t66.5 -16t65 16.5t45 60.5l37 -17q-25 -54 -58 -76t-89 -22t-88 22t-59 77zM112 700h62v-700h-62v700z" />
    <glyph glyph-name="ibreve" unicode="&#x12d;" horiz-adv-x="279" 
d="M30 742q22 -44 45.5 -60.5t66.5 -16.5t65.5 17t44.5 61l37 -17q-25 -54 -57.5 -76t-89.5 -22q-56 0 -88 22t-59 77zM108 504h57v-504h-57v504z" />
    <glyph glyph-name="Iogonek" unicode="&#x12e;" horiz-adv-x="299" 
d="M40 -104q0 28 22.5 58.5t54.5 47.5v698h60v-697h-10q-42 -8 -67.5 -35t-25.5 -61q0 -41 18.5 -63t53.5 -21l58 2v-29h-65q-99 0 -99 100z" />
    <glyph glyph-name="iogonek" unicode="&#x12f;" horiz-adv-x="288" 
d="M104 683q0 19 13.5 32t32.5 13q20 0 34.5 -13t14.5 -32t-14.5 -32t-34.5 -13q-19 0 -32.5 13t-13.5 32zM39 -104q0 37 31.5 65.5t103.5 52.5h-49v491h55v-503q-31 -9 -65 -30q-41 -25 -41 -65q0 -41 18 -63t53 -21l56 2l3 -26q-49 -3 -65 -3q-100 0 -100 100z" />
    <glyph glyph-name="Idot" unicode="&#x130;" horiz-adv-x="311" 
d="M103 875q0 19 15 32t37 13t37.5 -13t15.5 -32t-15.5 -32t-37.5 -13t-37 13t-15 32zM112 700h62v-700h-62v700z" />
    <glyph glyph-name="dotlessi" unicode="&#x131;" horiz-adv-x="279" 
d="M102 509h75v-509h-75v509z" />
    <glyph glyph-name="IJ" unicode="&#x132;" horiz-adv-x="825" 
d="M569 274q0 -147 -67 -208.5t-225 -64.5v58q126 2 176 48t50 167v381h-226v49h501v-48h-209v-382zM76 700h62v-700h-62v700z" />
    <glyph glyph-name="ij" unicode="&#x133;" horiz-adv-x="700" 
d="M103 683q0 19 13.5 32t32.5 13q20 0 33.5 -13t13.5 -32t-13.5 -32t-33.5 -13q-19 0 -32.5 13t-13.5 32zM512 683q0 19 13.5 32t33.5 13q19 0 32.5 -13t13.5 -32t-13.5 -32t-32.5 -13q-20 0 -33.5 13t-13.5 32zM368 -231q-14 3 -39 18v51q39 -20 74 -20q67 0 97 40t30 130
v518h61v-523q0 -111 -44 -165t-136 -54q-23 0 -43 5zM121 504h57v-504h-57v504z" />
    <glyph glyph-name="Jcircumflex" unicode="&#x134;" horiz-adv-x="577" 
d="M298 911l-96 -130h-45l131 168h21l127 -168h-47zM332 269q0 -146 -67.5 -207.5t-226.5 -64.5v58q128 2 178 47.5t50 166.5v378h-228v49h505v-48h-211v-379z" />
    <glyph glyph-name="jcircumflex" unicode="&#x135;" horiz-adv-x="408" 
d="M227 715l-98 -130h-45l132 168h21l129 -168h-48zM42 -231q-11 1 -40 18v51q39 -20 76 -20q67 0 97 40t30 130v517h62v-522q0 -111 -44.5 -165t-137.5 -54q-23 0 -43 5z" />
    <glyph glyph-name="uni0136" unicode="&#x136;" horiz-adv-x="652" 
d="M170 357v-352h-67v695h67v-321l345 320l80 1l-360 -331l381 -364h-82zM268 -361q80 51 93 136h-18q-21 0 -36 15t-15 36q0 22 15.5 37.5t36.5 15.5q25 0 40 -18t15 -51q0 -68 -28 -113.5t-90 -78.5z" />
    <glyph glyph-name="uni0137" unicode="&#x137;" horiz-adv-x="551" 
d="M159 269v-264h-62v733h62v-468l274 236h70l-269 -234l279 -267h-82zM206 -361q79 54 91 136h-17q-22 0 -36.5 15t-14.5 36q0 22 15 37.5t37 15.5q25 0 40 -18t15 -51q0 -130 -117 -193z" />
    <glyph glyph-name="kgreenlandic" unicode="&#x138;" horiz-adv-x="554" 
d="M159 268v-268h-62v510h62v-241l274 240h70l-269 -238l279 -271h-82z" />
    <glyph glyph-name="Lacute" unicode="&#x139;" horiz-adv-x="570" 
d="M100 783l136 140l29 -42l-121 -108zM99 696h66v-641h372v-55h-438v696z" />
    <glyph glyph-name="lacute" unicode="&#x13a;" horiz-adv-x="282" 
d="M88 795l143 140l30 -42l-127 -108zM111 738l58 1v-738l-58 -1v738z" />
    <glyph glyph-name="uni013B" unicode="&#x13b;" horiz-adv-x="570" 
d="M99 700h66v-640h372v-55h-438v695zM251 -360q80 51 93 136h-18q-21 0 -36 15t-15 36q0 22 15.5 37.5t36.5 15.5q25 0 40.5 -18.5t15.5 -50.5q0 -69 -28 -114t-91 -78z" />
    <glyph glyph-name="uni013C" unicode="&#x13c;" horiz-adv-x="269" 
d="M112 738l58 1v-738l-58 -1v738zM54 -361q83 53 99 136h-19q-23 0 -39 15t-16 36q0 22 16.5 37.5t39.5 15.5q27 0 43.5 -18.5t16.5 -50.5q0 -129 -126 -193z" />
    <glyph glyph-name="Lcaron" unicode="&#x13d;" horiz-adv-x="583" 
d="M418 461q79 55 92 138h-17q-22 0 -37 15t-15 36q0 22 15.5 37.5t37.5 15.5q25 0 40 -18.5t15 -50.5q0 -131 -116 -194zM99 700h66v-645h372v-55h-438v700z" />
    <glyph glyph-name="lcaron" unicode="&#x13e;" horiz-adv-x="361" 
d="M108 738l58 1v-738l-58 -1v738zM280 497q80 55 93 137h-17q-22 0 -37 15t-15 36q0 22 15.5 37.5t37.5 15.5q25 0 40.5 -18.5t15.5 -50.5q0 -131 -119 -194z" />
    <glyph glyph-name="Ldot" unicode="&#x13f;" horiz-adv-x="573" 
d="M99 700h66v-645h372v-55h-438v700zM446 346q0 19 13.5 32t32.5 13q20 0 33.5 -13t13.5 -32t-14 -32.5t-33 -13.5t-32.5 13.5t-13.5 32.5z" />
    <glyph glyph-name="ldot" unicode="&#x140;" horiz-adv-x="442" 
d="M108 738l58 1v-738l-58 -1v738zM320 357q0 19 13.5 32t33.5 13t34 -13t14 -32t-14 -32.5t-34 -13.5t-33.5 13.5t-13.5 32.5z" />
    <glyph glyph-name="Lslash" unicode="&#x141;" horiz-adv-x="589" 
d="M116 270l-84 -37l-10 35l94 41v391h66v-368l213 76l14 -34l-227 -82v-237h374v-55h-440v270z" />
    <glyph glyph-name="lslash" unicode="&#x142;" horiz-adv-x="351" 
d="M200 0h-57v294l-118 -42l-14 35l132 47v389h57v-368l118 42l15 -36l-133 -46v-315z" />
    <glyph glyph-name="Nacute" unicode="&#x143;" horiz-adv-x="776" 
d="M328 783l135 140l28 -42l-120 -108zM168 544v-544h-66v700l506 -537v537h66l-1 -700z" />
    <glyph glyph-name="nacute" unicode="&#x144;" 
d="M237 609l136 140l28 -42l-120 -108zM471 273q0 88 -41.5 138t-112.5 50q-67 0 -111.5 -57.5t-44.5 -137.5v-266h-62v504h62v-116q36 69 76 98t99 29q92 0 144.5 -57.5t52.5 -164.5v-293h-62v273z" />
    <glyph glyph-name="uni0145" unicode="&#x145;" horiz-adv-x="776" 
d="M168 544v-544h-66v700l506 -537v537h66l-1 -700zM319 -361q42 26 63.5 58.5t28.5 77.5h-17q-21 0 -36 15t-15 36q0 22 15.5 37.5t36.5 15.5q25 0 40 -18t15 -51q0 -68 -28 -113.5t-90 -78.5z" />
    <glyph glyph-name="uni0146" unicode="&#x146;" 
d="M471 279q0 87 -41.5 137t-112.5 50q-67 0 -111.5 -57.5t-44.5 -137.5v-265h-62v503h62v-116q36 69 76 98t99 29q92 0 144.5 -57.5t52.5 -163.5v-293h-62v273zM230 -361q79 54 92 137h-17q-22 0 -37 15t-15 36q0 22 15.5 37t37.5 15q25 0 40 -18t15 -50q0 -131 -117 -194z
" />
    <glyph glyph-name="Ncaron" unicode="&#x147;" horiz-adv-x="776" 
d="M379 778l-121 168h46l94 -141l95 141h43l-119 -168h-38zM168 544v-544h-66v700l506 -537v537h66l-1 -700z" />
    <glyph glyph-name="ncaron" unicode="&#x148;" 
d="M294 585l-121 168h46l95 -142l95 142h44l-120 -168h-39zM471 273q0 88 -41.5 138t-112.5 50q-67 0 -111.5 -57.5t-44.5 -137.5v-266h-62v504h62v-116q36 69 75.5 98t99.5 29q92 0 144.5 -57.5t52.5 -164.5v-293h-62v273z" />
    <glyph glyph-name="napostrophe" unicode="&#x149;" horiz-adv-x="601" 
d="M5 604q78 56 91 137h-17q-22 0 -36.5 15t-14.5 37q0 21 15 36.5t37 15.5q25 0 40 -18.5t15 -50.5q0 -130 -116 -193zM471 272q0 88 -41 138t-112 50q-67 0 -110.5 -57t-43.5 -138v-265h-62v503h62v-116q35 69 74.5 98t98.5 29q92 0 144 -57.5t52 -163.5v-293h-62v272z
" />
    <glyph glyph-name="Eng" unicode="&#x14a;" horiz-adv-x="776" 
d="M356 -188q131 2 188 53.5t63 177.5l-438 496l-1 -539h-66v700l506 -571v571h66v-703q0 -117 -82.5 -179.5t-235.5 -64.5v59z" />
    <glyph glyph-name="eng" unicode="&#x14b;" 
d="M304 -230q-6 2 -43 23v46q38 -21 84 -21q67 0 96.5 40.5t29.5 130.5v289q0 88 -41.5 138t-112.5 50q-67 0 -111.5 -57.5t-44.5 -137.5v-266h-62v504h62v-120q25 47 35 59q14 19 35 37q41 35 105 35q92 0 144.5 -57.5t52.5 -164.5v-314q0 -112 -44 -166t-137 -54
q-33 0 -48 6z" />
    <glyph glyph-name="Omacron" unicode="&#x14c;" horiz-adv-x="816" 
d="M280 904h263v-43h-263v43zM50 348q0 89 51.5 173t135 136.5t171.5 52.5t171.5 -52.5t135 -136.5t51.5 -173q0 -90 -51.5 -174t-135 -135.5t-171.5 -51.5t-171.5 51.5t-135 135.5t-51.5 174zM116 348q0 -111 91.5 -208t200.5 -97q72 0 140.5 45.5t110 116.5t41.5 143
q0 110 -91 207.5t-201 98.5q-109 0 -200.5 -97.5t-91.5 -208.5z" />
    <glyph glyph-name="omacron" unicode="&#x14d;" horiz-adv-x="622" 
d="M179 712h265v-43h-265v43zM48 252q0 101 81 182.5t182 81.5t182 -81.5t81 -182.5t-81 -182t-182 -81t-182 81t-81 182zM110 252q0 -85 60 -148t141 -62q83 1 142.5 63t59.5 147t-59.5 147t-142.5 63q-81 1 -141 -62t-60 -148z" />
    <glyph glyph-name="Obreve" unicode="&#x14e;" horiz-adv-x="816" 
d="M291 927q21 -44 44 -60t65 -16q41 0 62.5 16.5t44.5 60.5l35 -17q-24 -54 -55.5 -76t-86.5 -22q-54 0 -85.5 22t-57.5 77zM50 348q0 136 111.5 248.5t246.5 112.5t246.5 -112.5t111.5 -248.5q0 -90 -51.5 -174t-135 -135.5t-171.5 -51.5t-171.5 51.5t-135 135.5
t-51.5 174zM116 348q0 -111 91.5 -208t200.5 -97q72 0 140.5 45.5t110 116.5t41.5 143q0 110 -91.5 208t-200.5 98t-200.5 -98t-91.5 -208z" />
    <glyph glyph-name="obreve" unicode="&#x14f;" horiz-adv-x="622" 
d="M198 742q21 -44 44.5 -60.5t65.5 -16.5q43 0 64 16.5t43 61.5l36 -17q-24 -54 -56 -76t-87 -22q-54 0 -86 22.5t-58 76.5zM48 252q0 100 81 181.5t182 81.5t182 -81.5t81 -181.5q0 -101 -81 -182t-182 -81t-182 81t-81 182zM110 252q-1 -85 59.5 -148t141.5 -62
q83 1 142.5 63t59.5 147q0 86 -59.5 147.5t-142.5 61.5q-82 0 -140.5 -61t-60.5 -148z" />
    <glyph glyph-name="Ohungarumlaut" unicode="&#x150;" horiz-adv-x="816" 
d="M300 784l134 140l28 -42l-118 -108zM434 782l134 140l28 -42l-119 -108zM50 348q0 89 51.5 173t135 136.5t171.5 52.5t171.5 -52.5t135 -136.5t51.5 -173q0 -90 -51.5 -174t-135 -135.5t-171.5 -51.5t-171.5 51.5t-135 135.5t-51.5 174zM116 348q0 -111 91.5 -208
t200.5 -97q72 0 140.5 45.5t110 116.5t41.5 143q0 110 -91.5 208t-200.5 98t-200.5 -98t-91.5 -208z" />
    <glyph glyph-name="ohungarumlaut" unicode="&#x151;" horiz-adv-x="622" 
d="M179 603l135 140l28 -42l-120 -108zM314 601l135 140l28 -42l-120 -108zM48 252q0 100 81 181.5t182 81.5t182 -81.5t81 -181.5q0 -101 -81 -182t-182 -81t-182 81t-81 182zM110 252q-1 -85 59.5 -148t141.5 -62q83 1 142.5 63t59.5 147q0 86 -59.5 147.5t-142.5 61.5
q-82 0 -140.5 -61t-60.5 -148z" />
    <glyph glyph-name="OE" unicode="&#x152;" horiz-adv-x="1114" 
d="M489 -7q-32 -4 -101 -6q-84 -2 -163 51t-127 138t-48 173q0 89 48 174.5t127.5 138.5t163.5 51q66 -2 99 -6q56 -7 92 -7h472v-54l-465 -1q75 -45 117 -113t47 -151h278v-55h-278q-10 -172 -163 -271h464v-55h-472q-35 0 -91 -7zM117 349q0 -73 40 -144t107 -116.5
t138 -45.5q110 1 197.5 97t86.5 210q0 113 -86 210t-196 97q-109 0 -198 -97t-89 -211z" />
    <glyph glyph-name="oe" unicode="&#x153;" horiz-adv-x="970" 
d="M527 130q21 -41 68 -65q48 -24 96 -24q89 0 173 60l31 -38q-86 -74 -207 -74q-109 0 -192 80q-78 -79 -194 -80q-97 -1 -175.5 81.5t-78.5 183.5t78.5 184.5t173.5 81.5q118 -2 196 -80q83 80 189 80q107 0 174.5 -79t67.5 -206h-400v-105zM529 273h335q-3 84 -54.5 141
t-127.5 57q-47 0 -88 -24.5t-65 -66.5v-107zM308 465q-81 0 -140 -62.5t-59 -148.5q0 -87 58 -149t141 -62q53 0 95.5 28t64.5 78v210q-22 50 -64.5 78t-95.5 28z" />
    <glyph glyph-name="Racute" unicode="&#x154;" horiz-adv-x="668" 
d="M263 780l135 140l28 -42l-120 -108zM361 279h-196v-279h-66v696h254q100 0 171 -49q71 -48 71 -157q0 -159 -166 -205l193 -285h-81zM165 642v-310h183q90 0 136.5 40.5t46.5 117.5q0 75 -47.5 113.5t-135.5 38.5h-183z" />
    <glyph glyph-name="racute" unicode="&#x155;" horiz-adv-x="414" 
d="M176 604l138 140l29 -42l-123 -108zM150 0h-63v504h63v-144q41 79 87 117q45 36 135 38v-60q-93 -3 -157.5 -61t-64.5 -134v-260z" />
    <glyph glyph-name="uni0156" unicode="&#x156;" horiz-adv-x="668" 
d="M361 283h-196v-278h-66v695h254q100 0 171 -49q71 -48 71 -156q0 -160 -166 -206l193 -284h-81zM165 646v-309h183q183 0 183 158q0 74 -47.5 112.5t-135.5 38.5h-183zM273 -361q42 26 63.5 58.5t28.5 77.5h-17q-22 0 -36.5 15t-14.5 36q0 22 15 37.5t37 15.5
q25 0 40 -18.5t15 -50.5q0 -68 -28 -113.5t-90 -78.5z" />
    <glyph glyph-name="uni0157" unicode="&#x157;" horiz-adv-x="397" 
d="M144 6h-63v503h63v-144q42 83 86 117q45 36 134 38v-60q-94 -3 -157 -60t-63 -135v-259zM44 -361q80 55 93 137h-18q-22 0 -37 15t-15 36q0 22 15.5 37t37.5 15q25 0 40.5 -18t15.5 -50q0 -130 -118 -194z" />
    <glyph glyph-name="Rcaron" unicode="&#x158;" horiz-adv-x="668" 
d="M300 778l-121 168h46l95 -141l94 141h44l-120 -168h-38zM361 278h-196v-278h-66v696h254q100 0 171 -49q71 -48 71 -157q0 -160 -166 -206l193 -284h-81zM165 642v-310h183q90 0 136.5 40.5t46.5 117.5q0 74 -47.5 113t-135.5 39h-183z" />
    <glyph glyph-name="rcaron" unicode="&#x159;" horiz-adv-x="371" 
d="M168 585l-124 168h47l97 -142l97 142h45l-123 -168h-39zM119 0h-63v504h63v-144q36 75 87 117q44 37 134 38v-60q-94 -3 -157.5 -60t-63.5 -135v-260z" />
    <glyph glyph-name="Sacute" unicode="&#x15a;" horiz-adv-x="639" 
d="M251 781l135 140l28 -42l-120 -108zM78 118q115 -73 242 -73q86 0 142 32q60 36 59 112q-1 64 -48.5 92t-169.5 45q-106 15 -173 53q-63 36 -63 126q0 79 66.5 140.5t180.5 61.5q82 0 132 -18q58 -20 135 -67l-32 -46l-10 7q-99 69 -211 69q-96 0 -147 -41.5t-51 -105.5
q0 -56 49.5 -84t166.5 -43q125 -16 182 -59.5t57 -126.5q0 -88 -69 -145.5t-186 -57.5q-163 0 -285 83z" />
    <glyph glyph-name="sacute" unicode="&#x15b;" horiz-adv-x="508" 
d="M207 609l136 140l28 -42l-120 -108zM68 98q99 -62 187 -62q71 0 110.5 27t39.5 75q0 36 -37 57.5t-116 32.5q-110 16 -151.5 43.5t-42.5 96.5q-1 67 51 107t140 40q109 0 207 -57l-29 -42q-64 33 -90 41q-36 11 -84 11q-63 0 -100 -26t-37 -71q5 -35 16 -51
q12 -14 38 -21.5t98 -17.5q101 -15 148.5 -48t47.5 -90q0 -69 -56 -111.5t-149 -42.5q-119 0 -216 64z" />
    <glyph glyph-name="Scircumflex" unicode="&#x15c;" horiz-adv-x="639" 
d="M323 912l-96 -130h-44l130 168h21l127 -168h-47zM78 118q115 -73 242 -73q86 0 142 32q60 36 59 112q-1 64 -48.5 92t-169.5 45q-106 15 -173 53q-63 36 -63 126q0 79 66.5 140.5t180.5 61.5q77 0 132 -19q61 -22 135 -66l-32 -47l-10 8q-85 68 -211 68q-96 0 -147 -41
t-51 -105q0 -56 49.5 -84t166.5 -43q125 -16 182 -59.5t57 -126.5q0 -88 -69 -145.5t-186 -57.5q-163 0 -285 83z" />
    <glyph glyph-name="scircumflex" unicode="&#x15d;" horiz-adv-x="508" 
d="M252 715l-97 -130h-45l131 168h22l128 -168h-48zM68 98q99 -62 187 -62q71 0 110.5 27t39.5 75q0 36 -37 57.5t-116 32.5q-110 16 -151.5 43.5t-42.5 96.5q-1 67 51 107t140 40q109 0 207 -57l-29 -42q-64 33 -90 41q-36 11 -84 11q-63 0 -100 -26t-37 -71q5 -35 16 -51
q12 -14 38 -21.5t98 -17.5q101 -15 148.5 -48t47.5 -90q0 -69 -56 -111.5t-149 -42.5q-119 0 -216 64z" />
    <glyph glyph-name="Scedilla" unicode="&#x15e;" horiz-adv-x="634" 
d="M303 -79q116 0 116 -86q0 -37 -24.5 -59.5t-68.5 -22.5q-40 0 -96 38l18 21q40 -29 83 -29q57 0 57 52q0 31 -18 45t-57 13l-45 -1l23 102q-133 12 -243 80l31 47q114 -72 236 -72q86 0 142 32q59 35 59 111q0 61 -49.5 91.5t-167.5 46.5q-105 15 -174 53q-64 37 -64 125
q-1 77 66 140t180 63q78 0 132 -19q57 -19 131 -61l-30 -48q-112 72 -217 72q-97 0 -147.5 -42t-50.5 -105q0 -56 49.5 -83.5t167.5 -42.5q125 -16 181.5 -60t56.5 -127q0 -88 -70 -145t-196 -57z" />
    <glyph glyph-name="scedilla" unicode="&#x15f;" horiz-adv-x="508" 
d="M245 -78q117 0 117 -86q0 -37 -25.5 -59.5t-67.5 -22.5q-44 0 -95 37l15 22q49 -28 84 -28q57 0 57 51q0 59 -75 59h-44l21 100q-67 9 -107 23q-36 12 -81 43l25 42q88 -62 186 -62q71 0 110.5 26.5t39.5 75.5q0 36 -37 57t-116 32q-110 16 -151.5 43.5t-42.5 97.5
q-1 67 51 107t140 40q46 0 103.5 -17t102.5 -44l-23 -45l-7 5q-76 54 -172 54q-64 0 -100.5 -25.5t-36.5 -72.5q3 -32 14 -48q11 -15 37.5 -22.5t100.5 -19.5q106 -16 151 -47.5t45 -90.5q0 -69 -55.5 -110.5t-152.5 -42.5z" />
    <glyph glyph-name="Scaron" unicode="&#x160;" horiz-adv-x="645" 
d="M299 778l-120 168h46l94 -141l95 141h44l-120 -168h-39zM78 118q115 -73 242 -73q86 0 142 32q60 36 59 112q-1 64 -48.5 92t-169.5 45q-106 15 -173 53q-63 36 -63 126q0 79 66.5 140.5t180.5 61.5q77 0 132 -19q61 -22 135 -66l-32 -47l-10 8q-85 68 -211 68
q-96 0 -147 -41t-51 -105q0 -56 49.5 -84t166.5 -43q125 -16 182 -59.5t57 -126.5q0 -88 -69 -145.5t-186 -57.5q-163 0 -285 83z" />
    <glyph glyph-name="scaron" unicode="&#x161;" horiz-adv-x="508" 
d="M232 585l-121 168h46l95 -142l95 142h44l-120 -168h-39zM68 98q99 -62 187 -62q71 0 110.5 27t39.5 75q0 36 -37 57.5t-116 32.5q-110 16 -151.5 43.5t-42.5 96.5q-1 67 51 107t140 40q109 0 207 -57l-29 -42q-64 33 -90 41q-36 11 -84 11q-63 0 -100 -26t-37 -71
q5 -35 16 -51q12 -14 38 -21.5t98 -17.5q101 -15 148.5 -48t47.5 -90q0 -69 -56 -111.5t-149 -42.5q-119 0 -216 64z" />
    <glyph glyph-name="uni0162" unicode="&#x162;" horiz-adv-x="609" 
d="M337 5h-65v637h-262v58h589v-58h-262v-637zM226 -361q42 26 63.5 58.5t28.5 77.5h-17q-22 0 -36.5 15t-14.5 36q0 22 15.5 37.5t36.5 15.5q25 0 40 -18.5t15 -50.5q0 -68 -28 -113.5t-90 -78.5z" />
    <glyph glyph-name="uni0163" unicode="&#x163;" horiz-adv-x="438" 
d="M114 460h-68v47h68v121h61v-121h205v-47h-205v-242q0 -90 30 -130t98 -40q46 0 83 19l15 -48q-50 -24 -106 -24q-93 0 -137 53t-44 164v248zM105 -361q80 54 93 136h-18q-22 0 -37 15t-15 37q0 21 15.5 36.5t37.5 15.5q25 0 40.5 -18.5t15.5 -50.5q0 -129 -118 -193z" />
    <glyph glyph-name="Tcaron" unicode="&#x164;" horiz-adv-x="609" 
d="M287 778l-120 168h46l94 -141l95 141h43l-119 -168h-39zM337 0h-65v638h-262v58h589v-58h-262v-638z" />
    <glyph glyph-name="tcaron" unicode="&#x165;" horiz-adv-x="476" 
d="M426 626q78 56 91 137h-17q-22 0 -36.5 15t-14.5 37q0 21 15 36.5t37 15.5q25 0 40 -18.5t15 -50.5q0 -130 -116 -193zM293 -11q-92 0 -135.5 53.5t-43.5 164.5v248h-58q-6 0 -7.5 1.5t-1.5 7.5v30q0 7 1 8t8 1h58v112q0 9 8 9h45q8 0 8 -9v-112h194q8 0 8 -9v-30
q0 -9 -8 -9h-194v-242q0 -89 29.5 -129.5t96.5 -40.5q44 0 75 16q4 3 7 3q2 0 2 -6l6 -33l2 -7q0 -1 -3 -3l-2 -1q-41 -23 -95 -23z" />
    <glyph glyph-name="Tbar" unicode="&#x166;" horiz-adv-x="619" 
d="M342 408h250v-52h-250v-356h-65v356h-250v52h250v234h-267v58h599v-58h-267v-234z" />
    <glyph glyph-name="tbar" unicode="&#x167;" horiz-adv-x="471" 
d="M146 177q-4 41 -4 89h-94v48h94v144h-94l-1 48h95v112h61v-112h204l1 -48h-205v-144h204v-48h-204l4 -73q5 -81 33 -115.5t91 -34.5q36 0 87 21l13 -45q-49 -30 -109 -30q-84 0 -126 45.5t-50 142.5z" />
    <glyph glyph-name="Utilde" unicode="&#x168;" horiz-adv-x="716" 
d="M356 832q-45 36 -74 36q-30 0 -44 -11.5t-26 -47.5l-40 9l4 14q22 76 100 76q38 0 86 -34q30 -23 42 -28.5t29 -5.5q27 0 43.5 13.5t34.5 49.5l33 -15q-23 -50 -46 -69t-60 -19q-41 0 -82 32zM75 697h66v-407q0 -120 56 -183.5t161 -63.5t161 63.5t56 183.5v407h66v-412
q0 -140 -77.5 -219t-205.5 -79t-205.5 79t-77.5 219v412z" />
    <glyph glyph-name="utilde" unicode="&#x169;" 
d="M280 664q-42 36 -74 36q-30 0 -44 -12t-26 -48l-41 10l5 14q27 76 100 76q42 0 86 -34q31 -23 42.5 -28.5t29.5 -5.5q28 0 44.5 13.5t34.5 49.5l33 -16q-23 -50 -45.5 -68.5t-60.5 -18.5q-26 0 -43.5 6.5t-40.5 25.5zM444 132q-42 -79 -80 -111t-95 -32
q-92 0 -144.5 57.5t-52.5 164.5v293h62v-273q0 -88 41.5 -138t112.5 -50q66 0 111 57.5t45 137.5v266h62v-504h-62v132z" />
    <glyph glyph-name="Umacron" unicode="&#x16a;" horiz-adv-x="716" 
d="M226 904h265v-43h-265v43zM75 697h66v-407q0 -120 56 -183.5t161 -63.5t161 63.5t56 183.5v407h66v-412q0 -140 -77.5 -219t-205.5 -79t-205.5 79t-77.5 219v412z" />
    <glyph glyph-name="umacron" unicode="&#x16b;" 
d="M156 712h267v-43h-267v43zM444 132q-42 -79 -80 -111t-95 -32q-92 0 -144.5 58t-52.5 164v294h62v-273q0 -89 41 -139t113 -50q66 0 111 58t45 138v266h62v-505h-62v132z" />
    <glyph glyph-name="Ubreve" unicode="&#x16c;" horiz-adv-x="716" 
d="M255 927q21 -44 44 -60t65 -16q41 0 63 16.5t44 60.5l36 -17q-24 -54 -56 -76t-87 -22q-54 0 -86 22.5t-58 76.5zM75 696h66v-406q0 -120 56 -183.5t161 -63.5t161 63.5t56 183.5v406h66v-411q0 -140 -77.5 -219t-205.5 -79t-205.5 79t-77.5 219v411z" />
    <glyph glyph-name="ubreve" unicode="&#x16d;" 
d="M186 742q21 -44 44.5 -60.5t65.5 -16.5q43 0 65 17q21 18 43 61l36 -17q-24 -55 -56 -76.5t-88 -21.5q-54 0 -86 22t-59 77zM444 132q-42 -79 -80 -111t-95 -32q-92 0 -144.5 57.5t-52.5 164.5v293h62v-273q0 -88 41.5 -138t112.5 -50q66 0 111 57.5t45 137.5v266h62
v-504h-62v132z" />
    <glyph glyph-name="Uring" unicode="&#x16e;" horiz-adv-x="716" 
d="M257 885q0 45 28.5 74t72.5 29t72.5 -29t28.5 -74t-28.5 -74t-72.5 -29t-72.5 29t-28.5 74zM286 885q0 -32 20.5 -55t51.5 -23q32 0 52 22.5t20 55.5t-20 55t-51 22q-32 0 -52.5 -22t-20.5 -55zM75 696h66v-406q0 -120 56 -183.5t161 -63.5t161 63.5t56 183.5v406h66
v-411q0 -140 -77.5 -219t-205.5 -79t-205.5 79t-77.5 219v411z" />
    <glyph glyph-name="uring" unicode="&#x16f;" 
d="M190 694q0 45 29 74t73 29t73 -29t29 -74q0 -46 -29 -75t-73 -29t-73 29t-29 75zM219 694q0 -32 21 -55t52 -23q32 0 52.5 22.5t20.5 55.5t-20 55t-52 22t-53 -23t-21 -54zM444 132q-42 -79 -80 -111t-95 -32q-92 0 -144.5 57.5t-52.5 164.5v293h62v-273q0 -88 41.5 -138
t112.5 -50q66 0 111 57.5t45 137.5v266h62v-504h-62v132z" />
    <glyph glyph-name="Uhungarumlaut" unicode="&#x170;" horiz-adv-x="716" 
d="M239 787l135 140l28 -42l-119 -108zM374 785l135 140l28 -42l-120 -108zM75 696h66v-406q0 -120 56 -183.5t161 -63.5t161 63.5t56 183.5v406h66v-411q0 -140 -77.5 -219t-205.5 -79t-205.5 79t-77.5 219v411z" />
    <glyph glyph-name="uhungarumlaut" unicode="&#x171;" 
d="M150 597l136 140l28 -42l-120 -108zM285 595l136 140l29 -42l-121 -108zM444 132q-42 -79 -80 -111t-95 -32q-92 0 -144.5 57.5t-52.5 164.5v293h62v-273q0 -88 41.5 -138t112.5 -50q66 0 111 57.5t45 137.5v266h62v-504h-62v132z" />
    <glyph glyph-name="Uogonek" unicode="&#x172;" horiz-adv-x="716" 
d="M392 -8q-76 -37 -76 -93q0 -41 17.5 -63t50.5 -21l54 2v-27q-30 -2 -62 -2q-91 0 -91 100q0 54 68 102q-141 7 -210 87q-68 78 -68 212v411h66v-406q0 -120 56 -184t161 -64t161 64t56 184v406h66v-411q0 -131 -68 -211q-67 -75 -181 -86z" />
    <glyph glyph-name="uogonek" unicode="&#x173;" horiz-adv-x="624" 
d="M371 -103q0 41 28 68l44 43v130q-34 -66 -40 -76q-13 -21 -29 -34q-42 -35 -105 -35q-92 0 -144.5 58t-52.5 164v294h62v-273q0 -88 41.5 -138.5t112.5 -50.5q67 0 111 57.5t44 138.5v266h62v-506q-46 -13 -70 -29q-32 -23 -32 -66q0 -40 18 -62t50 -22q9 0 24.5 1
t22.5 1h7v-28q-30 -2 -62 -2q-44 0 -68 26t-24 75z" />
    <glyph glyph-name="Wcircumflex" unicode="&#x174;" horiz-adv-x="961" 
d="M482 910l-95 -130h-44l129 168h20l126 -168h-47zM642 0l-162 569l-151 -569h-40l-252 696h61l205 -574l175 574h8l175 -574l205 574h62l-253 -696h-33z" />
    <glyph glyph-name="wcircumflex" unicode="&#x175;" horiz-adv-x="733" 
d="M369 715l-96 -130h-44l130 168h21l126 -168h-47zM527 0l-160 399l-162 -399h-25l-158 504h69l111 -388l162 388h5l163 -388l111 388h68l-159 -504h-25z" />
    <glyph glyph-name="Ycircumflex" unicode="&#x176;" horiz-adv-x="623" 
d="M319 911l-96 -130h-44l130 168h21l127 -168h-48zM345 0h-63v273l-257 423h63l226 -365l224 365h60l-253 -423v-273z" />
    <glyph glyph-name="ycircumflex" unicode="&#x177;" horiz-adv-x="516" 
d="M270 715l-97 -130h-45l131 168h21l127 -168h-47zM123 -204l102 226l-213 483h57l184 -404h11l180 404h60l-315 -709h-66z" />
    <glyph glyph-name="Ydieresis" unicode="&#x178;" horiz-adv-x="623" 
d="M165 874q0 16 11 27.5t27 11.5t28 -11.5t12 -27.5t-11.5 -27t-28.5 -11q-16 0 -27 11t-11 27zM363 874q0 16 11.5 27.5t27.5 11.5t27.5 -11.5t11.5 -27.5t-11.5 -27t-27.5 -11t-27.5 11t-11.5 27zM345 0h-63v273l-257 423h63l226 -364l224 364h60l-253 -423v-273z" />
    <glyph glyph-name="Zacute" unicode="&#x179;" horiz-adv-x="621" 
d="M255 783l135 140l28 -42l-120 -108zM569 55v-55h-526l430 640l-401 1v55h510l-428 -640z" />
    <glyph glyph-name="zacute" unicode="&#x17a;" horiz-adv-x="488" 
d="M173 609l136 140l29 -42l-121 -108zM355 451h-303v53h393l-315 -451h325v-53h-416z" />
    <glyph glyph-name="Zdotaccent" unicode="&#x17b;" horiz-adv-x="621" 
d="M277 874q0 19 13 32t32 13q20 0 33.5 -13t13.5 -32t-13.5 -32t-33.5 -13q-19 0 -32 13t-13 32zM569 55v-55h-526l430 640l-401 1v55h510l-428 -640z" />
    <glyph glyph-name="zdotaccent" unicode="&#x17c;" horiz-adv-x="488" 
d="M212 683q0 19 13.5 32t33.5 13q19 0 33 -13t14 -32t-14 -32.5t-33 -13.5q-20 0 -33.5 13.5t-13.5 32.5zM355 451h-303v53h393l-315 -451h325v-53h-416z" />
    <glyph glyph-name="Zcaron" unicode="&#x17d;" horiz-adv-x="621" 
d="M300 778l-121 168h46l94 -141l95 141h43l-119 -168h-38zM569 55v-55h-526l430 640l-401 1v55h510l-428 -640z" />
    <glyph glyph-name="zcaron" unicode="&#x17e;" horiz-adv-x="488" 
d="M232 585l-121 168h46l95 -142l96 142h44l-121 -168h-39zM355 451h-303v53h393l-315 -451h325v-53h-416z" />
    <glyph glyph-name="longs" unicode="&#x17f;" horiz-adv-x="413" 
d="M313 707q-68 0 -98 -40.5t-30 -130.5v-536h-61v454h-94v48h94v39q0 112 44 166t137 54q47 0 92 -21l-10 -46q-35 13 -74 13z" />
    <glyph glyph-name="florin" unicode="&#x192;" horiz-adv-x="480" 
d="M455 685q-50 22 -88 22q-67 0 -96 -40t-29 -130v-34h202v-48h-202v-472q0 -114 -36 -166.5t-112 -52.5q-52 0 -106 28l15 49q42 -23 84 -23q49 0 71 42.5t22 127.5v467h-108v48h108v39q0 111 44 165t136 54q54 0 103 -27l-1 -11z" />
    <glyph glyph-name="Aringacute" unicode="&#x1fa;" horiz-adv-x="712" 
d="M293 1058l134 139l28 -42l-119 -107zM254 883q0 44 28.5 73t72.5 29t72.5 -29t28.5 -73q0 -45 -28.5 -74t-72.5 -29t-72.5 29t-28.5 74zM283 883q0 -32 20.5 -55t51.5 -23q32 0 52 22.5t20 55.5q0 31 -20.5 53.5t-50.5 22.5q-32 0 -52.5 -22.5t-20.5 -53.5zM696 0h-68
l-87 188h-367l-87 -188h-67l337 704zM352 587l-157 -345h325l-157 345h-11z" />
    <glyph glyph-name="aringacute" unicode="&#x1fb;" horiz-adv-x="561" 
d="M223 862l136 139l28 -42l-120 -108zM178 691q0 45 29 74t73 29t73 -29t29 -74t-29 -74t-73 -29t-73 29t-29 74zM207 691q0 -32 21 -55t52 -23q32 0 52.5 22.5t20.5 55.5t-20 54.5t-52 21.5t-53 -22.5t-21 -53.5zM435 101q-44 -59 -92.5 -85.5t-112.5 -26.5q-78 0 -127 44
t-49 117q0 76 53 116.5t151 40.5q76 0 176 -39q0 105 -31.5 143.5t-122.5 49.5q-3 1 -27 1q-32 0 -55 -4l-25 -4q-55 -8 -63 -11l-13 50q93 24 163 21l22 -1q129 -6 171.5 -53.5t42.5 -182.5v-277h-61v101zM274 265q-76 0 -117 -29.5t-41 -85.5q0 -53 37 -84.5t101 -31.5
q54 0 102 29q49 30 78 71v92q-62 25 -88 31q-35 8 -72 8z" />
    <glyph glyph-name="AEacute" unicode="&#x1fc;" horiz-adv-x="973" 
d="M411 781l133 140l28 -42l-118 -108zM436 189h-241l-111 -189h-72l403 696h496v-55h-404v-262h382v-55h-382v-269h404v-55h-475v189zM222 243h214v379z" />
    <glyph glyph-name="aeacute" unicode="&#x1fd;" horiz-adv-x="937" 
d="M373 609l134 140l27 -42l-118 -108zM489 157q19 -47 66 -82q47 -34 101 -34q92 0 175 57l31 -37q-83 -72 -210 -72q-65 0 -116 33q-51 35 -78 88q-42 -52 -103 -86q-62 -35 -133 -35q-77 0 -125 42q-49 43 -49 118q0 77 51 118t146 41q83 0 181 -39v97q-13 53 -49 75
t-106 22q-77 0 -158 -16l-8 -3l-15 50l11 3q2 1 72 11q58 7 103 7q69 0 110.5 -19.5t68.5 -65.5q46 46 93 65.5t109 19.5q104 0 170.5 -81t66.5 -191v-10h-405v-76zM651 466q-100 0 -160 -97v-98h340q-3 85 -49 140t-131 55zM261 266q-76 0 -117 -30.5t-41 -87.5
q0 -52 36 -83t98 -31q56 0 107 29q56 32 82 72v92q-95 39 -165 39z" />
    <glyph glyph-name="Oslashacute" unicode="&#x1fe;" horiz-adv-x="816" 
d="M366 788l134 139l28 -42l-119 -108zM223 -35l-11 -22l-37 18l44 81q-80 54 -123.5 137t-45.5 179q-2 132 108 243.5t240 108.5q83 -2 154 -31l27 53l11 23l28 -14l10 -6l-41 -74q73 -49 127 -126q49 -67 52 -198q1 -85 -49.5 -167.5t-132.5 -133t-166 -48.5
q-91 2 -164 36zM116 361q2 -99 39 -158q36 -57 94 -106l277 530q-68 25 -125 27q-105 3 -196 -92.5t-89 -200.5zM281 75q62 -29 138 -31q105 -2 194 94.5t87 203.5q-1 99 -43 158q-47 64 -98 106z" />
    <glyph glyph-name="oslashacute" unicode="&#x1ff;" horiz-adv-x="622" 
d="M256 593l135 140l28 -42l-119 -108zM166 -59l-39 15l39 76q-57 38 -87.5 97.5t-32.5 128.5q-2 97 78.5 178.5t178.5 79.5q59 -2 105 -21l41 68l35 -17l-39 -69q125 -80 127 -230q2 -96 -78.5 -177.5t-176.5 -79.5q-60 2 -117 23zM107 252q0 -53 19 -88q19 -33 67 -80
l190 362q-39 16 -74 16q-82 0 -142 -62t-60 -148zM227 64q37 -21 82 -21q83 0 142 61.5t59 147.5q0 96 -92 173z" />
    <glyph glyph-name="uni0218" unicode="&#x218;" horiz-adv-x="639" 
d="M78 123q115 -73 242 -73q86 0 142 32q60 36 59 111q-1 64 -49 92.5t-169 45.5q-106 15 -173 52q-63 36 -63 126q0 79 66.5 140.5t180.5 61.5q81 0 132 -19q60 -21 135 -66l-32 -47l-10 8q-85 68 -211 68q-96 0 -147 -41t-51 -105q0 -57 49 -83.5t167 -42.5
q126 -17 182.5 -60.5t56.5 -126.5q0 -87 -69 -144.5t-186 -57.5q-163 0 -285 83zM258 -361q42 26 63.5 58.5t28.5 77.5h-17q-22 0 -36.5 15t-14.5 36q0 22 15 37.5t37 15.5q25 0 40 -18.5t15 -50.5q0 -68 -28 -113.5t-90 -78.5z" />
    <glyph glyph-name="uni0219" unicode="&#x219;" horiz-adv-x="508" 
d="M68 104q99 -62 187 -62q71 0 110.5 27t39.5 75q0 36 -37 57t-116 32q-110 15 -151.5 43t-42.5 97q-1 67 51 107t140 40q109 0 207 -57l-29 -42q-64 33 -90 41q-41 11 -84 11q-63 0 -100 -26t-37 -71q4 -34 16 -50q13 -16 39 -23q20 -5 97 -17q101 -15 148.5 -48t47.5 -90
q0 -69 -56 -111t-149 -42q-119 0 -216 64zM166 -361q79 54 92 137h-17q-22 0 -37 15t-15 36q0 22 15.5 37t37.5 15q25 0 40 -18t15 -50q0 -131 -117 -194z" />
    <glyph glyph-name="uni021A" unicode="&#x21a;" horiz-adv-x="609" 
d="M337 5h-65v637h-262v58h589v-58h-262v-637zM226 -361q42 26 63.5 58.5t28.5 77.5h-17q-22 0 -36.5 15t-14.5 36q0 22 15.5 37.5t36.5 15.5q25 0 40 -18.5t15 -50.5q0 -68 -28 -113.5t-90 -78.5z" />
    <glyph glyph-name="uni021B" unicode="&#x21b;" horiz-adv-x="438" 
d="M114 460h-68v47h68v121h61v-121h205v-47h-205v-242q0 -90 30 -130t98 -40q46 0 83 19l15 -48q-50 -24 -106 -24q-93 0 -137 53t-44 164v248zM110 -361q80 54 93 136h-18q-22 0 -36.5 15t-14.5 37q0 21 15.5 36.5t36.5 15.5q25 0 40.5 -18.5t15.5 -50.5q0 -129 -118 -193z
" />
    <glyph glyph-name="circumflex" unicode="&#x2c6;" horiz-adv-x="378" 
d="M189 717l-99 -139h-45l133 180h22l130 -180h-48z" />
    <glyph glyph-name="caron" unicode="&#x2c7;" horiz-adv-x="378" 
d="M179 571l-133 180h45l99 -139l93 139h48l-130 -180h-22z" />
    <glyph glyph-name="uni02C9" unicode="&#x2c9;" horiz-adv-x="395" 
d="M61 713h273v-57h-273v57z" />
    <glyph glyph-name="breve" unicode="&#x2d8;" horiz-adv-x="354" 
d="M65 742q22 -49 45.5 -67t66.5 -18q42 0 64.5 18.5t45.5 66.5l37 -18q-25 -60 -58 -84.5t-89 -24.5t-88 24.5t-59 85.5z" />
    <glyph glyph-name="dotaccent" unicode="&#x2d9;" horiz-adv-x="171" 
d="M33 676q0 22 15 37t37 15t37.5 -15t15.5 -37t-15.5 -37t-37.5 -15t-37 15t-15 37z" />
    <glyph glyph-name="ring" unicode="&#x2da;" horiz-adv-x="290" 
d="M39 688q0 47 30 78t76 31t76 -31t30 -78t-30 -78t-76 -31t-76 31t-30 78zM69 688q0 -34 22 -58t54 -24q33 0 54.5 23.5t21.5 58.5q0 34 -21.5 57.5t-53.5 23.5q-33 0 -55 -23.5t-22 -57.5z" />
    <glyph glyph-name="ogonek" unicode="&#x2db;" horiz-adv-x="228" 
d="M32 -98q0 74 92 112l21 -7q-33 -14 -56 -39t-23 -54q0 -92 72 -89l58 2v-28q-45 -3 -65 -3q-99 0 -99 106z" />
    <glyph glyph-name="tilde" unicode="&#x2dc;" horiz-adv-x="440" 
d="M220 655q-45 40 -75 40q-32 0 -45.5 -13t-25.5 -53l-41 10l5 16q27 85 101 85q24 0 42 -8t45 -30q31 -26 41 -32q12 -6 31 -6q27 0 44 15.5t35 55.5l34 -18q-24 -56 -47 -77t-61 -21q-25 0 -42.5 7.5t-40.5 28.5z" />
    <glyph glyph-name="hungarumlaut" unicode="&#x2dd;" horiz-adv-x="360" 
d="M39 587l138 151l29 -46l-122 -116zM177 585l138 151l29 -46l-123 -116z" />
    <glyph glyph-name="uni0394" unicode="&#x394;" horiz-adv-x="774" 
d="M756 0h-736l369 707zM111 55l555 -1l-277 544z" />
    <glyph glyph-name="uni03A9" unicode="&#x3a9;" horiz-adv-x="852" 
d="M522 57q7 6 22 20.5t24 22.5l30 28l68 68q48 66 50 162q1 70 -41 140.5t-111 114.5t-139 44q-69 0 -138 -43.5t-111.5 -112.5t-41.5 -138q2 -96 42 -162q41 -66 135 -143v-58h-257v55h192q-93 63 -135 137t-44 169q-2 87 50 169t136.5 132.5t171.5 50.5t171.5 -50.5
t136.5 -133t50 -169.5q-2 -88 -51 -164q-55 -81 -144 -141h213v-55h-279v57z" />
    <glyph glyph-name="uni03BC" unicode="&#x3bc;" horiz-adv-x="621" 
d="M460 139q-37 -70 -61 -100q-23 -29 -44 -36q-24 -9 -67 -10q-80 -3 -127 89v-286h-62v713h62v-272q0 -92 36 -141t108 -49q66 0 110.5 62.5t44.5 147.5v252h62v-505h-62v135z" />
    <glyph glyph-name="pi" unicode="&#x3c0;" horiz-adv-x="745" 
d="M427 453h-195v-453h-62v453h-154v56l673 -1l-1 -56l-200 1v-237q0 -91 29 -131.5t95 -40.5q45 0 83 19l10 -47q-46 -27 -96 -27q-94 0 -138 53.5t-44 167.5v243z" />
    <glyph glyph-name="Wgrave" unicode="&#x1e80;" horiz-adv-x="961" 
d="M374 893l33 33l130 -138h-48zM642 0l-162 569l-151 -569h-40l-252 696h61l205 -574l175 574h8l175 -574l205 574h62l-253 -696h-33z" />
    <glyph glyph-name="wgrave" unicode="&#x1e81;" horiz-adv-x="733" 
d="M218 695l32 33l131 -139h-48zM527 0l-160 399l-162 -399h-25l-158 504h69l111 -388l162 388h5l163 -388l111 388h68l-159 -504h-25z" />
    <glyph glyph-name="Wacute" unicode="&#x1e82;" horiz-adv-x="961" 
d="M395 783l134 140l27 -42l-118 -108zM642 0l-162 569l-151 -569h-40l-252 696h61l205 -574l175 574h8l175 -574l205 574h62l-253 -696h-33z" />
    <glyph glyph-name="wacute" unicode="&#x1e83;" horiz-adv-x="733" 
d="M272 609l135 140l28 -42l-119 -108zM527 0l-160 399l-162 -399h-25l-158 504h69l111 -388l162 388h5l163 -388l111 388h68l-159 -504h-25z" />
    <glyph glyph-name="Wdieresis" unicode="&#x1e84;" horiz-adv-x="961" 
d="M345 874q0 16 11 27.5t27 11.5t27.5 -11.5t11.5 -27.5t-11.5 -27t-27.5 -11t-27 11t-11 27zM541 874q0 16 12 27.5t28 11.5t27 -11.5t11 -27.5t-11 -27t-27 -11q-17 0 -28.5 11t-11.5 27zM642 0l-162 569l-151 -569h-40l-252 696h61l205 -574l175 574h8l175 -574l205 574
h62l-253 -696h-33z" />
    <glyph glyph-name="wdieresis" unicode="&#x1e85;" horiz-adv-x="733" 
d="M230 683q0 16 11 27.5t27 11.5t27.5 -11.5t11.5 -27.5t-11.5 -27.5t-27.5 -11.5t-27 11.5t-11 27.5zM427 683q0 16 11.5 27.5t27.5 11.5t27 -11.5t11 -27.5t-11 -27.5t-27 -11.5t-27.5 11.5t-11.5 27.5zM527 0l-160 399l-162 -399h-25l-158 504h69l111 -388l162 388h5
l163 -388l111 388h68l-159 -504h-25z" />
    <glyph glyph-name="Ygrave" unicode="&#x1ef2;" horiz-adv-x="623" 
d="M213 893l33 33l131 -138h-48zM345 0h-63v273l-257 423h63l226 -365l224 365h60l-253 -423v-273z" />
    <glyph glyph-name="ygrave" unicode="&#x1ef3;" horiz-adv-x="516" 
d="M150 695l33 33l131 -138h-48zM123 -204l102 226l-213 483h57l184 -404h11l180 404h60l-315 -709h-66z" />
    <glyph glyph-name="endash" unicode="&#x2013;" horiz-adv-x="402" 
d="M48 315h307v-61h-307v61z" />
    <glyph glyph-name="emdash" unicode="&#x2014;" horiz-adv-x="571" 
d="M53 253q-6 0 -7.5 2t-1.5 9v39q0 8 1 9.5t8 1.5h466q8 0 8 -10v-41q0 -7 -1 -8.5t-7 -1.5h-466z" />
    <glyph glyph-name="quoteleft" unicode="&#x2018;" horiz-adv-x="268" 
d="M136 547q23 0 39 -15.5t16 -38.5q0 -22 -16.5 -38t-39.5 -16q-27 0 -43.5 19t-16.5 52q0 71 30.5 118.5t97.5 83.5l13 -24q-90 -58 -98 -141h18z" />
    <glyph glyph-name="quoteright" unicode="&#x2019;" horiz-adv-x="268" 
d="M55 463q88 58 95 142h-17q-23 0 -39 15.5t-16 38.5q0 22 16.5 38t39.5 16q26 0 43 -19.5t17 -51.5q0 -132 -126 -203z" />
    <glyph glyph-name="quotesinglbase" unicode="&#x201a;" horiz-adv-x="268" 
d="M53 -144q85 55 97 142h-17q-23 0 -39 15.5t-16 38.5q0 22 16.5 38t39.5 16q26 0 43 -19.5t17 -51.5q0 -69 -31 -117t-97 -85z" />
    <glyph glyph-name="quotedblleft" unicode="&#x201c;" horiz-adv-x="463" 
d="M336 547q22 0 37 -15.5t15 -38.5q0 -22 -15.5 -38t-37.5 -16q-25 0 -40.5 19.5t-15.5 52.5q0 133 115 202l17 -22q-82 -58 -92 -144h17zM132 547q22 0 37 -15.5t15 -38.5q0 -22 -15.5 -38t-37.5 -16q-25 0 -40.5 19t-15.5 52q0 71 28.5 119t91.5 83l12 -24
q-85 -59 -92 -141h17z" />
    <glyph glyph-name="quotedblright" unicode="&#x201d;" horiz-adv-x="463" 
d="M53 465q83 56 91 140h-16q-22 0 -37 15.5t-15 38.5q0 22 15.5 38t37.5 16q24 0 40 -19.5t16 -51.5q0 -133 -118 -202zM256 465q85 57 92 140h-16q-22 0 -37 15.5t-15 38.5q0 22 15.5 38t37.5 16q24 0 40 -19.5t16 -51.5q0 -133 -118 -202z" />
    <glyph glyph-name="quotedblbase" unicode="&#x201e;" horiz-adv-x="463" 
d="M51 -144q86 52 93 142h-16q-22 0 -37 15.5t-15 38.5q0 22 15.5 38t37.5 16q24 0 40 -19.5t16 -51.5q0 -135 -119 -201zM256 -144q85 54 92 142h-16q-22 0 -37 15.5t-15 38.5q0 22 15.5 38t37.5 16q24 0 40 -19.5t16 -51.5q0 -132 -119 -201z" />
    <glyph glyph-name="dagger" unicode="&#x2020;" horiz-adv-x="412" 
d="M225 -99h-39l-6 526h-133v47h133v226h52v-226h133v-47h-134z" />
    <glyph glyph-name="daggerdbl" unicode="&#x2021;" horiz-adv-x="424" 
d="M238 -99h-52v234h-133v47h133v274h-133v47h133v197h52v-197h133v-47h-133v-274h133v-47h-133v-234z" />
    <glyph glyph-name="bullet" unicode="&#x2022;" horiz-adv-x="229" 
d="M43 343q0 30 21 51t51 21q29 0 50.5 -21.5t21.5 -50.5q0 -30 -21 -51t-51 -21q-31 0 -51.5 20.5t-20.5 51.5z" />
    <glyph glyph-name="ellipsis" unicode="&#x2026;" horiz-adv-x="747" 
d="M75 47q0 25 15 42t37 17q21 0 36.5 -17t15.5 -42q0 -24 -15.5 -41t-36.5 -17q-22 0 -37 16.5t-15 41.5zM321 47q0 25 15 42t37 17t37.5 -17t15.5 -42t-15 -41.5t-38 -16.5q-22 0 -37 16.5t-15 41.5zM568 47q0 25 15 42t37 17t37.5 -17t15.5 -42q0 -24 -15.5 -41
t-37.5 -17t-37 16.5t-15 41.5z" />
    <glyph glyph-name="perthousand" unicode="&#x2030;" horiz-adv-x="1260" 
d="M38 538q0 83 43 129t119 46t119 -46t43 -129t-43 -129t-119 -46t-119 46t-43 129zM161 0l488 700h49l-489 -700h-48zM81 538q0 -66 31.5 -103.5t87.5 -37.5t87.5 38.5t31.5 102.5t-31.5 102t-87.5 38t-87.5 -38t-31.5 -102zM496 173q0 83 43 129t118 46q76 0 119.5 -46
t43.5 -129t-43.5 -129t-119.5 -46q-75 0 -118 46t-43 129zM898 173q0 83 43 129t118 46q76 0 119.5 -46t43.5 -129t-43.5 -129t-119.5 -46q-75 0 -118 46t-43 129zM539 173q0 -64 31.5 -102t86.5 -38q57 0 88.5 37t31.5 103t-31.5 103.5t-88.5 37.5q-54 0 -86 -38.5
t-32 -102.5zM941 173q0 -64 31.5 -102t86.5 -38q57 0 88.5 37t31.5 103t-31.5 103.5t-88.5 37.5q-54 0 -86 -38.5t-32 -102.5z" />
    <glyph glyph-name="guilsinglleft" unicode="&#x2039;" horiz-adv-x="329" 
d="M31 251l205 230l42 -26l-175 -201l179 -201l-46 -27z" />
    <glyph glyph-name="guilsinglright" unicode="&#x203a;" horiz-adv-x="329" 
d="M47 53l179 201l-175 201l42 26l205 -230l-205 -225z" />
    <glyph glyph-name="fraction" unicode="&#x2044;" horiz-adv-x="459" 
d="M35 0l354 700h43l-353 -700h-44z" />
    <glyph glyph-name="uni2070" unicode="&#x2070;" horiz-adv-x="311" 
d="M30 630q0 75 33 119t92 44t92 -44t33 -119q0 -76 -33 -120t-92 -44t-92 44t-33 120zM155 764q-47 0 -69 -40q-22 -41 -22 -94q0 -55 22 -95q21 -39 69 -39q47 0 69 39q22 40 22 95q0 57 -22 94q-22 40 -69 40z" />
    <glyph glyph-name="uni2074" unicode="&#x2074;" horiz-adv-x="284" 
d="M211 478h-31v74h-164v25l158 216h37v-216h58v-25h-58v-74zM50 577h130v180z" />
    <glyph glyph-name="uni2076" unicode="&#x2076;" horiz-adv-x="285" 
d="M51 506q-25 35 -25 105q0 182 123 182q31 0 54 -9q17 -6 48 -32l-22 -23q-26 22 -38 27q-21 8 -44 8q-51 0 -69 -43q-17 -41 -19 -107q38 63 95 63q45 0 73.5 -27t28.5 -71q0 -49 -30.5 -81t-78.5 -32q-69 0 -96 40zM87 626q-25 -25 -25 -53q1 -34 22.5 -56t60.5 -22
q36 0 57 23t21 59q0 32 -22 52t-56 21q-33 0 -58 -24z" />
    <glyph glyph-name="uni2077" unicode="&#x2077;" horiz-adv-x="254" 
d="M26 476l173 284h-181v31h232l-182 -315h-42z" />
    <glyph glyph-name="uni2078" unicode="&#x2078;" horiz-adv-x="283" 
d="M30 563q0 27 18.5 48t46.5 30v3q-22 9 -38 24q-19 16 -19 48q0 38 29 62t77 24t76.5 -23.5t28.5 -62.5q0 -32 -19 -48q-20 -17 -38 -24v-3q28 -9 46.5 -29.5t18.5 -48.5q0 -40 -30 -64t-83 -24t-83.5 24t-30.5 64zM70 714q0 -26 22 -42q20 -14 52 -17q32 2 52.5 18.5
t20.5 40.5q0 27 -20 43t-53 16t-53.5 -16t-20.5 -43zM144 630q-31 -3 -57 -20q-24 -15 -24 -45q0 -28 21.5 -44.5t59.5 -16.5t59 16.5t21 44.5q0 29 -24 45q-27 17 -56 20z" />
    <glyph glyph-name="uni2079" unicode="&#x2079;" horiz-adv-x="287" 
d="M49 532q31 -25 40 -29q13 -7 45 -7q46 0 67 39q20 39 21 111q-38 -63 -95 -63q-45 0 -73.5 26.5t-28.5 70.5q0 49 30.5 81t78.5 32q70 0 95 -40q26 -41 26 -104q0 -183 -123 -183q-55 0 -105 43zM78 741q-20 -26 -20 -59q0 -32 23 -52t57 -20q31 0 56 23.5t25 51.5
q0 33 -22 56t-61 23q-37 0 -58 -23z" />
    <glyph glyph-name="uni2080" unicode="&#x2080;" horiz-adv-x="311" 
d="M27 163q0 76 33 120t92 44t92 -44t33 -120q0 -75 -33 -119t-92 -44t-92 44t-33 119zM152 297q-48 0 -69 -39q-22 -40 -22 -95q0 -53 22 -94q22 -40 69 -40q46 0 69 39q22 40 22 95q0 56 -22 95q-23 39 -69 39z" />
    <glyph glyph-name="uni2081" unicode="&#x2081;" horiz-adv-x="182" 
d="M91 231l-49 -33v32l50 35h33v-315h-34v281z" />
    <glyph glyph-name="uni2082" unicode="&#x2082;" horiz-adv-x="264" 
d="M194 148q16 19 16 41q0 23 -19 37.5t-50 14.5q-48 0 -89 -41l-21 21q54 50 110 50q44 0 73 -23t29 -56q0 -32 -25 -60l-131 -153h160v-29h-221z" />
    <glyph glyph-name="uni2083" unicode="&#x2083;" horiz-adv-x="270" 
d="M44 11q42 -42 88 -42q85 0 85 67q0 25 -21 40.5t-54 15.5h-54v28h54q30 0 48 15t18 36q0 31 -20.5 48.5t-55.5 17.5q-41 0 -82 -41l-21 23q52 48 103 48q47 0 78 -25.5t31 -67.5q0 -24 -15 -42q-11 -15 -39 -26q31 -11 45 -25q18 -18 18 -48q0 -45 -31.5 -69t-86.5 -24
t-108 50z" />
    <glyph glyph-name="uni2084" unicode="&#x2084;" horiz-adv-x="284" 
d="M212 -70h-31v74h-164v25l158 216h37v-216h58v-25h-58v-74zM51 29h130v180z" />
    <glyph glyph-name="uni2085" unicode="&#x2085;" horiz-adv-x="265" 
d="M42 18q29 -26 43 -32q19 -9 46 -9q43 0 63.5 17t20.5 55q0 62 -82 62h-90v157l185 1v-29l-152 -1v-99l59 1q47 1 81 -21q32 -21 32 -70t-31 -75.5t-86 -26.5q-56 0 -109 48z" />
    <glyph glyph-name="uni2086" unicode="&#x2086;" horiz-adv-x="285" 
d="M54 -30q-26 41 -26 104q0 183 123 183q53 0 102 -41l-22 -23q-25 21 -37 27q-13 7 -45 7q-46 0 -67 -39q-20 -39 -21 -111q38 63 96 63q45 0 73 -26.5t28 -70.5q0 -49 -30.5 -81t-78.5 -32q-70 0 -95 40zM89 89q-24 -23 -24 -52q1 -33 23 -55.5t60 -22.5q35 0 56 22.5
t21 59.5q0 32 -22.5 52t-56.5 20q-30 0 -57 -24z" />
    <glyph glyph-name="uni2087" unicode="&#x2087;" horiz-adv-x="254" 
d="M21 -60l173 284h-181v31h232l-182 -315h-42z" />
    <glyph glyph-name="uni2088" unicode="&#x2088;" horiz-adv-x="283" 
d="M27 18q0 57 65 78v3q-22 8 -39 23q-19 16 -19 49q0 38 29 62t77 24t77 -24t29 -62q0 -33 -19 -49q-18 -17 -38 -23v-4q26 -6 45 -28t19 -49q0 -40 -30 -64t-83 -24t-83 24t-30 64zM67 169q0 -27 21 -42q22 -16 52 -17q32 2 52.5 18.5t20.5 40.5q0 27 -20 43t-53 16
t-53 -16t-20 -43zM140 84q-31 -1 -58 -19q-23 -17 -23 -45t21.5 -44.5t59.5 -16.5t59.5 16.5t21.5 44.5t-24 45q-25 17 -57 19z" />
    <glyph glyph-name="uni2089" unicode="&#x2089;" horiz-adv-x="287" 
d="M57 -4q27 -25 40 -29q22 -8 45 -8q45 0 67 40q20 38 21 110q-38 -63 -95 -63q-45 0 -73.5 27t-28.5 71q0 49 30.5 81t78.5 32q69 0 95 -41t26 -104q0 -182 -123 -182q-55 0 -105 43zM86 205q-20 -25 -20 -59q0 -32 22 -52t56 -21q30 0 57 23q26 23 26 53q0 33 -22 56
t-61 23q-38 0 -58 -23z" />
    <glyph glyph-name="peseta" unicode="&#x20a7;" horiz-adv-x="1544" 
d="M940 332q-67 -52 -174 -52h-183v-280h-65v462h-134v43h134v195h248q101 0 175 -49q63 -44 69 -146h121v-43h-122q-13 -88 -69 -130zM583 646v-141h363q-12 141 -185 141h-178zM583 334h178q159 0 184 128h-362v-128z" />
    <glyph glyph-name="Euro" unicode="&#x20ac;" horiz-adv-x="623" 
d="M500 647q-42 10 -68 10q-107 0 -172 -65q-66 -66 -91 -162h324v-26h-330l-2 -49q-1 -20 7 -76h325v-27h-318q33 -95 95 -150q65 -59 162 -59q65 0 117 23l7 3l18 -54q-68 -26 -147 -28q-109 -1 -203 77t-116 188h-96v27h88q-7 54 -6 76l3 49h-85v26h89q24 123 117 203
t214 80q75 0 145 -29l-20 -53q-16 6 -57 16z" />
    <glyph glyph-name="uni2113" unicode="&#x2113;" horiz-adv-x="475" 
d="M149 220q0 -98 44.5 -150t129.5 -52q18 0 44 6.5t38 14.5l2 1l11 -29q-41 -22 -100 -22q-96 0 -149 57.5t-53 159.5v31l-82 -22l-6 24l88 28v227q0 115 37 166t131 51q66 0 103.5 -41t37.5 -112q0 -67 -29 -128q-27 -57 -86 -99.5t-161 -81.5v-29zM149 278
q82 31 140 74.5t80 91.5q26 57 26 111q0 58 -30 93t-81 35q-72 0 -103.5 -44.5t-31.5 -144.5v-216z" />
    <glyph glyph-name="trademark" unicode="&#x2122;" horiz-adv-x="886" 
d="M208 312h-32v365h-156v29h344v-29h-156v-365zM795 637l-177 -323h-19l-184 323l-30 -323h-32l49 392h5l202 -354l196 354h7l51 -392h-32z" />
    <glyph glyph-name="uni2126" unicode="&#x2126;" horiz-adv-x="852" 
d="M522 59l22 13q69 55 122 124q48 65 50 162q1 70 -41 140.5t-111 114.5t-139 44q-69 0 -137.5 -43.5t-111.5 -112.5t-42 -138q3 -163 155 -291l22 -14v-58h-257v55h192q-93 63 -135 137t-44 169q-2 87 50 169t136.5 132.5t171.5 50.5t171.5 -50.5t136.5 -133t50 -169.5
q-2 -88 -51 -164q-55 -81 -144 -141h213v-55h-279v59z" />
    <glyph glyph-name="estimated" unicode="&#x212e;" horiz-adv-x="805" 
d="M146 172q47 -70 114 -109t144 -39q123 0 229 103l28 -31q-63 -57 -125.5 -82t-141.5 -27q-86 -2 -167.5 51t-131 138.5t-49.5 173.5q0 89 51.5 173.5t135 137t171.5 52.5q146 -1 253.5 -114.5t104.5 -269.5h-616v-157zM404 675q-86 0 -153 -45q-71 -45 -105 -103v-160
h513v164q-101 144 -255 144z" />
    <glyph glyph-name="oneeighth" unicode="&#x215b;" horiz-adv-x="643" 
d="M82 0l349 700h56l-349 -700h-56zM124 648l-47 -33v32l48 36h33v-314h-34v279zM349 92q0 26 19 47.5t46 28.5v3q-21 8 -38 24q-19 16 -19 48q0 38 29 62t77 24q47 0 75.5 -24t28.5 -62q0 -32 -19 -48q-16 -14 -37 -24v-3q27 -7 45.5 -28.5t18.5 -47.5q0 -42 -29 -65
t-83 -23t-84 23.5t-30 64.5zM389 242q0 -26 22 -41q17 -16 52 -19q33 4 52.5 20t19.5 40q0 25 -20 42t-52 17q-33 0 -53.5 -16.5t-20.5 -42.5zM463 158q-35 -4 -57 -20q-24 -16 -24 -45q0 -28 21.5 -44.5t59.5 -16.5t58.5 16.5t20.5 44.5t-23 45q-24 16 -56 20z" />
    <glyph glyph-name="threeeighths" unicode="&#x215c;" horiz-adv-x="698" 
d="M127 -1l349 700h56l-348 -700h-57zM59 437q45 -42 87 -42q85 0 85 66q0 25 -21 41t-54 16h-54v27h54q30 0 48 14.5t18 36.5q0 31 -20.5 48.5t-55.5 17.5q-40 0 -81 -42l-22 23q51 48 103 48q47 0 78 -25.5t31 -67.5q0 -24 -15 -42q-14 -16 -39 -26q30 -9 45 -24
q18 -18 18 -48q0 -45 -31.5 -69t-86.5 -24q-52 0 -108 50zM399 92q0 26 19 47.5t46 28.5v3q-21 8 -38 24q-19 16 -19 48q0 38 29 62t77 24t76 -23.5t28 -62.5q0 -32 -19 -48q-16 -14 -37 -24v-3q27 -7 45.5 -28.5t18.5 -47.5q0 -42 -29 -65t-83 -23t-84 23.5t-30 64.5z
M439 242q0 -25 22 -41q17 -16 52 -19q33 4 52.5 20t19.5 40q0 26 -20 42.5t-52 16.5q-33 0 -53.5 -16.5t-20.5 -42.5zM513 158q-35 -4 -57 -20q-24 -16 -24 -45q0 -28 21.5 -44.5t59.5 -16.5t58.5 16.5t20.5 44.5t-23 45q-24 16 -56 20z" />
    <glyph glyph-name="fiveeighths" unicode="&#x215d;" horiz-adv-x="690" 
d="M127 -1l349 700h56l-348 -700h-57zM59 440q26 -24 43 -32q20 -9 45 -9q84 0 84 71q0 63 -82 63h-89v156h184v-29h-151v-98h58q49 0 81 -21q32 -23 32 -70q0 -48 -31 -74.5t-86 -26.5q-54 0 -109 48zM399 92q0 26 19 47.5t46 28.5v3q-21 8 -38 24q-19 16 -19 48
q0 38 29 62t77 24t76 -23.5t28 -62.5q0 -32 -19 -48q-16 -14 -37 -24v-3q27 -7 45.5 -28.5t18.5 -47.5q0 -42 -29 -65t-83 -23t-84 23.5t-30 64.5zM439 242q0 -25 22 -41q17 -16 52 -19q33 4 52.5 20t19.5 40q0 26 -20 42.5t-52 16.5q-33 0 -53.5 -16.5t-20.5 -42.5z
M513 158q-35 -4 -57 -20q-24 -18 -24 -45q0 -28 21.5 -44.5t59.5 -16.5t58.5 16.5t20.5 44.5t-23 45q-24 16 -56 20z" />
    <glyph glyph-name="seveneighths" unicode="&#x215e;" horiz-adv-x="617" 
d="M90 0l349 700h56l-348 -700h-57zM65 373l172 283h-180v31h231l-181 -314h-42zM329 92q0 26 19 47.5t46 28.5v3q-21 8 -38 24q-19 16 -19 48q0 38 29 62t77 24q47 0 75.5 -24t28.5 -62q0 -32 -19 -48q-16 -14 -37 -24v-3q27 -7 45.5 -28.5t18.5 -47.5q0 -42 -29 -65
t-83 -23t-84 23.5t-30 64.5zM369 242q0 -26 22 -41q17 -16 52 -19q33 4 52.5 20t19.5 40q0 25 -20 42t-52 17q-33 0 -53.5 -16.5t-20.5 -42.5zM443 158q-35 -4 -57 -20q-24 -16 -24 -45q0 -28 21.5 -44.5t59.5 -16.5t58.5 16.5t20.5 44.5t-23 45q-24 16 -56 20z" />
    <glyph glyph-name="partialdiff" unicode="&#x2202;" horiz-adv-x="610" 
d="M289 -13q-107 0 -174.5 71t-67.5 178q0 98 64.5 157t160.5 59q151 0 221 -156q0 179 -49 270q-51 91 -155 91q-57 0 -100.5 -17.5t-95.5 -61.5l-42 42q109 93 232 93q275 0 275 -406q0 -144 -58 -233q-58 -87 -211 -87zM112 232q0 -80 47 -136q46 -55 134 -55
q94 0 142.5 56.5t50.5 129.5q1 62 -61.5 118.5t-127.5 55.5q-79 -2 -132 -48.5t-53 -120.5z" />
    <glyph glyph-name="uni2206" unicode="&#x2206;" horiz-adv-x="771" 
d="M753 0h-736l369 707zM108 55l555 -1l-277 544z" />
    <glyph glyph-name="product" unicode="&#x220f;" horiz-adv-x="659" 
d="M491 645h-323v-645h-66v700h455v-700h-66v645z" />
    <glyph glyph-name="summation" unicode="&#x2211;" horiz-adv-x="607" 
d="M298 348l-230 352h481v-55h-369l186 -296l-186 -294h369v-55h-480z" />
    <glyph glyph-name="minus" unicode="&#x2212;" horiz-adv-x="573" 
d="M50 316h473v-57h-473v57z" />
    <glyph glyph-name="uni2215" unicode="&#x2215;" horiz-adv-x="481" 
d="M44 0l351 700h44l-351 -700h-44z" />
    <glyph glyph-name="uni2219" unicode="&#x2219;" horiz-adv-x="222" 
d="M49 343q0 26 18.5 44t43.5 18q26 0 44 -18t18 -44t-18 -44t-44 -18t-44 18t-18 44z" />
    <glyph glyph-name="radical" unicode="&#x221a;" horiz-adv-x="697" 
d="M15 505h65l179 -400l275 595h163v-59h-129l-309 -650z" />
    <glyph glyph-name="infinity" unicode="&#x221e;" horiz-adv-x="691" 
d="M332 282q-17 -40 -47 -76q-30 -34 -89 -34q-73 0 -116.5 53.5t-43.5 145.5t43.5 145.5t116.5 53.5q58 0 88 -33q32 -37 48 -75h13q14 46 50 85t94 39q78 0 122 -56t44 -159q0 -102 -44.5 -158.5t-121.5 -56.5q-57 0 -94 40q-39 42 -50 86h-13zM395 484q-33 -45 -38 -113
q5 -68 38 -113q34 -49 91 -49t91 43.5t34 118.5t-34 118.5t-91 43.5t-91 -49zM80 371q0 -65 33 -106t86 -41q51 0 83.5 40.5t36.5 106.5q-4 66 -36.5 107t-83.5 41q-53 0 -86 -41.5t-33 -106.5z" />
    <glyph glyph-name="integral" unicode="&#x222b;" horiz-adv-x="491" 
d="M389 659q-67 0 -96.5 -40.5t-29.5 -129.5v-506q0 -111 -43.5 -165t-135.5 -54q-52 0 -103 29l7 48q47 -23 88 -23q67 0 96.5 40t29.5 130v506q0 111 44 165t136 54q52 0 102 -26l-19 -46q-39 18 -76 18z" />
    <glyph glyph-name="approxequal" unicode="&#x2248;" horiz-adv-x="510" 
d="M253 357q-46 38 -75 38q-31 0 -45 -12.5t-26 -49.5l-41 10l5 14q29 79 101 79q42 0 87 -35q29 -23 41 -30q12 -6 31 -6q27 0 44 14t35 52l34 -16q-24 -52 -47 -71.5t-61 -19.5q-42 0 -83 33zM253 186q-46 38 -75 38q-31 0 -45 -12.5t-26 -49.5l-41 10l5 14q29 79 101 79
q42 0 87 -35q29 -23 41 -30q12 -6 31 -6q27 0 44 14t35 52l34 -16q-24 -52 -47 -71.5t-61 -19.5q-42 0 -83 33z" />
    <glyph glyph-name="notequal" unicode="&#x2260;" horiz-adv-x="560" 
d="M160 0h-41l97 247h-166v47h185l62 155h-247v47h264l83 204h41q-10 -24 -36 -90l-44 -114h152v-47h-171l-61 -155h232v-47h-251z" />
    <glyph glyph-name="lessequal" unicode="&#x2264;" horiz-adv-x="545" 
d="M70 478l392 187v-60l-326 -155l326 -156v-60l-392 187v57zM57 149l429 6v-50h-429v44z" />
    <glyph glyph-name="greaterequal" unicode="&#x2265;" horiz-adv-x="545" 
d="M83 294l326 156l-326 155v60l392 -187v-57l-392 -187v60zM59 155l429 -6v-44h-429v50z" />
    <glyph glyph-name="lozenge" unicode="&#x25ca;" horiz-adv-x="678" 
d="M340 -7q-1 4 -131 153q-169 197 -175 204l308 357q1 -3 130 -153q143 -165 176 -204zM341 65l244 285l-244 285l-244 -285z" />
    <glyph glyph-name="f_f" unicode="&#xfb00;" horiz-adv-x="743" 
d="M644 707q-66 0 -95 -40t-29 -131v-34h200v-48h-200v-454h-62v454h-276v-454h-60v454h-92v48h92v39q0 112 43 166t134 54q60 0 93 -16l-12 -53q-40 15 -73 15q-66 0 -95.5 -40.5t-29.5 -130.5v-34h276v39q0 112 43.5 166t135.5 54q53 0 91 -18l-10 -47q-30 11 -74 11z" />
    <glyph glyph-name="f_i" unicode="&#xfb01;" horiz-adv-x="666" 
d="M487 455h-304v-455h-60v455h-93v49h93v37q0 112 43 166t135 54q45 0 94 -22l-15 -45q-33 13 -71 13q-66 0 -96 -40.5t-30 -130.5v-32h365l1 -504h-62v455zM470 682q0 19 13.5 32t32.5 13q20 0 33.5 -13t13.5 -32t-13.5 -32t-33.5 -13q-19 0 -32.5 13t-13.5 32z" />
    <glyph glyph-name="f_f_i" unicode="&#xfb03;" horiz-adv-x="996" 
d="M817 455l-300 -1v-454h-61v454h-274v-454h-60v454h-92v48h92v39q0 112 43 166t133 54q60 0 92 -16l-12 -53q-39 15 -72 15q-66 0 -95 -40.5t-29 -130.5v-34h274v39q0 112 43.5 166t134.5 54q54 0 91 -18l-10 -47q-30 11 -74 11q-66 0 -95 -40t-29 -131v-34l357 1l4 -503
h-61v455zM801 682q0 19 13.5 32t32.5 13t32 -13t13 -32t-13 -32t-32 -13t-32.5 13t-13.5 32z" />
    <glyph glyph-name="_142" horiz-adv-x="855" 
d="M45 666h756v-88h-756v88zM637 457q-24 0 -43.5 -11t-19.5 -26q0 -22 11.5 -33.5t46.5 -19.5l32 -7q80 -17 106 -33.5t30 -63.5q0 -49 -45 -79.5t-116 -30.5q-80 0 -124 40t-44 95l87 -1q0 -19 20 -40t63 -21q28 0 47 10.5t19 23.5q0 28 -71 43q-68 15 -112 39t-44 76
q0 50 45 81.5t114 31.5q70 0 112.5 -36.5t42.5 -85.5h-91q0 18 -20 33t-46 15zM145 359h182v-84h-182v-122h-99v376h317v-84h-218v-86zM401 155q20 0 34.5 12.5t14.5 31.5q0 18 -14.5 31t-34.5 13q-19 0 -33 -13t-14 -31t14 -31t33 -13zM43 106h756v-88h-756v88z" />
    <glyph glyph-name="f_f_j" horiz-adv-x="1013" 
d="M655 -231q-11 1 -39 18v51q39 -20 74 -20q66 0 95.5 40t29.5 130v468l-298 -1v-451h-61v451h-274v-451h-60v451h-92v48h92v39q0 111 43 165t133 54q60 0 92 -16l-12 -53q-39 15 -72 15q-66 0 -95 -40t-29 -130v-34h274v39q0 111 43.5 165t134.5 54q54 0 91 -18l-10 -46
q-29 10 -74 10q-66 0 -95 -40t-29 -130v-34l358 2v-522q0 -111 -43.5 -165t-134.5 -54q-22 0 -42 5zM801 682q0 19 13 32t33 13q19 0 32 -13t13 -32t-13 -32t-32 -13t-32.5 13t-13.5 32z" />
    <glyph glyph-name="f_j" horiz-adv-x="684" 
d="M329 -224q-33 10 -52 20l23 47q41 -25 88 -25q67 0 96 40t29 130v468h-330v-452h-61v452h-92v49l92 -1v38q0 111 43.5 165t135.5 54q49 0 90 -18l-24 -45q-27 9 -58 9q-67 0 -96.5 -40t-29.5 -130v-33l392 1v-522q0 -111 -44.5 -165t-136.5 -54q-22 0 -65 12zM496 682
q0 19 13 32t32 13q20 0 33.5 -13t13.5 -32t-13.5 -32t-33.5 -13q-19 0 -32 13t-13 32z" />
    <glyph glyph-name="seven.001" horiz-adv-x="562" 
d="M53 0l392 641h-414v59h512l-405 -700h-85z" />
    <glyph glyph-name="zero.denom" horiz-adv-x="311" 
d="M27 163q0 76 33 120t92 44t92 -44t33 -120q0 -75 -33 -119t-92 -44t-92 44t-33 119zM152 297q-48 0 -69 -39q-22 -40 -22 -95q0 -53 22 -94q22 -40 69 -40q46 0 69 39q22 40 22 95q0 56 -22 95q-23 39 -69 39z" />
    <glyph glyph-name="one.denom" horiz-adv-x="182" 
d="M91 281l-49 -33v32l50 35h33v-315h-34v281z" />
    <glyph glyph-name="two.denom" horiz-adv-x="264" 
d="M194 198q16 19 16 41q0 23 -19 37.5t-50 14.5q-48 0 -89 -41l-21 21q54 50 110 50q44 0 73 -23t29 -56q0 -32 -25 -60l-131 -153h160v-29h-221z" />
    <glyph glyph-name="three.denom" horiz-adv-x="270" 
d="M44 71q42 -42 88 -42q85 0 85 67q0 25 -21 40.5t-54 15.5h-54v28h54q30 0 48 15t18 36q0 31 -20.5 48.5t-55.5 17.5q-41 0 -82 -41l-21 23q52 48 103 48q47 0 78 -25.5t31 -67.5q0 -24 -15 -42q-11 -15 -39 -26q31 -11 45 -25q18 -18 18 -48q0 -45 -31.5 -69t-86.5 -24
t-108 50z" />
    <glyph glyph-name="four.denom" horiz-adv-x="284" 
d="M212 0h-31v74h-164v25l158 216h37v-216h58v-25h-58v-74zM51 99h130v180z" />
    <glyph glyph-name="five.denom" horiz-adv-x="265" 
d="M42 68q29 -26 43 -32q19 -9 46 -9q43 0 63.5 17t20.5 55q0 62 -82 62h-90v157l185 1v-29l-152 -1v-99l59 1q47 1 81 -21q32 -21 32 -70t-31 -75.5t-86 -26.5q-56 0 -109 48z" />
    <glyph glyph-name="six.denom" horiz-adv-x="285" 
d="M54 40q-26 41 -26 104q0 183 123 183q53 0 102 -41l-22 -23q-25 21 -37 27q-13 7 -45 7q-46 0 -67 -39q-20 -39 -21 -111q38 63 96 63q45 0 73 -26.5t28 -70.5q0 -49 -30.5 -81t-78.5 -32q-70 0 -95 40zM89 159q-24 -23 -24 -52q1 -33 23 -55.5t60 -22.5q35 0 56 22.5
t21 59.5q0 32 -22.5 52t-56.5 20q-30 0 -57 -24z" />
    <glyph glyph-name="seven.denom" horiz-adv-x="254" 
d="M21 0l173 284h-181v31h232l-182 -315h-42z" />
    <glyph glyph-name="eight.denom" horiz-adv-x="283" 
d="M27 88q0 57 65 78v3q-22 8 -39 23q-19 16 -19 49q0 38 29 62t77 24t77 -24t29 -62q0 -33 -19 -49q-18 -17 -38 -23v-4q26 -6 45 -28t19 -49q0 -40 -30 -64t-83 -24t-83 24t-30 64zM67 239q0 -27 21 -42q22 -16 52 -17q32 2 52.5 18.5t20.5 40.5q0 27 -20 43t-53 16
t-53 -16t-20 -43zM140 154q-31 -1 -58 -19q-23 -17 -23 -45t21.5 -44.5t59.5 -16.5t59.5 16.5t21.5 44.5t-24 45q-25 17 -57 19z" />
    <glyph glyph-name="nine.denom" horiz-adv-x="287" 
d="M57 66q27 -25 40 -29q22 -8 45 -8q45 0 67 40q20 38 21 110q-38 -63 -95 -63q-45 0 -73.5 27t-28.5 71q0 49 30.5 81t78.5 32q69 0 95 -41t26 -104q0 -182 -123 -182q-55 0 -105 43zM86 275q-20 -25 -20 -59q0 -32 22 -52t56 -21q30 0 57 23q26 23 26 53q0 33 -22 56
t-61 23q-38 0 -58 -23z" />
    <glyph glyph-name="zero.num" horiz-adv-x="311" 
d="M30 560q0 75 33 119t92 44t92 -44t33 -119q0 -76 -33 -120t-92 -44t-92 44t-33 120zM155 694q-47 0 -69 -40q-22 -41 -22 -94q0 -55 22 -95q21 -39 69 -39q47 0 69 39q22 40 22 95q0 57 -22 94q-22 40 -69 40z" />
    <glyph glyph-name="one.num" horiz-adv-x="182" 
d="M92 689l-50 -33v32l50 35h33v-315h-33v281z" />
    <glyph glyph-name="two.num" horiz-adv-x="264" 
d="M194 600q16 19 16 41q0 24 -19 38.5t-50 14.5q-45 0 -89 -42l-21 22q53 49 110 49q45 0 73.5 -22.5t28.5 -56.5q0 -32 -25 -60l-131 -153h160v-29h-221z" />
    <glyph glyph-name="three.num" horiz-adv-x="270" 
d="M43 464q44 -41 88 -41q85 0 85 66q0 26 -20.5 41.5t-54.5 15.5h-54v27h54q30 0 48 15t18 37q0 31 -20.5 48.5t-55.5 17.5q-41 0 -82 -42l-21 23q52 48 103 48q47 0 78 -25.5t31 -67.5q0 -24 -15 -42q-11 -15 -39 -26q31 -11 45 -25q18 -18 18 -48q0 -45 -31.5 -69
t-86.5 -24q-53 0 -108 50z" />
    <glyph glyph-name="four.num" horiz-adv-x="284" 
d="M211 408h-31v74h-164v25l158 216h37v-216h58v-25h-58v-74zM50 507h130v180z" />
    <glyph glyph-name="five.num" horiz-adv-x="265" 
d="M45 473q29 -26 43 -32q20 -9 46 -9q43 0 63.5 17t20.5 55q0 62 -82 62h-90v157h185v-29h-152v-99l59 1q47 1 81 -22q32 -21 32 -69q0 -49 -31 -75.5t-86 -26.5q-56 0 -109 48z" />
    <glyph glyph-name="six.num" horiz-adv-x="285" 
d="M51 436q-25 35 -25 105q0 182 123 182q31 0 54 -9q17 -6 48 -32l-22 -23q-26 22 -38 27q-21 8 -44 8q-51 0 -69 -43q-17 -41 -19 -107q38 63 95 63q45 0 73.5 -27t28.5 -71q0 -49 -30.5 -81t-78.5 -32q-69 0 -96 40zM87 556q-25 -25 -25 -53q1 -34 22.5 -56t60.5 -22
q36 0 57 23t21 59q0 32 -22 52t-56 21q-33 0 -58 -24z" />
    <glyph glyph-name="seven.num" horiz-adv-x="254" 
d="M26 406l173 284h-181v31h232l-182 -315h-42z" />
    <glyph glyph-name="eight.num" horiz-adv-x="283" 
d="M30 483q0 27 18.5 48t46.5 30v3q-22 9 -38 24q-19 16 -19 48q0 38 29 62t77 24t76.5 -23.5t28.5 -62.5q0 -32 -19 -48q-20 -17 -38 -24v-3q28 -9 46.5 -29.5t18.5 -48.5q0 -40 -30 -64t-83 -24t-83.5 24t-30.5 64zM70 634q0 -26 22 -42q20 -14 52 -17q32 2 52.5 18.5
t20.5 40.5q0 27 -20 43t-53 16t-53.5 -16t-20.5 -43zM144 550q-31 -3 -57 -20q-24 -15 -24 -45q0 -28 21.5 -44.5t59.5 -16.5t59 16.5t21 44.5q0 29 -24 45q-27 17 -56 20z" />
    <glyph glyph-name="nine.num" horiz-adv-x="287" 
d="M49 462q31 -25 40 -29q13 -7 45 -7q46 0 67 39q20 39 21 111q-38 -63 -95 -63q-45 0 -73.5 26.5t-28.5 70.5q0 49 30.5 81t78.5 32q70 0 95 -40q26 -41 26 -104q0 -183 -123 -183q-55 0 -105 43zM78 671q-20 -26 -20 -59q0 -32 23 -52t57 -20q31 0 56 23.5t25 51.5
q0 33 -22 56t-61 23q-37 0 -58 -23z" />
    <glyph glyph-name="one.superior" horiz-adv-x="182" 
d="M92 739l-50 -33v32l50 35h33v-315h-33v281z" />
    <glyph glyph-name="two.superior" horiz-adv-x="264" 
d="M194 680q16 19 16 41q0 24 -19 38.5t-50 14.5q-45 0 -89 -42l-21 22q53 49 110 49q45 0 73.5 -22.5t28.5 -56.5q0 -32 -25 -60l-131 -153h160v-29h-221z" />
    <glyph glyph-name="zero.tf" horiz-adv-x="652" 
d="M49 350q0 165 73 264t204 99t204 -99t73 -264t-73 -264t-204 -99t-204 99t-73 264zM326 657q-112 0 -161 -91q-49 -88 -49 -216t49 -216q49 -91 161 -91t161 90q49 88 49 217q0 128 -49 216q-49 91 -161 91z" />
    <glyph glyph-name="one.tf" horiz-adv-x="369" 
d="M188 636l-115 -74v59l113 79h72v-700h-70v636z" />
    <glyph glyph-name="two.tf" horiz-adv-x="560" 
d="M407 437q38 44 38 96q0 56 -44 90t-118 34q-111 0 -202 -93l-41 42q59 57 115.5 82t127.5 25q101 0 164 -50.5t63 -123.5q0 -67 -55 -131l-306 -353h370v-55h-486z" />
    <glyph glyph-name="three.tf" horiz-adv-x="584" 
d="M76 136q94 -93 199 -93q198 0 198 156q0 56 -50 93.5t-126 37.5h-117v52h118q72 0 112.5 35.5t40.5 84.5q0 72 -47.5 113.5t-128.5 41.5q-98 0 -185 -93l-43 45q107 104 228 104q101 0 171 -56t70 -149q0 -50 -33 -91q-35 -41 -79 -55v-13q53 -13 94 -53q40 -40 40 -103
q0 -99 -68.5 -152.5t-194.5 -53.5t-239 108z" />
    <glyph glyph-name="four.tf" horiz-adv-x="647" 
d="M477 0h-62v166h-370v52l354 482h78v-485h130v-49h-130v-166zM105 215h310v422z" />
    <glyph glyph-name="five.tf" horiz-adv-x="579" 
d="M70 134q56 -52 94 -70q43 -21 107 -21q99 0 147 40t48 126q0 148 -190 147l-199 -1v344l409 1v-55l-344 -1v-233l138 1q111 1 182 -47q69 -47 69 -154q0 -108 -68 -166t-192 -58q-123 0 -240 104z" />
    <glyph glyph-name="six.tf" horiz-adv-x="610" 
d="M109 74q-57 86 -57 233q0 406 275 406q71 0 120 -21q50 -20 101 -67l-42 -45q-49 46 -81 60q-37 17 -104 17q-105 0 -156 -91q-48 -89 -48 -270q70 156 222 156q97 0 160.5 -59t63.5 -157q0 -107 -67.5 -178t-174.5 -71q-155 0 -212 87zM125 228q2 -74 50.5 -130.5
t142.5 -56.5q81 0 130.5 54.5t49.5 136.5q0 74 -53 120.5t-130 48.5q-66 1 -128.5 -56t-61.5 -117z" />
    <glyph glyph-name="eight.tf" horiz-adv-x="600" 
d="M48 182q0 63 44.5 108t101.5 62v13q-49 19 -88 54q-40 36 -40 105q0 83 64 136t171 53q106 0 169.5 -53t63.5 -136q0 -71 -40 -105q-37 -33 -87 -54v-14q53 -14 99 -60.5t46 -108.5q0 -91 -66 -143t-186 -52q-119 0 -185.5 52.5t-66.5 142.5zM129 520q0 -62 50 -98
q49 -36 122 -40q76 5 123 43t47 95q0 62 -47 100.5t-123 38.5t-124 -39q-48 -38 -48 -100zM301 335q-78 -6 -133 -45q-56 -39 -56 -104q0 -67 50.5 -106t137.5 -39q89 0 138.5 39t49.5 106q0 64 -57 104q-56 39 -130 45z" />
    <glyph glyph-name="nine.tf" horiz-adv-x="609" 
d="M97 125q53 -47 88 -64q41 -18 105 -18q104 0 155 91q49 91 49 270q-70 -156 -221 -156q-97 0 -161 59t-64 157q0 107 67.5 178t174.5 71q152 0 210 -88q59 -89 59 -232q0 -406 -275 -406q-68 0 -120 21t-109 72zM160 603q-47 -56 -47 -135q0 -74 53 -120.5t131 -48.5
q66 -1 128.5 56t61.5 117q-2 73 -50.5 130t-142.5 57q-87 0 -134 -56z" />
    <glyph glyph-name="periodcentered.case" horiz-adv-x="235" 
d="M53 357q0 27 18.5 45.5t45.5 18.5t46 -18.5t19 -45.5t-19 -45.5t-46 -18.5t-45.5 18.5t-18.5 45.5z" />
    <glyph glyph-name="bullet.case" horiz-adv-x="229" 
d="M43 357q0 30 20.5 51t51.5 21q29 0 50.5 -21t21.5 -51t-21.5 -51t-50.5 -21q-31 0 -51.5 21t-20.5 51z" />
    <glyph glyph-name="braceleft.case" horiz-adv-x="450" 
d="M142 223q0 39 -37 67q-31 25 -69 37v61q35 11 68 38q38 32 38 69v81q0 244 258 247v-56q-80 -3 -136.5 -51t-56.5 -140v-81q0 -47 -26 -82t-68 -46v-16q42 -11 68 -46t26 -82v-80q0 -93 56.5 -141t136.5 -51v-56q-94 1 -175 52q-83 51 -83 196v80z" />
    <glyph glyph-name="braceright.case" horiz-adv-x="450" 
d="M308 153q0 -245 -258 -248v56q193 5 193 192v80q0 45 26.5 80t68.5 48v16q-42 13 -68.5 48t-26.5 80v81q0 186 -193 191v56q258 -3 258 -247v-81q0 -39 28.5 -66.5t77.5 -38.5v-63q-38 -12 -69 -37q-37 -28 -37 -67v-80z" />
    <glyph glyph-name="bracketleft.case" horiz-adv-x="383" 
d="M97 792h219v-51h-159v-795h159v-51h-219v897z" />
    <glyph glyph-name="bracketright.case" horiz-adv-x="380" 
d="M65 -54h159v795h-159v51h219v-897h-219v51z" />
    <glyph glyph-name="parenleft.case" horiz-adv-x="388" 
d="M36 378q0 283 274 424l31 -51q-117 -56 -179 -152t-62 -221q0 -124 62 -220.5t179 -153.5l-31 -51q-274 139 -274 425z" />
    <glyph glyph-name="parenright.case" horiz-adv-x="388" 
d="M71 -4q118 55 180 150.5t62 221.5t-62 221.5t-180 150.5l31 52q275 -141 275 -424q0 -286 -275 -423z" />
    <glyph glyph-name="emdash.case" horiz-adv-x="571" 
d="M47 389h477v-64h-477v64z" />
    <glyph glyph-name="endash.case" horiz-adv-x="402" 
d="M47 386h307v-61h-307v61z" />
    <glyph glyph-name="hyphen.case" horiz-adv-x="429" 
d="M61 386h307v-61h-307v61z" />
    <glyph glyph-name="guillemotleft.case" horiz-adv-x="538" 
d="M38 386l199 230l41 -26l-170 -201l174 -201l-45 -27zM256 385l199 230l41 -26l-170 -201l174 -201l-45 -27z" />
    <glyph glyph-name="guillemotright.case" horiz-adv-x="538" 
d="M258 188l174 201l-170 201l41 26l199 -230l-199 -225zM40 187l174 201l-170 201l41 26l199 -230l-199 -225z" />
    <glyph glyph-name="guilsinglleft.case" horiz-adv-x="329" 
d="M31 362l205 230l42 -26l-175 -201l179 -201l-46 -27z" />
    <glyph glyph-name="guilsinglright.case" horiz-adv-x="329" 
d="M47 164l179 201l-175 201l42 26l205 -230l-205 -225z" />
    <glyph glyph-name="bar.case" horiz-adv-x="257" 
d="M96 809h65v-898h-65v898z" />
    <glyph glyph-name="brokenbar.case" horiz-adv-x="259" 
d="M102 772h55v-342h-55v342zM102 303h55v-391h-55v391z" />
    <glyph glyph-name="fivessuperior" horiz-adv-x="265" 
d="M44 530q30 -25 43 -31q20 -9 46 -9q43 0 63.5 17t20.5 55q0 62 -82 62h-90v157h185v-29h-152v-99h59q49 0 81 -21t32 -69q0 -49 -31 -75.5t-86 -26.5q-54 0 -109 48z" />
    </font>
</defs>
</svg>
