<svg id="svg5065" xmlns="http://www.w3.org/2000/svg" width="115" viewBox="0 0 999 220.88"><defs><style>.cls-1{fill:#fff;}</style></defs><title>ftrlogo3</title><g id="layer1"><path id="path6969" class="cls-1" d="M363.08,28.22a179.66,179.66,0,0,0-34-.56c-11.23.92-23,2.55-33.4,6.77-5.11,2.06-10.55,4.55-14.05,8.8s-5.53,11-1.29,15.46c7.58,8,20.5,9.82,31.21,11.23,23.63,3.1,47.68,1.91,71.39,4.51,11.47,1.26,23,3.38,33.83,7.25,10.65,3.79,22.12,10.1,27.9,19.77a46.81,46.81,0,0,1-11.54,60.75c-18.33,14.46-43.08,19.48-66.41,20.76s-47.72.51-70.86-3.39a153.18,153.18,0,0,1-59.49-23.15q9-13.18,18-26.37c17.68,13.91,42,20.38,64.26,23.89a225.4,225.4,0,0,0,35.21,2.48c11.41,0,23.33-.9,34.3-4,10.42-3,22.89-7.85,27.19-18.22,1.94-4.72,2.7-10.56,0-15.17-3-5-8-8.1-13.51-10.16-11.08-4.14-23-5.19-34.75-6.14s-23.51-1.06-35.22-1.53c-22.58-.91-47.82-2.4-67.88-13.24-10-5.39-18.88-14.46-20.44-25.65s-.08-23,7.15-32.18c14.12-17.95,39.13-25.56,61.82-28a273.54,273.54,0,0,1,71,1.66c22,3.4,44.17,11.26,62.43,23.4q-8.82,11.64-17.65,23.3c-18.5-13.32-42.38-19.69-65.15-22.2" transform="translate(0 -0.5)"/><path id="path6967" class="cls-1" d="M531,182.54c-1.38.13-10.06.23-10.2.87-11.5-.28-23.21-1.63-32.67-8.34-9-6.39-12-17.81-12.63-27.94-.63-10.66-.15-21.43-.15-32.11V72.61c0-1,.4-1.57-.78-1.57H452.34c-1.81,0-1-1.83-1-3.34V45.63c0-2,1.26-1.24,3.25-1.24h20.78V15c0-.74.15-5.46,0-5.45s5.35,0,6.29,0l27,0V44.39h44.14c1.73,0,1.61-.2,1.61,1.48v22.2c0,1.05.68,3-.69,3H508.68l.3,70.27c0,4,.63,8.18,4.07,10.88s8.48,2.89,12.72,3c10.11.28,19.83-2.22,29.35-5.13q4,13.47,8,26.95a190.76,190.76,0,0,1-21.41,4.12c-3.54.53-7.1,1-10.69,1.39" transform="translate(0 -0.5)"/><path id="path6965" class="cls-1" d="M674.71,181.25l-18.37,31.19L651.87,220c-1.16,2-2.75,1.2-5.18,1.2h-33q10.49-16.75,21-33.5,2.54-4,5.09-8.1c.17-.29,2-2.62,1.8-2.92l-3.07-5.3q-22.41-38.74-44.82-77.5Q579.35,69.15,565,44.39h39.36c1.49,0,2.59,3.54,3.18,4.64q4.17,7.55,8.32,15.09,21.54,39,43,78.07c.51.91,1,1.85,1.52,2.74Q679.71,111.54,699,78.11q9.18-15.89,18.33-31.77l1.1-1.93c.22-.37,4.51,0,5,0h31.89q-14.38,24.44-28.77,48.86l-51.78,88" transform="translate(0 -0.5)"/><path id="path6963" class="cls-1" d="M798.45,178.53H766.28c-.61,0-.43-.18-.43-.72V4.39c3.34,0,33.95-.13,33.95.14v171c0,1.85.75,3-1.35,3" transform="translate(0 -0.5)"/><path id="path6961" class="cls-1" d="M904,40.63a139.23,139.23,0,0,0-35.28,5c-22.11,6.09-42.59,21.11-50.6,42-7.81,20.45-5.76,45.33,7.6,63.4,13.7,18.52,36.8,28.14,60,30.85s48,1.28,70.59-4.82a108.4,108.4,0,0,0,31.6-14.18c.66-.45,5.87-3.78,5.56-4.16-1.75-2.19-3.5-4.34-5.25-6.5C984.12,147.14,980,142.07,976,137c-1.44,1.12-2.87,2.2-4.38,3.22-18.8,12.62-43.72,14.66-66.09,14.66h-1.34c-21,0-49.16-8-53.41-30.57H999c-.36-12.83-2.12-25.45-7.44-37.37-9.49-21.31-29.1-35.52-52.22-41.88A128.32,128.32,0,0,0,904,40.63Zm-1.09,28c1.39,0,2.78,0,4.15,0,21.69.62,47.67,7.5,53.6,29.93H851.06a18.86,18.86,0,0,1,.44-1.87C858.63,76.51,882,69,902.88,68.59Z" transform="translate(0 -0.5)"/><path id="path6957" class="cls-1" d="M0,178.21V4.39H36.55V118.46c0,3.7.18,59.8-.17,59.8-3.46,0-36.38.05-36.38,0" transform="translate(0 -0.5)"/><path id="path6890" class="cls-1" d="M186.71,178.07V109.51c0-10,0-23-7.48-31-7.73-8.29-20.72-9.58-31.77-9.58-11.34,0-23.24,1-33.89,5.13a110.77,110.77,0,0,0-15.55,7c-2.58,1.5-5.06,3.12-7.47,4.85-1.27.9-2.11,1.31-2.11,2.75V171.6c0,1,.67,6.66-.57,6.66H55.55c-.95,0-1.12.23-1.12-.61V45.17c0-.78-.14-.78.72-.78H87.52c1.73,0,.92,2,.92,3.37v8.4c19.55-12.34,42.8-16.6,66-15.49,22,1,49.06,6.92,59.65,27.57C219,77.81,221,87.93,221,98.55q.06,18.15.14,36.3.08,21.71.16,43.41c-3.45,0-34.61.19-34.61-.19" transform="translate(0 -0.5)"/></g></svg>