<svg xmlns="http://www.w3.org/2000/svg" width="115" viewBox="0 0 115 29">
  <g id="Group_3" data-name="Group 3" transform="translate(0 0)">
    <path id="MAGAZINE" d="M24.1,5a2.069,2.069,0,0,1-.861-.189,2.368,2.368,0,0,1-.73-.517,2.547,2.547,0,0,1-.5-.773,2.425,2.425,0,0,1-.19-.961,2.426,2.426,0,0,1,.211-1.022,2.647,2.647,0,0,1,.541-.782,2.407,2.407,0,0,1,.735-.5,2.012,2.012,0,0,1,.8-.176,1.529,1.529,0,0,1,.354.041c.108.025.212.052.318.083l.095.028.168.055a.631.631,0,0,0,.2.04A.2.2,0,0,0,25.351.3a.251.251,0,0,0,.067-.11h.1V1.538h-.091A2.371,2.371,0,0,0,24.955.527a1.056,1.056,0,0,0-.83-.355h-.019a1.185,1.185,0,0,0-.678.176,1.166,1.166,0,0,0-.393.457,1.984,1.984,0,0,0-.18.644,6.2,6.2,0,0,0-.043.733v.577a5.862,5.862,0,0,0,.074,1.014,1.9,1.9,0,0,0,.229.663.9.9,0,0,0,.4.362,1.454,1.454,0,0,0,.589.109.8.8,0,0,0,.446-.109.711.711,0,0,0,.253-.3,1.346,1.346,0,0,0,.113-.447c.016-.172.024-.362.024-.563V3.236h-.629V3.143H26.2v.094h-.4V4.755h-.111a.157.157,0,0,0-.07-.116.242.242,0,0,0-.13-.037.644.644,0,0,0-.278.063L24.93,4.8a2.767,2.767,0,0,1-.351.136A1.62,1.62,0,0,1,24.1,5Zm38.57-.093H61.449V4.814h.563V.278h-.562V.185h1.442l2.033,3.157h.012V.278h-.562V.185H65.6V.278h-.562V4.906h-.165L62.122.656h-.013V4.814h.562v.093Zm-29.283,0H32.233V4.814h.513L34.565,0h.165l1.923,4.814h.526v.092H35.127V4.814h.568l-.708-1.777H33.521l-.678,1.777h.544v.093Zm.849-3.774h0l-.684,1.81h1.4l-.72-1.81ZM11.791,4.908H10.636V4.814h.513L12.969,0h.165l1.923,4.814h.526v.092H13.531V4.814H14.1L13.39,3.038H11.925l-.678,1.777h.544v.093Zm.849-3.774h0l-.684,1.81h1.4l-.72-1.81ZM1.221,4.908H0V4.814H.562V.278H0V.185H1.57l1.056,3.3h.013L3.713.185H5.239V.278H4.677V4.814h.562v.092h-2V4.814h.555V.278H3.779l-1.5,4.629h-.1L.671.278H.66V4.814h.562v.093ZM76,4.907H72.1V4.814h.562V.278H72.1V.185h3.651V1.319H75.67l-.041-.129c-.017-.048-.038-.1-.062-.159a1.469,1.469,0,0,0-.205-.342A1.193,1.193,0,0,0,75.023.4a.984.984,0,0,0-.507-.123h-.971V2.327h.342a.944.944,0,0,0,.382-.069.686.686,0,0,0,.259-.2,1.084,1.084,0,0,0,.171-.312,2.487,2.487,0,0,0,.11-.408h.08V3.4h-.08c-.027-.124-.06-.249-.1-.372a1.16,1.16,0,0,0-.156-.315.748.748,0,0,0-.241-.215.735.735,0,0,0-.357-.08h-.41V4.814h1a1.215,1.215,0,0,0,.507-.1,1.27,1.27,0,0,0,.4-.288,1.669,1.669,0,0,0,.291-.435,2.535,2.535,0,0,0,.176-.534H76V4.906Zm-20.338,0H53.653V4.814h.562V.278h-.562V.185h2.009V.278H55.1V4.814h.562v.092ZM47,4.907h-3.67L45.788.278H44.94a1.134,1.134,0,0,0-.427.074.971.971,0,0,0-.32.205,1.328,1.328,0,0,0-.241.319,3.433,3.433,0,0,0-.2.418h-.079V.185h3.164L44.372,4.814h1.105a1.524,1.524,0,0,0,.47-.073,1.183,1.183,0,0,0,.419-.242,1.544,1.544,0,0,0,.336-.437,2.455,2.455,0,0,0,.223-.653H47v1.5Z" transform="translate(19 24)" fill="#fff"/>
    <rect id="Rectangle" width="113" height="1" transform="translate(2 21)" fill="#fff"/>
    <path id="VIVAGLAM" d="M63.166,19.99h0c-.547,0-1.022-.016-1.411-.046a7.692,7.692,0,0,1-3.02-.76,8.387,8.387,0,0,1-2.56-2.08A10.542,10.542,0,0,1,54.409,14a11.054,11.054,0,0,1-.664-3.866,10.988,10.988,0,0,1,.739-4.107,10.771,10.771,0,0,1,1.9-3.145A8.526,8.526,0,0,1,58.96.868a6.293,6.293,0,0,1,2.8-.707,8.656,8.656,0,0,1,1.312.08,7.222,7.222,0,0,1,1.229.3L64.47.6a6.487,6.487,0,0,1,.715.269c.3.138,1.019.5,1.165.587l.019.011A5.271,5.271,0,0,1,67.73,2.682a4.112,4.112,0,0,1,.358.769c-.014-.008-2.07-1.34-2.9-1.743a7.034,7.034,0,0,0-2.928-.84h-.032a3.757,3.757,0,0,0-2.377.706A10.682,10.682,0,0,0,56.175,8.73c0,.038-.423,3.776.7,6.2,1.172,2.522,2.46,3.515,4.75,3.664.435.029.853.043,1.241.043s.731-.015,1.019-.043a2.943,2.943,0,0,0,1.8-.667,1.89,1.89,0,0,0,.373-1.353c.005-.146.011-.3.023-.446a13.71,13.71,0,0,0,.013-1.449c-.007-.265-.013-.538-.013-.817V12.852H65.021v-.373h4.1v.374h-.445v6.839l-.034,0C67.888,19.764,65.257,19.99,63.166,19.99Zm-43.687-.333H15.3v-.374h.985V.835H15.3V.559h4.176V.835H18.45V19.283h1.029v.373ZM98.658,19.6H96.035v-.374h.5l1.1-18.3h-1.6V.554h3.5l5.351,15.475.761-2.974,4.027-12.5H113.2V.929h-1.155l1.595,18.3H115V19.6H108.67v-.374h2.247l-.812-18.3L104.558,19.6h-.616L98.2.929l-.869,18.3h1.324V19.6ZM35.5,19.6h-2.85v-.36h.777L40.173,0l6.268,19.239H47.7V19.6H43.781v-.36h.4L42,12.342H37.086l-2.282,6.9h.7v.36ZM39.932,3.742,37.6,10.468h4.114ZM83.545,19.567H80.694v-.361h.777L88.217.6l6.267,18.6h1.256v.36H91.824v-.361h.4l-2.182-6.9H85.13l-2.282,6.9h.7v.361Zm4.43-15.858-2.332,6.726h4.114ZM80.35,19.543H69.982v-.374h.885V.872h-.885V.5h4.079V.872H72.828V18.555h3.853a2.9,2.9,0,0,0,2.075-.6,9.158,9.158,0,0,0,.809-2.939c.047-.257.091-.5.13-.7h.654v5.222ZM7.412,19.527H6.591L.984.843H0V.555H4.051V.843H3.5L7.7,14.811,12.613.843h-.622V.555h2.479V.843h-.94L7.412,19.527Zm19.912,0H26.5L20.894.842h-.983V.554h4.05V.842h-.551l4.2,13.968L32.524.842H31.9V.554h2.479V.842h-.94L27.323,19.526Z" fill="#fff"/>
  </g>
</svg>
