<svg id="search" xmlns="http://www.w3.org/2000/svg" width="24" height="24" viewBox="0 0 24 24">
  <path id="Shape" d="M9,18A8.962,8.962,0,0,1,0,9,8.962,8.962,0,0,1,9,0a8.962,8.962,0,0,1,9,9,8.962,8.962,0,0,1-9,9ZM9,2A6.926,6.926,0,0,0,2,9a6.926,6.926,0,0,0,7,7,6.926,6.926,0,0,0,7-7A6.926,6.926,0,0,0,9,2Z" fill="#1a1a1a"/>
  <path id="Path" d="M9,10a.908.908,0,0,1-.7-.3l-8-8A.967.967,0,0,1,.3.3.967.967,0,0,1,1.7.3l8,8a.967.967,0,0,1,0,1.4A.908.908,0,0,1,9,10Z" transform="translate(14 14)" fill="#1a1a1a"/>
</svg>
