<svg id="Group_6" data-name="Group 6" xmlns="http://www.w3.org/2000/svg" width="26" height="26" viewBox="0 0 26 26">
  <g id="_383223_Bag_Shopping" data-name="383223 Bag Shopping">
    <path id="Path" d="M25.758.318A.951.951,0,0,0,25.049,0H20.027V2.539a2.24,2.24,0,0,1-2.342,2.115,2.24,2.24,0,0,1-2.342-2.115V0H10.658V2.539A2.24,2.24,0,0,1,8.315,4.654,2.24,2.24,0,0,1,5.973,2.539V0H.951A.951.951,0,0,0,.006,1.06L1.692,15.819a3.07,3.07,0,0,0,3.064,3.008H21.244a3.07,3.07,0,0,0,3.064-3.008L25.994,1.06A.952.952,0,0,0,25.758.318Z" transform="translate(0 7.172)" fill="#fff"/>
    <path id="Path-2" data-name="Path" d="M.929,9.862a.914.914,0,0,0,.929-.9V4.034c0-1.385,1.446-2.241,2.786-2.241H6.964A2.139,2.139,0,0,1,9.286,4.034V8.966a.929.929,0,0,0,1.857,0V4.034A3.974,3.974,0,0,0,6.964,0H4.643C2.083,0,0,1.81,0,4.034V8.966A.914.914,0,0,0,.929,9.862Z" transform="translate(7.429)" fill="#fff"/>
  </g>  
</svg>
