<svg id="twitter-black" xmlns="http://www.w3.org/2000/svg" width="23" height="19" viewBox="0 0 23 19">
  <path id="Path" d="M7.233,19C15.912,19,20.66,11.69,20.66,5.35c0-.208,0-.414-.014-.62A9.692,9.692,0,0,0,23,2.246,9.3,9.3,0,0,1,20.29,3,4.8,4.8,0,0,0,22.364.348a9.365,9.365,0,0,1-3,1.164A4.689,4.689,0,0,0,15.927,0,4.786,4.786,0,0,0,11.2,4.8a4.881,4.881,0,0,0,.122,1.086A13.331,13.331,0,0,1,1.6.875a4.87,4.87,0,0,0,1.461,6.4,4.625,4.625,0,0,1-2.142-.6V6.74a4.794,4.794,0,0,0,3.786,4.7,4.637,4.637,0,0,1-2.131.082,4.744,4.744,0,0,0,4.409,3.332,9.373,9.373,0,0,1-5.86,2.058A9.444,9.444,0,0,1,0,16.845,13.2,13.2,0,0,0,7.233,19" fill="#1a1a1a"/>
</svg>
