<svg id="apple_pay" xmlns="http://www.w3.org/2000/svg" width="43" height="28" viewBox="0 0 43 28">
  <path id="XMLID_4_" d="M39.149,0H3.41c-.124,0-.248,0-.372.006A5.311,5.311,0,0,0,2.23.079a2.7,2.7,0,0,0-.769.258A2.582,2.582,0,0,0,.806.82a2.619,2.619,0,0,0-.475.666,2.8,2.8,0,0,0-.253.782,5.546,5.546,0,0,0-.071.822c0,.126,0,.252-.006.378,0,.15,0,.3,0,.449V24.083c0,.15,0,.3,0,.449,0,.126,0,.252.006.378a5.544,5.544,0,0,0,.071.822,2.8,2.8,0,0,0,.253.782,2.614,2.614,0,0,0,.475.666,2.567,2.567,0,0,0,.655.484,2.688,2.688,0,0,0,.769.258,5.351,5.351,0,0,0,.809.072q.186,0,.372.005H39.59q.186,0,.372-.005a5.366,5.366,0,0,0,.809-.072,2.69,2.69,0,0,0,.768-.258,2.57,2.57,0,0,0,.655-.484,2.629,2.629,0,0,0,.475-.666,2.78,2.78,0,0,0,.253-.782,5.543,5.543,0,0,0,.071-.822q.005-.189.006-.378c0-.15,0-.3,0-.449V3.917c0-.15,0-.3,0-.449q0-.189-.006-.378a5.546,5.546,0,0,0-.071-.822,2.781,2.781,0,0,0-.253-.782A2.634,2.634,0,0,0,42.194.82a2.585,2.585,0,0,0-.655-.484,2.7,2.7,0,0,0-.768-.258,5.325,5.325,0,0,0-.809-.072c-.124,0-.248,0-.372-.006Z"/>
  <path id="XMLID_3_" d="M38.079,0h.432c.117,0,.234,0,.352.005a4.5,4.5,0,0,1,.668.058,1.784,1.784,0,0,1,.513.17,1.655,1.655,0,0,1,.419.309,1.691,1.691,0,0,1,.306.429,1.829,1.829,0,0,1,.167.521,4.689,4.689,0,0,1,.057.678c0,.118,0,.236.005.358,0,.146,0,.293,0,.439V23.032c0,.147,0,.293,0,.442,0,.118,0,.236-.005.355a4.683,4.683,0,0,1-.057.68,1.822,1.822,0,0,1-.167.519,1.681,1.681,0,0,1-.305.427,1.646,1.646,0,0,1-.421.311,1.77,1.77,0,0,1-.51.17,4.576,4.576,0,0,1-.666.058c-.118,0-.236,0-.357,0H2.486c-.118,0-.236,0-.35,0a4.584,4.584,0,0,1-.668-.058,1.775,1.775,0,0,1-.514-.171,1.641,1.641,0,0,1-.42-.31,1.67,1.67,0,0,1-.3-.427,1.844,1.844,0,0,1-.167-.522,4.665,4.665,0,0,1-.057-.678c0-.119,0-.238-.005-.356V2.528c0-.119,0-.238.005-.357a4.669,4.669,0,0,1,.057-.68A1.841,1.841,0,0,1,.23.971,1.674,1.674,0,0,1,.535.544a1.654,1.654,0,0,1,.42-.31,1.781,1.781,0,0,1,.512-.17A4.493,4.493,0,0,1,2.137.006c.117,0,.234,0,.35-.005H38.079" transform="translate(1 1)" fill="#fff"/>
  <g id="Group" transform="translate(6 8)">
    <g id="Group-2" data-name="Group">
      <path id="Path" d="M1.594,1.68A2.338,2.338,0,0,0,2.142,0,2.375,2.375,0,0,0,.575.8,2.19,2.19,0,0,0,.013,2.416,1.983,1.983,0,0,0,1.594,1.68" transform="translate(4.392 0.014)"/>
      <path id="Path-2" data-name="Path" d="M6.415,0C5.542-.048,4.8.493,4.383.493S3.327.029,2.636.042A2.579,2.579,0,0,0,.447,1.356c-.938,1.6-.248,3.967.665,5.269.443.644.977,1.353,1.681,1.327.665-.026.925-.425,1.733-.425s1.042.425,1.746.412C7,7.925,7.458,7.294,7.9,6.65A5.687,5.687,0,0,0,8.63,5.169,2.344,2.344,0,0,1,7.21,3.043a2.383,2.383,0,0,1,1.147-2A2.507,2.507,0,0,0,6.415,0" transform="translate(0.112 2.543)"/>
    </g>
    <g id="Group-3" data-name="Group" transform="translate(10.327 0.51)">
      <path id="Shape" d="M1.518,9.663H0V0H3.667A3.059,3.059,0,0,1,6.886,3.174,3.088,3.088,0,0,1,3.619,6.361h-2.1v3.3Zm0-8.4V5.1H3.26A1.823,1.823,0,0,0,5.334,3.181,1.816,1.816,0,0,0,3.267,1.265Z" transform="translate(0.137 0.241)"/>
      <path id="Shape-2" data-name="Shape" d="M2.372,7.293A2.16,2.16,0,0,1,0,5.17c0-1.23.966-1.99,2.651-2.083L4.6,2.974V2.431c0-.784-.535-1.252-1.43-1.252a1.362,1.362,0,0,0-1.5,1.03H.284A2.13,2.13,0,0,1,1.125.628,3.382,3.382,0,0,1,3.227,0C4.948,0,6.06.909,6.06,2.317V7.172h-1.4V6.013H4.622A2.536,2.536,0,0,1,2.372,7.293ZM4.6,3.978l-1.756.107c-.87.06-1.369.44-1.369,1.044s.511,1.018,1.3,1.018A1.71,1.71,0,0,0,4.6,4.533Z" transform="translate(7.42 2.732)"/>
      <path id="Path-3" data-name="Path" d="M.7,9.636V8.464a2.742,2.742,0,0,0,.474.027,1.185,1.185,0,0,0,1.267-1c0-.013.129-.429.129-.435L0,0H1.586l1.8,5.732h.027L5.219,0H6.764L4.094,7.413C3.484,9.121,2.779,9.67,1.3,9.67A5.731,5.731,0,0,1,.7,9.636Z" transform="translate(14.099 2.859)"/>
    </g>
  </g>
</svg>
