<svg version="1.1" id="Layer_1" xmlns="http://www.w3.org/2000/svg" xmlns:xlink="http://www.w3.org/1999/xlink" x="0px" y="0px"
	 viewBox="0 0 84.9 77.2" style="enable-background:new 0 0 84.9 77.2;" width="41"  xml:space="preserve">
<style type="text/css">
	.st0{fill:#FFFFFF;}
</style>
<g>
	<g>
		<g>
			<path class="st0" d="M74.2,13.6c0.3,0.3,0.9,0.9,0.9,0.9c1,1.6,2.8,2.8,3.7,4.6l-0.3-0.8c-0.6-0.9-0.9-0.9-0.3-0.1
				c-1.3-1.9-2.9-3.5-4.4-5.2C73.9,13,73.8,13.1,74.2,13.6"/>
			<path class="st0" d="M72.1,65.3l0.9-0.7l-3.6,2.6C70.1,66.8,71.1,66,72.1,65.3"/>
			<path class="st0" d="M43.6,9c-3.8,0-7.4,0.6-10.9,1.6c0,0,0.1,0,0.2,0c4.9,0,8.5,3.7,7.7,8.1l-2.5,16.3c3.9-5.8,9.4-8.6,13.6-8.6
				c9.1,0,14.6,9.8,12.9,21.8C63.1,58.4,56.6,67,49.2,69.4c16.2-2.4,28.5-14.9,28.5-30C77.7,22.6,62.5,9,43.6,9 M34.1,61.5l-0.7,4.6
				c-0.1,0.6-0.6,1.5-0.9,2c3.2,1,6.7,1.6,10.3,1.7C39,68.9,35.5,65.8,34.1,61.5 M28.7,15.8c-1.7,0-3.7,1.2-3.9,3l-0.5,3.5l-2.4,0
				l0.5-3.5c0.3-1.8,1.3-3.5,2.7-4.9C15.8,19.3,9.6,28.7,9.6,39.4c0,10.5,6,19.8,15,25.2l7.1-45.9C32,17,30.6,15.8,28.7,15.8"/>
			<path class="st0" d="M55.3,47.6c-1.3,8.2-6.2,14.8-10.8,14.8c-4,0-7.4-6.6-6-14.8c1.1-8.2,6.6-14.7,10.7-14.7
				C53.6,32.9,56.6,39.4,55.3,47.6"/>
		</g>
		<g>
			<path class="st0" d="M84,46.1c-1.5,5.4-3.8,10.2-7.2,14.2c-0.2,0.3-0.4,0.6-0.7,1l-0.9,0.8l-1.5,1.7l-0.5,0.6l0,0
				c-0.3,0.4-0.1,0.3,0.1,0.1l0.6-0.5l-0.6,0.5l-1,0.7l-1.8,1.3l1.8-1.3l0.9-0.8l0.2-0.3c-1.2,1.3-2.8,2.1-4.2,3.2l-0.9,0.7
				c-1,0.8-2,1.7-2.8,1.8l-0.9,0.4l0.2-0.1l-0.3,0.1l-3.7,1.7c-0.8,0.4-1.5,1-2.4,1.2c0,0-0.6,0.1-0.9,0.1c-0.3,0.2-0.8,0.3-1.4,0.5
				l2-0.3c1,0,1.8-0.9,2.9-1.2c-1.1,0.2-1.9,1.1-2.9,1.2l-2,0.3c-1.2,0.4-2.9,0.8-4.2,1c1.6-0.6,2.9-0.8,4.2-1
				c0.6-0.2,1.1-0.4,1.4-0.5c0.3,0,0.9-0.1,0.9-0.1c0.9-0.2,1.6-0.8,2.4-1.2c-2.3,1.3-5.1,1.5-7.6,2.3C36.1,77.8,18,71.5,8.4,56.8
				c-5.1-7.9-6.5-17.3-4.5-25.6C8.2,14.6,24.1,2.4,42.5,2.7c7-0.3,19.6,3.1,24.8,7.3c7.4,4.8,4.7,1.3,4.4,0.9
				c-3.9-4-7.7-7.1-19.3-10.2c7.8,2.4-5.9-1.4-13.8-0.5C27-0.4,11.6,8.5,5.2,20.5C3.1,23.3,2.3,26.8,1,30.6
				C-4.3,51.2,11.5,72,33.9,76.4c6,1.2,11.4,0.9,16.3,0.1c3.6-0.6,7.5-1.6,10.3-2.5c4.3-1.9,7.8-3.8,10.7-6.4
				c-3.3,2.8-6,4.2-10.4,6.2c-2.9,1.4,1.9-1.3,3.7-2.3c0.8-0.5,2.3-0.7,3-1.3l4.5-3.6c0.7-0.6,0.8-0.3,1.1-0.6
				c2.1-1.9,3.1-3.9,4.4-5.1c1-0.9,1.8-1.9,2.4-2.9l1.2-2l0.7-1.3c-0.3,0.3-0.5,0.4-0.6,0.4l1.3-2.1L81,55.1c0.2,0,0.3-0.1,0.6-0.4
				c1.7-3.2,2.7-7.3,3.2-11l0,0.1c0,2.3-1.1,4.3-1.9,6.4c0.4-0.9,0.4-0.8,0.1,0.3l-0.4,0.8c0.5-1.9,1.1-3.8,1.9-5.5
				c0.1,0,0.1-0.9,0.1-1.3c0.1-0.6,0.2-0.6,0.3-0.7l0.1-1.3C84.6,43.3,84.2,46.1,84,46.1"/>
		</g>
	</g>
</g>
</svg>
