 
<svg version="1.1"
	 id="Layer_1" inkscape:version="0.91 r13725" sodipodi:docname="header.__content__editorialTelevisa__mexico__cosmo__mx__header.svg" xmlns:cc="http://creativecommons.org/ns#" xmlns:dc="http://purl.org/dc/elements/1.1/" xmlns:inkscape="http://www.inkscape.org/namespaces/inkscape" xmlns:rdf="http://www.w3.org/1999/02/22-rdf-syntax-ns#" xmlns:sodipodi="http://sodipodi.sourceforge.net/DTD/sodipodi-0.dtd" xmlns:svg="http://www.w3.org/2000/svg"
	 xmlns="http://www.w3.org/2000/svg" xmlns:xlink="http://www.w3.org/1999/xlink" width="115" x="0px" y="0px" viewBox="0 0 2960 515.7"
	 style="enable-background:new 0 0 2960 515.7;" xml:space="preserve">
<style type="text/css">
	.st0{fill:#FFFFFF;}
</style>
<title  id="title4177">Cosmopolitan Logo</title>
<sodipodi:namedview  bordercolor="#666666" borderopacity="1" fit-margin-bottom="20" fit-margin-left="20" fit-margin-right="20" fit-margin-top="20" gridtolerance="10" guidetolerance="10" id="namedview29" inkscape:current-layer="Layer_1" inkscape:cx="1500" inkscape:cy="288.01436" inkscape:pageopacity="0" inkscape:pageshadow="2" inkscape:showpageshadow="false" inkscape:window-height="715" inkscape:window-maximized="1" inkscape:window-width="1366" inkscape:window-x="-8" inkscape:window-y="-8" inkscape:zoom="0.27297297" objecttolerance="10" pagecolor="#ffffff" showgrid="false">
	</sodipodi:namedview>
<g id="g4174" transform="matrix(4.707812,0,0,4.707812,17.195542,-201.13843)">
	<path id="polygon5" inkscape:connector-curvature="0" class="st0" d="M24.8,42.7C9,42.7-3.7,57.8-3.7,99.7c0,36,7.1,52.6,28.5,52.6
		c23.4,0,26.2-23.1,26.2-42.2L34,109.3c-0.3,15.9-1.8,26-8.5,26c-6.2,0-8.3,0.3-8.3-35.7c0-37.2,4.1-40,8.3-40
		c4.9,0,7.2,6.8,7.2,24.9L50.7,84C50.7,64,47.9,42.7,24.8,42.7z M81.7,42.7c-17.7,0-29.2,11.5-29.2,54.8c0,43.2,11.5,55,29.2,55
		c17.7,0,29.2-11.8,29.2-55c0-6-0.2-9.2-0.7-14.1c6.9,23,34.8,24.2,34.8,41.3c0,4.5-2.3,10.6-8.9,10.6c-8.6,0-8.6-8.6-8.6-14.8v-2.2
		h-17.8c0,15.1,4.3,33.9,25.7,33.9c11.8,0,19.9-5.7,24.1-14.4v14.4h14.8V72h0.3l13.4,80.3H199L212.6,72h0.3v80.3h17.8V99.6
		c0.4,41.6,11.8,52.9,29.2,52.9c15.9,0,26.9-9.2,28.9-43v42.8h20v-43.8h8c14.6,0,22.5-8,25.3-20.9c-0.2,3.1-0.2,6.5-0.2,10
		c0,43.2,11.5,54.8,29.2,54.8c17.7,0,29.2-11.6,29.2-54.8c0-43.2-11.5-54.8-29.2-54.8c-14.1,0-24.3,6.6-27.8,32.1
		c-0.3-23.1-12.1-32-34.5-32h-20v42.8c-2-33.8-13-42.8-28.9-42.8c-17.4,0-28.8,11.1-29.2,52.7V42.7h-26l-9.4,56.2H195l-8.9-56.2
		h-26.6v26.4c-1.9-15.9-9.1-26.4-24.9-26.4c-16.7,0-25.7,13.1-25.8,29.3C104.6,50.3,94.9,42.7,81.7,42.7L81.7,42.7z M400.8,42.7
		v109.5h45.5v-16.9h-25.5V42.7H400.8z M449.6,42.7v109.5h20V42.7H449.6z M472.9,42.7v16.9h17.2v92.6h20V59.6h17l-13,92.6h16.8
		l2.8-24.3h16.2l2.9,24.3h18.1h1.1h15.8V86h0.3l21.4,66.3h15.5V42.7h-16v57.8h-0.3l-18.3-57.8h-19.5v100.7L558.5,42.7h-28.9
		l-2.2,15.4V42.7L472.9,42.7L472.9,42.7z M81.7,59.6c4.6,0,7.4,2.6,7.4,26.3V109c0,23.7-2.8,26.5-7.4,26.5c-4.6,0-7.4-2.9-7.4-26.5
		V86C74.3,62.3,77.1,59.6,81.7,59.6z M134.1,59.6c8,0,8,10.3,8,16.5h17.4v30.4c-9-19.1-32.9-24-32.9-39.1
		C126.6,61.5,129.4,59.6,134.1,59.6z M260,59.6c4.6,0,7.4,2.6,7.4,26.3V109c0,23.7-2.8,26.5-7.4,26.5c-4.6,0-7.4-2.9-7.4-26.5V86
		C252.6,62.3,255.3,59.6,260,59.6z M371.2,59.6c4.6,0,7.4,2.6,7.4,26.3V109c0,23.7-2.8,26.3-7.4,26.3c-4.6,0-7.4-2.6-7.4-26.3V86
		C363.8,62.3,366.5,59.6,371.2,59.6z M309,59.6h1.5c6.6,0,12.8,0.5,12.8,16.3c0,13.2-4.5,16.5-12.6,16.5H309V59.6z M542,59.6h0.3
		l5.8,52.3h-12.5L542,59.6z"/>
</g>
</svg>
