<svg xmlns="http://www.w3.org/2000/svg" width="19.021" height="18.092" viewBox="0 0 19.021 18.092">
  <g id="map-star-half" transform="translate(5977.511 7305)">
    <g id="Star" transform="translate(-5978 -7305)" fill="none" stroke-miterlimit="10">
      <path d="M10,15,4.122,18.09l1.123-6.545L.489,6.91l6.572-.955L10,0l2.939,5.955,6.572.955-4.755,4.635,1.123,6.545Z" stroke="none"/>
      <path d="M 14.54971885681152 16.26216125488281 L 13.76966953277588 11.71412467956543 L 13.68080043792725 11.19596481323242 L 14.05727005004883 10.82899475097656 L 17.36160278320313 7.608075618743896 L 12.79512977600098 6.944524765014648 L 12.27486038208008 6.868925094604492 L 12.0421895980835 6.39748477935791 L 10 2.259564876556396 L 7.957809925079346 6.39748477935791 L 7.72514009475708 6.868925094604492 L 7.204870223999023 6.944524765014648 L 2.638404846191406 7.608075618743896 L 5.942729949951172 10.82899475097656 L 6.319200038909912 11.19596481323242 L 6.230329990386963 11.71412467956543 L 5.450281143188477 16.26216125488281 L 9.534660339355469 14.11487483978271 L 10 13.87022495269775 L 10.46533966064453 14.11487483978271 L 14.54971885681152 16.26216125488281 M 15.87784957885742 18.09017562866211 L 10 15.00000476837158 L 4.12214994430542 18.09017562866211 L 5.244719982147217 11.54508495330811 L 0.489439994096756 6.909834861755371 L 7.061069965362549 5.954915046691895 L 10 4.953308234689757e-06 L 12.93892955780029 5.954915046691895 L 19.51057052612305 6.909834861755371 L 14.75527954101563 11.54508495330811 L 15.87784957885742 18.09017562866211 Z" stroke="none" fill="#d8d8d8"/>
    </g>
    <g id="Star-2" data-name="Star" transform="translate(-5978 -7305)" fill="#d8d8d8" stroke-miterlimit="10">
      <path d="M 4.830252647399902 17.18116188049316 L 5.743337154388428 11.64384746551514 L 5.785627365112305 11.38737773895264 L 5.599997520446777 11.2054271697998 L 1.58576488494873 7.270684719085693 L 7.131437301635742 6.459587574005127 L 7.387957572937012 6.422067642211914 L 7.505117416381836 6.190787315368652 L 9.486566543579102 2.279165267944336 L 9.50253963470459 14.72272491455078 L 4.830252647399902 17.18116188049316 Z" stroke="none"/>
      <path d="M 5.487170219421387 16.27050971984863 L 9.002151489257813 14.42101669311523 L 8.989246368408203 4.367423057556152 L 7.951157569885254 6.41673755645752 L 7.71684741973877 6.879287242889404 L 7.203797340393066 6.954317569732666 L 2.655893564224243 7.619483470916748 L 5.949997425079346 10.84835720062256 L 6.3212571144104 11.21225738525391 L 6.236677169799805 11.72519779205322 L 5.487170219421387 16.27050971984863 M 4.173337459564209 18.091796875 L 5.249997138977051 11.56249713897705 L 0.5156273245811462 6.921877384185791 L 7.059077262878418 5.964847564697266 L 9.983887672424316 0.1909174174070358 L 10.00292778015137 15.02441787719727 L 4.173337459564209 18.091796875 Z" stroke="none" fill="#d8d8d8"/>
    </g>
  </g>
</svg>
