<svg xmlns="http://www.w3.org/2000/svg" width="19.021" height="18.09" viewBox="0 0 19.021 18.09">
  <g id="map-star" transform="translate(-0.489)" fill="#d8d8d8" stroke-miterlimit="10">
    <path d="M 15.21378898620605 17.1761646270752 L 10.23266983032227 14.55743503570557 L 10 14.43511486053467 L 9.767330169677734 14.55743503570557 L 4.786211013793945 17.1761646270752 L 5.737520217895508 11.62960529327393 L 5.781960010528564 11.37052536010742 L 5.593729972839355 11.18704509735107 L 1.563917756080627 7.258950710296631 L 7.132969856262207 6.449715137481689 L 7.393099784851074 6.411914825439453 L 7.509439945220947 6.17619514465332 L 10 1.129779934883118 L 12.49055957794189 6.17619514465332 L 12.60690021514893 6.411914825439453 L 12.86703014373779 6.449715137481689 L 18.43609046936035 7.258950710296631 L 14.40627002716064 11.18704509735107 L 14.21804046630859 11.37052536010742 L 14.26247978210449 11.62960529327393 L 15.21378898620605 17.1761646270752 Z" stroke="none"/>
    <path d="M 14.54971885681152 16.26216125488281 L 13.76966953277588 11.71412467956543 L 13.68080043792725 11.19596481323242 L 14.05727005004883 10.82899475097656 L 17.36160278320313 7.608075618743896 L 12.79512977600098 6.944524765014648 L 12.27486038208008 6.868925094604492 L 12.0421895980835 6.39748477935791 L 10 2.259564876556396 L 7.957809925079346 6.39748477935791 L 7.72514009475708 6.868925094604492 L 7.204870223999023 6.944524765014648 L 2.638404846191406 7.608075618743896 L 5.942729949951172 10.82899475097656 L 6.319200038909912 11.19596481323242 L 6.230329990386963 11.71412467956543 L 5.450281143188477 16.26216125488281 L 9.534660339355469 14.11487483978271 L 10 13.87022495269775 L 10.46533966064453 14.11487483978271 L 14.54971885681152 16.26216125488281 M 15.87784957885742 18.09017562866211 L 10 15.00000476837158 L 4.12214994430542 18.09017562866211 L 5.244719982147217 11.54508495330811 L 0.489439994096756 6.909834861755371 L 7.061069965362549 5.954915046691895 L 10 4.953308234689757e-06 L 12.93892955780029 5.954915046691895 L 19.51057052612305 6.909834861755371 L 14.75527954101563 11.54508495330811 L 15.87784957885742 18.09017562866211 Z" stroke="none" fill="#d8d8d8"/>
  </g>
</svg>
