<svg xmlns="http://www.w3.org/2000/svg" width="31" height="31" viewBox="0 0 31 31">
  <path id="map-yelp" d="M26,31H5a5.006,5.006,0,0,1-5-5V5A5.006,5.006,0,0,1,5,0H26a5.006,5.006,0,0,1,5,5V26A5.005,5.005,0,0,1,26,31ZM14.621,19.768a1.453,1.453,0,0,0-.221.017,1.412,1.412,0,0,0-.353.183,12.353,12.353,0,0,0-1.339,1.591c-.065.087-.111.149-.13.172-.1.115-.185.23-.281.351-.12.152-.243.309-.381.472-.426.5-.868,1.057-1.246,1.56a.6.6,0,0,0-.134.437.967.967,0,0,0,.2.349,5.266,5.266,0,0,0,1.538.867,9.039,9.039,0,0,0,1.812.554l.111.021a2.648,2.648,0,0,0,.452.063l.064,0c.046,0,.1.009.154.009a.6.6,0,0,0,.3-.066.848.848,0,0,0,.332-.284.692.692,0,0,0,.139-.35,1.854,1.854,0,0,0,.027-.41c0-.063,0-.142,0-.262.018-1.114.005-2.03-.005-2.767,0-.311-.008-.579-.009-.815a6.531,6.531,0,0,0-.038-.793,1.381,1.381,0,0,0-.137-.4.865.865,0,0,0-.338-.351,1.348,1.348,0,0,0-.478-.147Zm3.789-1.031c-.074,0-.143.006-.21.012a.863.863,0,0,0-.447.2,1.35,1.35,0,0,0-.3.4,1.489,1.489,0,0,0-.073.247,1.383,1.383,0,0,0,.051.393A12.288,12.288,0,0,0,18.474,21.8c.057.086.1.148.112.173.077.132.156.259.239.394.1.162.2.329.308.511.336.587.7,1.192,1.039,1.7a.6.6,0,0,0,.365.275h.023a.931.931,0,0,0,.373-.07,5.224,5.224,0,0,0,1.34-1.148,8.894,8.894,0,0,0,1.14-1.513l.054-.09a2.686,2.686,0,0,0,.217-.41c.007-.017.016-.037.026-.058a.8.8,0,0,0,.1-.444.851.851,0,0,0-.154-.41.694.694,0,0,0-.281-.25A1.858,1.858,0,0,0,23,20.293c-.06-.02-.135-.045-.247-.088-1.041-.4-1.907-.7-2.6-.941-.295-.1-.547-.19-.768-.27a6.3,6.3,0,0,0-.759-.236A1,1,0,0,0,18.41,18.737ZM8.21,14.676a.507.507,0,0,0-.218.044.973.973,0,0,0-.275.293,5.251,5.251,0,0,0-.379,1.724,8.9,8.9,0,0,0,0,1.895l.013.115a2.64,2.64,0,0,0,.072.447c0,.019.01.041.015.066a.787.787,0,0,0,.186.413.848.848,0,0,0,.369.234.582.582,0,0,0,.237.041.879.879,0,0,0,.139-.011,1.861,1.861,0,0,0,.4-.093c.06-.02.135-.045.249-.078,1.064-.307,1.933-.586,2.631-.811.3-.1.562-.181.79-.251a6.319,6.319,0,0,0,.748-.268,1.376,1.376,0,0,0,.348-.251.855.855,0,0,0,.235-.424,1.347,1.347,0,0,0,0-.5,1.51,1.51,0,0,0-.091-.24,1.4,1.4,0,0,0-.276-.284,12.378,12.378,0,0,0-1.918-.816c-.1-.035-.171-.061-.2-.072-.144-.06-.286-.115-.436-.174-.176-.068-.356-.138-.546-.22-.622-.267-1.281-.528-1.855-.735A.7.7,0,0,0,8.21,14.676ZM20.931,11.1a.685.685,0,0,0-.261.041.693.693,0,0,0-.321.2,1.847,1.847,0,0,0-.267.309c-.037.052-.083.116-.158.212-.682.875-1.221,1.613-1.655,2.206-.185.254-.345.472-.488.663a6.511,6.511,0,0,0-.447.656,1.349,1.349,0,0,0-.134.408.854.854,0,0,0,.058.481,1.351,1.351,0,0,0,.294.4,1.523,1.523,0,0,0,.214.141,1.524,1.524,0,0,0,.362.068h.029a12.355,12.355,0,0,0,2.025-.465c.1-.031.181-.053.209-.06.15-.035.3-.074.45-.114.183-.048.372-.1.576-.145.652-.148,1.338-.324,1.933-.5a.6.6,0,0,0,.369-.268.98.98,0,0,0,.051-.4,5.276,5.276,0,0,0-.707-1.618,8.966,8.966,0,0,0-1.113-1.533l-.075-.082a2.654,2.654,0,0,0-.324-.323l-.051-.044a.789.789,0,0,0-.393-.225A1.242,1.242,0,0,0,20.931,11.1ZM14.186,4.473a7.017,7.017,0,0,0-1.607.251l-.071.017c-.47.111-.976.25-1.691.466-.283.086-1.236.569-1.246.574s-.619.436-.425.861a73.4,73.4,0,0,0,4.5,7.313c.063.08.134.176.21.278a5.329,5.329,0,0,0,.395.5.848.848,0,0,0,.526.25.3.3,0,0,0,.057,0,2.431,2.431,0,0,0,.491-.155s.224-.082.254-.472c0-.046.006-.079.009-.106a3.036,3.036,0,0,0-.013-.55c-.017-.308-.046-.823-.093-1.753-.041-.822-.1-1.759-.175-2.845-.076-1.141-.161-2.433-.239-3.852a1.4,1.4,0,0,0-.162-.467A1.251,1.251,0,0,0,14.186,4.473Z" fill="#fff"/>
</svg>
