<svg id="map-instagram" xmlns="http://www.w3.org/2000/svg" width="31" height="31" viewBox="0 0 31 31">
  <path id="Shape" d="M27.212,31H3.787A3.791,3.791,0,0,1,0,27.212V3.787A3.791,3.791,0,0,1,3.787,0H27.212A3.791,3.791,0,0,1,31,3.787V27.212A3.791,3.791,0,0,1,27.212,31ZM15.5,4.9c-2.852,0-3.23.012-4.369.064a7.829,7.829,0,0,0-2.572.492,5.42,5.42,0,0,0-3.1,3.1,7.829,7.829,0,0,0-.492,2.572C4.916,12.27,4.9,12.648,4.9,15.5s.012,3.23.064,4.369a7.829,7.829,0,0,0,.492,2.572,5.42,5.42,0,0,0,3.1,3.1,7.829,7.829,0,0,0,2.572.492c1.119.052,1.493.064,4.369.064s3.25-.012,4.369-.064a7.829,7.829,0,0,0,2.572-.492,5.42,5.42,0,0,0,3.1-3.1,7.829,7.829,0,0,0,.492-2.572c.052-1.119.064-1.492.064-4.369s-.012-3.249-.064-4.369a7.829,7.829,0,0,0-.492-2.572,5.42,5.42,0,0,0-3.1-3.1,7.829,7.829,0,0,0-2.572-.492C18.73,4.916,18.353,4.9,15.5,4.9Zm0,19.282c-2.831,0-3.165-.011-4.281-.062a5.867,5.867,0,0,1-1.967-.365A3.513,3.513,0,0,1,7.24,21.749a5.867,5.867,0,0,1-.365-1.967c-.051-1.117-.062-1.452-.062-4.282s.011-3.165.062-4.281A5.867,5.867,0,0,1,7.24,9.251,3.511,3.511,0,0,1,9.251,7.24a5.883,5.883,0,0,1,1.967-.365c1.1-.051,1.432-.061,4.281-.061s3.182.011,4.282.061a5.884,5.884,0,0,1,1.967.365A3.513,3.513,0,0,1,23.76,9.251a5.867,5.867,0,0,1,.365,1.967c.051,1.116.062,1.451.062,4.281s-.011,3.165-.062,4.282a5.868,5.868,0,0,1-.365,1.967,3.515,3.515,0,0,1-2.011,2.011,5.868,5.868,0,0,1-1.967.365C18.665,24.176,18.33,24.187,15.5,24.187Zm0-14.127A5.441,5.441,0,1,0,20.941,15.5,5.447,5.447,0,0,0,15.5,10.059Zm5.657-1.487a1.271,1.271,0,1,0,1.271,1.272A1.273,1.273,0,0,0,21.156,8.573ZM15.5,19.032A3.532,3.532,0,1,1,19.032,15.5,3.536,3.536,0,0,1,15.5,19.032Z" fill="#fff"/>
</svg>
