<svg xmlns="http://www.w3.org/2000/svg" width="36.14" height="34.371" viewBox="0 0 36.14 34.371">
  <g id="Star" transform="translate(-0.93)" fill="#f62009" stroke-miterlimit="10">
    <path d="M 29.50385856628418 33.45731353759766 L 19.23266983032227 28.05743217468262 L 19 27.93511199951172 L 18.76733016967773 28.05743217468262 L 8.496140480041504 33.45731353759766 L 10.45775985717773 22.02018165588379 L 10.50220012664795 21.76110076904297 L 10.31396961212158 21.57762145996094 L 2.004408121109009 13.47779846191406 L 13.48793983459473 11.80914115905762 L 13.74806976318359 11.77134132385254 L 13.86441040039063 11.53562164306641 L 19 1.129778265953064 L 24.13558959960938 11.53562164306641 L 24.25193023681641 11.77134132385254 L 24.51206016540527 11.80914115905762 L 35.99559020996094 13.47779846191406 L 27.6860294342041 21.57762145996094 L 27.49780082702637 21.76110076904297 L 27.54224014282227 22.02018165588379 L 29.50385856628418 33.45731353759766 Z" stroke="none"/>
    <path d="M 28.83978843688965 32.54330825805664 L 27.04943084716797 22.10470199584961 L 26.9605598449707 21.5865421295166 L 27.3370304107666 21.21957206726074 L 34.92110443115234 13.82692337036133 L 24.44016075134277 12.30395126342773 L 23.91988945007324 12.22835159301758 L 23.68721961975098 11.756911277771 L 19 2.259565114974976 L 14.31278038024902 11.756911277771 L 14.08010959625244 12.22835159301758 L 13.55984020233154 12.30395126342773 L 3.078895092010498 13.82692337036133 L 10.6629695892334 21.21957206726074 L 11.0394401550293 21.5865421295166 L 10.95057010650635 22.10470199584961 L 9.160210609436035 32.54330825805664 L 18.53466033935547 27.61487197875977 L 19 27.3702220916748 L 19.46533966064453 27.61487197875977 L 28.83978843688965 32.54330825805664 M 30.16791915893555 34.37132263183594 L 19 28.50000190734863 L 7.832079887390137 34.37132263183594 L 9.964960098266602 21.93566131591797 L 0.9299299716949463 13.12868118286133 L 13.41604042053223 11.31434154510498 L 19 1.315917984356929e-06 L 24.58395957946777 11.31434154510498 L 37.070068359375 13.12868118286133 L 28.0350399017334 21.93566131591797 L 30.16791915893555 34.37132263183594 Z" stroke="none" fill="#f62009"/>
  </g>
</svg>
