<svg xmlns="http://www.w3.org/2000/svg" width="17.119" height="16.281" viewBox="0 0 17.119 16.281">
  <g id="whitestar" transform="translate(-0.441)" fill="#fff" stroke-miterlimit="10">
    <path d="M 13.62600708007813 15.36714553833008 L 9.232669830322266 13.05742645263672 L 9 12.93510627746582 L 8.767330169677734 13.05742645263672 L 4.373992443084717 15.36714553833008 L 5.21304988861084 10.47509670257568 L 5.257490158081055 10.21601676940918 L 5.069260120391846 10.03253650665283 L 1.514969706535339 6.567963600158691 L 6.426869869232178 5.854226589202881 L 6.686999797821045 5.816426277160645 L 6.803339958190918 5.580706596374512 L 9 1.129775524139404 L 11.19666004180908 5.580706596374512 L 11.3129997253418 5.816426277160645 L 11.57312965393066 5.854226589202881 L 16.48503112792969 6.567963600158691 L 12.93074035644531 10.03253650665283 L 12.74250984191895 10.21601676940918 L 12.78695011138916 10.47509670257568 L 13.62600708007813 15.36714553833008 Z" stroke="none"/>
    <path d="M 12.96193408966064 14.45313835144043 L 12.29413986206055 10.55962657928467 L 12.2052698135376 10.04145622253418 L 12.5817403793335 9.67448616027832 L 15.41054153442383 6.917089939117432 L 11.50123023986816 6.34903621673584 L 10.98095989227295 6.273436546325684 L 10.74829006195068 5.801986217498779 L 9 2.259554862976074 L 7.251709938049316 5.801986217498779 L 7.019040107727051 6.273436546325684 L 6.498770236968994 6.34903621673584 L 2.589458703994751 6.917089939117432 L 5.418260097503662 9.67448616027832 L 5.794730186462402 10.04145622253418 L 5.705860137939453 10.55962657928467 L 5.038066387176514 14.45313835144043 L 8.534660339355469 12.61486625671387 L 9 12.37021636962891 L 9.465339660644531 12.61486625671387 L 12.96193408966064 14.45313835144043 M 14.29006958007813 16.28115653991699 L 9 13.49999618530273 L 3.709929943084717 16.28115653991699 L 4.720250129699707 10.39057636260986 L 0.4404900074005127 6.218846321105957 L 6.35496997833252 5.359426498413086 L 9 -3.63739013664599e-06 L 11.64503002166748 5.359426498413086 L 17.55950927734375 6.218846321105957 L 13.27974987030029 10.39057636260986 L 14.29006958007813 16.28115653991699 Z" stroke="none" fill="#fff"/>
  </g>
</svg>
